<?xml version="1.0" encoding="us-ascii" standalone="no"?><svg xmlns="http://www.w3.org/2000/svg" xmlns:xlink="http://www.w3.org/1999/xlink" contentStyleType="text/css" height="1110px" preserveAspectRatio="none" style="width:1690px;height:1110px;background:#FFFFFF;" version="1.1" viewBox="0 0 1690 1110" width="1690px" zoomAndPan="magnify"><defs/><g><text fill="#000000" font-family="sans-serif" font-size="14" font-weight="bold" lengthAdjust="spacing" textLength="387" x="641.5" y="22.9951">Workflow Request for Comments Netwerkmodel</text><!--cluster Dialoog--><g id="cluster_Dialoog"><path d="M536.5,44.2969 L912.5,44.2969 A12.5,12.5 0 0 1 925,56.7969 L925,65.5938 L524,65.5938 L524,56.7969 A12.5,12.5 0 0 1 536.5,44.2969 " fill="#9370D8" style="stroke:#9370D8;stroke-width:1.0;"/><rect fill="none" height="565" rx="12.5" ry="12.5" style="stroke:#181818;stroke-width:0.5;" width="401" x="524" y="44.2969"/><line style="stroke:#181818;stroke-width:0.5;" x1="524" x2="925" y1="65.5938" y2="65.5938"/><text fill="#000000" font-family="sans-serif" font-size="14" lengthAdjust="spacing" textLength="54" x="697.5" y="61.292">Dialoog</text></g><!--cluster ev--><g id="cluster_ev"><path d="M961.5,507.2969 L1198.5,507.2969 A12.5,12.5 0 0 1 1211,519.7969 L1211,528.5938 L949,528.5938 L949,519.7969 A12.5,12.5 0 0 1 961.5,507.2969 " fill="#6495ED" style="stroke:#6495ED;stroke-width:1.0;"/><rect fill="none" height="391" rx="12.5" ry="12.5" style="stroke:#181818;stroke-width:0.5;" width="262" x="949" y="507.2969"/><line style="stroke:#181818;stroke-width:0.5;" x1="949" x2="1211" y1="528.5938" y2="528.5938"/><text fill="#000000" font-family="sans-serif" font-size="14" lengthAdjust="spacing" textLength="155" x="1002.5" y="524.292">Eerst volgende versie</text></g><!--cluster lv--><g id="cluster_lv"><path d="M1247.5,783.2969 L1422.5,783.2969 A12.5,12.5 0 0 1 1435,795.7969 L1435,804.5938 L1235,804.5938 L1235,795.7969 A12.5,12.5 0 0 1 1247.5,783.2969 " fill="#3CB371" style="stroke:#3CB371;stroke-width:1.0;"/><rect fill="none" height="101" rx="12.5" ry="12.5" style="stroke:#181818;stroke-width:0.5;" width="200" x="1235" y="783.2969"/><line style="stroke:#181818;stroke-width:0.5;" x1="1235" x2="1435" y1="804.5938" y2="804.5938"/><text fill="#000000" font-family="sans-serif" font-size="14" lengthAdjust="spacing" textLength="110" x="1280" y="800.292">Lopende versie</text></g><!--cluster Afsprakenstelsel--><g id="cluster_Afsprakenstelsel"><path d="M1471.5,776.2969 L1664.5,776.2969 A12.5,12.5 0 0 1 1677,788.7969 L1677,797.5938 L1459,797.5938 L1459,788.7969 A12.5,12.5 0 0 1 1471.5,776.2969 " fill="#FF69B4" style="stroke:#FF69B4;stroke-width:1.0;"/><rect fill="none" height="328" rx="12.5" ry="12.5" style="stroke:#181818;stroke-width:0.5;" width="218" x="1459" y="776.2969"/><line style="stroke:#181818;stroke-width:0.5;" x1="1459" x2="1677" y1="797.5938" y2="797.5938"/><text fill="#000000" font-family="sans-serif" font-size="14" lengthAdjust="spacing" textLength="121" x="1507.5" y="793.292">Afsprakenstelsel</text></g><g id="Dialoog.Opstellen"><rect fill="#F1F1F1" height="50.2656" rx="12.5" ry="12.5" style="stroke:#181818;stroke-width:0.5;" width="129" x="647.5" y="79.2969"/><line style="stroke:#181818;stroke-width:0.5;" x1="647.5" x2="776.5" y1="105.5938" y2="105.5938"/><text fill="#000000" font-family="sans-serif" font-size="14" lengthAdjust="spacing" textLength="70" x="677" y="97.292">Opstellen</text><text fill="#000000" font-family="sans-serif" font-size="12" lengthAdjust="spacing" textLength="109" x="652.5" y="121.7324">Opstellen van RFC</text></g><g id="Dialoog.tr"><rect fill="#ADD8E6" height="50.2656" rx="12.5" ry="12.5" style="stroke:#181818;stroke-width:0.5;" width="182" x="727" y="203.2969"/><line style="stroke:#181818;stroke-width:0.5;" x1="727" x2="909" y1="229.5938" y2="229.5938"/><text fill="#000000" font-family="sans-serif" font-size="14" lengthAdjust="spacing" textLength="51" x="792.5" y="221.292">Review</text><text fill="#000000" font-family="sans-serif" font-size="12" lengthAdjust="spacing" textLength="162" x="732" y="245.7324">RFC is gereed voor review</text></g><g id="elem_c1"><polygon fill="#F1F1F1" points="818,320.2969,830,332.2969,818,344.2969,806,332.2969,818,320.2969" style="stroke:#181818;stroke-width:0.5;"/></g><g id="Dialoog.rv"><rect fill="#FFFFE0" height="64.2344" rx="12.5" ry="12.5" style="stroke:#181818;stroke-width:0.5;" width="151" x="540.5" y="196.2969"/><line style="stroke:#181818;stroke-width:0.5;" x1="540.5" x2="691.5" y1="222.5938" y2="222.5938"/><text fill="#000000" font-family="sans-serif" font-size="14" lengthAdjust="spacing" textLength="131" x="550.5" y="214.292">Review verwerken</text><text fill="#000000" font-family="sans-serif" font-size="12" lengthAdjust="spacing" textLength="120" x="545.5" y="238.7324">review commentaar</text><text fill="#000000" font-family="sans-serif" font-size="12" lengthAdjust="spacing" textLength="60" x="545.5" y="252.7012">ingediend</text></g><g id="Dialoog.Gereed"><rect fill="#90EE90" height="78.2031" rx="12.5" ry="12.5" style="stroke:#181818;stroke-width:0.5;" width="130" x="766" y="404.2969"/><line style="stroke:#181818;stroke-width:0.5;" x1="766" x2="896" y1="430.5938" y2="430.5938"/><text fill="#000000" font-family="sans-serif" font-size="14" lengthAdjust="spacing" textLength="53" x="804.5" y="422.292">Gereed</text><text fill="#000000" font-family="sans-serif" font-size="12" lengthAdjust="spacing" textLength="55" x="771" y="446.7324">RFC klaar</text><text fill="#000000" font-family="sans-serif" font-size="12" lengthAdjust="spacing" textLength="106" x="771" y="460.7012">voor beoordeling</text><text fill="#000000" font-family="sans-serif" font-size="12" lengthAdjust="spacing" textLength="63" x="771" y="474.6699">Koplopers</text></g><g id="elem_c2"><polygon fill="#F1F1F1" points="839,569.2969,851,581.2969,839,593.2969,827,581.2969,839,569.2969" style="stroke:#181818;stroke-width:0.5;"/></g><g id="ev.Concept"><rect fill="#FFFFE0" height="78.2031" rx="12.5" ry="12.5" style="stroke:#181818;stroke-width:0.5;" width="230" x="965" y="542.2969"/><line style="stroke:#181818;stroke-width:0.5;" x1="965" x2="1195" y1="568.5938" y2="568.5938"/><text fill="#000000" font-family="sans-serif" font-size="14" lengthAdjust="spacing" textLength="62" x="1049" y="560.292">Concept</text><text fill="#000000" font-family="sans-serif" font-size="12" lengthAdjust="spacing" textLength="206" x="970" y="584.7324">Impact is bepaald door koplopers</text><text fill="#000000" font-family="sans-serif" font-size="12" lengthAdjust="spacing" textLength="118" x="970" y="598.7012">en onderwerp voor</text><text fill="#000000" font-family="sans-serif" font-size="12" lengthAdjust="spacing" textLength="182" x="970" y="612.6699">eerst volgende implementatie</text></g><g id="elem_c3"><polygon fill="#F1F1F1" points="1080,700.2969,1092,712.2969,1080,724.2969,1068,712.2969,1080,700.2969" style="stroke:#181818;stroke-width:0.5;"/></g><g id="ev.Definitief"><rect fill="#ADD8E6" height="78.2031" rx="12.5" ry="12.5" style="stroke:#181818;stroke-width:0.5;" width="221" x="971.5" y="804.2969"/><line style="stroke:#181818;stroke-width:0.5;" x1="971.5" x2="1192.5" y1="830.5938" y2="830.5938"/><text fill="#000000" font-family="sans-serif" font-size="14" lengthAdjust="spacing" textLength="69" x="1047.5" y="822.292">Definitief</text><text fill="#000000" font-family="sans-serif" font-size="12" lengthAdjust="spacing" textLength="109" x="976.5" y="846.7324">RFC is akkoord en</text><text fill="#000000" font-family="sans-serif" font-size="12" lengthAdjust="spacing" textLength="196" x="976.5" y="860.7012">onderdeel van implementatie en</text><text fill="#000000" font-family="sans-serif" font-size="12" lengthAdjust="spacing" textLength="201" x="976.5" y="874.6699">implemenatie moment is bepaald</text></g><g id="lv.ip"><rect fill="#90EE90" height="50.2656" rx="12.5" ry="12.5" style="stroke:#181818;stroke-width:0.5;" width="168" x="1251" y="818.2969"/><line style="stroke:#181818;stroke-width:0.5;" x1="1251" x2="1419" y1="844.5938" y2="844.5938"/><text fill="#000000" font-family="sans-serif" font-size="14" lengthAdjust="spacing" textLength="87" x="1291.5" y="836.292">In productie</text><text fill="#000000" font-family="sans-serif" font-size="12" lengthAdjust="spacing" textLength="148" x="1256" y="860.7324">RFC is geimplementeerd</text></g><g id="Afsprakenstelsel.Verwerken"><rect fill="#FFFFE0" height="64.2344" rx="12.5" ry="12.5" style="stroke:#181818;stroke-width:0.5;" width="185" x="1475.5" y="811.2969"/><line style="stroke:#181818;stroke-width:0.5;" x1="1475.5" x2="1660.5" y1="837.5938" y2="837.5938"/><text fill="#000000" font-family="sans-serif" font-size="14" lengthAdjust="spacing" textLength="78" x="1529" y="829.292">Verwerken</text><text fill="#000000" font-family="sans-serif" font-size="12" lengthAdjust="spacing" textLength="159" x="1480.5" y="853.7324">Inhoud RFC moet verwerkt</text><text fill="#000000" font-family="sans-serif" font-size="12" lengthAdjust="spacing" textLength="165" x="1480.5" y="867.7012">worden in Afsprakenstelsel</text></g><g id="Afsprakenstelsel.Verwerkt"><rect fill="#90EE90" height="64.2344" rx="12.5" ry="12.5" style="stroke:#181818;stroke-width:0.5;" width="148" x="1494" y="942.2969"/><line style="stroke:#181818;stroke-width:0.5;" x1="1494" x2="1642" y1="968.5938" y2="968.5938"/><text fill="#000000" font-family="sans-serif" font-size="14" lengthAdjust="spacing" textLength="67" x="1534.5" y="960.292">Verwerkt</text><text fill="#000000" font-family="sans-serif" font-size="12" lengthAdjust="spacing" textLength="124" x="1499" y="984.7324">Inhoud RFC verwerkt</text><text fill="#000000" font-family="sans-serif" font-size="12" lengthAdjust="spacing" textLength="115" x="1499" y="998.7012">in Afsprakenstelsel</text></g><ellipse cx="1568" cy="1077.2969" fill="none" rx="11" ry="11" style="stroke:#222222;stroke-width:1.0;"/><ellipse cx="1568" cy="1077.2969" fill="#222222" rx="6" ry="6" style="stroke:#222222;stroke-width:1.0;"/><g id="Backlog"><rect fill="#D3D3D3" height="64.2344" rx="12.5" ry="12.5" style="stroke:#181818;stroke-width:0.5;" width="210" x="61" y="72.2969"/><line style="stroke:#181818;stroke-width:0.5;" x1="61" x2="271" y1="98.5938" y2="98.5938"/><text fill="#000000" font-family="sans-serif" font-size="14" lengthAdjust="spacing" textLength="57" x="137.5" y="90.292">Backlog</text><text fill="#000000" font-family="sans-serif" font-size="12" lengthAdjust="spacing" textLength="186" x="66" y="114.7324">Verzameling van onderwerpen</text><text fill="#000000" font-family="sans-serif" font-size="12" lengthAdjust="spacing" textLength="82" x="66" y="128.7012">(alleen issue)</text></g><g id="Draft"><rect fill="#FFA500" height="64.2344" rx="12.5" ry="12.5" style="stroke:#181818;stroke-width:0.5;" width="201" x="306.5" y="72.2969"/><line style="stroke:#181818;stroke-width:0.5;" x1="306.5" x2="507.5" y1="98.5938" y2="98.5938"/><text fill="#000000" font-family="sans-serif" font-size="14" lengthAdjust="spacing" textLength="38" x="388" y="90.292">Draft</text><text fill="#000000" font-family="sans-serif" font-size="12" lengthAdjust="spacing" textLength="177" x="311.5" y="114.7324">Eerste vulling per onderwerp</text><text fill="#000000" font-family="sans-serif" font-size="12" lengthAdjust="spacing" textLength="123" x="311.5" y="128.7012">(issue + markdown)</text></g><ellipse cx="16" cy="104.2969" fill="#222222" rx="10" ry="10" style="stroke:#222222;stroke-width:1.0;"/><g id="Vervallen"><rect fill="#F08080" height="64.2344" rx="12.5" ry="12.5" style="stroke:#181818;stroke-width:0.5;" width="138" x="786" y="680.2969"/><line style="stroke:#181818;stroke-width:0.5;" x1="786" x2="924" y1="706.5938" y2="706.5938"/><text fill="#000000" font-family="sans-serif" font-size="14" lengthAdjust="spacing" textLength="67" x="821.5" y="698.292">Vervallen</text><text fill="#000000" font-family="sans-serif" font-size="12" lengthAdjust="spacing" textLength="111" x="791" y="722.7324">RFC is vervallen of</text><text fill="#000000" font-family="sans-serif" font-size="12" lengthAdjust="spacing" textLength="118" x="791" y="736.7012">er is een alternatief</text></g><ellipse cx="855" cy="843.2969" fill="none" rx="11" ry="11" style="stroke:#222222;stroke-width:1.0;"/><ellipse cx="855" cy="843.2969" fill="#222222" rx="6" ry="6" style="stroke:#222222;stroke-width:1.0;"/><!--link *start* to Backlog--><g id="link_*start*_Backlog"><path d="M26.2539,104.2969 C37.8084,104.2969 43.363,104.2969 54.9175,104.2969 " fill="none" id="*start*-to-Backlog" style="stroke:#181818;stroke-width:1.0;"/><polygon fill="#181818" points="60.9175,104.2969,51.9175,100.2969,55.9175,104.2969,51.9175,108.2969,60.9175,104.2969" style="stroke:#181818;stroke-width:1.0;"/></g><!--link Backlog to Draft--><g id="link_Backlog_Draft"><path d="M271.438,104.2969 C283.087,104.2969 288.737,104.2969 300.387,104.2969 " fill="none" id="Backlog-to-Draft" style="stroke:#181818;stroke-width:1.0;"/><polygon fill="#181818" points="306.387,104.2969,297.387,100.2969,301.387,104.2969,297.387,108.2969,306.387,104.2969" style="stroke:#181818;stroke-width:1.0;"/></g><!--link Opstellen to tr--><g id="link_Opstellen_tr"><path d="M732.942,129.3999 C751.525,150.7889 774.5958,177.3416 793.1658,198.7146 " fill="none" id="Opstellen-to-tr" style="stroke:#181818;stroke-width:1.0;"/><polygon fill="#181818" points="797.101,203.2439,794.2176,193.8265,793.8216,199.4695,788.1787,199.0735,797.101,203.2439" style="stroke:#181818;stroke-width:1.0;"/></g><!--link tr to c1--><g id="link_tr_c1"><path d="M818,253.4699 C818,274.5599 818,298.2069 818,314.1339 " fill="none" id="tr-to-c1" style="stroke:#181818;stroke-width:1.0;"/><polygon fill="#181818" points="818,320.1339,822,311.1339,818,315.1339,814,311.1339,818,320.1339" style="stroke:#181818;stroke-width:1.0;"/></g><!--link c1 to rv--><g id="link_c1_rv"><path d="M810.431,327.4749 C788.938,316.6219 731.3039,287.5193 682.7849,263.0203 " fill="none" id="c1-to-rv" style="stroke:#181818;stroke-width:1.0;"/><polygon fill="#181818" points="677.429,260.3159,683.66,267.9431,681.8923,262.5696,687.2659,260.8019,677.429,260.3159" style="stroke:#181818;stroke-width:1.0;"/></g><!--link c1 to Gereed--><g id="link_c1_Gereed"><path d="M819.2,343.3559 C820.834,357.0589 823.1403,376.4011 825.7153,397.9861 " fill="none" id="c1-to-Gereed" style="stroke:#181818;stroke-width:1.0;"/><polygon fill="#181818" points="826.426,403.9439,829.3317,394.5334,825.8337,398.9791,821.3881,395.4811,826.426,403.9439" style="stroke:#181818;stroke-width:1.0;"/></g><!--link rv to tr--><g id="link_rv_tr"><path d="M691.75,228.2969 C703.422,228.2969 709.093,228.2969 720.765,228.2969 " fill="none" id="rv-to-tr" style="stroke:#181818;stroke-width:1.0;"/><polygon fill="#181818" points="726.765,228.2969,717.765,224.2969,721.765,228.2969,717.765,232.2969,726.765,228.2969" style="stroke:#181818;stroke-width:1.0;"/></g><!--link Gereed to c2--><g id="link_Gereed_c2"><path d="M833.25,482.5429 C834.997,512.2399 836.9454,545.3792 838.0314,563.8272 " fill="none" id="Gereed-to-c2" style="stroke:#181818;stroke-width:1.0;"/><polygon fill="#181818" points="838.384,569.8169,841.8482,560.5974,838.0902,564.8255,833.862,561.0675,838.384,569.8169" style="stroke:#181818;stroke-width:1.0;"/></g><!--link c2 to rv--><g id="link_c2_rv"><path d="M833.098,575.0139 C817.698,561.0179 775.581,521.3719 748,482.2969 C695.433,407.8219 652.6162,315.2143 631.3532,265.9143 " fill="none" id="c2-to-rv" style="stroke:#181818;stroke-width:1.0;"/><polygon fill="#181818" points="628.977,260.4049,628.8684,270.2531,630.9572,264.9961,636.2142,267.0849,628.977,260.4049" style="stroke:#181818;stroke-width:1.0;"/></g><!--link Draft to Opstellen--><g id="link_Draft_Opstellen"><path d="M507.674,104.2969 C554.233,104.2969 594.791,104.2969 641.35,104.2969 " fill="none" id="Draft-to-Opstellen" style="stroke:#181818;stroke-width:1.0;"/><polygon fill="#181818" points="647.35,104.2969,638.35,100.2969,642.35,104.2969,638.35,108.2969,647.35,104.2969" style="stroke:#181818;stroke-width:1.0;"/></g><!--link Concept to c3--><g id="link_Concept_c3"><path d="M1080,620.3039 C1080,647.6529 1080,676.6949 1080,694.2429 " fill="none" id="Concept-to-c3" style="stroke:#181818;stroke-width:1.0;"/><polygon fill="#181818" points="1080,700.2429,1084,691.2429,1080,695.2429,1076,691.2429,1080,700.2429" style="stroke:#181818;stroke-width:1.0;"/></g><!--link c3 to Definitief--><g id="link_c3_Definitief"><path d="M1080.17,724.2949 C1080.44,741.7819 1080.8857,770.7426 1081.3157,798.0926 " fill="none" id="c3-to-Definitief" style="stroke:#181818;stroke-width:1.0;"/><polygon fill="#181818" points="1081.41,804.0919,1085.268,795.0301,1081.3314,799.0925,1077.269,795.1559,1081.41,804.0919" style="stroke:#181818;stroke-width:1.0;"/></g><!--link c2 to Concept--><g id="link_c2_Concept"><path d="M851.238,581.2969 C889.067,581.2969 920.896,581.2969 958.726,581.2969 " fill="none" id="c2-to-Concept" style="stroke:#181818;stroke-width:1.0;"/><polygon fill="#181818" points="964.726,581.2969,955.726,577.2969,959.726,581.2969,955.726,585.2969,964.726,581.2969" style="stroke:#181818;stroke-width:1.0;"/></g><!--link Definitief to ip--><g id="link_Definitief_ip"><path d="M1192.69,843.2969 C1212.05,843.2969 1225.42,843.2969 1244.78,843.2969 " fill="none" id="Definitief-to-ip" style="stroke:#181818;stroke-width:1.0;"/><polygon fill="#181818" points="1250.78,843.2969,1241.78,839.2969,1245.78,843.2969,1241.78,847.2969,1250.78,843.2969" style="stroke:#181818;stroke-width:1.0;"/></g><!--link Verwerken to Verwerkt--><g id="link_Verwerken_Verwerkt"><path d="M1568,875.5239 C1568,895.6569 1568,915.7459 1568,935.9099 " fill="none" id="Verwerken-to-Verwerkt" style="stroke:#181818;stroke-width:1.0;"/><polygon fill="#181818" points="1568,941.9099,1572,932.9099,1568,936.9099,1564,932.9099,1568,941.9099" style="stroke:#181818;stroke-width:1.0;"/></g><!--link Verwerkt to *end*Afsprakenstelsel--><g id="link_Verwerkt_*end*Afsprakenstelsel"><path d="M1568,1006.4239 C1568,1026.8267 1568,1046.2015 1568,1060.0684 " fill="none" id="Verwerkt-to-*end*Afsprakenstelsel" style="stroke:#181818;stroke-width:1.0;"/><polygon fill="#181818" points="1568,1066.0684,1572,1057.0684,1568,1061.0684,1564,1057.0684,1568,1066.0684" style="stroke:#181818;stroke-width:1.0;"/></g><!--link ip to Verwerken--><g id="link_ip_Verwerken"><path d="M1419.19,843.2969 C1437.89,843.2969 1450.59,843.2969 1469.28,843.2969 " fill="none" id="ip-to-Verwerken" style="stroke:#181818;stroke-width:1.0;"/><polygon fill="#181818" points="1475.28,843.2969,1466.28,839.2969,1470.28,843.2969,1466.28,847.2969,1475.28,843.2969" style="stroke:#181818;stroke-width:1.0;"/></g><!--link c2 to Vervallen--><g id="link_c2_Vervallen"><path d="M840.255,592.4189 C842.569,611.0699 846.8514,645.6015 850.3894,674.1255 " fill="none" id="c2-to-Vervallen" style="stroke:#181818;stroke-width:1.0;"/><polygon fill="#181818" points="851.128,680.0799,853.9897,670.6559,850.5125,675.1179,846.0506,671.6407,851.128,680.0799" style="stroke:#181818;stroke-width:1.0;"/></g><!--link c3 to Vervallen--><g id="link_c3_Vervallen"><path d="M1067.85,712.2969 C1020.04,712.2969 978.238,712.2969 930.434,712.2969 " fill="none" id="c3-to-Vervallen" style="stroke:#181818;stroke-width:1.0;"/><polygon fill="#181818" points="924.434,712.2969,933.434,716.2969,929.434,712.2969,933.434,708.2969,924.434,712.2969" style="stroke:#181818;stroke-width:1.0;"/></g><!--link Vervallen to *end*--><g id="link_Vervallen_*end*"><path d="M855,744.5239 C855,773.0089 855,807.4149 855,826.0969 " fill="none" id="Vervallen-to-*end*" style="stroke:#181818;stroke-width:1.0;"/><polygon fill="#181818" points="855,832.0969,859,823.0969,855,827.0969,851,823.0969,855,832.0969" style="stroke:#181818;stroke-width:1.0;"/></g><!--SRC=[RLJ1Rjim3BtxAuZaicxeeUcjA0AiwTOLwzQY0peCwmwgHQU2PScJPGVRq7yVHLcncYI78AAenyVto7ZbDS9tw-fAsmtSu-yUEm-LTR2oJOF6T_0L_GPTtLY9kYWwBpp2XIXhRTSmlr7hPt_bn1yuWmTqVqM3Mfar3CA0DH8TFMtHmADv8xH6-gMwhiUZ4UVIYSh3_DO9iqQ2-82ke_3GQqPfqKqe0OCVmpjeXAkbtPYZee2VRt_1yJ9HAhRSA1RXYyJwKWbj0-ilA5NVtFMkfUx_5K2Vc77RKddYQOZBz3iqS_znbUNDxd5Gk9c1wC2xKOOBtOSUA9EQX3KwH0c39IqTPsVlonCuFo-VhIfnkTp7XO5Rhj5m1JUC5NuG7xBf34P4AAD9GZXIXnIZlj383F0giaW-8NSM6DOwFc9-JqZVCZhtQ3xRLbkIlii9BtB2V37fSqnIUyT14YESoXC-KPlXHFppuyY9GtGrFHul660HNoos02zKDVf9WMtjPEsC9uVKrciI08E0dK9M3qczbNKcJ3WwDYctV6LDYQtVLVYwQKNfWv5Fs0gX9SYWL9sq8Pqm6_7eCyLUqr0DJHWxv1NcSfuUzlyIAsKKvLO7PqhKTJ0AUA6ujaJKF9-lAiM45E98OyDbrayqCNNFcfz6pK_vD55XwOCJovI-LVs6jDYHMmzflxwXY1ENopsxDj0wA_lIZmzKUs0yUO6sFP6gCWx0f0-nKMqYyhxgMYTeNy9OT2J9_9FrTyhKhse_fAtQCziysrvouSQYJ-ldISHDM0oIr-pLs0VsEurai1dY8IZ6ckW5_HDcVXLzeZyy4YFeDgLDcq21GV1QHZ8q-a9FgWxRQrk5UNKX6EWAxT7nh5H5CUxTX5M4gSW2nNGrKleF]--></g></svg>