<svg xmlns="http://www.w3.org/2000/svg" xmlns:xlink="http://www.w3.org/1999/xlink" contentStyleType="text/css" height="797px" preserveAspectRatio="none" style="width:1256px;height:797px;background:#FFFFFF;" version="1.1" viewBox="0 0 1256 797" width="1256px" zoomAndPan="magnify"><defs/><g><rect fill="#DDDDDD" height="785.3828" style="stroke:#181818;stroke-width:0.5;" width="102.5303" x="11" y="6"/><text fill="#000000" font-family="sans-serif" font-size="13" font-weight="bold" lengthAdjust="spacing" textLength="79.7266" x="22.4019" y="18.0669">Deelnemer</text><rect fill="#DDDDDD" height="785.3828" style="stroke:#181818;stroke-width:0.5;" width="686.127" x="272.7017" y="6"/><text fill="#000000" font-family="sans-serif" font-size="13" font-weight="bold" lengthAdjust="spacing" textLength="24.8828" x="603.3237" y="18.0669">nID</text><rect fill="#DDDDDD" height="785.3828" style="stroke:#181818;stroke-width:0.5;" width="178.1016" x="1072.8306" y="6"/><text fill="#000000" font-family="sans-serif" font-size="13" font-weight="bold" lengthAdjust="spacing" textLength="61.769" x="1130.9968" y="18.0669">Register</text><rect fill="#FFFFFF" height="279.0625" style="stroke:#181818;stroke-width:1.0;" width="10" x="57.2651" y="66.4297"/><rect fill="#FFFFFF" height="349.3281" style="stroke:#181818;stroke-width:1.0;" width="10" x="57.2651" y="389.7578"/><rect fill="#FFFFFF" height="227.6641" style="stroke:#181818;stroke-width:1.0;" width="10" x="358.3691" y="117.8281"/><rect fill="#D3D3D3" height="112.2656" style="stroke:#181818;stroke-width:1.0;" width="10" x="363.3691" y="197.0938"/><rect fill="#A9A9A9" height="28" style="stroke:#181818;stroke-width:1.0;" width="10" x="368.3691" y="281.3594"/><rect fill="#FFFFFF" height="349.3281" style="stroke:#181818;stroke-width:1.0;" width="10" x="642.5439" y="389.7578"/><rect fill="#D3D3D3" height="142.5313" style="stroke:#181818;stroke-width:1.0;" width="10" x="647.5439" y="538.2891"/><rect fill="#FFFFFF" height="113.3984" style="stroke:#181818;stroke-width:1.0;" width="10" x="908.9961" y="538.2891"/><rect fill="#FFFFFF" height="29.1328" style="stroke:#181818;stroke-width:1.0;" width="10" x="1156.8813" y="680.8203"/><line style="stroke:#181818;stroke-width:0.5;stroke-dasharray:5.0,5.0;" x1="62" x2="62" y1="56.4297" y2="757.0859"/><line style="stroke:#181818;stroke-width:0.5;stroke-dasharray:5.0,5.0;" x1="362.7017" x2="362.7017" y1="56.4297" y2="757.0859"/><line style="stroke:#181818;stroke-width:0.5;stroke-dasharray:5.0,5.0;" x1="646.6787" x2="646.6787" y1="56.4297" y2="757.0859"/><line style="stroke:#181818;stroke-width:0.5;stroke-dasharray:5.0,5.0;" x1="913.1636" x2="913.1636" y1="56.4297" y2="757.0859"/><line style="stroke:#181818;stroke-width:0.5;stroke-dasharray:5.0,5.0;" x1="1161.8306" x2="1161.8306" y1="56.4297" y2="757.0859"/><rect fill="#E2E2F0" height="30.2969" rx="2.5" ry="2.5" style="stroke:#181818;stroke-width:0.5;" width="54.5303" x="35" y="25.1328"/><text fill="#000000" font-family="sans-serif" font-size="14" lengthAdjust="spacing" textLength="40.5303" x="42" y="45.1279">Client</text><rect fill="#E2E2F0" height="30.2969" rx="2.5" ry="2.5" style="stroke:#181818;stroke-width:0.5;" width="54.5303" x="35" y="756.0859"/><text fill="#000000" font-family="sans-serif" font-size="14" lengthAdjust="spacing" textLength="40.5303" x="42" y="776.0811">Client</text><rect fill="#E2E2F0" height="30.2969" rx="2.5" ry="2.5" style="stroke:#181818;stroke-width:0.5;" width="133.335" x="296.7017" y="25.1328"/><text fill="#000000" font-family="sans-serif" font-size="14" lengthAdjust="spacing" textLength="119.335" x="303.7017" y="45.1279">autorisatieserver</text><rect fill="#E2E2F0" height="30.2969" rx="2.5" ry="2.5" style="stroke:#181818;stroke-width:0.5;" width="133.335" x="296.7017" y="756.0859"/><text fill="#000000" font-family="sans-serif" font-size="14" lengthAdjust="spacing" textLength="119.335" x="303.7017" y="776.0811">autorisatieserver</text><rect fill="#E2E2F0" height="30.2969" rx="2.5" ry="2.5" style="stroke:#181818;stroke-width:0.5;" width="39.7305" x="627.6787" y="25.1328"/><text fill="#000000" font-family="sans-serif" font-size="14" lengthAdjust="spacing" textLength="25.7305" x="634.6787" y="45.1279">PEP</text><rect fill="#E2E2F0" height="30.2969" rx="2.5" ry="2.5" style="stroke:#181818;stroke-width:0.5;" width="39.7305" x="627.6787" y="756.0859"/><text fill="#000000" font-family="sans-serif" font-size="14" lengthAdjust="spacing" textLength="25.7305" x="634.6787" y="776.0811">PEP</text><rect fill="#E2E2F0" height="30.2969" rx="2.5" ry="2.5" style="stroke:#181818;stroke-width:0.5;" width="41.665" x="893.1636" y="25.1328"/><text fill="#000000" font-family="sans-serif" font-size="14" lengthAdjust="spacing" textLength="27.665" x="900.1636" y="45.1279">PDP</text><rect fill="#E2E2F0" height="30.2969" rx="2.5" ry="2.5" style="stroke:#181818;stroke-width:0.5;" width="41.665" x="893.1636" y="756.0859"/><text fill="#000000" font-family="sans-serif" font-size="14" lengthAdjust="spacing" textLength="27.665" x="900.1636" y="776.0811">PDP</text><rect fill="#E2E2F0" height="30.2969" rx="2.5" ry="2.5" style="stroke:#181818;stroke-width:0.5;" width="130.1016" x="1096.8306" y="25.1328"/><text fill="#000000" font-family="sans-serif" font-size="14" lengthAdjust="spacing" textLength="116.1016" x="1103.8306" y="45.1279">Resource-Server</text><rect fill="#E2E2F0" height="30.2969" rx="2.5" ry="2.5" style="stroke:#181818;stroke-width:0.5;" width="130.1016" x="1096.8306" y="756.0859"/><text fill="#000000" font-family="sans-serif" font-size="14" lengthAdjust="spacing" textLength="116.1016" x="1103.8306" y="776.0811">Resource-Server</text><rect fill="#FFFFFF" height="279.0625" style="stroke:#181818;stroke-width:1.0;" width="10" x="57.2651" y="66.4297"/><rect fill="#FFFFFF" height="349.3281" style="stroke:#181818;stroke-width:1.0;" width="10" x="57.2651" y="389.7578"/><rect fill="#FFFFFF" height="227.6641" style="stroke:#181818;stroke-width:1.0;" width="10" x="358.3691" y="117.8281"/><rect fill="#D3D3D3" height="112.2656" style="stroke:#181818;stroke-width:1.0;" width="10" x="363.3691" y="197.0938"/><rect fill="#A9A9A9" height="28" style="stroke:#181818;stroke-width:1.0;" width="10" x="368.3691" y="281.3594"/><rect fill="#FFFFFF" height="349.3281" style="stroke:#181818;stroke-width:1.0;" width="10" x="642.5439" y="389.7578"/><rect fill="#D3D3D3" height="142.5313" style="stroke:#181818;stroke-width:1.0;" width="10" x="647.5439" y="538.2891"/><rect fill="#FFFFFF" height="113.3984" style="stroke:#181818;stroke-width:1.0;" width="10" x="908.9961" y="538.2891"/><rect fill="#FFFFFF" height="29.1328" style="stroke:#181818;stroke-width:1.0;" width="10" x="1156.8813" y="680.8203"/><polygon fill="#181818" points="346.3691,113.8281,356.3691,117.8281,346.3691,121.8281,350.3691,117.8281" style="stroke:#181818;stroke-width:1.0;"/><line style="stroke:#181818;stroke-width:1.0;" x1="67.2651" x2="352.3691" y1="117.8281" y2="117.8281"/><text fill="#000000" font-family="sans-serif" font-size="13" font-weight="bold" lengthAdjust="spacing" textLength="39.019" x="74.2651" y="97.6294">[001]</text><text fill="#000000" font-family="sans-serif" font-size="13" font-weight="bold" lengthAdjust="spacing" textLength="194.7144" x="117.2842" y="82.4966">Aanvragen van autorisatie</text><text fill="#000000" font-family="sans-serif" font-size="13" lengthAdjust="spacing" textLength="222.8662" x="117.2842" y="97.6294">"scope": "registers/resource:read"</text><text fill="#000000" font-family="sans-serif" font-size="13" lengthAdjust="spacing" textLength="131.625" x="121.4165" y="112.7622">Authenticatiemiddel</text><line style="stroke:#181818;stroke-width:1.0;" x1="368.3691" x2="410.3691" y1="146.9609" y2="146.9609"/><line style="stroke:#181818;stroke-width:1.0;" x1="410.3691" x2="410.3691" y1="146.9609" y2="159.9609"/><line style="stroke:#181818;stroke-width:1.0;" x1="369.3691" x2="410.3691" y1="159.9609" y2="159.9609"/><polygon fill="#181818" points="379.3691,155.9609,369.3691,159.9609,379.3691,163.9609,375.3691,159.9609" style="stroke:#181818;stroke-width:1.0;"/><text fill="#000000" font-family="sans-serif" font-size="13" font-weight="bold" lengthAdjust="spacing" textLength="39.019" x="375.3691" y="141.895">[002]</text><text fill="#000000" font-family="sans-serif" font-size="13" lengthAdjust="spacing" textLength="189.4331" x="418.3882" y="141.895">Valideer Authenticatiemiddel</text><line style="stroke:#181818;stroke-width:1.0;" x1="368.3691" x2="415.3691" y1="184.0938" y2="184.0938"/><line style="stroke:#181818;stroke-width:1.0;" x1="415.3691" x2="415.3691" y1="184.0938" y2="197.0938"/><line style="stroke:#181818;stroke-width:1.0;" x1="374.3691" x2="415.3691" y1="197.0938" y2="197.0938"/><polygon fill="#181818" points="384.3691,193.0938,374.3691,197.0938,384.3691,201.0938,380.3691,197.0938" style="stroke:#181818;stroke-width:1.0;"/><text fill="#000000" font-family="sans-serif" font-size="13" font-weight="bold" lengthAdjust="spacing" textLength="39.019" x="380.3691" y="179.0278">[003]</text><text fill="#000000" font-family="sans-serif" font-size="13" lengthAdjust="spacing" textLength="207.1558" x="423.3882" y="179.0278">Run Rule-engine o.b.v. scope(s)</text><line style="stroke:#181818;stroke-width:1.0;" x1="373.3691" x2="415.3691" y1="231.2266" y2="231.2266"/><line style="stroke:#181818;stroke-width:1.0;" x1="415.3691" x2="415.3691" y1="231.2266" y2="244.2266"/><line style="stroke:#181818;stroke-width:1.0;" x1="374.3691" x2="415.3691" y1="244.2266" y2="244.2266"/><polygon fill="#181818" points="384.3691,240.2266,374.3691,244.2266,384.3691,248.2266,380.3691,244.2266" style="stroke:#181818;stroke-width:1.0;"/><text fill="#000000" font-family="sans-serif" font-size="13" font-weight="bold" lengthAdjust="spacing" textLength="39.019" x="380.3691" y="226.1606">[004]</text><text fill="#000000" font-family="sans-serif" font-size="13" lengthAdjust="spacing" textLength="127.4673" x="423.3882" y="226.1606">Valideer autorisatie</text><line style="stroke:#181818;stroke-width:1.0;" x1="378.3691" x2="420.3691" y1="273.3594" y2="273.3594"/><line style="stroke:#181818;stroke-width:1.0;" x1="420.3691" x2="420.3691" y1="273.3594" y2="286.3594"/><line style="stroke:#181818;stroke-width:1.0;" x1="379.3691" x2="420.3691" y1="286.3594" y2="286.3594"/><polygon fill="#181818" points="389.3691,282.3594,379.3691,286.3594,389.3691,290.3594,385.3691,286.3594" style="stroke:#181818;stroke-width:1.0;"/><text fill="#000000" font-family="sans-serif" font-size="13" font-weight="bold" lengthAdjust="spacing" textLength="39.019" x="385.3691" y="268.2935">[005]</text><text fill="#000000" font-family="sans-serif" font-size="13" lengthAdjust="spacing" textLength="182.9712" x="428.3882" y="268.2935">Genereer JWT Access-Token</text><polygon fill="#181818" points="73.2651,341.4922,63.2651,345.4922,73.2651,349.4922,69.2651,345.4922" style="stroke:#181818;stroke-width:1.0;"/><line style="stroke:#181818;stroke-width:1.0;stroke-dasharray:2.0,2.0;" x1="67.2651" x2="362.3691" y1="345.4922" y2="345.4922"/><text fill="#000000" font-family="sans-serif" font-size="13" font-weight="bold" lengthAdjust="spacing" textLength="39.019" x="79.2651" y="340.4263">[006]</text><text fill="#000000" font-family="sans-serif" font-size="13" lengthAdjust="spacing" textLength="224.085" x="122.2842" y="340.4263">200 Response (JWT Access-Token)</text><polygon fill="#181818" points="630.5439,385.7578,640.5439,389.7578,630.5439,393.7578,634.5439,389.7578" style="stroke:#181818;stroke-width:1.0;"/><line style="stroke:#181818;stroke-width:1.0;" x1="67.2651" x2="636.5439" y1="389.7578" y2="389.7578"/><text fill="#000000" font-family="sans-serif" font-size="13" font-weight="bold" lengthAdjust="spacing" textLength="39.019" x="74.2651" y="377.1255">[007]</text><text fill="#000000" font-family="sans-serif" font-size="13" font-weight="bold" lengthAdjust="spacing" textLength="128.4321" x="117.2842" y="369.5591">GraphQL Request</text><text fill="#000000" font-family="sans-serif" font-size="13" lengthAdjust="spacing" textLength="327.2915" x="117.2842" y="384.6919">Authenticatiemiddel + JWT Access-Token + Query</text><path d="M657,402.7578 L657,427.7578 L828,427.7578 L828,412.7578 L818,402.7578 L657,402.7578 " fill="#FEFFDD" style="stroke:#181818;stroke-width:0.5;"/><path d="M818,402.7578 L818,412.7578 L828,412.7578 L818,402.7578 " fill="#FEFFDD" style="stroke:#181818;stroke-width:0.5;"/><text fill="#000000" font-family="sans-serif" font-size="13" lengthAdjust="spacing" textLength="150.6172" x="663" y="419.8247">Inline filtering requests</text><line style="stroke:#181818;stroke-width:1.0;" x1="652.5439" x2="694.5439" y1="454.0234" y2="454.0234"/><line style="stroke:#181818;stroke-width:1.0;" x1="694.5439" x2="694.5439" y1="454.0234" y2="467.0234"/><line style="stroke:#181818;stroke-width:1.0;" x1="653.5439" x2="694.5439" y1="467.0234" y2="467.0234"/><polygon fill="#181818" points="663.5439,463.0234,653.5439,467.0234,663.5439,471.0234,659.5439,467.0234" style="stroke:#181818;stroke-width:1.0;"/><text fill="#000000" font-family="sans-serif" font-size="13" font-weight="bold" lengthAdjust="spacing" textLength="39.019" x="659.5439" y="448.9575">[008]</text><text fill="#000000" font-family="sans-serif" font-size="13" lengthAdjust="spacing" textLength="189.4331" x="702.563" y="448.9575">Valideer Authenticatiemiddel</text><line style="stroke:#181818;stroke-width:1.0;" x1="652.5439" x2="694.5439" y1="496.1563" y2="496.1563"/><line style="stroke:#181818;stroke-width:1.0;" x1="694.5439" x2="694.5439" y1="496.1563" y2="509.1563"/><line style="stroke:#181818;stroke-width:1.0;" x1="653.5439" x2="694.5439" y1="509.1563" y2="509.1563"/><polygon fill="#181818" points="663.5439,505.1563,653.5439,509.1563,663.5439,513.1563,659.5439,509.1563" style="stroke:#181818;stroke-width:1.0;"/><text fill="#000000" font-family="sans-serif" font-size="13" font-weight="bold" lengthAdjust="spacing" textLength="39.019" x="659.5439" y="491.0903">[009]</text><text fill="#000000" font-family="sans-serif" font-size="13" lengthAdjust="spacing" textLength="146.8911" x="702.563" y="491.0903">Valideer Access-Token</text><polygon fill="#181818" points="896.9961,534.2891,906.9961,538.2891,896.9961,542.2891,900.9961,538.2891" style="stroke:#181818;stroke-width:1.0;"/><line style="stroke:#181818;stroke-width:1.0;" x1="657.5439" x2="902.9961" y1="538.2891" y2="538.2891"/><text fill="#000000" font-family="sans-serif" font-size="13" font-weight="bold" lengthAdjust="spacing" textLength="39.019" x="664.5439" y="533.2231">[010]</text><text fill="#000000" font-family="sans-serif" font-size="13" lengthAdjust="spacing" textLength="176.6489" x="707.563" y="533.2231">Query met policy valideren</text><line style="stroke:#181818;stroke-width:1.0;" x1="918.9961" x2="960.9961" y1="567.4219" y2="567.4219"/><line style="stroke:#181818;stroke-width:1.0;" x1="960.9961" x2="960.9961" y1="567.4219" y2="580.4219"/><line style="stroke:#181818;stroke-width:1.0;" x1="919.9961" x2="960.9961" y1="580.4219" y2="580.4219"/><polygon fill="#181818" points="929.9961,576.4219,919.9961,580.4219,929.9961,584.4219,925.9961,580.4219" style="stroke:#181818;stroke-width:1.0;"/><text fill="#000000" font-family="sans-serif" font-size="13" font-weight="bold" lengthAdjust="spacing" textLength="39.019" x="925.9961" y="562.356">[011]</text><text fill="#000000" font-family="sans-serif" font-size="13" lengthAdjust="spacing" textLength="95.3354" x="969.0151" y="562.356">Valideer query</text><line style="stroke:#181818;stroke-width:1.0;" x1="918.9961" x2="960.9961" y1="609.5547" y2="609.5547"/><line style="stroke:#181818;stroke-width:1.0;" x1="960.9961" x2="960.9961" y1="609.5547" y2="622.5547"/><line style="stroke:#181818;stroke-width:1.0;" x1="919.9961" x2="960.9961" y1="622.5547" y2="622.5547"/><polygon fill="#181818" points="929.9961,618.5547,919.9961,622.5547,929.9961,626.5547,925.9961,622.5547" style="stroke:#181818;stroke-width:1.0;"/><text fill="#000000" font-family="sans-serif" font-size="13" font-weight="bold" lengthAdjust="spacing" textLength="39.019" x="925.9961" y="604.4888">[012]</text><text fill="#000000" font-family="sans-serif" font-size="13" lengthAdjust="spacing" textLength="170.8662" x="969.0151" y="604.4888">Verify context information</text><polygon fill="#181818" points="668.5439,647.6875,658.5439,651.6875,668.5439,655.6875,664.5439,651.6875" style="stroke:#181818;stroke-width:1.0;"/><line style="stroke:#181818;stroke-width:1.0;" x1="662.5439" x2="912.9961" y1="651.6875" y2="651.6875"/><text fill="#000000" font-family="sans-serif" font-size="13" font-weight="bold" lengthAdjust="spacing" textLength="39.019" x="674.5439" y="646.6216">[013]</text><text fill="#000000" font-family="sans-serif" font-size="13" lengthAdjust="spacing" textLength="93.666" x="717.563" y="646.6216">Query allowed</text><polygon fill="#181818" points="1144.8813,676.8203,1154.8813,680.8203,1144.8813,684.8203,1148.8813,680.8203" style="stroke:#181818;stroke-width:1.0;"/><line style="stroke:#181818;stroke-width:1.0;" x1="652.5439" x2="1150.8813" y1="680.8203" y2="680.8203"/><text fill="#000000" font-family="sans-serif" font-size="13" font-weight="bold" lengthAdjust="spacing" textLength="39.019" x="659.5439" y="675.7544">[014]</text><text fill="#000000" font-family="sans-serif" font-size="13" lengthAdjust="spacing" textLength="114.8735" x="702.563" y="675.7544">GraphQL Request</text><polygon fill="#181818" points="663.5439,705.9531,653.5439,709.9531,663.5439,713.9531,659.5439,709.9531" style="stroke:#181818;stroke-width:1.0;"/><line style="stroke:#181818;stroke-width:1.0;stroke-dasharray:2.0,2.0;" x1="657.5439" x2="1160.8813" y1="709.9531" y2="709.9531"/><text fill="#000000" font-family="sans-serif" font-size="13" font-weight="bold" lengthAdjust="spacing" textLength="39.019" x="669.5439" y="704.8872">[015]</text><text fill="#000000" font-family="sans-serif" font-size="13" lengthAdjust="spacing" textLength="163.5918" x="712.563" y="704.8872">200 Response (GraphQL)</text><polygon fill="#181818" points="73.2651,735.0859,63.2651,739.0859,73.2651,743.0859,69.2651,739.0859" style="stroke:#181818;stroke-width:1.0;"/><line style="stroke:#181818;stroke-width:1.0;stroke-dasharray:2.0,2.0;" x1="67.2651" x2="646.5439" y1="739.0859" y2="739.0859"/><text fill="#000000" font-family="sans-serif" font-size="13" font-weight="bold" lengthAdjust="spacing" textLength="39.019" x="79.2651" y="734.02">[016]</text><text fill="#000000" font-family="sans-serif" font-size="13" lengthAdjust="spacing" textLength="163.5918" x="122.2842" y="734.02">200 Response (GraphQL)</text><!--SRC=[ZLHBRzim3BxxLt3UOMs6PDwEmL0WcukYGm_k0zjXtK6ncKI8JRcId2NzzPNyVYMfWI2sI7xyI7xK9_YGIhPE66WKhw1bXewZjfnI9ba20PEQXpnbf0CMHPpMyCrhsN-8VNN-rNESfTY3woF6X0bArm7pf0q4k3zZZgHTO0gALmSf0XDMnjAjFnB5CYqaLqnpL2Xt1ja2B3AzUNtCluSXmNMGEvd_4QDV6lsWb_y1rrpfKUeFg4GcGvm-DXHaULQmQh0iOSgI9Kfmlo-l_dgUzyzrMAZvZcciIhSfYbUONhNBcSDaic2qCuD1WXqZQ7LWCdacLuKYHNSEhYm9goyLbxb45hdFb0CQR1xQg8H74SPvoff6lu7sQPqDIFrcCO_G68uXdmDuoCZyOfmYhJaXYDbojfj1Nio5kgmnnXZ2npk-tkWRoGwrtxi9jzhtxk0R99Gs-DUV9rY4PiXg-YIsI1s4SQe-azi1qmXFTlwCkKFLSAs4CvsRZVJ0g3CLf10k-dIBjXv1RnsNedISHf9cUQmKJINfvlxEv7Z9K6ahm145mET1fypHVORo0CumIwTvrPQIC1_IpXd4gaX_Ix6Loeh7HkNsdf452rL069-QwLbzZZltHrjv-SQhe9-WXbJ4F3oOPRHXigM2TX77HDhu-477aEVpctmrgnUR-BIhQSVg0A4WZNiDd5P29gPWGTRpQEXrNHMBO_4VesCQxLCjszAzyioQTCKn9cSxtM6xUdTdErNNbCizvzqLUfdvSYpb27WpstfxJYBs2nYioXi0]--></g></svg>