<?xml version="1.0" encoding="us-ascii" standalone="no"?><svg xmlns="http://www.w3.org/2000/svg" xmlns:xlink="http://www.w3.org/1999/xlink" contentStyleType="text/css" height="357px" preserveAspectRatio="none" style="width:996px;height:357px;background:#FFFFFF;" version="1.1" viewBox="0 0 996 357" width="996px" zoomAndPan="magnify"><defs/><g><text fill="#000000" font-family="sans-serif" font-size="14" font-weight="bold" lengthAdjust="spacing" textLength="323" x="350.5" y="27.9951">Publiceren &amp; raadplegen notificatietype</text><rect fill="#ADD8E6" height="308.5234" style="stroke:#181818;stroke-width:0.5;" width="298" x="41" y="43.2969"/><text fill="#000000" font-family="sans-serif" font-size="13" font-weight="bold" lengthAdjust="spacing" textLength="88" x="143.5" y="55.3638">bronhouder</text><rect fill="#DDDDDD" height="308.5234" style="stroke:#181818;stroke-width:0.5;" width="183" x="421" y="43.2969"/><rect fill="#FFFFE0" height="308.5234" style="stroke:#181818;stroke-width:0.5;" width="298" x="686" y="43.2969"/><text fill="#000000" font-family="sans-serif" font-size="13" font-weight="bold" lengthAdjust="spacing" textLength="79" x="793" y="55.3638">deelnemer</text><rect fill="#FFFFFF" height="29.1328" style="stroke:#181818;stroke-width:1.0;" width="10" x="105.5" y="148.9922"/><rect fill="#FFFFFF" height="29.1328" style="stroke:#181818;stroke-width:1.0;" width="10" x="507.5" y="148.9922"/><rect fill="#FFFFFF" height="29.1328" style="stroke:#181818;stroke-width:1.0;" width="10" x="507.5" y="263.3906"/><rect fill="#FFFFFF" height="29.1328" style="stroke:#181818;stroke-width:1.0;" width="10" x="909.5" y="263.3906"/><rect fill="none" height="75.3984" style="stroke:#000000;stroke-width:1.5;" width="575" x="35" y="110.7266"/><rect fill="none" height="75.3984" style="stroke:#000000;stroke-width:1.5;" width="575" x="415" y="225.125"/><line style="stroke:#181818;stroke-width:0.5;stroke-dasharray:5.0,5.0;" x1="110" x2="110" y1="93.7266" y2="317.5234"/><line style="stroke:#181818;stroke-width:0.5;stroke-dasharray:5.0,5.0;" x1="260" x2="260" y1="93.7266" y2="317.5234"/><line style="stroke:#181818;stroke-width:0.5;stroke-dasharray:5.0,5.0;" x1="512" x2="512" y1="93.7266" y2="317.5234"/><line style="stroke:#181818;stroke-width:0.5;stroke-dasharray:5.0,5.0;" x1="764" x2="764" y1="93.7266" y2="317.5234"/><line style="stroke:#181818;stroke-width:0.5;stroke-dasharray:5.0,5.0;" x1="914" x2="914" y1="93.7266" y2="317.5234"/><rect fill="#E2E2F0" height="30.2969" rx="2.5" ry="2.5" style="stroke:#181818;stroke-width:0.5;" width="91" x="65" y="62.4297"/><text fill="#000000" font-family="sans-serif" font-size="14" lengthAdjust="spacing" textLength="77" x="72" y="82.4248">Backoffice</text><rect fill="#E2E2F0" height="30.2969" rx="2.5" ry="2.5" style="stroke:#181818;stroke-width:0.5;" width="91" x="65" y="316.5234"/><text fill="#000000" font-family="sans-serif" font-size="14" lengthAdjust="spacing" textLength="77" x="72" y="336.5186">Backoffice</text><rect fill="#E2E2F0" height="30.2969" rx="2.5" ry="2.5" style="stroke:#181818;stroke-width:0.5;" width="109" x="206" y="62.4297"/><text fill="#000000" font-family="sans-serif" font-size="14" lengthAdjust="spacing" textLength="95" x="213" y="82.4248">Netwerkpunt</text><rect fill="#E2E2F0" height="30.2969" rx="2.5" ry="2.5" style="stroke:#181818;stroke-width:0.5;" width="109" x="206" y="316.5234"/><text fill="#000000" font-family="sans-serif" font-size="14" lengthAdjust="spacing" textLength="95" x="213" y="336.5186">Netwerkpunt</text><rect fill="#E2E2F0" height="30.2969" rx="2.5" ry="2.5" style="stroke:#181818;stroke-width:0.5;" width="135" x="445" y="62.4297"/><text fill="#000000" font-family="sans-serif" font-size="14" lengthAdjust="spacing" textLength="121" x="452" y="82.4248">ServiceDirectory</text><rect fill="#E2E2F0" height="30.2969" rx="2.5" ry="2.5" style="stroke:#181818;stroke-width:0.5;" width="135" x="445" y="316.5234"/><text fill="#000000" font-family="sans-serif" font-size="14" lengthAdjust="spacing" textLength="121" x="452" y="336.5186">ServiceDirectory</text><rect fill="#E2E2F0" height="30.2969" rx="2.5" ry="2.5" style="stroke:#181818;stroke-width:0.5;" width="109" x="710" y="62.4297"/><text fill="#000000" font-family="sans-serif" font-size="14" lengthAdjust="spacing" textLength="95" x="717" y="82.4248">Netwerkpunt</text><rect fill="#E2E2F0" height="30.2969" rx="2.5" ry="2.5" style="stroke:#181818;stroke-width:0.5;" width="109" x="710" y="316.5234"/><text fill="#000000" font-family="sans-serif" font-size="14" lengthAdjust="spacing" textLength="95" x="717" y="336.5186">Netwerkpunt</text><rect fill="#E2E2F0" height="30.2969" rx="2.5" ry="2.5" style="stroke:#181818;stroke-width:0.5;" width="91" x="869" y="62.4297"/><text fill="#000000" font-family="sans-serif" font-size="14" lengthAdjust="spacing" textLength="77" x="876" y="82.4248">Backoffice</text><rect fill="#E2E2F0" height="30.2969" rx="2.5" ry="2.5" style="stroke:#181818;stroke-width:0.5;" width="91" x="869" y="316.5234"/><text fill="#000000" font-family="sans-serif" font-size="14" lengthAdjust="spacing" textLength="77" x="876" y="336.5186">Backoffice</text><rect fill="#FFFFFF" height="29.1328" style="stroke:#181818;stroke-width:1.0;" width="10" x="105.5" y="148.9922"/><rect fill="#FFFFFF" height="29.1328" style="stroke:#181818;stroke-width:1.0;" width="10" x="507.5" y="148.9922"/><rect fill="#FFFFFF" height="29.1328" style="stroke:#181818;stroke-width:1.0;" width="10" x="507.5" y="263.3906"/><rect fill="#FFFFFF" height="29.1328" style="stroke:#181818;stroke-width:1.0;" width="10" x="909.5" y="263.3906"/><path d="M35,110.7266 L281,110.7266 L281,117.8594 L271,127.8594 L35,127.8594 L35,110.7266 " fill="#EEEEEE" style="stroke:#000000;stroke-width:1.5;"/><rect fill="none" height="75.3984" style="stroke:#000000;stroke-width:1.5;" width="575" x="35" y="110.7266"/><text fill="#000000" font-family="sans-serif" font-size="13" font-weight="bold" lengthAdjust="spacing" textLength="201" x="50" y="123.7935">vastleggen notificatietype</text><polygon fill="#181818" points="495.5,144.9922,505.5,148.9922,495.5,152.9922,499.5,148.9922" style="stroke:#181818;stroke-width:1.0;"/><line style="stroke:#181818;stroke-width:1.0;" x1="115.5" x2="501.5" y1="148.9922" y2="148.9922"/><text fill="#000000" font-family="sans-serif" font-size="13" font-weight="bold" lengthAdjust="spacing" textLength="31" x="122.5" y="143.9263">[01]</text><text fill="#000000" font-family="sans-serif" font-size="13" lengthAdjust="spacing" textLength="162" x="157.5" y="143.9263">publiceren notificatietype</text><polygon fill="#181818" points="121.5,174.125,111.5,178.125,121.5,182.125,117.5,178.125" style="stroke:#181818;stroke-width:1.0;"/><line style="stroke:#181818;stroke-width:1.0;stroke-dasharray:2.0,2.0;" x1="115.5" x2="511.5" y1="178.125" y2="178.125"/><text fill="#000000" font-family="sans-serif" font-size="13" font-weight="bold" lengthAdjust="spacing" textLength="31" x="127.5" y="173.0591">[02]</text><text fill="#000000" font-family="sans-serif" font-size="13" lengthAdjust="spacing" textLength="59" x="162.5" y="173.0591">response</text><path d="M415,225.125 L662,225.125 L662,232.2578 L652,242.2578 L415,242.2578 L415,225.125 " fill="#EEEEEE" style="stroke:#000000;stroke-width:1.5;"/><rect fill="none" height="75.3984" style="stroke:#000000;stroke-width:1.5;" width="575" x="415" y="225.125"/><text fill="#000000" font-family="sans-serif" font-size="13" font-weight="bold" lengthAdjust="spacing" textLength="202" x="430" y="238.1919">raadplegen notificatietype</text><polygon fill="#181818" points="528.5,259.3906,518.5,263.3906,528.5,267.3906,524.5,263.3906" style="stroke:#181818;stroke-width:1.0;"/><line style="stroke:#181818;stroke-width:1.0;" x1="522.5" x2="908.5" y1="263.3906" y2="263.3906"/><text fill="#000000" font-family="sans-serif" font-size="13" font-weight="bold" lengthAdjust="spacing" textLength="30" x="534.5" y="258.3247">[03]</text><text fill="#000000" font-family="sans-serif" font-size="13" lengthAdjust="spacing" textLength="160" x="568.5" y="258.3247">raadpleeg notificatietype</text><polygon fill="#181818" points="902.5,288.5234,912.5,292.5234,902.5,296.5234,906.5,292.5234" style="stroke:#181818;stroke-width:1.0;"/><line style="stroke:#181818;stroke-width:1.0;stroke-dasharray:2.0,2.0;" x1="512.5" x2="908.5" y1="292.5234" y2="292.5234"/><text fill="#000000" font-family="sans-serif" font-size="13" font-weight="bold" lengthAdjust="spacing" textLength="31" x="519.5" y="287.4575">[04]</text><text fill="#000000" font-family="sans-serif" font-size="13" lengthAdjust="spacing" textLength="59" x="554.5" y="287.4575">response</text><!--SRC=[ZP9DQyCm38Rl_HKYWzq6fMoNCdeOEu_1ZcC7ELPJKrSsjjoka1y_9LswVj4k1mTRxsizaYnEFC5xCTxLb8ZX7XAYZPuQtN0GDtSrYYFPHXgD0FBISSI4ArWWsqro8YgSeyzq5DLLNEqYiaIqrd43a_6HmeJl8VBOHR18uB8obA1wDhFFyVYhqcELWKc15w5O3Trvrop4-DAbEqW2rGlMop1NNAe0CvXyAdWZsL1QniBIApWQbH3RBiVeDzMfwOFIMgzyTObg2MdRExCzDreYpxJQ8sx9-x2vpP1lr67xGePaq04sAPG8Qymwk-RId40_a-5XfgGmXVWttajAhCMjKMZNieDzNoP08Yc9zPTZuBppM3fsAL_NYBQTFBLjUuXvvJdr5msSqq59pNLAUuu9_-7SD_87]--></g></svg>