<?xml version="1.0" encoding="us-ascii" standalone="no"?><svg xmlns="http://www.w3.org/2000/svg" xmlns:xlink="http://www.w3.org/1999/xlink" contentStyleType="text/css" height="399px" preserveAspectRatio="none" style="width:421px;height:399px;background:#FFFFFF;" version="1.1" viewBox="0 0 421 399" width="421px" zoomAndPan="magnify"><defs/><g><text fill="#000000" font-family="sans-serif" font-size="14" font-weight="bold" lengthAdjust="spacing" textLength="177" x="136" y="27.9951">melding of notificatie</text><rect fill="#ADD8E6" height="349.7891" style="stroke:#181818;stroke-width:0.5;" width="146" x="41" y="43.2969"/><text fill="#000000" font-family="sans-serif" font-size="13" font-weight="bold" lengthAdjust="spacing" textLength="5" x="111.5" y="55.3638">&#160;</text><rect fill="#FFFFE0" height="349.7891" style="stroke:#181818;stroke-width:0.5;" width="140" x="269" y="43.2969"/><text fill="#000000" font-family="sans-serif" font-size="13" font-weight="bold" lengthAdjust="spacing" textLength="5" x="336.5" y="55.3638">&#160;</text><rect fill="#FFFFFF" height="62.2656" style="stroke:#181818;stroke-width:1.0;" width="10" x="109" y="148.9922"/><rect fill="#FFFFFF" height="62.2656" style="stroke:#181818;stroke-width:1.0;" width="10" x="109" y="271.5234"/><rect fill="#FFFFFF" height="62.2656" style="stroke:#181818;stroke-width:1.0;" width="10" x="334" y="148.9922"/><rect fill="#FFFFFF" height="62.2656" style="stroke:#181818;stroke-width:1.0;" width="10" x="334" y="271.5234"/><rect fill="none" height="108.5313" style="stroke:#000000;stroke-width:1.5;" width="380" x="35" y="110.7266"/><rect fill="none" height="108.5313" style="stroke:#000000;stroke-width:1.5;" width="380" x="35" y="233.2578"/><line style="stroke:#181818;stroke-width:0.5;stroke-dasharray:5.0,5.0;" x1="114" x2="114" y1="93.7266" y2="358.7891"/><line style="stroke:#181818;stroke-width:0.5;stroke-dasharray:5.0,5.0;" x1="339" x2="339" y1="93.7266" y2="358.7891"/><rect fill="#E2E2F0" height="30.2969" rx="2.5" ry="2.5" style="stroke:#181818;stroke-width:0.5;" width="98" x="65" y="62.4297"/><text fill="#000000" font-family="sans-serif" font-size="14" lengthAdjust="spacing" textLength="84" x="72" y="82.4248">bronhouder</text><rect fill="#E2E2F0" height="30.2969" rx="2.5" ry="2.5" style="stroke:#181818;stroke-width:0.5;" width="98" x="65" y="357.7891"/><text fill="#000000" font-family="sans-serif" font-size="14" lengthAdjust="spacing" textLength="84" x="72" y="377.7842">bronhouder</text><rect fill="#E2E2F0" height="30.2969" rx="2.5" ry="2.5" style="stroke:#181818;stroke-width:0.5;" width="92" x="293" y="62.4297"/><text fill="#000000" font-family="sans-serif" font-size="14" lengthAdjust="spacing" textLength="78" x="300" y="82.4248">deelnemer</text><rect fill="#E2E2F0" height="30.2969" rx="2.5" ry="2.5" style="stroke:#181818;stroke-width:0.5;" width="92" x="293" y="357.7891"/><text fill="#000000" font-family="sans-serif" font-size="14" lengthAdjust="spacing" textLength="78" x="300" y="377.7842">deelnemer</text><rect fill="#FFFFFF" height="62.2656" style="stroke:#181818;stroke-width:1.0;" width="10" x="109" y="148.9922"/><rect fill="#FFFFFF" height="62.2656" style="stroke:#181818;stroke-width:1.0;" width="10" x="109" y="271.5234"/><rect fill="#FFFFFF" height="62.2656" style="stroke:#181818;stroke-width:1.0;" width="10" x="334" y="148.9922"/><rect fill="#FFFFFF" height="62.2656" style="stroke:#181818;stroke-width:1.0;" width="10" x="334" y="271.5234"/><path d="M35,110.7266 L133,110.7266 L133,117.8594 L123,127.8594 L35,127.8594 L35,110.7266 " fill="#EEEEEE" style="stroke:#000000;stroke-width:1.5;"/><rect fill="none" height="108.5313" style="stroke:#000000;stroke-width:1.5;" width="380" x="35" y="110.7266"/><text fill="#000000" font-family="sans-serif" font-size="13" font-weight="bold" lengthAdjust="spacing" textLength="53" x="50" y="123.7935">Melden</text><polygon fill="#181818" points="130,144.9922,120,148.9922,130,152.9922,126,148.9922" style="stroke:#181818;stroke-width:1.0;"/><line style="stroke:#181818;stroke-width:1.0;" x1="124" x2="333" y1="148.9922" y2="148.9922"/><text fill="#000000" font-family="sans-serif" font-size="13" font-weight="bold" lengthAdjust="spacing" textLength="31" x="136" y="143.9263">[01]</text><text fill="#000000" font-family="sans-serif" font-size="13" lengthAdjust="spacing" textLength="96" x="171" y="143.9263">sturen melding</text><polygon fill="#ADFF2F" points="311,161.9922,366,161.9922,376,172.9922,366,184.9922,311,184.9922,301,172.9922,311,161.9922" style="stroke:#181818;stroke-width:0.5;"/><text fill="#000000" font-family="sans-serif" font-size="13" lengthAdjust="spacing" textLength="51" x="313" y="178.0591">melding</text><polygon fill="#181818" points="327,207.2578,337,211.2578,327,215.2578,331,211.2578" style="stroke:#181818;stroke-width:1.0;"/><line style="stroke:#181818;stroke-width:1.0;stroke-dasharray:2.0,2.0;" x1="114" x2="333" y1="211.2578" y2="211.2578"/><text fill="#000000" font-family="sans-serif" font-size="13" font-weight="bold" lengthAdjust="spacing" textLength="31" x="121" y="206.1919">[02]</text><text fill="#000000" font-family="sans-serif" font-size="13" lengthAdjust="spacing" textLength="59" x="156" y="206.1919">response</text><path d="M35,233.2578 L166,233.2578 L166,240.3906 L156,250.3906 L35,250.3906 L35,233.2578 " fill="#EEEEEE" style="stroke:#000000;stroke-width:1.5;"/><rect fill="none" height="108.5313" style="stroke:#000000;stroke-width:1.5;" width="380" x="35" y="233.2578"/><text fill="#000000" font-family="sans-serif" font-size="13" font-weight="bold" lengthAdjust="spacing" textLength="86" x="50" y="246.3247">Notificeren</text><polygon fill="#181818" points="322,267.5234,332,271.5234,322,275.5234,326,271.5234" style="stroke:#181818;stroke-width:1.0;"/><line style="stroke:#181818;stroke-width:1.0;" x1="119" x2="328" y1="271.5234" y2="271.5234"/><text fill="#000000" font-family="sans-serif" font-size="13" font-weight="bold" lengthAdjust="spacing" textLength="30" x="126" y="266.4575">[03]</text><text fill="#000000" font-family="sans-serif" font-size="13" lengthAdjust="spacing" textLength="108" x="160" y="266.4575">sturen notificatie</text><polygon fill="#ADFF2F" points="80,284.5234,147,284.5234,157,295.5234,147,307.5234,80,307.5234,70,295.5234,80,284.5234" style="stroke:#181818;stroke-width:0.5;"/><text fill="#000000" font-family="sans-serif" font-size="13" lengthAdjust="spacing" textLength="63" x="82" y="300.5903">notificatie</text><polygon fill="#181818" points="125,329.7891,115,333.7891,125,337.7891,121,333.7891" style="stroke:#181818;stroke-width:1.0;"/><line style="stroke:#181818;stroke-width:1.0;stroke-dasharray:2.0,2.0;" x1="119" x2="338" y1="333.7891" y2="333.7891"/><text fill="#000000" font-family="sans-serif" font-size="13" font-weight="bold" lengthAdjust="spacing" textLength="31" x="131" y="328.7231">[04]</text><text fill="#000000" font-family="sans-serif" font-size="13" lengthAdjust="spacing" textLength="59" x="166" y="328.7231">response</text><!--SRC=[hP4zRmCX38PtVeLrcIkTgavHbJLJkrTH1pXyEQkSEO59sdzVtqSgqgvb066_VlrWX2GWZ1WyyHbY3no5Ukgi49hyGJpPP4SOBFjh8X5aw6t8TKvteOucop9Pl_WyjbNUnSzR_AarjaZaCZfCq3oxmwbjtnkZ4e1TeFCWBXGqbIKqBaKUOl6O6h0PN3R8VdOrTTqNXX2lzvKUCJ2EMw6lAuyfbWbUzDt81dHf5XuEwhw7B2NfExUXBDb1nu8GBqez2tV7XCXlIqlOrqBR2LsiQhNPtTrlWOJgpdhaARBESUcDTpA5l06-hh-1QQDS8MU47ypwmtwX_Y6jjF0lk2ljDm00]--></g></svg>