<svg xmlns="http://www.w3.org/2000/svg" xmlns:xlink="http://www.w3.org/1999/xlink" contentStyleType="text/css" height="1438px" preserveAspectRatio="none" style="width:1286px;height:1438px;background:#FFFFFF;" version="1.1" viewBox="0 0 1286 1438" width="1286px" zoomAndPan="magnify"><defs/><g><rect fill="#DDDDDD" height="1426.3047" style="stroke:#181818;stroke-width:0.5;" width="102.5303" x="11" y="6"/><text fill="#000000" font-family="sans-serif" font-size="13" font-weight="bold" lengthAdjust="spacing" textLength="79.7266" x="22.4019" y="18.0669">Deelnemer</text><rect fill="#DDDDDD" height="1426.3047" style="stroke:#181818;stroke-width:0.5;" width="798.1733" x="266.4829" y="6"/><text fill="#000000" font-family="sans-serif" font-size="13" font-weight="bold" lengthAdjust="spacing" textLength="24.8828" x="653.1282" y="18.0669">nID</text><rect fill="#DDDDDD" height="1426.3047" style="stroke:#181818;stroke-width:0.5;" width="127.1396" x="1153.4429" y="6"/><text fill="#000000" font-family="sans-serif" font-size="13" font-weight="bold" lengthAdjust="spacing" textLength="61.769" x="1186.1282" y="18.0669">Register</text><rect fill="#FFFFFF" height="541.2578" style="stroke:#181818;stroke-width:1.0;" width="10" x="57.2651" y="66.4297"/><rect fill="#FFFFFF" height="728.0547" style="stroke:#181818;stroke-width:1.0;" width="10" x="57.2651" y="651.9531"/><rect fill="#FFFFFF" height="402.4609" style="stroke:#181818;stroke-width:1.0;" width="10" x="352.1504" y="205.2266"/><rect fill="#D3D3D3" height="136.3984" style="stroke:#181818;stroke-width:1.0;" width="10" x="357.1504" y="435.1563"/><rect fill="#D3D3D3" height="28" style="stroke:#181818;stroke-width:1.0;" width="10" x="362.1504" y="543.5547"/><rect fill="#FFFFFF" height="582.3906" style="stroke:#181818;stroke-width:1.0;" width="10" x="636.3252" y="651.9531"/><rect fill="#FFFFFF" height="728.0547" style="stroke:#181818;stroke-width:1.0;" width="10" x="971.4019" y="651.9531"/><rect fill="#FFFFFF" height="116.5313" style="stroke:#181818;stroke-width:1.0;" width="10" x="1212.0127" y="1234.3438"/><line style="stroke:#181818;stroke-width:0.5;stroke-dasharray:5.0,5.0;" x1="62" x2="62" y1="56.4297" y2="1398.0078"/><line style="stroke:#181818;stroke-width:0.5;stroke-dasharray:5.0,5.0;" x1="356.4829" x2="356.4829" y1="56.4297" y2="1398.0078"/><line style="stroke:#181818;stroke-width:0.5;stroke-dasharray:5.0,5.0;" x1="640.3638" x2="640.3638" y1="56.4297" y2="1398.0078"/><line style="stroke:#181818;stroke-width:0.5;stroke-dasharray:5.0,5.0;" x1="976.1475" x2="976.1475" y1="56.4297" y2="1398.0078"/><line style="stroke:#181818;stroke-width:0.5;stroke-dasharray:5.0,5.0;" x1="1216.4429" x2="1216.4429" y1="56.4297" y2="1398.0078"/><rect fill="#E2E2F0" height="30.2969" rx="2.5" ry="2.5" style="stroke:#181818;stroke-width:0.5;" width="54.5303" x="35" y="25.1328"/><text fill="#000000" font-family="sans-serif" font-size="14" lengthAdjust="spacing" textLength="40.5303" x="42" y="45.1279">Client</text><rect fill="#E2E2F0" height="30.2969" rx="2.5" ry="2.5" style="stroke:#181818;stroke-width:0.5;" width="54.5303" x="35" y="1397.0078"/><text fill="#000000" font-family="sans-serif" font-size="14" lengthAdjust="spacing" textLength="40.5303" x="42" y="1417.0029">Client</text><rect fill="#E2E2F0" height="30.2969" rx="2.5" ry="2.5" style="stroke:#181818;stroke-width:0.5;" width="133.335" x="290.4829" y="25.1328"/><text fill="#000000" font-family="sans-serif" font-size="14" lengthAdjust="spacing" textLength="119.335" x="297.4829" y="45.1279">autorisatieserver</text><rect fill="#E2E2F0" height="30.2969" rx="2.5" ry="2.5" style="stroke:#181818;stroke-width:0.5;" width="133.335" x="290.4829" y="1397.0078"/><text fill="#000000" font-family="sans-serif" font-size="14" lengthAdjust="spacing" textLength="119.335" x="297.4829" y="1417.0029">autorisatieserver</text><rect fill="#E2E2F0" height="30.2969" rx="2.5" ry="2.5" style="stroke:#181818;stroke-width:0.5;" width="77.9229" x="602.3638" y="25.1328"/><text fill="#000000" font-family="sans-serif" font-size="14" lengthAdjust="spacing" textLength="63.9229" x="609.3638" y="45.1279">nID Filter</text><rect fill="#E2E2F0" height="30.2969" rx="2.5" ry="2.5" style="stroke:#181818;stroke-width:0.5;" width="77.9229" x="602.3638" y="1397.0078"/><text fill="#000000" font-family="sans-serif" font-size="14" lengthAdjust="spacing" textLength="63.9229" x="609.3638" y="1417.0029">nID Filter</text><rect fill="#E2E2F0" height="30.2969" rx="2.5" ry="2.5" style="stroke:#181818;stroke-width:0.5;" width="128.5088" x="912.1475" y="25.1328"/><text fill="#000000" font-family="sans-serif" font-size="14" lengthAdjust="spacing" textLength="114.5088" x="919.1475" y="45.1279">Resource-server</text><rect fill="#E2E2F0" height="30.2969" rx="2.5" ry="2.5" style="stroke:#181818;stroke-width:0.5;" width="128.5088" x="912.1475" y="1397.0078"/><text fill="#000000" font-family="sans-serif" font-size="14" lengthAdjust="spacing" textLength="114.5088" x="919.1475" y="1417.0029">Resource-server</text><rect fill="#E2E2F0" height="30.2969" rx="2.5" ry="2.5" style="stroke:#181818;stroke-width:0.5;" width="79.1396" x="1177.4429" y="25.1328"/><text fill="#000000" font-family="sans-serif" font-size="14" lengthAdjust="spacing" textLength="65.1396" x="1184.4429" y="45.1279">Resource</text><rect fill="#E2E2F0" height="30.2969" rx="2.5" ry="2.5" style="stroke:#181818;stroke-width:0.5;" width="79.1396" x="1177.4429" y="1397.0078"/><text fill="#000000" font-family="sans-serif" font-size="14" lengthAdjust="spacing" textLength="65.1396" x="1184.4429" y="1417.0029">Resource</text><rect fill="#FFFFFF" height="541.2578" style="stroke:#181818;stroke-width:1.0;" width="10" x="57.2651" y="66.4297"/><rect fill="#FFFFFF" height="728.0547" style="stroke:#181818;stroke-width:1.0;" width="10" x="57.2651" y="651.9531"/><rect fill="#FFFFFF" height="402.4609" style="stroke:#181818;stroke-width:1.0;" width="10" x="352.1504" y="205.2266"/><rect fill="#D3D3D3" height="136.3984" style="stroke:#181818;stroke-width:1.0;" width="10" x="357.1504" y="435.1563"/><rect fill="#D3D3D3" height="28" style="stroke:#181818;stroke-width:1.0;" width="10" x="362.1504" y="543.5547"/><rect fill="#FFFFFF" height="582.3906" style="stroke:#181818;stroke-width:1.0;" width="10" x="636.3252" y="651.9531"/><rect fill="#FFFFFF" height="728.0547" style="stroke:#181818;stroke-width:1.0;" width="10" x="971.4019" y="651.9531"/><rect fill="#FFFFFF" height="116.5313" style="stroke:#181818;stroke-width:1.0;" width="10" x="1212.0127" y="1234.3438"/><polygon fill="#181818" points="345.1504,113.8281,355.1504,117.8281,345.1504,121.8281,349.1504,117.8281" style="stroke:#181818;stroke-width:1.0;"/><line style="stroke:#181818;stroke-width:1.0;" x1="67.2651" x2="351.1504" y1="117.8281" y2="117.8281"/><text fill="#000000" font-family="sans-serif" font-size="13" font-weight="bold" lengthAdjust="spacing" textLength="39.019" x="74.2651" y="97.6294">[001]</text><text fill="#000000" font-family="sans-serif" font-size="13" font-weight="bold" lengthAdjust="spacing" textLength="194.7144" x="117.2842" y="82.4966">Aanvragen van autorisatie</text><text fill="#000000" font-family="sans-serif" font-size="13" lengthAdjust="spacing" textLength="222.8662" x="117.2842" y="97.6294">"scope": "registers/resource:read"</text><text fill="#000000" font-family="sans-serif" font-size="13" lengthAdjust="spacing" textLength="131.625" x="121.4165" y="112.7622">Authenticatiemiddel</text><polygon fill="#FF0000" points="78.2651,142.9609,68.2651,146.9609,78.2651,150.9609,74.2651,146.9609" style="stroke:#FF0000;stroke-width:1.0;"/><line style="stroke:#FF0000;stroke-width:2.0;" x1="339.1504" x2="349.1504" y1="141.9609" y2="151.9609"/><line style="stroke:#FF0000;stroke-width:2.0;" x1="339.1504" x2="349.1504" y1="151.9609" y2="141.9609"/><line style="stroke:#FF0000;stroke-width:1.0;stroke-dasharray:2.0,2.0;" x1="72.2651" x2="344.1504" y1="146.9609" y2="146.9609"/><text fill="#FF0000" font-family="sans-serif" font-size="13" lengthAdjust="spacing" textLength="115.6606" x="84.2651" y="141.895">[1] 404 Not found</text><polygon fill="#FF0000" points="78.2651,172.0938,68.2651,176.0938,78.2651,180.0938,74.2651,176.0938" style="stroke:#FF0000;stroke-width:1.0;"/><line style="stroke:#FF0000;stroke-width:2.0;" x1="339.1504" x2="349.1504" y1="171.0938" y2="181.0938"/><line style="stroke:#FF0000;stroke-width:2.0;" x1="339.1504" x2="349.1504" y1="181.0938" y2="171.0938"/><line style="stroke:#FF0000;stroke-width:1.0;stroke-dasharray:2.0,2.0;" x1="72.2651" x2="344.1504" y1="176.0938" y2="176.0938"/><text fill="#FF0000" font-family="sans-serif" font-size="13" lengthAdjust="spacing" textLength="204.2676" x="84.2651" y="171.0278">[2] 403 Invalid client certificate</text><polygon fill="#FF0000" points="78.2651,201.2266,68.2651,205.2266,78.2651,209.2266,74.2651,205.2266" style="stroke:#FF0000;stroke-width:1.0;"/><line style="stroke:#FF0000;stroke-width:2.0;" x1="334.1504" x2="344.1504" y1="200.2266" y2="210.2266"/><line style="stroke:#FF0000;stroke-width:2.0;" x1="334.1504" x2="344.1504" y1="210.2266" y2="200.2266"/><line style="stroke:#FF0000;stroke-width:1.0;stroke-dasharray:2.0,2.0;" x1="72.2651" x2="339.1504" y1="205.2266" y2="205.2266"/><text fill="#FF0000" font-family="sans-serif" font-size="13" lengthAdjust="spacing" textLength="116.873" x="84.2651" y="200.1606">[3] 403 Forbidden</text><line style="stroke:#181818;stroke-width:1.0;" x1="362.1504" x2="404.1504" y1="234.3594" y2="234.3594"/><line style="stroke:#181818;stroke-width:1.0;" x1="404.1504" x2="404.1504" y1="234.3594" y2="247.3594"/><line style="stroke:#181818;stroke-width:1.0;" x1="363.1504" x2="404.1504" y1="247.3594" y2="247.3594"/><polygon fill="#181818" points="373.1504,243.3594,363.1504,247.3594,373.1504,251.3594,369.1504,247.3594" style="stroke:#181818;stroke-width:1.0;"/><text fill="#000000" font-family="sans-serif" font-size="13" font-weight="bold" lengthAdjust="spacing" textLength="39.019" x="369.1504" y="229.2935">[002]</text><text fill="#000000" font-family="sans-serif" font-size="13" lengthAdjust="spacing" textLength="189.4331" x="412.1694" y="229.2935">Valideer Authenticatiemiddel</text><polygon fill="#FF0000" points="78.2651,272.4922,68.2651,276.4922,78.2651,280.4922,74.2651,276.4922" style="stroke:#FF0000;stroke-width:1.0;"/><line style="stroke:#FF0000;stroke-width:2.0;" x1="334.1504" x2="344.1504" y1="271.4922" y2="281.4922"/><line style="stroke:#FF0000;stroke-width:2.0;" x1="334.1504" x2="344.1504" y1="281.4922" y2="271.4922"/><line style="stroke:#FF0000;stroke-width:1.0;stroke-dasharray:2.0,2.0;" x1="72.2651" x2="339.1504" y1="276.4922" y2="276.4922"/><text fill="#FF0000" font-family="sans-serif" font-size="13" lengthAdjust="spacing" textLength="160.1958" x="84.2651" y="271.4263">[4] 401 Unauthenticated</text><polygon fill="#FF0000" points="78.2651,301.625,68.2651,305.625,78.2651,309.625,74.2651,305.625" style="stroke:#FF0000;stroke-width:1.0;"/><line style="stroke:#FF0000;stroke-width:2.0;" x1="334.1504" x2="344.1504" y1="300.625" y2="310.625"/><line style="stroke:#FF0000;stroke-width:2.0;" x1="334.1504" x2="344.1504" y1="310.625" y2="300.625"/><line style="stroke:#FF0000;stroke-width:1.0;stroke-dasharray:2.0,2.0;" x1="72.2651" x2="339.1504" y1="305.625" y2="305.625"/><text fill="#FF0000" font-family="sans-serif" font-size="13" lengthAdjust="spacing" textLength="128.9146" x="84.2651" y="300.5591">[5] 400 No Client ID</text><polygon fill="#FF0000" points="78.2651,330.7578,68.2651,334.7578,78.2651,338.7578,74.2651,334.7578" style="stroke:#FF0000;stroke-width:1.0;"/><line style="stroke:#FF0000;stroke-width:2.0;" x1="334.1504" x2="344.1504" y1="329.7578" y2="339.7578"/><line style="stroke:#FF0000;stroke-width:2.0;" x1="334.1504" x2="344.1504" y1="339.7578" y2="329.7578"/><line style="stroke:#FF0000;stroke-width:1.0;stroke-dasharray:2.0,2.0;" x1="72.2651" x2="339.1504" y1="334.7578" y2="334.7578"/><text fill="#FF0000" font-family="sans-serif" font-size="13" lengthAdjust="spacing" textLength="154.4448" x="84.2651" y="329.6919">[6] 401 Invalid Client ID</text><polygon fill="#FF0000" points="78.2651,359.8906,68.2651,363.8906,78.2651,367.8906,74.2651,363.8906" style="stroke:#FF0000;stroke-width:1.0;"/><line style="stroke:#FF0000;stroke-width:2.0;" x1="334.1504" x2="344.1504" y1="358.8906" y2="368.8906"/><line style="stroke:#FF0000;stroke-width:2.0;" x1="334.1504" x2="344.1504" y1="368.8906" y2="358.8906"/><line style="stroke:#FF0000;stroke-width:1.0;stroke-dasharray:2.0,2.0;" x1="72.2651" x2="339.1504" y1="363.8906" y2="363.8906"/><text fill="#FF0000" font-family="sans-serif" font-size="13" lengthAdjust="spacing" textLength="204.2676" x="84.2651" y="358.8247">[7] 403 Invalid client certificate</text><line style="stroke:#181818;stroke-width:1.0;" x1="362.1504" x2="404.1504" y1="393.0234" y2="393.0234"/><line style="stroke:#181818;stroke-width:1.0;" x1="404.1504" x2="404.1504" y1="393.0234" y2="406.0234"/><line style="stroke:#181818;stroke-width:1.0;" x1="363.1504" x2="404.1504" y1="406.0234" y2="406.0234"/><polygon fill="#181818" points="373.1504,402.0234,363.1504,406.0234,373.1504,410.0234,369.1504,406.0234" style="stroke:#181818;stroke-width:1.0;"/><text fill="#000000" font-family="sans-serif" font-size="13" font-weight="bold" lengthAdjust="spacing" textLength="39.019" x="369.1504" y="387.9575">[003]</text><text fill="#000000" font-family="sans-serif" font-size="13" lengthAdjust="spacing" textLength="207.1558" x="412.1694" y="387.9575">Run Rule-engine o.b.v. scope(s)</text><polygon fill="#FF0000" points="78.2651,431.1563,68.2651,435.1563,78.2651,439.1563,74.2651,435.1563" style="stroke:#FF0000;stroke-width:1.0;"/><line style="stroke:#FF0000;stroke-width:2.0;" x1="339.1504" x2="349.1504" y1="430.1563" y2="440.1563"/><line style="stroke:#FF0000;stroke-width:2.0;" x1="339.1504" x2="349.1504" y1="440.1563" y2="430.1563"/><line style="stroke:#FF0000;stroke-width:1.0;stroke-dasharray:2.0,2.0;" x1="72.2651" x2="344.1504" y1="435.1563" y2="435.1563"/><text fill="#FF0000" font-family="sans-serif" font-size="13" lengthAdjust="spacing" textLength="138.436" x="84.2651" y="430.0903">[8] 400 Invalid Scope</text><line style="stroke:#181818;stroke-width:1.0;" x1="367.1504" x2="409.1504" y1="464.2891" y2="464.2891"/><line style="stroke:#181818;stroke-width:1.0;" x1="409.1504" x2="409.1504" y1="464.2891" y2="477.2891"/><line style="stroke:#181818;stroke-width:1.0;" x1="368.1504" x2="409.1504" y1="477.2891" y2="477.2891"/><polygon fill="#181818" points="378.1504,473.2891,368.1504,477.2891,378.1504,481.2891,374.1504,477.2891" style="stroke:#181818;stroke-width:1.0;"/><text fill="#000000" font-family="sans-serif" font-size="13" font-weight="bold" lengthAdjust="spacing" textLength="39.019" x="374.1504" y="459.2231">[004]</text><text fill="#000000" font-family="sans-serif" font-size="13" lengthAdjust="spacing" textLength="127.4673" x="417.1694" y="459.2231">Valideer autorisatie</text><polygon fill="#FF0000" points="78.2651,502.4219,68.2651,506.4219,78.2651,510.4219,74.2651,506.4219" style="stroke:#FF0000;stroke-width:1.0;"/><line style="stroke:#FF0000;stroke-width:2.0;" x1="339.1504" x2="349.1504" y1="501.4219" y2="511.4219"/><line style="stroke:#FF0000;stroke-width:2.0;" x1="339.1504" x2="349.1504" y1="511.4219" y2="501.4219"/><line style="stroke:#FF0000;stroke-width:1.0;stroke-dasharray:2.0,2.0;" x1="72.2651" x2="344.1504" y1="506.4219" y2="506.4219"/><text fill="#FF0000" font-family="sans-serif" font-size="13" lengthAdjust="spacing" textLength="239.916" x="84.2651" y="501.356">[9] 401 Access denied, Invalid Scope</text><line style="stroke:#181818;stroke-width:1.0;" x1="372.1504" x2="414.1504" y1="535.5547" y2="535.5547"/><line style="stroke:#181818;stroke-width:1.0;" x1="414.1504" x2="414.1504" y1="535.5547" y2="548.5547"/><line style="stroke:#181818;stroke-width:1.0;" x1="373.1504" x2="414.1504" y1="548.5547" y2="548.5547"/><polygon fill="#181818" points="383.1504,544.5547,373.1504,548.5547,383.1504,552.5547,379.1504,548.5547" style="stroke:#181818;stroke-width:1.0;"/><text fill="#000000" font-family="sans-serif" font-size="13" font-weight="bold" lengthAdjust="spacing" textLength="39.019" x="379.1504" y="530.4888">[005]</text><text fill="#000000" font-family="sans-serif" font-size="13" lengthAdjust="spacing" textLength="154.21" x="422.1694" y="530.4888">Genereer Access-Token</text><polygon fill="#181818" points="73.2651,603.6875,63.2651,607.6875,73.2651,611.6875,69.2651,607.6875" style="stroke:#181818;stroke-width:1.0;"/><line style="stroke:#181818;stroke-width:1.0;stroke-dasharray:2.0,2.0;" x1="67.2651" x2="356.1504" y1="607.6875" y2="607.6875"/><text fill="#000000" font-family="sans-serif" font-size="13" font-weight="bold" lengthAdjust="spacing" textLength="39.019" x="79.2651" y="602.6216">[006]</text><text fill="#000000" font-family="sans-serif" font-size="13" lengthAdjust="spacing" textLength="195.3237" x="122.2842" y="602.6216">200 Response (Access-Token)</text><polygon fill="#181818" points="959.4019,647.9531,969.4019,651.9531,959.4019,655.9531,963.4019,651.9531" style="stroke:#181818;stroke-width:1.0;"/><line style="stroke:#181818;stroke-width:1.0;" x1="67.2651" x2="965.4019" y1="651.9531" y2="651.9531"/><text fill="#000000" font-family="sans-serif" font-size="13" font-weight="bold" lengthAdjust="spacing" textLength="39.019" x="74.2651" y="639.3208">[007]</text><text fill="#000000" font-family="sans-serif" font-size="13" font-weight="bold" lengthAdjust="spacing" textLength="112.2837" x="117.2842" y="631.7544">GraphQL Query</text><text fill="#000000" font-family="sans-serif" font-size="13" lengthAdjust="spacing" textLength="239.8652" x="117.2842" y="646.8872">Authenticatiemiddel + Access-Token</text><path d="M651,664.9531 L651,689.9531 L822,689.9531 L822,674.9531 L812,664.9531 L651,664.9531 " fill="#FEFFDD" style="stroke:#181818;stroke-width:0.5;"/><path d="M812,664.9531 L812,674.9531 L822,674.9531 L812,664.9531 " fill="#FEFFDD" style="stroke:#181818;stroke-width:0.5;"/><text fill="#000000" font-family="sans-serif" font-size="13" lengthAdjust="spacing" textLength="150.6172" x="657" y="682.02">Inline filtering requests</text><polygon fill="#FF0000" points="78.2651,712.2188,68.2651,716.2188,78.2651,720.2188,74.2651,716.2188" style="stroke:#FF0000;stroke-width:1.0;"/><line style="stroke:#FF0000;stroke-width:2.0;" x1="953.4019" x2="963.4019" y1="711.2188" y2="721.2188"/><line style="stroke:#FF0000;stroke-width:2.0;" x1="953.4019" x2="963.4019" y1="721.2188" y2="711.2188"/><line style="stroke:#FF0000;stroke-width:1.0;stroke-dasharray:2.0,2.0;" x1="72.2651" x2="958.4019" y1="716.2188" y2="716.2188"/><text fill="#FF0000" font-family="sans-serif" font-size="13" lengthAdjust="spacing" textLength="191.1978" x="84.2651" y="711.1528">[10] 404 Resource not found.</text><line style="stroke:#181818;stroke-width:1.0;" x1="646.3252" x2="688.3252" y1="745.3516" y2="745.3516"/><line style="stroke:#181818;stroke-width:1.0;" x1="688.3252" x2="688.3252" y1="745.3516" y2="758.3516"/><line style="stroke:#181818;stroke-width:1.0;" x1="647.3252" x2="688.3252" y1="758.3516" y2="758.3516"/><polygon fill="#181818" points="657.3252,754.3516,647.3252,758.3516,657.3252,762.3516,653.3252,758.3516" style="stroke:#181818;stroke-width:1.0;"/><text fill="#000000" font-family="sans-serif" font-size="13" font-weight="bold" lengthAdjust="spacing" textLength="39.019" x="653.3252" y="740.2856">[008]</text><text fill="#000000" font-family="sans-serif" font-size="13" lengthAdjust="spacing" textLength="189.4331" x="696.3442" y="740.2856">Valideer Authenticatiemiddel</text><polygon fill="#FF0000" points="78.2651,783.4844,68.2651,787.4844,78.2651,791.4844,74.2651,787.4844" style="stroke:#FF0000;stroke-width:1.0;"/><line style="stroke:#FF0000;stroke-width:2.0;" x1="618.3252" x2="628.3252" y1="782.4844" y2="792.4844"/><line style="stroke:#FF0000;stroke-width:2.0;" x1="618.3252" x2="628.3252" y1="792.4844" y2="782.4844"/><line style="stroke:#FF0000;stroke-width:1.0;stroke-dasharray:2.0,2.0;" x1="72.2651" x2="623.3252" y1="787.4844" y2="787.4844"/><text fill="#FF0000" font-family="sans-serif" font-size="13" lengthAdjust="spacing" textLength="168.4668" x="84.2651" y="782.4185">[11] 401 Unauthenticated</text><polygon fill="#FF0000" points="78.2651,812.6172,68.2651,816.6172,78.2651,820.6172,74.2651,816.6172" style="stroke:#FF0000;stroke-width:1.0;"/><line style="stroke:#FF0000;stroke-width:2.0;" x1="618.3252" x2="628.3252" y1="811.6172" y2="821.6172"/><line style="stroke:#FF0000;stroke-width:2.0;" x1="618.3252" x2="628.3252" y1="821.6172" y2="811.6172"/><line style="stroke:#FF0000;stroke-width:1.0;stroke-dasharray:2.0,2.0;" x1="72.2651" x2="623.3252" y1="816.6172" y2="816.6172"/><text fill="#FF0000" font-family="sans-serif" font-size="13" lengthAdjust="spacing" textLength="137.1855" x="84.2651" y="811.5513">[12] 400 No Client ID</text><polygon fill="#FF0000" points="78.2651,841.75,68.2651,845.75,78.2651,849.75,74.2651,845.75" style="stroke:#FF0000;stroke-width:1.0;"/><line style="stroke:#FF0000;stroke-width:2.0;" x1="618.3252" x2="628.3252" y1="840.75" y2="850.75"/><line style="stroke:#FF0000;stroke-width:2.0;" x1="618.3252" x2="628.3252" y1="850.75" y2="840.75"/><line style="stroke:#FF0000;stroke-width:1.0;stroke-dasharray:2.0,2.0;" x1="72.2651" x2="623.3252" y1="845.75" y2="845.75"/><text fill="#FF0000" font-family="sans-serif" font-size="13" lengthAdjust="spacing" textLength="162.7158" x="84.2651" y="840.6841">[13] 401 Invalid Client ID</text><polygon fill="#FF0000" points="78.2651,870.8828,68.2651,874.8828,78.2651,878.8828,74.2651,874.8828" style="stroke:#FF0000;stroke-width:1.0;"/><line style="stroke:#FF0000;stroke-width:2.0;" x1="618.3252" x2="628.3252" y1="869.8828" y2="879.8828"/><line style="stroke:#FF0000;stroke-width:2.0;" x1="618.3252" x2="628.3252" y1="879.8828" y2="869.8828"/><line style="stroke:#FF0000;stroke-width:1.0;stroke-dasharray:2.0,2.0;" x1="72.2651" x2="623.3252" y1="874.8828" y2="874.8828"/><text fill="#FF0000" font-family="sans-serif" font-size="13" lengthAdjust="spacing" textLength="212.5386" x="84.2651" y="869.8169">[14] 403 Invalid client certificate</text><line style="stroke:#181818;stroke-width:1.0;" x1="646.3252" x2="688.3252" y1="904.0156" y2="904.0156"/><line style="stroke:#181818;stroke-width:1.0;" x1="688.3252" x2="688.3252" y1="904.0156" y2="917.0156"/><line style="stroke:#181818;stroke-width:1.0;" x1="647.3252" x2="688.3252" y1="917.0156" y2="917.0156"/><polygon fill="#181818" points="657.3252,913.0156,647.3252,917.0156,657.3252,921.0156,653.3252,917.0156" style="stroke:#181818;stroke-width:1.0;"/><text fill="#000000" font-family="sans-serif" font-size="13" font-weight="bold" lengthAdjust="spacing" textLength="39.019" x="653.3252" y="898.9497">[009]</text><text fill="#000000" font-family="sans-serif" font-size="13" lengthAdjust="spacing" textLength="146.8911" x="696.3442" y="898.9497">Valideer Access-Token</text><polygon fill="#FF0000" points="78.2651,942.1484,68.2651,946.1484,78.2651,950.1484,74.2651,946.1484" style="stroke:#FF0000;stroke-width:1.0;"/><line style="stroke:#FF0000;stroke-width:2.0;" x1="618.3252" x2="628.3252" y1="941.1484" y2="951.1484"/><line style="stroke:#FF0000;stroke-width:2.0;" x1="618.3252" x2="628.3252" y1="951.1484" y2="941.1484"/><line style="stroke:#FF0000;stroke-width:1.0;stroke-dasharray:2.0,2.0;" x1="72.2651" x2="623.3252" y1="946.1484" y2="946.1484"/><text fill="#FF0000" font-family="sans-serif" font-size="13" lengthAdjust="spacing" textLength="147.126" x="84.2651" y="941.0825">[15] 401 Jwt is expired</text><polygon fill="#FF0000" points="78.2651,971.2813,68.2651,975.2813,78.2651,979.2813,74.2651,975.2813" style="stroke:#FF0000;stroke-width:1.0;"/><line style="stroke:#FF0000;stroke-width:2.0;" x1="618.3252" x2="628.3252" y1="970.2813" y2="980.2813"/><line style="stroke:#FF0000;stroke-width:2.0;" x1="618.3252" x2="628.3252" y1="980.2813" y2="970.2813"/><line style="stroke:#FF0000;stroke-width:1.0;stroke-dasharray:2.0,2.0;" x1="72.2651" x2="623.3252" y1="975.2813" y2="975.2813"/><text fill="#FF0000" font-family="sans-serif" font-size="13" lengthAdjust="spacing" textLength="247.4063" x="84.2651" y="970.2153">[16] 401 Jwt header is an invalid JSON</text><line style="stroke:#181818;stroke-width:1.0;" x1="646.3252" x2="688.3252" y1="1004.4141" y2="1004.4141"/><line style="stroke:#181818;stroke-width:1.0;" x1="688.3252" x2="688.3252" y1="1004.4141" y2="1017.4141"/><line style="stroke:#181818;stroke-width:1.0;" x1="647.3252" x2="688.3252" y1="1017.4141" y2="1017.4141"/><polygon fill="#181818" points="657.3252,1013.4141,647.3252,1017.4141,657.3252,1021.4141,653.3252,1017.4141" style="stroke:#181818;stroke-width:1.0;"/><text fill="#000000" font-family="sans-serif" font-size="13" font-weight="bold" lengthAdjust="spacing" textLength="39.019" x="653.3252" y="999.3481">[010]</text><text fill="#000000" font-family="sans-serif" font-size="13" lengthAdjust="spacing" textLength="115.1592" x="696.3442" y="999.3481">Valideer GraphQL</text><polygon fill="#FF0000" points="78.2651,1042.5469,68.2651,1046.5469,78.2651,1050.5469,74.2651,1046.5469" style="stroke:#FF0000;stroke-width:1.0;"/><line style="stroke:#FF0000;stroke-width:2.0;" x1="618.3252" x2="628.3252" y1="1041.5469" y2="1051.5469"/><line style="stroke:#FF0000;stroke-width:2.0;" x1="618.3252" x2="628.3252" y1="1051.5469" y2="1041.5469"/><line style="stroke:#FF0000;stroke-width:1.0;stroke-dasharray:2.0,2.0;" x1="72.2651" x2="623.3252" y1="1046.5469" y2="1046.5469"/><text fill="#FF0000" font-family="sans-serif" font-size="13" lengthAdjust="spacing" textLength="425.166" x="84.2651" y="1041.481">[17] 400 verifying request: bad request: parsing GQL query: .......</text><polygon fill="#FF0000" points="78.2651,1071.6797,68.2651,1075.6797,78.2651,1079.6797,74.2651,1075.6797" style="stroke:#FF0000;stroke-width:1.0;"/><line style="stroke:#FF0000;stroke-width:2.0;" x1="618.3252" x2="628.3252" y1="1070.6797" y2="1080.6797"/><line style="stroke:#FF0000;stroke-width:2.0;" x1="618.3252" x2="628.3252" y1="1080.6797" y2="1070.6797"/><line style="stroke:#FF0000;stroke-width:1.0;stroke-dasharray:2.0,2.0;" x1="72.2651" x2="623.3252" y1="1075.6797" y2="1075.6797"/><text fill="#FF0000" font-family="sans-serif" font-size="13" lengthAdjust="spacing" textLength="372.8677" x="84.2651" y="1070.6138">[18] 400 The following variables were not used: XXXXXX.</text><line style="stroke:#181818;stroke-width:1.0;" x1="646.3252" x2="688.3252" y1="1104.8125" y2="1104.8125"/><line style="stroke:#181818;stroke-width:1.0;" x1="688.3252" x2="688.3252" y1="1104.8125" y2="1117.8125"/><line style="stroke:#181818;stroke-width:1.0;" x1="647.3252" x2="688.3252" y1="1117.8125" y2="1117.8125"/><polygon fill="#181818" points="657.3252,1113.8125,647.3252,1117.8125,657.3252,1121.8125,653.3252,1117.8125" style="stroke:#181818;stroke-width:1.0;"/><text fill="#000000" font-family="sans-serif" font-size="13" font-weight="bold" lengthAdjust="spacing" textLength="39.019" x="653.3252" y="1099.7466">[011]</text><text fill="#000000" font-family="sans-serif" font-size="13" lengthAdjust="spacing" textLength="258.0576" x="696.3442" y="1099.7466">Valideer GraphQL request met scope(s)</text><polygon fill="#FF0000" points="78.2651,1142.9453,68.2651,1146.9453,78.2651,1150.9453,74.2651,1146.9453" style="stroke:#FF0000;stroke-width:1.0;"/><line style="stroke:#FF0000;stroke-width:2.0;" x1="618.3252" x2="628.3252" y1="1141.9453" y2="1151.9453"/><line style="stroke:#FF0000;stroke-width:2.0;" x1="618.3252" x2="628.3252" y1="1151.9453" y2="1141.9453"/><line style="stroke:#FF0000;stroke-width:1.0;stroke-dasharray:2.0,2.0;" x1="72.2651" x2="623.3252" y1="1146.9453" y2="1146.9453"/><text fill="#FF0000" font-family="sans-serif" font-size="13" lengthAdjust="spacing" textLength="248.187" x="84.2651" y="1141.8794">[19] 401 Access denied, Invalid Scope</text><polygon fill="#FF0000" points="78.2651,1172.0781,68.2651,1176.0781,78.2651,1180.0781,74.2651,1176.0781" style="stroke:#FF0000;stroke-width:1.0;"/><line style="stroke:#FF0000;stroke-width:2.0;" x1="618.3252" x2="628.3252" y1="1171.0781" y2="1181.0781"/><line style="stroke:#FF0000;stroke-width:2.0;" x1="618.3252" x2="628.3252" y1="1181.0781" y2="1171.0781"/><line style="stroke:#FF0000;stroke-width:1.0;stroke-dasharray:2.0,2.0;" x1="72.2651" x2="623.3252" y1="1176.0781" y2="1176.0781"/><text fill="#FF0000" font-family="sans-serif" font-size="13" lengthAdjust="spacing" textLength="196.4854" x="84.2651" y="1171.0122">[20] 403 RBAC: access denied</text><polygon fill="#FF0000" points="78.2651,1201.2109,68.2651,1205.2109,78.2651,1209.2109,74.2651,1205.2109" style="stroke:#FF0000;stroke-width:1.0;"/><line style="stroke:#FF0000;stroke-width:2.0;" x1="618.3252" x2="628.3252" y1="1200.2109" y2="1210.2109"/><line style="stroke:#FF0000;stroke-width:2.0;" x1="618.3252" x2="628.3252" y1="1210.2109" y2="1200.2109"/><line style="stroke:#FF0000;stroke-width:1.0;stroke-dasharray:2.0,2.0;" x1="72.2651" x2="623.3252" y1="1205.2109" y2="1205.2109"/><text fill="#FF0000" font-family="sans-serif" font-size="13" lengthAdjust="spacing" textLength="264.272" x="84.2651" y="1200.145">[21] 403 request does not match scopes</text><polygon fill="#181818" points="1200.0127,1230.3438,1210.0127,1234.3438,1200.0127,1238.3438,1204.0127,1234.3438" style="stroke:#181818;stroke-width:1.0;"/><line style="stroke:#181818;stroke-width:1.0;" x1="981.4019" x2="1206.0127" y1="1234.3438" y2="1234.3438"/><text fill="#000000" font-family="sans-serif" font-size="13" font-weight="bold" lengthAdjust="spacing" textLength="39.019" x="988.4019" y="1229.2778">[012]</text><text fill="#000000" font-family="sans-serif" font-size="13" lengthAdjust="spacing" textLength="114.8735" x="1031.4209" y="1229.2778">GraphQL Request</text><polygon fill="#FF0000" points="78.2651,1259.4766,68.2651,1263.4766,78.2651,1267.4766,74.2651,1263.4766" style="stroke:#FF0000;stroke-width:1.0;"/><line style="stroke:#FF0000;stroke-width:2.0;" x1="953.4019" x2="963.4019" y1="1258.4766" y2="1268.4766"/><line style="stroke:#FF0000;stroke-width:2.0;" x1="953.4019" x2="963.4019" y1="1268.4766" y2="1258.4766"/><line style="stroke:#FF0000;stroke-width:1.0;stroke-dasharray:2.0,2.0;" x1="72.2651" x2="958.4019" y1="1263.4766" y2="1263.4766"/><text fill="#FF0000" font-family="sans-serif" font-size="13" lengthAdjust="spacing" textLength="171.9834" x="84.2651" y="1258.4106">[22] 504 Gateway timeout</text><polygon fill="#FF0000" points="992.4019,1288.6094,982.4019,1292.6094,992.4019,1296.6094,988.4019,1292.6094" style="stroke:#FF0000;stroke-width:1.0;"/><line style="stroke:#FF0000;stroke-width:2.0;" x1="1194.0127" x2="1204.0127" y1="1287.6094" y2="1297.6094"/><line style="stroke:#FF0000;stroke-width:2.0;" x1="1194.0127" x2="1204.0127" y1="1297.6094" y2="1287.6094"/><line style="stroke:#FF0000;stroke-width:1.0;stroke-dasharray:2.0,2.0;" x1="986.4019" x2="1199.0127" y1="1292.6094" y2="1292.6094"/><text fill="#FF0000" font-family="sans-serif" font-size="13" lengthAdjust="spacing" textLength="193.1909" x="998.4019" y="1287.5435">[23] 500 Internal Server Error</text><polygon fill="#FF0000" points="78.2651,1317.7422,68.2651,1321.7422,78.2651,1325.7422,74.2651,1321.7422" style="stroke:#FF0000;stroke-width:1.0;"/><line style="stroke:#FF0000;stroke-width:2.0;" x1="953.4019" x2="963.4019" y1="1316.7422" y2="1326.7422"/><line style="stroke:#FF0000;stroke-width:2.0;" x1="953.4019" x2="963.4019" y1="1326.7422" y2="1316.7422"/><line style="stroke:#FF0000;stroke-width:1.0;stroke-dasharray:2.0,2.0;" x1="72.2651" x2="958.4019" y1="1321.7422" y2="1321.7422"/><text fill="#FF0000" font-family="sans-serif" font-size="13" lengthAdjust="spacing" textLength="193.1909" x="84.2651" y="1316.6763">[23] 500 Internal Server Error</text><polygon fill="#181818" points="992.4019,1346.875,982.4019,1350.875,992.4019,1354.875,988.4019,1350.875" style="stroke:#181818;stroke-width:1.0;"/><line style="stroke:#181818;stroke-width:1.0;stroke-dasharray:2.0,2.0;" x1="986.4019" x2="1216.0127" y1="1350.875" y2="1350.875"/><text fill="#000000" font-family="sans-serif" font-size="13" font-weight="bold" lengthAdjust="spacing" textLength="39.019" x="998.4019" y="1345.8091">[013]</text><text fill="#000000" font-family="sans-serif" font-size="13" lengthAdjust="spacing" textLength="163.5918" x="1041.4209" y="1345.8091">200 Response (GraphQL)</text><polygon fill="#181818" points="73.2651,1376.0078,63.2651,1380.0078,73.2651,1384.0078,69.2651,1380.0078" style="stroke:#181818;stroke-width:1.0;"/><line style="stroke:#181818;stroke-width:1.0;stroke-dasharray:2.0,2.0;" x1="67.2651" x2="975.4019" y1="1380.0078" y2="1380.0078"/><text fill="#000000" font-family="sans-serif" font-size="13" font-weight="bold" lengthAdjust="spacing" textLength="39.019" x="79.2651" y="1374.9419">[014]</text><text fill="#000000" font-family="sans-serif" font-size="13" lengthAdjust="spacing" textLength="163.5918" x="122.2842" y="1374.9419">200 Response (GraphQL)</text><!--SRC=[hLRRRjiu47ttLqpLXstJjIixIRih106IfWrIzEfq5mNIFD3Is2Ogaof9EKc_laDTR6h5EdAy0WnBbERmpE7m3F-0HvbYimK3W_8d69LZhwU_Sv4nnHRmYId3OvunOJwn9E5Y1gFGUNygR-lnOTZhJUGj16U8gS05gg07T6Lh20XUfHo52O1fA6zxA1AWi2fMN9nvebXkfEAQ6OuQrPAGBS19RkO_BuldTWW1mHkUckhRyhRzsHYrp5MCVGUNGklX2ht9SOmpheqtlJgkm3bz_Rx-T8rWKn7vOe8AWgF9yLKOXjT1ZyM6Bvd1MfJo3_h7Rf8HxEsTCB6avK81IoR0qMLlxvi8T2mp3288L3MlVgugHf52bWJVH058s3osKGkU99WsM6aZith-e_xLOuN9TVzhWyTHB5Ef234vlXfUmq5u01-aWQdCHR95wCY6xiE5MBAK9n2NWJ6IdbDB3xV0sY-ntaWriIa9DoEI85zGLQz4TWl7kM_9_Q_bXVJ2fzd39JkmN8VmZs1hMDn6k4CB49BcLRd0nTaMqI_AwMlP7mBnyjwLyyY_IUbnBkYNOX_5Z0i4EPWCbWCewlc9Vhg3s7-LMjLKBosYXvslDk3nEpwRctF5xhgLYRCTTs3yTxa-9t6CMWFLCiVaptiJs4Jm70MgeeuBpFuN-Ttka7jIJj2xONupt9YV2DGEre-eOOH0nfX9eH6Uk1oUTfYaSaJ74bl-R8sHA6Vpp-_WSuxgpfgXPy_2izyeq7RyrQkgSGX9zyfg0t9Q3KQqAAcjrcdnQ7kWmXyvQgDRXlxVSh2TerqIdimQNXkMPbj_0w9stO6d8agILh2Qxev-Li4q60sxUfalUDJ9ntoH-zqzp1T-y13_sgHdewewBNMDqU1rMARrziO0ru2t6QVnRG1Uh07crE-90k7GGO5NcRwz_FZ1bzkcvAgTjKjUByk5feBcqpjddqGmOSdwWOvIshuzfttym-xZ20RbjSrabUD_cTF6b6agRopaaYdE9Ybgk24hB3PEhZ69u6jn3RPSyDfjAkgmGBDkLhierSNykyEDmhBGnwSdho9WBkWsACCIfKusaIIZLN31J3mlyzO-0LjsPhLqJiNHIiTn2UtwVcMygsVtDFs_kEc8xEUGtFISq6_O7HY-G9cR0gpDtC5jPD10tBU8zh11hmHBeOfzhPHK3oIv4TAZkKEkwCCU_6O_hfQWqOfThNshkEhlNS3QpRNTtdy1]--></g></svg>