<?xml version="1.0" encoding="us-ascii" standalone="no"?><svg xmlns="http://www.w3.org/2000/svg" xmlns:xlink="http://www.w3.org/1999/xlink" contentStyleType="text/css" height="399px" preserveAspectRatio="none" style="width:421px;height:399px;background:#FFFFFF;" version="1.1" viewBox="0 0 421 399" width="421px" zoomAndPan="magnify"><defs/><g><text fill="#000000" font-family="sans-serif" font-size="14" font-weight="bold" lengthAdjust="spacing" textLength="177" x="136" y="27.9951">notificatie of melding</text><rect fill="#ADD8E6" height="349.7891" style="stroke:#181818;stroke-width:0.5;" width="146" x="41" y="43.2969"/><text fill="#000000" font-family="sans-serif" font-size="13" font-weight="bold" lengthAdjust="spacing" textLength="5" x="111.5" y="55.3638">&#160;</text><rect fill="#FFFFE0" height="349.7891" style="stroke:#181818;stroke-width:0.5;" width="140" x="269" y="43.2969"/><text fill="#000000" font-family="sans-serif" font-size="13" font-weight="bold" lengthAdjust="spacing" textLength="5" x="336.5" y="55.3638">&#160;</text><rect fill="#FFFFFF" height="62.2656" style="stroke:#181818;stroke-width:1.0;" width="10" x="109" y="148.9922"/><rect fill="#FFFFFF" height="62.2656" style="stroke:#181818;stroke-width:1.0;" width="10" x="109" y="271.5234"/><rect fill="#FFFFFF" height="62.2656" style="stroke:#181818;stroke-width:1.0;" width="10" x="334" y="148.9922"/><rect fill="#FFFFFF" height="62.2656" style="stroke:#181818;stroke-width:1.0;" width="10" x="334" y="271.5234"/><rect fill="none" height="108.5313" style="stroke:#000000;stroke-width:1.5;" width="380" x="35" y="110.7266"/><rect fill="none" height="108.5313" style="stroke:#000000;stroke-width:1.5;" width="380" x="35" y="233.2578"/><line style="stroke:#181818;stroke-width:0.5;stroke-dasharray:5.0,5.0;" x1="114" x2="114" y1="93.7266" y2="358.7891"/><line style="stroke:#181818;stroke-width:0.5;stroke-dasharray:5.0,5.0;" x1="339" x2="339" y1="93.7266" y2="358.7891"/><rect fill="#E2E2F0" height="30.2969" rx="2.5" ry="2.5" style="stroke:#181818;stroke-width:0.5;" width="98" x="65" y="62.4297"/><text fill="#000000" font-family="sans-serif" font-size="14" lengthAdjust="spacing" textLength="84" x="72" y="82.4248">bronhouder</text><rect fill="#E2E2F0" height="30.2969" rx="2.5" ry="2.5" style="stroke:#181818;stroke-width:0.5;" width="98" x="65" y="357.7891"/><text fill="#000000" font-family="sans-serif" font-size="14" lengthAdjust="spacing" textLength="84" x="72" y="377.7842">bronhouder</text><rect fill="#E2E2F0" height="30.2969" rx="2.5" ry="2.5" style="stroke:#181818;stroke-width:0.5;" width="92" x="293" y="62.4297"/><text fill="#000000" font-family="sans-serif" font-size="14" lengthAdjust="spacing" textLength="78" x="300" y="82.4248">deelnemer</text><rect fill="#E2E2F0" height="30.2969" rx="2.5" ry="2.5" style="stroke:#181818;stroke-width:0.5;" width="92" x="293" y="357.7891"/><text fill="#000000" font-family="sans-serif" font-size="14" lengthAdjust="spacing" textLength="78" x="300" y="377.7842">deelnemer</text><rect fill="#FFFFFF" height="62.2656" style="stroke:#181818;stroke-width:1.0;" width="10" x="109" y="148.9922"/><rect fill="#FFFFFF" height="62.2656" style="stroke:#181818;stroke-width:1.0;" width="10" x="109" y="271.5234"/><rect fill="#FFFFFF" height="62.2656" style="stroke:#181818;stroke-width:1.0;" width="10" x="334" y="148.9922"/><rect fill="#FFFFFF" height="62.2656" style="stroke:#181818;stroke-width:1.0;" width="10" x="334" y="271.5234"/><path d="M35,110.7266 L166,110.7266 L166,117.8594 L156,127.8594 L35,127.8594 L35,110.7266 " fill="#EEEEEE" style="stroke:#000000;stroke-width:1.5;"/><rect fill="none" height="108.5313" style="stroke:#000000;stroke-width:1.5;" width="380" x="35" y="110.7266"/><text fill="#000000" font-family="sans-serif" font-size="13" font-weight="bold" lengthAdjust="spacing" textLength="86" x="50" y="123.7935">Notificeren</text><polygon fill="#181818" points="322,144.9922,332,148.9922,322,152.9922,326,148.9922" style="stroke:#181818;stroke-width:1.0;"/><line style="stroke:#181818;stroke-width:1.0;" x1="119" x2="328" y1="148.9922" y2="148.9922"/><text fill="#000000" font-family="sans-serif" font-size="13" font-weight="bold" lengthAdjust="spacing" textLength="31" x="126" y="143.9263">[01]</text><text fill="#000000" font-family="sans-serif" font-size="13" lengthAdjust="spacing" textLength="108" x="161" y="143.9263">sturen notificatie</text><polygon fill="#ADFF2F" points="80,161.9922,147,161.9922,157,172.9922,147,184.9922,80,184.9922,70,172.9922,80,161.9922" style="stroke:#181818;stroke-width:0.5;"/><text fill="#000000" font-family="sans-serif" font-size="13" lengthAdjust="spacing" textLength="63" x="82" y="178.0591">notificatie</text><polygon fill="#181818" points="125,207.2578,115,211.2578,125,215.2578,121,211.2578" style="stroke:#181818;stroke-width:1.0;"/><line style="stroke:#181818;stroke-width:1.0;stroke-dasharray:2.0,2.0;" x1="119" x2="338" y1="211.2578" y2="211.2578"/><text fill="#000000" font-family="sans-serif" font-size="13" font-weight="bold" lengthAdjust="spacing" textLength="31" x="131" y="206.1919">[02]</text><text fill="#000000" font-family="sans-serif" font-size="13" lengthAdjust="spacing" textLength="59" x="166" y="206.1919">response</text><path d="M35,233.2578 L133,233.2578 L133,240.3906 L123,250.3906 L35,250.3906 L35,233.2578 " fill="#EEEEEE" style="stroke:#000000;stroke-width:1.5;"/><rect fill="none" height="108.5313" style="stroke:#000000;stroke-width:1.5;" width="380" x="35" y="233.2578"/><text fill="#000000" font-family="sans-serif" font-size="13" font-weight="bold" lengthAdjust="spacing" textLength="53" x="50" y="246.3247">Melden</text><polygon fill="#181818" points="130,267.5234,120,271.5234,130,275.5234,126,271.5234" style="stroke:#181818;stroke-width:1.0;"/><line style="stroke:#181818;stroke-width:1.0;" x1="124" x2="333" y1="271.5234" y2="271.5234"/><text fill="#000000" font-family="sans-serif" font-size="13" font-weight="bold" lengthAdjust="spacing" textLength="30" x="136" y="266.4575">[03]</text><text fill="#000000" font-family="sans-serif" font-size="13" lengthAdjust="spacing" textLength="96" x="170" y="266.4575">sturen melding</text><polygon fill="#ADFF2F" points="311,284.5234,366,284.5234,376,295.5234,366,307.5234,311,307.5234,301,295.5234,311,284.5234" style="stroke:#181818;stroke-width:0.5;"/><text fill="#000000" font-family="sans-serif" font-size="13" lengthAdjust="spacing" textLength="51" x="313" y="300.5903">melding</text><polygon fill="#181818" points="327,329.7891,337,333.7891,327,337.7891,331,333.7891" style="stroke:#181818;stroke-width:1.0;"/><line style="stroke:#181818;stroke-width:1.0;stroke-dasharray:2.0,2.0;" x1="114" x2="333" y1="333.7891" y2="333.7891"/><text fill="#000000" font-family="sans-serif" font-size="13" font-weight="bold" lengthAdjust="spacing" textLength="31" x="121" y="328.7231">[04]</text><text fill="#000000" font-family="sans-serif" font-size="13" lengthAdjust="spacing" textLength="59" x="156" y="328.7231">response</text><!--SRC=[fP71JiCm38RlUGghEoDLYDE4Tjq9xcZYa3JkQf4wLU9iyFQuQuioE993ejZ_RtznX2GWS1JggRD22B674OCdFflyGJpPP4SOBFjh8X5aw6t8MELq5-feiYoJzRCH7jigx-Bd5dzgZIqIkOmE4pJFxd1gs_V6g0HW5-WyY0i5JLKI6fSY3x5uJ0tO32uRP3zNDRNl2qE8rtkdHmoCushqjVEOOfdWTNat9cG3kbo6XyCiX3raAHgkHtEJ31hG8LsKNsMxOqBajrjlsDTZl8bj9tIngjVMTtU_1X9g5zOZJv7pqi5ZRLFYZVP5lsK5zGkfop-Ssv_zOlH_86lXV_dMaNu3]--></g></svg>