<svg xmlns="http://www.w3.org/2000/svg" xmlns:xlink="http://www.w3.org/1999/xlink" contentStyleType="text/css" height="951px" preserveAspectRatio="none" style="width:1024px;height:951px;background:#FFFFFF;" version="1.1" viewBox="0 0 1024 951" width="1024px" zoomAndPan="magnify"><defs/><g><rect fill="#DDDDDD" height="939.5781" style="stroke:#181818;stroke-width:0.5;" width="102.5303" x="11" y="6"/><text fill="#000000" font-family="sans-serif" font-size="13" font-weight="bold" lengthAdjust="spacing" textLength="79.7266" x="22.4019" y="18.0669">Deelnemer</text><rect fill="#DDDDDD" height="939.5781" style="stroke:#181818;stroke-width:0.5;" width="445.6587" x="267.502" y="6"/><text fill="#000000" font-family="sans-serif" font-size="13" font-weight="bold" lengthAdjust="spacing" textLength="24.8828" x="477.8899" y="18.0669">nID</text><rect fill="#DDDDDD" height="939.5781" style="stroke:#181818;stroke-width:0.5;" width="178.1016" x="840.2212" y="6"/><text fill="#000000" font-family="sans-serif" font-size="13" font-weight="bold" lengthAdjust="spacing" textLength="61.769" x="898.3875" y="18.0669">Register</text><rect fill="#FFFFFF" height="259.0625" style="stroke:#181818;stroke-width:1;" width="10" x="57.2651" y="117.8281"/><rect fill="#FFFFFF" height="472.125" style="stroke:#181818;stroke-width:1;" width="10" x="57.2651" y="421.1563"/><rect fill="#FFFFFF" height="259.0625" style="stroke:#181818;stroke-width:1;" width="10" x="353.1694" y="117.8281"/><rect fill="#FFFFFF" height="472.125" style="stroke:#181818;stroke-width:1;" width="10" x="664.2954" y="421.1563"/><rect fill="#FFFFFF" height="29.1328" style="stroke:#181818;stroke-width:1;" width="10" x="924.272" y="835.0156"/><line style="stroke:#181818;stroke-width:0.5;stroke-dasharray:5.0,5.0;" x1="62" x2="62" y1="56.4297" y2="911.2813"/><line style="stroke:#181818;stroke-width:0.5;stroke-dasharray:5.0,5.0;" x1="357.502" x2="357.502" y1="56.4297" y2="911.2813"/><line style="stroke:#181818;stroke-width:0.5;stroke-dasharray:5.0,5.0;" x1="668.4302" x2="668.4302" y1="56.4297" y2="911.2813"/><line style="stroke:#181818;stroke-width:0.5;stroke-dasharray:5.0,5.0;" x1="929.2212" x2="929.2212" y1="56.4297" y2="911.2813"/><rect fill="#E2E2F0" height="30.2969" rx="2.5" ry="2.5" style="stroke:#181818;stroke-width:0.5;" width="54.5303" x="35" y="25.1328"/><text fill="#000000" font-family="sans-serif" font-size="14" lengthAdjust="spacing" textLength="40.5303" x="42" y="45.1279">Client</text><rect fill="#E2E2F0" height="30.2969" rx="2.5" ry="2.5" style="stroke:#181818;stroke-width:0.5;" width="54.5303" x="35" y="910.2813"/><text fill="#000000" font-family="sans-serif" font-size="14" lengthAdjust="spacing" textLength="40.5303" x="42" y="930.2764">Client</text><rect fill="#E2E2F0" height="30.2969" rx="2.5" ry="2.5" style="stroke:#181818;stroke-width:0.5;" width="133.335" x="291.502" y="25.1328"/><text fill="#000000" font-family="sans-serif" font-size="14" lengthAdjust="spacing" textLength="119.335" x="298.502" y="45.1279">autorisatieserver</text><rect fill="#E2E2F0" height="30.2969" rx="2.5" ry="2.5" style="stroke:#181818;stroke-width:0.5;" width="133.335" x="291.502" y="910.2813"/><text fill="#000000" font-family="sans-serif" font-size="14" lengthAdjust="spacing" textLength="119.335" x="298.502" y="930.2764">autorisatieserver</text><rect fill="#E2E2F0" height="30.2969" rx="2.5" ry="2.5" style="stroke:#181818;stroke-width:0.5;" width="39.7305" x="649.4302" y="25.1328"/><text fill="#000000" font-family="sans-serif" font-size="14" lengthAdjust="spacing" textLength="25.7305" x="656.4302" y="45.1279">PEP</text><rect fill="#E2E2F0" height="30.2969" rx="2.5" ry="2.5" style="stroke:#181818;stroke-width:0.5;" width="39.7305" x="649.4302" y="910.2813"/><text fill="#000000" font-family="sans-serif" font-size="14" lengthAdjust="spacing" textLength="25.7305" x="656.4302" y="930.2764">PEP</text><rect fill="#E2E2F0" height="30.2969" rx="2.5" ry="2.5" style="stroke:#181818;stroke-width:0.5;" width="130.1016" x="864.2212" y="25.1328"/><text fill="#000000" font-family="sans-serif" font-size="14" lengthAdjust="spacing" textLength="116.1016" x="871.2212" y="45.1279">Resource-Server</text><rect fill="#E2E2F0" height="30.2969" rx="2.5" ry="2.5" style="stroke:#181818;stroke-width:0.5;" width="130.1016" x="864.2212" y="910.2813"/><text fill="#000000" font-family="sans-serif" font-size="14" lengthAdjust="spacing" textLength="116.1016" x="871.2212" y="930.2764">Resource-Server</text><rect fill="#FFFFFF" height="259.0625" style="stroke:#181818;stroke-width:1;" width="10" x="57.2651" y="117.8281"/><rect fill="#FFFFFF" height="472.125" style="stroke:#181818;stroke-width:1;" width="10" x="57.2651" y="421.1563"/><rect fill="#FFFFFF" height="259.0625" style="stroke:#181818;stroke-width:1;" width="10" x="353.1694" y="117.8281"/><rect fill="#FFFFFF" height="472.125" style="stroke:#181818;stroke-width:1;" width="10" x="664.2954" y="421.1563"/><rect fill="#FFFFFF" height="29.1328" style="stroke:#181818;stroke-width:1;" width="10" x="924.272" y="835.0156"/><polygon fill="#181818" points="341.1694,113.8281,351.1694,117.8281,341.1694,121.8281,345.1694,117.8281" style="stroke:#181818;stroke-width:1;"/><line style="stroke:#181818;stroke-width:1;" x1="67.2651" x2="347.1694" y1="117.8281" y2="117.8281"/><text fill="#000000" font-family="sans-serif" font-size="13" font-weight="bold" lengthAdjust="spacing" textLength="39.019" x="74.2651" y="82.4966">[001]</text><text fill="#000000" font-family="sans-serif" font-size="13" font-weight="bold" lengthAdjust="spacing" textLength="194.7144" x="117.8101" y="82.4966">Aanvragen van autorisatie</text><text fill="#000000" font-family="sans-serif" font-size="13" lengthAdjust="spacing" textLength="222.8662" x="74.2651" y="97.6294">"scope": "registers/resource:read"</text><text fill="#000000" font-family="sans-serif" font-size="13" lengthAdjust="spacing" textLength="131.625" x="78.3975" y="112.7622">Authenticatiemiddel</text><polygon fill="#FF0000" points="78.2651,142.9609,68.2651,146.9609,78.2651,150.9609,74.2651,146.9609" style="stroke:#FF0000;stroke-width:1;"/><line style="stroke:#FF0000;stroke-width:2;" x1="335.1694" x2="345.1694" y1="141.9609" y2="151.9609"/><line style="stroke:#FF0000;stroke-width:2;" x1="335.1694" x2="345.1694" y1="151.9609" y2="141.9609"/><line style="stroke:#FF0000;stroke-width:1;stroke-dasharray:2.0,2.0;" x1="72.2651" x2="340.1694" y1="146.9609" y2="146.9609"/><text fill="#FF0000" font-family="sans-serif" font-size="13" font-weight="bold" lengthAdjust="spacing" textLength="29.9736" x="84.2651" y="141.895">[01]</text><text fill="#FF0000" font-family="sans-serif" font-size="13" lengthAdjust="spacing" textLength="152.1851" x="122.3711" y="141.895">400 Audience Required</text><polygon fill="#FF0000" points="78.2651,172.0938,68.2651,176.0938,78.2651,180.0938,74.2651,176.0938" style="stroke:#FF0000;stroke-width:1;"/><line style="stroke:#FF0000;stroke-width:2;" x1="335.1694" x2="345.1694" y1="171.0938" y2="181.0938"/><line style="stroke:#FF0000;stroke-width:2;" x1="335.1694" x2="345.1694" y1="181.0938" y2="171.0938"/><line style="stroke:#FF0000;stroke-width:1;stroke-dasharray:2.0,2.0;" x1="72.2651" x2="340.1694" y1="176.0938" y2="176.0938"/><text fill="#FF0000" font-family="sans-serif" font-size="13" font-weight="bold" lengthAdjust="spacing" textLength="29.9736" x="84.2651" y="171.0278">[02]</text><text fill="#FF0000" font-family="sans-serif" font-size="13" lengthAdjust="spacing" textLength="106.8057" x="122.3711" y="171.0278">403 Not Allowed</text><polygon fill="#FF0000" points="78.2651,201.2266,68.2651,205.2266,78.2651,209.2266,74.2651,205.2266" style="stroke:#FF0000;stroke-width:1;"/><line style="stroke:#FF0000;stroke-width:2;" x1="335.1694" x2="345.1694" y1="200.2266" y2="210.2266"/><line style="stroke:#FF0000;stroke-width:2;" x1="335.1694" x2="345.1694" y1="210.2266" y2="200.2266"/><line style="stroke:#FF0000;stroke-width:1;stroke-dasharray:2.0,2.0;" x1="72.2651" x2="340.1694" y1="205.2266" y2="205.2266"/><text fill="#FF0000" font-family="sans-serif" font-size="13" font-weight="bold" lengthAdjust="spacing" textLength="29.9736" x="84.2651" y="200.1606">[03]</text><text fill="#FF0000" font-family="sans-serif" font-size="13" lengthAdjust="spacing" textLength="181.7207" x="122.3711" y="200.1606">403 Invalid client certificate</text><polygon fill="#FF0000" points="78.2651,230.3594,68.2651,234.3594,78.2651,238.3594,74.2651,234.3594" style="stroke:#FF0000;stroke-width:1;"/><line style="stroke:#FF0000;stroke-width:2;" x1="335.1694" x2="345.1694" y1="229.3594" y2="239.3594"/><line style="stroke:#FF0000;stroke-width:2;" x1="335.1694" x2="345.1694" y1="239.3594" y2="229.3594"/><line style="stroke:#FF0000;stroke-width:1;stroke-dasharray:2.0,2.0;" x1="72.2651" x2="340.1694" y1="234.3594" y2="234.3594"/><text fill="#FF0000" font-family="sans-serif" font-size="13" font-weight="bold" lengthAdjust="spacing" textLength="29.9736" x="84.2651" y="229.2935">[04]</text><text fill="#FF0000" font-family="sans-serif" font-size="13" lengthAdjust="spacing" textLength="93.1138" x="122.3711" y="229.2935">404 Not found</text><polygon fill="#FF0000" points="78.2651,259.4922,68.2651,263.4922,78.2651,267.4922,74.2651,263.4922" style="stroke:#FF0000;stroke-width:1;"/><line style="stroke:#FF0000;stroke-width:2;" x1="335.1694" x2="345.1694" y1="258.4922" y2="268.4922"/><line style="stroke:#FF0000;stroke-width:2;" x1="335.1694" x2="345.1694" y1="268.4922" y2="258.4922"/><line style="stroke:#FF0000;stroke-width:1;stroke-dasharray:2.0,2.0;" x1="72.2651" x2="340.1694" y1="263.4922" y2="263.4922"/><text fill="#FF0000" font-family="sans-serif" font-size="13" font-weight="bold" lengthAdjust="spacing" textLength="29.9736" x="84.2651" y="258.4263">[05]</text><text fill="#FF0000" font-family="sans-serif" font-size="13" lengthAdjust="spacing" textLength="162.373" x="122.3711" y="258.4263">500 Internal Server Error</text><line style="stroke:#181818;stroke-width:1;" x1="363.1694" x2="405.1694" y1="292.625" y2="292.625"/><line style="stroke:#181818;stroke-width:1;" x1="405.1694" x2="405.1694" y1="292.625" y2="305.625"/><line style="stroke:#181818;stroke-width:1;" x1="364.1694" x2="405.1694" y1="305.625" y2="305.625"/><polygon fill="#181818" points="374.1694,301.625,364.1694,305.625,374.1694,309.625,370.1694,305.625" style="stroke:#181818;stroke-width:1;"/><text fill="#000000" font-family="sans-serif" font-size="13" font-weight="bold" lengthAdjust="spacing" textLength="258.5464" x="370.1694" y="287.5591">[002] Valideer Authenticatiemiddel</text><line style="stroke:#181818;stroke-width:1;" x1="363.1694" x2="405.1694" y1="334.7578" y2="334.7578"/><line style="stroke:#181818;stroke-width:1;" x1="405.1694" x2="405.1694" y1="334.7578" y2="347.7578"/><line style="stroke:#181818;stroke-width:1;" x1="364.1694" x2="405.1694" y1="347.7578" y2="347.7578"/><polygon fill="#181818" points="374.1694,343.7578,364.1694,347.7578,374.1694,351.7578,370.1694,347.7578" style="stroke:#181818;stroke-width:1;"/><text fill="#000000" font-family="sans-serif" font-size="13" font-weight="bold" lengthAdjust="spacing" textLength="277.126" x="370.1694" y="329.6919">[003] Run Rule-engine o.b.v. scope(s)</text><polygon fill="#181818" points="73.2651,372.8906,63.2651,376.8906,73.2651,380.8906,69.2651,376.8906" style="stroke:#181818;stroke-width:1;"/><line style="stroke:#181818;stroke-width:1;stroke-dasharray:2.0,2.0;" x1="67.2651" x2="357.1694" y1="376.8906" y2="376.8906"/><text fill="#000000" font-family="sans-serif" font-size="13" font-weight="bold" lengthAdjust="spacing" textLength="261.9043" x="79.2651" y="371.8247">[004] 200 Response (Access-Token)</text><polygon fill="#181818" points="652.2954,417.1563,662.2954,421.1563,652.2954,425.1563,656.2954,421.1563" style="stroke:#181818;stroke-width:1;"/><line style="stroke:#181818;stroke-width:1;" x1="67.2651" x2="658.2954" y1="421.1563" y2="421.1563"/><text fill="#000000" font-family="sans-serif" font-size="13" font-weight="bold" lengthAdjust="spacing" textLength="39.019" x="74.2651" y="400.9575">[005]</text><text fill="#000000" font-family="sans-serif" font-size="13" font-weight="bold" lengthAdjust="spacing" textLength="128.4321" x="117.8101" y="400.9575">GraphQL Request</text><text fill="#000000" font-family="sans-serif" font-size="13" lengthAdjust="spacing" textLength="296.5498" x="74.2651" y="416.0903">Authenticatiemiddel + Access-Token + query</text><path d="M679,434.1563 L679,459.1563 L850,459.1563 L850,444.1563 L840,434.1563 L679,434.1563 " fill="#FEFFDD" style="stroke:#181818;stroke-width:0.5;"/><path d="M840,434.1563 L840,444.1563 L850,444.1563 L840,434.1563 " fill="#FEFFDD" style="stroke:#181818;stroke-width:0.5;"/><text fill="#000000" font-family="sans-serif" font-size="13" lengthAdjust="spacing" textLength="150.6172" x="685" y="451.2231">Inline filtering requests</text><polygon fill="#FF0000" points="78.2651,481.4219,68.2651,485.4219,78.2651,489.4219,74.2651,485.4219" style="stroke:#FF0000;stroke-width:1;"/><line style="stroke:#FF0000;stroke-width:2;" x1="646.2954" x2="656.2954" y1="480.4219" y2="490.4219"/><line style="stroke:#FF0000;stroke-width:2;" x1="646.2954" x2="656.2954" y1="490.4219" y2="480.4219"/><line style="stroke:#FF0000;stroke-width:1;stroke-dasharray:2.0,2.0;" x1="72.2651" x2="651.2954" y1="485.4219" y2="485.4219"/><text fill="#FF0000" font-family="sans-serif" font-size="13" font-weight="bold" lengthAdjust="spacing" textLength="29.9736" x="84.2651" y="480.356">[06]</text><text fill="#FF0000" font-family="sans-serif" font-size="13" lengthAdjust="spacing" textLength="164.8677" x="118.2388" y="480.356">400 Invalid Query Syntax</text><polygon fill="#FF0000" points="78.2651,510.5547,68.2651,514.5547,78.2651,518.5547,74.2651,514.5547" style="stroke:#FF0000;stroke-width:1;"/><line style="stroke:#FF0000;stroke-width:2;" x1="646.2954" x2="656.2954" y1="509.5547" y2="519.5547"/><line style="stroke:#FF0000;stroke-width:2;" x1="646.2954" x2="656.2954" y1="519.5547" y2="509.5547"/><line style="stroke:#FF0000;stroke-width:1;stroke-dasharray:2.0,2.0;" x1="72.2651" x2="651.2954" y1="514.5547" y2="514.5547"/><text fill="#FF0000" font-family="sans-serif" font-size="13" font-weight="bold" lengthAdjust="spacing" textLength="29.9736" x="84.2651" y="509.4888">[07]</text><text fill="#FF0000" font-family="sans-serif" font-size="13" lengthAdjust="spacing" textLength="116.2256" x="118.2388" y="509.4888">401 Unauthorized</text><polygon fill="#FF0000" points="78.2651,539.6875,68.2651,543.6875,78.2651,547.6875,74.2651,543.6875" style="stroke:#FF0000;stroke-width:1;"/><line style="stroke:#FF0000;stroke-width:2;" x1="646.2954" x2="656.2954" y1="538.6875" y2="548.6875"/><line style="stroke:#FF0000;stroke-width:2;" x1="646.2954" x2="656.2954" y1="548.6875" y2="538.6875"/><line style="stroke:#FF0000;stroke-width:1;stroke-dasharray:2.0,2.0;" x1="72.2651" x2="651.2954" y1="543.6875" y2="543.6875"/><text fill="#FF0000" font-family="sans-serif" font-size="13" font-weight="bold" lengthAdjust="spacing" textLength="29.9736" x="84.2651" y="538.6216">[08]</text><text fill="#FF0000" font-family="sans-serif" font-size="13" lengthAdjust="spacing" textLength="113.1724" x="118.2388" y="538.6216">400 No operation</text><polygon fill="#FF0000" points="78.2651,568.8203,68.2651,572.8203,78.2651,576.8203,74.2651,572.8203" style="stroke:#FF0000;stroke-width:1;"/><line style="stroke:#FF0000;stroke-width:2;" x1="646.2954" x2="656.2954" y1="567.8203" y2="577.8203"/><line style="stroke:#FF0000;stroke-width:2;" x1="646.2954" x2="656.2954" y1="577.8203" y2="567.8203"/><line style="stroke:#FF0000;stroke-width:1;stroke-dasharray:2.0,2.0;" x1="72.2651" x2="651.2954" y1="572.8203" y2="572.8203"/><text fill="#FF0000" font-family="sans-serif" font-size="13" font-weight="bold" lengthAdjust="spacing" textLength="29.9736" x="84.2651" y="567.7544">[09]</text><text fill="#FF0000" font-family="sans-serif" font-size="13" lengthAdjust="spacing" textLength="114.4102" x="118.2388" y="567.7544">400 Invalid scope</text><polygon fill="#FF0000" points="78.2651,597.9531,68.2651,601.9531,78.2651,605.9531,74.2651,601.9531" style="stroke:#FF0000;stroke-width:1;"/><line style="stroke:#FF0000;stroke-width:2;" x1="646.2954" x2="656.2954" y1="596.9531" y2="606.9531"/><line style="stroke:#FF0000;stroke-width:2;" x1="646.2954" x2="656.2954" y1="606.9531" y2="596.9531"/><line style="stroke:#FF0000;stroke-width:1;stroke-dasharray:2.0,2.0;" x1="72.2651" x2="651.2954" y1="601.9531" y2="601.9531"/><text fill="#FF0000" font-family="sans-serif" font-size="13" font-weight="bold" lengthAdjust="spacing" textLength="29.9736" x="84.2651" y="596.8872">[10]</text><text fill="#FF0000" font-family="sans-serif" font-size="13" lengthAdjust="spacing" textLength="189.1919" x="118.2388" y="596.8872">403 Invallid Client Certificate</text><polygon fill="#FF0000" points="78.2651,627.0859,68.2651,631.0859,78.2651,635.0859,74.2651,631.0859" style="stroke:#FF0000;stroke-width:1;"/><line style="stroke:#FF0000;stroke-width:2;" x1="646.2954" x2="656.2954" y1="626.0859" y2="636.0859"/><line style="stroke:#FF0000;stroke-width:2;" x1="646.2954" x2="656.2954" y1="636.0859" y2="626.0859"/><line style="stroke:#FF0000;stroke-width:1;stroke-dasharray:2.0,2.0;" x1="72.2651" x2="651.2954" y1="631.0859" y2="631.0859"/><text fill="#FF0000" font-family="sans-serif" font-size="13" font-weight="bold" lengthAdjust="spacing" textLength="29.9736" x="84.2651" y="626.02">[11]</text><text fill="#FF0000" font-family="sans-serif" font-size="13" lengthAdjust="spacing" textLength="106.8057" x="118.2388" y="626.02">403 Not Allowed</text><polygon fill="#FF0000" points="78.2651,656.2188,68.2651,660.2188,78.2651,664.2188,74.2651,660.2188" style="stroke:#FF0000;stroke-width:1;"/><line style="stroke:#FF0000;stroke-width:2;" x1="646.2954" x2="656.2954" y1="655.2188" y2="665.2188"/><line style="stroke:#FF0000;stroke-width:2;" x1="646.2954" x2="656.2954" y1="665.2188" y2="655.2188"/><line style="stroke:#FF0000;stroke-width:1;stroke-dasharray:2.0,2.0;" x1="72.2651" x2="651.2954" y1="660.2188" y2="660.2188"/><text fill="#FF0000" font-family="sans-serif" font-size="13" font-weight="bold" lengthAdjust="spacing" textLength="29.9736" x="84.2651" y="655.1528">[12]</text><text fill="#FF0000" font-family="sans-serif" font-size="13" lengthAdjust="spacing" textLength="116.2256" x="118.2388" y="655.1528">403 Unauthorized</text><polygon fill="#FF0000" points="78.2651,685.3516,68.2651,689.3516,78.2651,693.3516,74.2651,689.3516" style="stroke:#FF0000;stroke-width:1;"/><line style="stroke:#FF0000;stroke-width:2;" x1="646.2954" x2="656.2954" y1="684.3516" y2="694.3516"/><line style="stroke:#FF0000;stroke-width:2;" x1="646.2954" x2="656.2954" y1="694.3516" y2="684.3516"/><line style="stroke:#FF0000;stroke-width:1;stroke-dasharray:2.0,2.0;" x1="72.2651" x2="651.2954" y1="689.3516" y2="689.3516"/><text fill="#FF0000" font-family="sans-serif" font-size="13" font-weight="bold" lengthAdjust="spacing" textLength="29.9736" x="84.2651" y="684.2856">[13]</text><text fill="#FF0000" font-family="sans-serif" font-size="13" lengthAdjust="spacing" textLength="159.1357" x="118.2388" y="684.2856">403 Policy Acces Denied</text><polygon fill="#FF0000" points="78.2651,714.4844,68.2651,718.4844,78.2651,722.4844,74.2651,718.4844" style="stroke:#FF0000;stroke-width:1;"/><line style="stroke:#FF0000;stroke-width:2;" x1="646.2954" x2="656.2954" y1="713.4844" y2="723.4844"/><line style="stroke:#FF0000;stroke-width:2;" x1="646.2954" x2="656.2954" y1="723.4844" y2="713.4844"/><line style="stroke:#FF0000;stroke-width:1;stroke-dasharray:2.0,2.0;" x1="72.2651" x2="651.2954" y1="718.4844" y2="718.4844"/><text fill="#FF0000" font-family="sans-serif" font-size="13" font-weight="bold" lengthAdjust="spacing" textLength="29.9736" x="84.2651" y="713.4185">[14]</text><text fill="#FF0000" font-family="sans-serif" font-size="13" lengthAdjust="spacing" textLength="237.1421" x="118.2388" y="713.4185">403 Request does not match scopes</text><polygon fill="#FF0000" points="78.2651,743.6172,68.2651,747.6172,78.2651,751.6172,74.2651,747.6172" style="stroke:#FF0000;stroke-width:1;"/><line style="stroke:#FF0000;stroke-width:2;" x1="646.2954" x2="656.2954" y1="742.6172" y2="752.6172"/><line style="stroke:#FF0000;stroke-width:2;" x1="646.2954" x2="656.2954" y1="752.6172" y2="742.6172"/><line style="stroke:#FF0000;stroke-width:1;stroke-dasharray:2.0,2.0;" x1="72.2651" x2="651.2954" y1="747.6172" y2="747.6172"/><text fill="#FF0000" font-family="sans-serif" font-size="13" font-weight="bold" lengthAdjust="spacing" textLength="29.9736" x="84.2651" y="742.5513">[15]</text><text fill="#FF0000" font-family="sans-serif" font-size="13" lengthAdjust="spacing" textLength="141.1655" x="118.2388" y="742.5513">504 Gateway timeout</text><polygon fill="#FF0000" points="78.2651,772.75,68.2651,776.75,78.2651,780.75,74.2651,776.75" style="stroke:#FF0000;stroke-width:1;"/><line style="stroke:#FF0000;stroke-width:2;" x1="646.2954" x2="656.2954" y1="771.75" y2="781.75"/><line style="stroke:#FF0000;stroke-width:2;" x1="646.2954" x2="656.2954" y1="781.75" y2="771.75"/><line style="stroke:#FF0000;stroke-width:1;stroke-dasharray:2.0,2.0;" x1="72.2651" x2="651.2954" y1="776.75" y2="776.75"/><text fill="#FF0000" font-family="sans-serif" font-size="13" font-weight="bold" lengthAdjust="spacing" textLength="29.9736" x="84.2651" y="771.6841">[16]</text><text fill="#FF0000" font-family="sans-serif" font-size="13" lengthAdjust="spacing" textLength="160.6782" x="118.2388" y="771.6841">500 Internal server error</text><polygon fill="#FF0000" points="78.2651,801.8828,68.2651,805.8828,78.2651,809.8828,74.2651,805.8828" style="stroke:#FF0000;stroke-width:1;"/><line style="stroke:#FF0000;stroke-width:2;" x1="646.2954" x2="656.2954" y1="800.8828" y2="810.8828"/><line style="stroke:#FF0000;stroke-width:2;" x1="646.2954" x2="656.2954" y1="810.8828" y2="800.8828"/><line style="stroke:#FF0000;stroke-width:1;stroke-dasharray:2.0,2.0;" x1="72.2651" x2="651.2954" y1="805.8828" y2="805.8828"/><text fill="#FF0000" font-family="sans-serif" font-size="13" font-weight="bold" lengthAdjust="spacing" textLength="29.9736" x="84.2651" y="800.8169">[17]</text><text fill="#FF0000" font-family="sans-serif" font-size="13" lengthAdjust="spacing" textLength="113.8198" x="118.2388" y="800.8169">502 Bad gateway</text><polygon fill="#181818" points="912.272,831.0156,922.272,835.0156,912.272,839.0156,916.272,835.0156" style="stroke:#181818;stroke-width:1;"/><line style="stroke:#181818;stroke-width:1;" x1="674.2954" x2="918.272" y1="835.0156" y2="835.0156"/><text fill="#000000" font-family="sans-serif" font-size="13" font-weight="bold" lengthAdjust="spacing" textLength="171.9771" x="681.2954" y="829.9497">[006] GraphQL Request</text><polygon fill="#181818" points="685.2954,860.1484,675.2954,864.1484,685.2954,868.1484,681.2954,864.1484" style="stroke:#181818;stroke-width:1;"/><line style="stroke:#181818;stroke-width:1;stroke-dasharray:2.0,2.0;" x1="679.2954" x2="928.272" y1="864.1484" y2="864.1484"/><text fill="#000000" font-family="sans-serif" font-size="13" font-weight="bold" lengthAdjust="spacing" textLength="225.9766" x="691.2954" y="859.0825">[007] 200 Response (GraphQL)</text><polygon fill="#181818" points="73.2651,889.2813,63.2651,893.2813,73.2651,897.2813,69.2651,893.2813" style="stroke:#181818;stroke-width:1;"/><line style="stroke:#181818;stroke-width:1;stroke-dasharray:2.0,2.0;" x1="67.2651" x2="668.2954" y1="893.2813" y2="893.2813"/><text fill="#000000" font-family="sans-serif" font-size="13" font-weight="bold" lengthAdjust="spacing" textLength="225.9766" x="79.2651" y="888.2153">[008] 200 Response (GraphQL)</text><!--SRC=[dLLTJzim57tFhxZB7ZOwXGKesuGGKlaOgZIXKhPf4kJ1JMvRYyJERATGVlskuwHDIj48bIh57-VSw-jphZ_0kronMSR0e7m2emhqF7tFHSuKos34bE4npvam8vOaNCnWFsoidyh7UdulzBo9V0J_734LcA7oFQ1VlgO0_opbA8mFJ8Fxz50aGB0AAuRdMr2iC59npGn7ZMf1p9PWK9ZvqqqvVWuPNOpAJTzvQcYz7MMCCwxDrWJ7g6MXOWnkre5KDUTYhxaypvq1WfDcCaTmF3cv3SEz27gz0HCBgYyAM301ZOFqUdV2rx7CqJy2NrKPwSzri2E5BF7lHCbCGNXiKHbF4amz5Xk-O0Rh8gx6pPfudWqdYco22lpZMAPI4MjoujAB_3hzu-3sFSr7mP_MCHe8w8SXhIMqFKOOuz-2qtGd_05SIGE3D9KFdP53iM0fJo1sg1ZfmgQs8DY9g5-cC9M5w9B08HrzAEXk14l1hSE5Kb8rowkDpAqW6YGlg68_Wj_sC4Wxjbtj_naE8XWNWluf1YXcN238tSdkOXTAENtKEsqIOgbr6jGS_OXy7D9DwbmAZV1n49E-TV1JtgFOyHBSggZ6T2MyXWESq-e0XrRybuhby-iVfM1G6olvBKU6Jz2CJaFQhPOlYxpoj93qhVXiRa1EL-678hKLcPP3svUK2wvRTY2N5HbrEkl_vr9O7MKjWtwf0YV3QviUt2o5OOzT6FRWbw0SvjG2diW3dM9VIQ2xLLGrATwMTIcEBj3ATnPR8SuQnkj4rBH-9-1R2tO08vdoUEcK1USeU5U2IhIGI28WhK76J3ntPTIlfpgajdD91NjWIp0yGrcOBk16xt7F3s3PUpfGxCCfIs3cSjZIj1p8MhZzqDLM_XB1Xf7NLjnu6jl3ilMqsyBNpRvJCRTQpWRfAi5L8wlPlhs6hUeMpthNFm00]--></g></svg>