<svg xmlns="http://www.w3.org/2000/svg" xmlns:xlink="http://www.w3.org/1999/xlink" contentStyleType="text/css" data-diagram-type="SEQUENCE" height="884px" preserveAspectRatio="none" style="width:1074px;height:884px;background:#FFFFFF;" version="1.1" viewBox="0 0 1074 884" width="1074px" zoomAndPan="magnify"><title>foutmelden sequence-diagram</title><defs/><g><text fill="#000000" font-family="sans-serif" font-size="14" font-weight="bold" lengthAdjust="spacing" textLength="241.7188" x="423.5359" y="27.9951">foutmelden sequence-diagram</text><rect fill="#FFFFE0" height="835.5078" style="stroke:#181818;stroke-width:0.5;" width="127.1396" x="41" y="43.2969"/><text fill="#000000" font-family="sans-serif" font-size="13" font-weight="bold" lengthAdjust="spacing" textLength="78.2412" x="63.1863" y="55.3638">deelnemer</text><rect fill="#DDDDDD" height="835.5078" style="stroke:#181818;stroke-width:0.5;" width="495.5249" x="313.4629" y="43.2969"/><text fill="#000000" font-family="sans-serif" font-size="13" font-weight="bold" lengthAdjust="spacing" textLength="24.8828" x="548.7839" y="55.3638">nID</text><rect fill="#ADD8E6" height="835.5078" style="stroke:#181818;stroke-width:0.5;" width="132.1914" x="890.9878" y="43.2969"/><text fill="#000000" font-family="sans-serif" font-size="13" font-weight="bold" lengthAdjust="spacing" textLength="85.8774" x="911.8818" y="55.3638">bronhouder</text><rect fill="#FFFFFF" height="597.5234" style="stroke:#181818;stroke-width:1;" width="10" x="99.5698" y="221.6875"/><rect fill="#A9A9A9" height="29.1328" style="stroke:#181818;stroke-width:1;" width="10" x="399.1304" y="392.3516"/><rect fill="#A9A9A9" height="302.3281" style="stroke:#181818;stroke-width:1;" width="10" x="535.6631" y="465.75"/><rect fill="#A9A9A9" height="100.3984" style="stroke:#181818;stroke-width:1;" width="10" x="540.6631" y="552.1484"/><rect fill="#A9A9A9" height="71.2656" style="stroke:#181818;stroke-width:1;" width="10" x="759.1553" y="552.1484"/><rect fill="#FFFFFF" height="86.3984" style="stroke:#181818;stroke-width:1;" width="10" x="952.0835" y="652.5469"/><line style="stroke:#181818;stroke-width:0.5;stroke-dasharray:5.0,5.0;" x1="104" x2="104" y1="110.0234" y2="828.2109"/><line style="stroke:#181818;stroke-width:0.5;stroke-dasharray:5.0,5.0;" x1="403.4629" x2="403.4629" y1="110.0234" y2="828.2109"/><line style="stroke:#181818;stroke-width:0.5;stroke-dasharray:5.0,5.0;" x1="539.7979" x2="539.7979" y1="110.0234" y2="828.2109"/><line style="stroke:#181818;stroke-width:0.5;stroke-dasharray:5.0,5.0;" x1="763.3228" x2="763.3228" y1="110.0234" y2="828.2109"/><line style="stroke:#181818;stroke-width:0.5;stroke-dasharray:5.0,5.0;" x1="956.9878" x2="956.9878" y1="110.0234" y2="828.2109"/><rect fill="#E2E2F0" height="30.2969" rx="2.5" ry="2.5" style="stroke:#181818;stroke-width:0.5;" width="79.1396" x="65" y="78.7266"/><text fill="#000000" font-family="sans-serif" font-size="14" lengthAdjust="spacing" textLength="65.1396" x="72" y="98.7217">Resource</text><rect fill="#E2E2F0" height="30.2969" rx="2.5" ry="2.5" style="stroke:#181818;stroke-width:0.5;" width="79.1396" x="65" y="827.2109"/><text fill="#000000" font-family="sans-serif" font-size="14" lengthAdjust="spacing" textLength="65.1396" x="72" y="847.2061">Resource</text><rect fill="#E2E2F0" height="30.2969" rx="2.5" ry="2.5" style="stroke:#181818;stroke-width:0.5;" width="133.335" x="337.4629" y="78.7266"/><text fill="#000000" font-family="sans-serif" font-size="14" lengthAdjust="spacing" textLength="119.335" x="344.4629" y="98.7217">autorisatieserver</text><rect fill="#E2E2F0" height="30.2969" rx="2.5" ry="2.5" style="stroke:#181818;stroke-width:0.5;" width="133.335" x="337.4629" y="827.2109"/><text fill="#000000" font-family="sans-serif" font-size="14" lengthAdjust="spacing" textLength="119.335" x="344.4629" y="847.2061">autorisatieserver</text><rect fill="#E2E2F0" height="30.2969" rx="2.5" ry="2.5" style="stroke:#181818;stroke-width:0.5;" width="39.7305" x="520.7979" y="78.7266"/><text fill="#000000" font-family="sans-serif" font-size="14" lengthAdjust="spacing" textLength="25.7305" x="527.7979" y="98.7217">PEP</text><rect fill="#E2E2F0" height="30.2969" rx="2.5" ry="2.5" style="stroke:#181818;stroke-width:0.5;" width="39.7305" x="520.7979" y="827.2109"/><text fill="#000000" font-family="sans-serif" font-size="14" lengthAdjust="spacing" textLength="25.7305" x="527.7979" y="847.2061">PEP</text><rect fill="#E2E2F0" height="30.2969" rx="2.5" ry="2.5" style="stroke:#181818;stroke-width:0.5;" width="41.665" x="743.3228" y="78.7266"/><text fill="#000000" font-family="sans-serif" font-size="14" lengthAdjust="spacing" textLength="27.665" x="750.3228" y="98.7217">PDP</text><rect fill="#E2E2F0" height="30.2969" rx="2.5" ry="2.5" style="stroke:#181818;stroke-width:0.5;" width="41.665" x="743.3228" y="827.2109"/><text fill="#000000" font-family="sans-serif" font-size="14" lengthAdjust="spacing" textLength="27.665" x="750.3228" y="847.2061">PDP</text><rect fill="#E2E2F0" height="46.5938" rx="2.5" ry="2.5" style="stroke:#181818;stroke-width:0.5;" width="84.1914" x="914.9878" y="62.4297"/><text fill="#000000" font-family="sans-serif" font-size="14" lengthAdjust="spacing" textLength="70.1914" x="921.9878" y="82.4248">Resource-</text><text fill="#000000" font-family="sans-serif" font-size="14" lengthAdjust="spacing" textLength="45.9102" x="934.1284" y="98.7217">Server</text><rect fill="#E2E2F0" height="46.5938" rx="2.5" ry="2.5" style="stroke:#181818;stroke-width:0.5;" width="84.1914" x="914.9878" y="827.2109"/><text fill="#000000" font-family="sans-serif" font-size="14" lengthAdjust="spacing" textLength="70.1914" x="921.9878" y="847.2061">Resource-</text><text fill="#000000" font-family="sans-serif" font-size="14" lengthAdjust="spacing" textLength="45.9102" x="934.1284" y="863.5029">Server</text><rect fill="#FFFFFF" height="597.5234" style="stroke:#181818;stroke-width:1;" width="10" x="99.5698" y="221.6875"/><rect fill="#A9A9A9" height="29.1328" style="stroke:#181818;stroke-width:1;" width="10" x="399.1304" y="392.3516"/><rect fill="#A9A9A9" height="302.3281" style="stroke:#181818;stroke-width:1;" width="10" x="535.6631" y="465.75"/><rect fill="#A9A9A9" height="100.3984" style="stroke:#181818;stroke-width:1;" width="10" x="540.6631" y="552.1484"/><rect fill="#A9A9A9" height="71.2656" style="stroke:#181818;stroke-width:1;" width="10" x="759.1553" y="552.1484"/><rect fill="#FFFFFF" height="86.3984" style="stroke:#181818;stroke-width:1;" width="10" x="952.0835" y="652.5469"/><path d="M380,125.0234 L380,195.0234 L701,195.0234 L701,135.0234 L691,125.0234 L380,125.0234 " fill="#90EE90" style="stroke:#181818;stroke-width:0.5;"/><path d="M691,125.0234 L691,135.0234 L701,135.0234 L691,125.0234 " fill="#90EE90" style="stroke:#181818;stroke-width:0.5;"/><text fill="#000000" font-family="sans-serif" font-size="13" lengthAdjust="spacing" textLength="225.1323" x="386" y="142.0903">Het autorisatie en validatie-proces</text><text fill="#000000" font-family="sans-serif" font-size="13" lengthAdjust="spacing" textLength="168.9873" x="386" y="157.2231">is beschreven in RFC0014</text><text fill="#000000" font-family="sans-serif" font-size="13" lengthAdjust="spacing" textLength="295.8896" x="386" y="172.356">Functionele uitwerking aanvragen autorisatie</text><text fill="#000000" font-family="sans-serif" font-size="13" lengthAdjust="spacing" textLength="69.2402" x="386" y="187.4888">(oAuth2.0)</text><polygon fill="#181818" points="120.5698,217.6875,110.5698,221.6875,120.5698,225.6875,116.5698,221.6875" style="stroke:#181818;stroke-width:1;"/><ellipse cx="956.5835" cy="220.9375" fill="#000000" rx="4" ry="4" style="stroke:#181818;stroke-width:1.5;"/><line style="stroke:#181818;stroke-width:1;" x1="114.5698" x2="952.0835" y1="221.6875" y2="221.6875"/><text fill="#000000" font-family="sans-serif" font-size="13" font-weight="bold" lengthAdjust="spacing" textLength="29.9736" x="126.5698" y="216.6216">[01]</text><text fill="#000000" font-family="sans-serif" font-size="13" font-weight="bold" lengthAdjust="spacing" textLength="184.9453" x="160.5435" y="216.6216">ontvang data uit register</text><line style="stroke:#181818;stroke-width:1;" x1="109.5698" x2="151.5698" y1="250.8203" y2="250.8203"/><line style="stroke:#181818;stroke-width:1;" x1="151.5698" x2="151.5698" y1="250.8203" y2="263.8203"/><line style="stroke:#181818;stroke-width:1;" x1="110.5698" x2="151.5698" y1="263.8203" y2="263.8203"/><polygon fill="#181818" points="120.5698,259.8203,110.5698,263.8203,120.5698,267.8203,116.5698,263.8203" style="stroke:#181818;stroke-width:1;"/><text fill="#000000" font-family="sans-serif" font-size="13" font-weight="bold" lengthAdjust="spacing" textLength="29.9736" x="116.5698" y="245.7544">[02]</text><text fill="#000000" font-family="sans-serif" font-size="13" font-weight="bold" lengthAdjust="spacing" textLength="97.1001" x="150.5435" y="245.7544">valideer data</text><line style="stroke:#181818;stroke-width:1;" x1="109.5698" x2="151.5698" y1="292.9531" y2="292.9531"/><line style="stroke:#181818;stroke-width:1;" x1="151.5698" x2="151.5698" y1="292.9531" y2="305.9531"/><line style="stroke:#181818;stroke-width:1;" x1="122.5698" x2="151.5698" y1="305.9531" y2="305.9531"/><line style="stroke:#181818;stroke-width:2;" x1="115.5698" x2="125.5698" y1="300.9531" y2="310.9531"/><line style="stroke:#181818;stroke-width:2;" x1="115.5698" x2="125.5698" y1="310.9531" y2="300.9531"/><text fill="#000000" font-family="sans-serif" font-size="13" font-weight="bold" lengthAdjust="spacing" textLength="29.9736" x="116.5698" y="287.8872">[03]</text><text fill="#000000" font-family="sans-serif" font-size="13" font-weight="bold" lengthAdjust="spacing" textLength="118.771" x="150.5435" y="287.8872">bepaal foutcode</text><line style="stroke:#181818;stroke-width:1;" x1="109.5698" x2="151.5698" y1="335.0859" y2="335.0859"/><line style="stroke:#181818;stroke-width:1;" x1="151.5698" x2="151.5698" y1="335.0859" y2="348.0859"/><line style="stroke:#181818;stroke-width:1;" x1="110.5698" x2="151.5698" y1="348.0859" y2="348.0859"/><polygon fill="#181818" points="120.5698,344.0859,110.5698,348.0859,120.5698,352.0859,116.5698,348.0859" style="stroke:#181818;stroke-width:1;"/><text fill="#000000" font-family="sans-serif" font-size="13" font-weight="bold" lengthAdjust="spacing" textLength="29.9736" x="116.5698" y="330.02">[04]</text><text fill="#000000" font-family="sans-serif" font-size="13" font-weight="bold" lengthAdjust="spacing" textLength="228.6489" x="150.5435" y="330.02">genereer GraphQL foutmelding</text><polygon fill="#181818" points="387.1304,388.3516,397.1304,392.3516,387.1304,396.3516,391.1304,392.3516" style="stroke:#181818;stroke-width:1;"/><line style="stroke:#181818;stroke-width:1;" x1="109.5698" x2="393.1304" y1="392.3516" y2="392.3516"/><text fill="#000000" font-family="sans-serif" font-size="13" lengthAdjust="spacing" textLength="172.415" x="116.5698" y="372.1528">Aanvragen van autorisatie</text><text fill="#000000" font-family="sans-serif" font-size="13" lengthAdjust="spacing" textLength="250.6245" x="116.5698" y="387.2856">"scope": "..meldingen/melding:create"</text><polygon fill="#181818" points="120.5698,417.4844,110.5698,421.4844,120.5698,425.4844,116.5698,421.4844" style="stroke:#181818;stroke-width:1;"/><line style="stroke:#181818;stroke-width:1;stroke-dasharray:2.0,2.0;" x1="114.5698" x2="403.1304" y1="421.4844" y2="421.4844"/><text fill="#000000" font-family="sans-serif" font-size="13" lengthAdjust="spacing" textLength="224.085" x="126.5698" y="416.4185">200 Response (JWT Access-Token)</text><polygon fill="#181818" points="523.6631,461.75,533.6631,465.75,523.6631,469.75,527.6631,465.75" style="stroke:#181818;stroke-width:1;"/><line style="stroke:#181818;stroke-width:1;" x1="109.5698" x2="529.6631" y1="465.75" y2="465.75"/><text fill="#000000" font-family="sans-serif" font-size="13" font-weight="bold" lengthAdjust="spacing" textLength="29.9736" x="116.5698" y="453.1177">[05]</text><text fill="#000000" font-family="sans-serif" font-size="13" font-weight="bold" lengthAdjust="spacing" textLength="128.4321" x="150.5435" y="445.5513">GraphQL Request</text><text fill="#000000" font-family="sans-serif" font-size="13" lengthAdjust="spacing" textLength="366.2788" x="150.5435" y="460.6841">Authenticatiemiddel + JWT Access-Token + foutmelding</text><line style="stroke:#181818;stroke-width:1;" x1="545.6631" x2="587.6631" y1="510.0156" y2="510.0156"/><line style="stroke:#181818;stroke-width:1;" x1="587.6631" x2="587.6631" y1="510.0156" y2="523.0156"/><line style="stroke:#181818;stroke-width:1;" x1="546.6631" x2="587.6631" y1="523.0156" y2="523.0156"/><polygon fill="#181818" points="556.6631,519.0156,546.6631,523.0156,556.6631,527.0156,552.6631,523.0156" style="stroke:#181818;stroke-width:1;"/><text fill="#000000" font-family="sans-serif" font-size="13" lengthAdjust="spacing" textLength="165.4136" x="552.6631" y="489.8169">Valideer Authenticatie en</text><text fill="#000000" font-family="sans-serif" font-size="13" lengthAdjust="spacing" textLength="44.7319" x="552.6631" y="504.9497">Access</text><polygon fill="#181818" points="747.1553,548.1484,757.1553,552.1484,747.1553,556.1484,751.1553,552.1484" style="stroke:#181818;stroke-width:1;"/><line style="stroke:#181818;stroke-width:1;" x1="550.6631" x2="753.1553" y1="552.1484" y2="552.1484"/><text fill="#000000" font-family="sans-serif" font-size="13" lengthAdjust="spacing" textLength="194.4922" x="557.6631" y="547.0825">GraphQL met policy valideren</text><line style="stroke:#181818;stroke-width:1;" x1="769.1553" x2="811.1553" y1="581.2813" y2="581.2813"/><line style="stroke:#181818;stroke-width:1;" x1="811.1553" x2="811.1553" y1="581.2813" y2="594.2813"/><line style="stroke:#181818;stroke-width:1;" x1="770.1553" x2="811.1553" y1="594.2813" y2="594.2813"/><polygon fill="#181818" points="780.1553,590.2813,770.1553,594.2813,780.1553,598.2813,776.1553,594.2813" style="stroke:#181818;stroke-width:1;"/><text fill="#000000" font-family="sans-serif" font-size="13" lengthAdjust="spacing" textLength="107.7261" x="776.1553" y="576.2153">Valideer graphql</text><polygon fill="#181818" points="561.6631,619.4141,551.6631,623.4141,561.6631,627.4141,557.6631,623.4141" style="stroke:#181818;stroke-width:1;"/><line style="stroke:#181818;stroke-width:1;stroke-dasharray:2.0,2.0;" x1="555.6631" x2="763.1553" y1="623.4141" y2="623.4141"/><text fill="#000000" font-family="sans-serif" font-size="13" lengthAdjust="spacing" textLength="105.8979" x="567.6631" y="618.3481">Graphql allowed</text><polygon fill="#181818" points="940.0835,648.5469,950.0835,652.5469,940.0835,656.5469,944.0835,652.5469" style="stroke:#181818;stroke-width:1;"/><line style="stroke:#181818;stroke-width:1;" x1="545.6631" x2="946.0835" y1="652.5469" y2="652.5469"/><text fill="#000000" font-family="sans-serif" font-size="13" font-weight="bold" lengthAdjust="spacing" textLength="162.9316" x="552.6631" y="647.481">[05] GraphQL Request</text><line style="stroke:#181818;stroke-width:1;" x1="962.0835" x2="1004.0835" y1="696.8125" y2="696.8125"/><line style="stroke:#181818;stroke-width:1;" x1="1004.0835" x2="1004.0835" y1="696.8125" y2="709.8125"/><line style="stroke:#181818;stroke-width:1;" x1="963.0835" x2="1004.0835" y1="709.8125" y2="709.8125"/><polygon fill="#181818" points="973.0835,705.8125,963.0835,709.8125,973.0835,713.8125,969.0835,709.8125" style="stroke:#181818;stroke-width:1;"/><text fill="#000000" font-family="sans-serif" font-size="13" font-weight="bold" lengthAdjust="spacing" textLength="29.9736" x="969.0835" y="684.1802">[06]</text><text fill="#000000" font-family="sans-serif" font-size="13" font-weight="bold" lengthAdjust="spacing" textLength="60.2075" x="1003.0571" y="676.6138">ontvang</text><text fill="#000000" font-family="sans-serif" font-size="13" font-weight="bold" lengthAdjust="spacing" textLength="59.1411" x="1003.0571" y="691.7466">melding</text><polygon fill="#181818" points="556.6631,734.9453,546.6631,738.9453,556.6631,742.9453,552.6631,738.9453" style="stroke:#181818;stroke-width:1;"/><line style="stroke:#181818;stroke-width:1;stroke-dasharray:2.0,2.0;" x1="550.6631" x2="956.0835" y1="738.9453" y2="738.9453"/><text fill="#000000" font-family="sans-serif" font-size="13" font-weight="bold" lengthAdjust="spacing" textLength="29.9736" x="562.6631" y="733.8794">[07]</text><text fill="#000000" font-family="sans-serif" font-size="13" font-weight="bold" lengthAdjust="spacing" textLength="166.9497" x="596.6367" y="733.8794">GraphQL 200 response</text><polygon fill="#181818" points="120.5698,764.0781,110.5698,768.0781,120.5698,772.0781,116.5698,768.0781" style="stroke:#181818;stroke-width:1;"/><line style="stroke:#181818;stroke-width:1;stroke-dasharray:2.0,2.0;" x1="114.5698" x2="539.6631" y1="768.0781" y2="768.0781"/><text fill="#000000" font-family="sans-serif" font-size="13" font-weight="bold" lengthAdjust="spacing" textLength="201.4492" x="126.5698" y="763.0122">[07] GraphQL 200 response</text><line style="stroke:#181818;stroke-width:1;stroke-dasharray:2.0,2.0;" x1="109.5698" x2="151.5698" y1="797.2109" y2="797.2109"/><line style="stroke:#181818;stroke-width:1;stroke-dasharray:2.0,2.0;" x1="151.5698" x2="151.5698" y1="797.2109" y2="810.2109"/><line style="stroke:#181818;stroke-width:1;stroke-dasharray:2.0,2.0;" x1="110.5698" x2="151.5698" y1="810.2109" y2="810.2109"/><polygon fill="#181818" points="120.5698,806.2109,110.5698,810.2109,120.5698,814.2109,116.5698,810.2109" style="stroke:#181818;stroke-width:1;"/><text fill="#000000" font-family="sans-serif" font-size="13" font-weight="bold" lengthAdjust="spacing" textLength="265.5605" x="116.5698" y="792.145">[08] verwerk GraphQL 200 response</text><!--SRC=[XLHBJzj04BxxLupC1LA5keYgbLKXeQRGLZsaWDe3uR2s1sSLUzRihWFqrtVMyJeRXz8SdDrvV3FVFDPAMo7SgzRMM1L8OF2XHSfnMaXHQb57PYMf4No2fQ3YKKjhsUnUL0O37N-jp6KZo3QYA2ILS984-amzUVbf4aLyXGAn8gnHmq4bowLzngfIZn64M11VeL6jpZ46OS1V8gJ2GMw0OlesYyT-ehLAIoEiH8DwZRe3E6_jyizrTnyxpB_CEnF-trFDUjLilXivqugMgYq63bdLuhyOJ1TqlSs4fNqU0o8fYw1Ov7Be0KkDI2byHGi18-0Eh4Kb2tUPDbhbQ611qa269bzgNBE19BYw-9maxqvPTT5IRgKYv6wtqZwYNhbU245hBKgs3j4NTAXSfKwEaoE8d8RQEkEyua_PsMsItCLHDEGFQdesD2O5jb1aruB1EJlXWe76KXhBL0Ndi1RCqji35siuZt4wXiWH7D2EuTFst5bcs0XHTMESgm9V0sMkg1tefHRDykUFOVQv7578rLZLZ822wKdXV2WTamtBjw3OvAh1E8Nu-BY7HdhRdz9S8vSWTjG1Xee4s70m4th5dN_kJDmlr4u3Idn9UT4I9sWK6OJ3xxzlu3pdWJ3J6xL2Eje4Al2bK25XZQQjnxNZIKnXCl75kdAlWx4iMP23GU8vTwHhMHHOmHiOXsVHVoeyvDLD_K2TDKxWS_ZbXs4dh5i4pgIB5pZCsC6dNFFgDAgI-VDcPRZxj5lwtRYRWc-Litsba_amGrwbY_TGERt7sACQk7jUbxsRS8yV5hrHq2ttwFH-6tR3vhd6t2Rlxs3KdSbat77tfhtOwe3eza5oukrwxqOCrdj1VF5z7VbuTcpXatDJglif7UUtZJskMJGG7o_oRV9Xo_mrSEVjy_DBiuVryGuul7iMNyJy2m00]--></g></svg>