<svg xmlns="http://www.w3.org/2000/svg" xmlns:xlink="http://www.w3.org/1999/xlink" contentStyleType="text/css" height="987px" preserveAspectRatio="none" style="width:1683px;height:987px;background:#FFFFFF;" version="1.1" viewBox="0 0 1683 987" width="1683px" zoomAndPan="magnify"><defs/><g><rect fill="#DDDDDD" height="975.1797" style="stroke:#181818;stroke-width:0.5;" width="102.5303" x="11" y="6"/><text fill="#000000" font-family="sans-serif" font-size="13" font-weight="bold" lengthAdjust="spacing" textLength="79.7266" x="22.4019" y="18.0669">Deelnemer</text><rect fill="#DDDDDD" height="975.1797" style="stroke:#181818;stroke-width:0.5;" width="1162.8921" x="272.7017" y="6"/><text fill="#000000" font-family="sans-serif" font-size="13" font-weight="bold" lengthAdjust="spacing" textLength="24.8828" x="841.7063" y="18.0669">nID</text><rect fill="#DDDDDD" height="975.1797" style="stroke:#181818;stroke-width:0.5;" width="220.2134" x="1457.5938" y="6"/><text fill="#000000" font-family="sans-serif" font-size="13" font-weight="bold" lengthAdjust="spacing" textLength="61.769" x="1536.8159" y="18.0669">Register</text><rect fill="#FFFFFF" height="279.0625" style="stroke:#181818;stroke-width:1.0;" width="10" x="57.2651" y="66.4297"/><rect fill="#FFFFFF" height="539.125" style="stroke:#181818;stroke-width:1.0;" width="10" x="57.2651" y="389.7578"/><rect fill="#FFFFFF" height="227.6641" style="stroke:#181818;stroke-width:1.0;" width="10" x="358.3691" y="117.8281"/><rect fill="#D3D3D3" height="112.2656" style="stroke:#181818;stroke-width:1.0;" width="10" x="363.3691" y="197.0938"/><rect fill="#A9A9A9" height="28" style="stroke:#181818;stroke-width:1.0;" width="10" x="368.3691" y="281.3594"/><rect fill="#FFFFFF" height="480.8594" style="stroke:#181818;stroke-width:1.0;" width="10" x="642.5439" y="389.7578"/><rect fill="#FFFFFF" height="261.0625" style="stroke:#181818;stroke-width:1.0;" width="10" x="977.6206" y="538.2891"/><rect fill="#D3D3D3" height="71.2656" style="stroke:#181818;stroke-width:1.0;" width="10" x="982.6206" y="691.9531"/><rect fill="#FFFFFF" height="29.1328" style="stroke:#181818;stroke-width:1.0;" width="10" x="1207.7788" y="567.4219"/><rect fill="#FFFFFF" height="539.125" style="stroke:#181818;stroke-width:1.0;" width="10" x="1342.3394" y="389.7578"/><rect fill="#FFFFFF" height="71.2656" style="stroke:#181818;stroke-width:1.0;" width="10" x="1494.1006" y="691.9531"/><rect fill="#FFFFFF" height="29.1328" style="stroke:#181818;stroke-width:1.0;" width="10" x="1609.2373" y="870.6172"/><rect fill="none" height="117.5313" style="stroke:#000000;stroke-width:1.5;" width="682.4492" x="931.7881" y="653.6875"/><line style="stroke:#181818;stroke-width:0.5;stroke-dasharray:5.0,5.0;" x1="62" x2="62" y1="56.4297" y2="946.8828"/><line style="stroke:#181818;stroke-width:0.5;stroke-dasharray:5.0,5.0;" x1="362.7017" x2="362.7017" y1="56.4297" y2="946.8828"/><line style="stroke:#181818;stroke-width:0.5;stroke-dasharray:5.0,5.0;" x1="646.6787" x2="646.6787" y1="56.4297" y2="946.8828"/><line style="stroke:#181818;stroke-width:0.5;stroke-dasharray:5.0,5.0;" x1="981.7881" x2="981.7881" y1="56.4297" y2="946.8828"/><line style="stroke:#181818;stroke-width:0.5;stroke-dasharray:5.0,5.0;" x1="1212.4727" x2="1212.4727" y1="56.4297" y2="946.8828"/><line style="stroke:#181818;stroke-width:0.5;stroke-dasharray:5.0,5.0;" x1="1347.085" x2="1347.085" y1="56.4297" y2="946.8828"/><line style="stroke:#181818;stroke-width:0.5;stroke-dasharray:5.0,5.0;" x1="1498.5938" x2="1498.5938" y1="56.4297" y2="946.8828"/><line style="stroke:#181818;stroke-width:0.5;stroke-dasharray:5.0,5.0;" x1="1613.6675" x2="1613.6675" y1="56.4297" y2="946.8828"/><rect fill="#E2E2F0" height="30.2969" rx="2.5" ry="2.5" style="stroke:#181818;stroke-width:0.5;" width="54.5303" x="35" y="25.1328"/><text fill="#000000" font-family="sans-serif" font-size="14" lengthAdjust="spacing" textLength="40.5303" x="42" y="45.1279">Client</text><rect fill="#E2E2F0" height="30.2969" rx="2.5" ry="2.5" style="stroke:#181818;stroke-width:0.5;" width="54.5303" x="35" y="945.8828"/><text fill="#000000" font-family="sans-serif" font-size="14" lengthAdjust="spacing" textLength="40.5303" x="42" y="965.8779">Client</text><rect fill="#E2E2F0" height="30.2969" rx="2.5" ry="2.5" style="stroke:#181818;stroke-width:0.5;" width="133.335" x="296.7017" y="25.1328"/><text fill="#000000" font-family="sans-serif" font-size="14" lengthAdjust="spacing" textLength="119.335" x="303.7017" y="45.1279">autorisatieserver</text><rect fill="#E2E2F0" height="30.2969" rx="2.5" ry="2.5" style="stroke:#181818;stroke-width:0.5;" width="133.335" x="296.7017" y="945.8828"/><text fill="#000000" font-family="sans-serif" font-size="14" lengthAdjust="spacing" textLength="119.335" x="303.7017" y="965.8779">autorisatieserver</text><rect fill="#E2E2F0" height="30.2969" rx="2.5" ry="2.5" style="stroke:#181818;stroke-width:0.5;" width="39.7305" x="627.6787" y="25.1328"/><text fill="#000000" font-family="sans-serif" font-size="14" lengthAdjust="spacing" textLength="25.7305" x="634.6787" y="45.1279">PEP</text><rect fill="#E2E2F0" height="30.2969" rx="2.5" ry="2.5" style="stroke:#181818;stroke-width:0.5;" width="39.7305" x="627.6787" y="945.8828"/><text fill="#000000" font-family="sans-serif" font-size="14" lengthAdjust="spacing" textLength="25.7305" x="634.6787" y="965.8779">PEP</text><rect fill="#E2E2F0" height="30.2969" rx="2.5" ry="2.5" style="stroke:#181818;stroke-width:0.5;" width="41.665" x="961.7881" y="25.1328"/><text fill="#000000" font-family="sans-serif" font-size="14" lengthAdjust="spacing" textLength="27.665" x="968.7881" y="45.1279">PDP</text><rect fill="#E2E2F0" height="30.2969" rx="2.5" ry="2.5" style="stroke:#181818;stroke-width:0.5;" width="41.665" x="961.7881" y="945.8828"/><text fill="#000000" font-family="sans-serif" font-size="14" lengthAdjust="spacing" textLength="27.665" x="968.7881" y="965.8779">PDP</text><rect fill="#E2E2F0" height="30.2969" rx="2.5" ry="2.5" style="stroke:#181818;stroke-width:0.5;" width="40.6123" x="1192.4727" y="25.1328"/><text fill="#000000" font-family="sans-serif" font-size="14" lengthAdjust="spacing" textLength="26.6123" x="1199.4727" y="45.1279">PRP</text><rect fill="#E2E2F0" height="30.2969" rx="2.5" ry="2.5" style="stroke:#181818;stroke-width:0.5;" width="40.6123" x="1192.4727" y="945.8828"/><text fill="#000000" font-family="sans-serif" font-size="14" lengthAdjust="spacing" textLength="26.6123" x="1199.4727" y="965.8779">PRP</text><rect fill="#E2E2F0" height="30.2969" rx="2.5" ry="2.5" style="stroke:#181818;stroke-width:0.5;" width="128.5088" x="1283.085" y="25.1328"/><text fill="#000000" font-family="sans-serif" font-size="14" lengthAdjust="spacing" textLength="114.5088" x="1290.085" y="45.1279">Resource-server</text><rect fill="#E2E2F0" height="30.2969" rx="2.5" ry="2.5" style="stroke:#181818;stroke-width:0.5;" width="128.5088" x="1283.085" y="945.8828"/><text fill="#000000" font-family="sans-serif" font-size="14" lengthAdjust="spacing" textLength="114.5088" x="1290.085" y="965.8779">Resource-server</text><rect fill="#E2E2F0" height="30.2969" rx="2.5" ry="2.5" style="stroke:#181818;stroke-width:0.5;" width="35.0137" x="1481.5938" y="25.1328"/><text fill="#000000" font-family="sans-serif" font-size="14" lengthAdjust="spacing" textLength="21.0137" x="1488.5938" y="45.1279">PIP</text><rect fill="#E2E2F0" height="30.2969" rx="2.5" ry="2.5" style="stroke:#181818;stroke-width:0.5;" width="35.0137" x="1481.5938" y="945.8828"/><text fill="#000000" font-family="sans-serif" font-size="14" lengthAdjust="spacing" textLength="21.0137" x="1488.5938" y="965.8779">PIP</text><rect fill="#E2E2F0" height="30.2969" rx="2.5" ry="2.5" style="stroke:#181818;stroke-width:0.5;" width="79.1396" x="1574.6675" y="25.1328"/><text fill="#000000" font-family="sans-serif" font-size="14" lengthAdjust="spacing" textLength="65.1396" x="1581.6675" y="45.1279">Resource</text><rect fill="#E2E2F0" height="30.2969" rx="2.5" ry="2.5" style="stroke:#181818;stroke-width:0.5;" width="79.1396" x="1574.6675" y="945.8828"/><text fill="#000000" font-family="sans-serif" font-size="14" lengthAdjust="spacing" textLength="65.1396" x="1581.6675" y="965.8779">Resource</text><rect fill="#FFFFFF" height="279.0625" style="stroke:#181818;stroke-width:1.0;" width="10" x="57.2651" y="66.4297"/><rect fill="#FFFFFF" height="539.125" style="stroke:#181818;stroke-width:1.0;" width="10" x="57.2651" y="389.7578"/><rect fill="#FFFFFF" height="227.6641" style="stroke:#181818;stroke-width:1.0;" width="10" x="358.3691" y="117.8281"/><rect fill="#D3D3D3" height="112.2656" style="stroke:#181818;stroke-width:1.0;" width="10" x="363.3691" y="197.0938"/><rect fill="#A9A9A9" height="28" style="stroke:#181818;stroke-width:1.0;" width="10" x="368.3691" y="281.3594"/><rect fill="#FFFFFF" height="480.8594" style="stroke:#181818;stroke-width:1.0;" width="10" x="642.5439" y="389.7578"/><rect fill="#FFFFFF" height="261.0625" style="stroke:#181818;stroke-width:1.0;" width="10" x="977.6206" y="538.2891"/><rect fill="#D3D3D3" height="71.2656" style="stroke:#181818;stroke-width:1.0;" width="10" x="982.6206" y="691.9531"/><rect fill="#FFFFFF" height="29.1328" style="stroke:#181818;stroke-width:1.0;" width="10" x="1207.7788" y="567.4219"/><rect fill="#FFFFFF" height="539.125" style="stroke:#181818;stroke-width:1.0;" width="10" x="1342.3394" y="389.7578"/><rect fill="#FFFFFF" height="71.2656" style="stroke:#181818;stroke-width:1.0;" width="10" x="1494.1006" y="691.9531"/><rect fill="#FFFFFF" height="29.1328" style="stroke:#181818;stroke-width:1.0;" width="10" x="1609.2373" y="870.6172"/><polygon fill="#181818" points="346.3691,113.8281,356.3691,117.8281,346.3691,121.8281,350.3691,117.8281" style="stroke:#181818;stroke-width:1.0;"/><line style="stroke:#181818;stroke-width:1.0;" x1="67.2651" x2="352.3691" y1="117.8281" y2="117.8281"/><text fill="#000000" font-family="sans-serif" font-size="13" font-weight="bold" lengthAdjust="spacing" textLength="39.019" x="74.2651" y="97.6294">[001]</text><text fill="#000000" font-family="sans-serif" font-size="13" font-weight="bold" lengthAdjust="spacing" textLength="194.7144" x="117.2842" y="82.4966">Aanvragen van autorisatie</text><text fill="#000000" font-family="sans-serif" font-size="13" lengthAdjust="spacing" textLength="222.8662" x="117.2842" y="97.6294">"scope": "registers/resource:read"</text><text fill="#000000" font-family="sans-serif" font-size="13" lengthAdjust="spacing" textLength="131.625" x="121.4165" y="112.7622">Authenticatiemiddel</text><line style="stroke:#181818;stroke-width:1.0;" x1="368.3691" x2="410.3691" y1="146.9609" y2="146.9609"/><line style="stroke:#181818;stroke-width:1.0;" x1="410.3691" x2="410.3691" y1="146.9609" y2="159.9609"/><line style="stroke:#181818;stroke-width:1.0;" x1="369.3691" x2="410.3691" y1="159.9609" y2="159.9609"/><polygon fill="#181818" points="379.3691,155.9609,369.3691,159.9609,379.3691,163.9609,375.3691,159.9609" style="stroke:#181818;stroke-width:1.0;"/><text fill="#000000" font-family="sans-serif" font-size="13" font-weight="bold" lengthAdjust="spacing" textLength="39.019" x="375.3691" y="141.895">[002]</text><text fill="#000000" font-family="sans-serif" font-size="13" lengthAdjust="spacing" textLength="189.4331" x="418.3882" y="141.895">Valideer Authenticatiemiddel</text><line style="stroke:#181818;stroke-width:1.0;" x1="368.3691" x2="415.3691" y1="184.0938" y2="184.0938"/><line style="stroke:#181818;stroke-width:1.0;" x1="415.3691" x2="415.3691" y1="184.0938" y2="197.0938"/><line style="stroke:#181818;stroke-width:1.0;" x1="374.3691" x2="415.3691" y1="197.0938" y2="197.0938"/><polygon fill="#181818" points="384.3691,193.0938,374.3691,197.0938,384.3691,201.0938,380.3691,197.0938" style="stroke:#181818;stroke-width:1.0;"/><text fill="#000000" font-family="sans-serif" font-size="13" font-weight="bold" lengthAdjust="spacing" textLength="39.019" x="380.3691" y="179.0278">[003]</text><text fill="#000000" font-family="sans-serif" font-size="13" lengthAdjust="spacing" textLength="207.1558" x="423.3882" y="179.0278">Run Rule-engine o.b.v. scope(s)</text><line style="stroke:#181818;stroke-width:1.0;" x1="373.3691" x2="415.3691" y1="231.2266" y2="231.2266"/><line style="stroke:#181818;stroke-width:1.0;" x1="415.3691" x2="415.3691" y1="231.2266" y2="244.2266"/><line style="stroke:#181818;stroke-width:1.0;" x1="374.3691" x2="415.3691" y1="244.2266" y2="244.2266"/><polygon fill="#181818" points="384.3691,240.2266,374.3691,244.2266,384.3691,248.2266,380.3691,244.2266" style="stroke:#181818;stroke-width:1.0;"/><text fill="#000000" font-family="sans-serif" font-size="13" font-weight="bold" lengthAdjust="spacing" textLength="39.019" x="380.3691" y="226.1606">[004]</text><text fill="#000000" font-family="sans-serif" font-size="13" lengthAdjust="spacing" textLength="127.4673" x="423.3882" y="226.1606">Valideer autorisatie</text><line style="stroke:#181818;stroke-width:1.0;" x1="378.3691" x2="420.3691" y1="273.3594" y2="273.3594"/><line style="stroke:#181818;stroke-width:1.0;" x1="420.3691" x2="420.3691" y1="273.3594" y2="286.3594"/><line style="stroke:#181818;stroke-width:1.0;" x1="379.3691" x2="420.3691" y1="286.3594" y2="286.3594"/><polygon fill="#181818" points="389.3691,282.3594,379.3691,286.3594,389.3691,290.3594,385.3691,286.3594" style="stroke:#181818;stroke-width:1.0;"/><text fill="#000000" font-family="sans-serif" font-size="13" font-weight="bold" lengthAdjust="spacing" textLength="39.019" x="385.3691" y="268.2935">[005]</text><text fill="#000000" font-family="sans-serif" font-size="13" lengthAdjust="spacing" textLength="182.9712" x="428.3882" y="268.2935">Genereer JWT Access-Token</text><polygon fill="#181818" points="73.2651,341.4922,63.2651,345.4922,73.2651,349.4922,69.2651,345.4922" style="stroke:#181818;stroke-width:1.0;"/><line style="stroke:#181818;stroke-width:1.0;stroke-dasharray:2.0,2.0;" x1="67.2651" x2="362.3691" y1="345.4922" y2="345.4922"/><text fill="#000000" font-family="sans-serif" font-size="13" font-weight="bold" lengthAdjust="spacing" textLength="39.019" x="79.2651" y="340.4263">[006]</text><text fill="#000000" font-family="sans-serif" font-size="13" lengthAdjust="spacing" textLength="224.085" x="122.2842" y="340.4263">200 Response (JWT Access-Token)</text><polygon fill="#181818" points="1330.3394,385.7578,1340.3394,389.7578,1330.3394,393.7578,1334.3394,389.7578" style="stroke:#181818;stroke-width:1.0;"/><line style="stroke:#181818;stroke-width:1.0;" x1="67.2651" x2="1336.3394" y1="389.7578" y2="389.7578"/><text fill="#000000" font-family="sans-serif" font-size="13" font-weight="bold" lengthAdjust="spacing" textLength="39.019" x="74.2651" y="377.1255">[007]</text><text fill="#000000" font-family="sans-serif" font-size="13" font-weight="bold" lengthAdjust="spacing" textLength="128.4321" x="117.2842" y="369.5591">GraphQL Request</text><text fill="#000000" font-family="sans-serif" font-size="13" lengthAdjust="spacing" textLength="327.2915" x="117.2842" y="384.6919">Authenticatiemiddel + JWT Access-Token + Query</text><path d="M657,402.7578 L657,427.7578 L828,427.7578 L828,412.7578 L818,402.7578 L657,402.7578 " fill="#FEFFDD" style="stroke:#181818;stroke-width:0.5;"/><path d="M818,402.7578 L818,412.7578 L828,412.7578 L818,402.7578 " fill="#FEFFDD" style="stroke:#181818;stroke-width:0.5;"/><text fill="#000000" font-family="sans-serif" font-size="13" lengthAdjust="spacing" textLength="150.6172" x="663" y="419.8247">Inline filtering requests</text><line style="stroke:#181818;stroke-width:1.0;" x1="652.5439" x2="694.5439" y1="454.0234" y2="454.0234"/><line style="stroke:#181818;stroke-width:1.0;" x1="694.5439" x2="694.5439" y1="454.0234" y2="467.0234"/><line style="stroke:#181818;stroke-width:1.0;" x1="653.5439" x2="694.5439" y1="467.0234" y2="467.0234"/><polygon fill="#181818" points="663.5439,463.0234,653.5439,467.0234,663.5439,471.0234,659.5439,467.0234" style="stroke:#181818;stroke-width:1.0;"/><text fill="#000000" font-family="sans-serif" font-size="13" font-weight="bold" lengthAdjust="spacing" textLength="39.019" x="659.5439" y="448.9575">[008]</text><text fill="#000000" font-family="sans-serif" font-size="13" lengthAdjust="spacing" textLength="189.4331" x="702.563" y="448.9575">Valideer Authenticatiemiddel</text><line style="stroke:#181818;stroke-width:1.0;" x1="652.5439" x2="694.5439" y1="496.1563" y2="496.1563"/><line style="stroke:#181818;stroke-width:1.0;" x1="694.5439" x2="694.5439" y1="496.1563" y2="509.1563"/><line style="stroke:#181818;stroke-width:1.0;" x1="653.5439" x2="694.5439" y1="509.1563" y2="509.1563"/><polygon fill="#181818" points="663.5439,505.1563,653.5439,509.1563,663.5439,513.1563,659.5439,509.1563" style="stroke:#181818;stroke-width:1.0;"/><text fill="#000000" font-family="sans-serif" font-size="13" font-weight="bold" lengthAdjust="spacing" textLength="39.019" x="659.5439" y="491.0903">[009]</text><text fill="#000000" font-family="sans-serif" font-size="13" lengthAdjust="spacing" textLength="146.8911" x="702.563" y="491.0903">Valideer Access-Token</text><polygon fill="#181818" points="965.6206,534.2891,975.6206,538.2891,965.6206,542.2891,969.6206,538.2891" style="stroke:#181818;stroke-width:1.0;"/><line style="stroke:#181818;stroke-width:1.0;" x1="652.5439" x2="971.6206" y1="538.2891" y2="538.2891"/><text fill="#000000" font-family="sans-serif" font-size="13" font-weight="bold" lengthAdjust="spacing" textLength="39.019" x="659.5439" y="533.2231">[010]</text><text fill="#000000" font-family="sans-serif" font-size="13" lengthAdjust="spacing" textLength="169.6094" x="702.563" y="533.2231">Valideer Query met policy</text><polygon fill="#181818" points="1195.7788,563.4219,1205.7788,567.4219,1195.7788,571.4219,1199.7788,567.4219" style="stroke:#181818;stroke-width:1.0;"/><line style="stroke:#181818;stroke-width:1.0;" x1="987.6206" x2="1201.7788" y1="567.4219" y2="567.4219"/><text fill="#000000" font-family="sans-serif" font-size="13" font-weight="bold" lengthAdjust="spacing" textLength="39.019" x="994.6206" y="562.356">[011]</text><text fill="#000000" font-family="sans-serif" font-size="13" lengthAdjust="spacing" textLength="158.1392" x="1037.6396" y="562.356">Haal relevante policy op</text><polygon fill="#181818" points="998.6206,592.5547,988.6206,596.5547,998.6206,600.5547,994.6206,596.5547" style="stroke:#181818;stroke-width:1.0;"/><line style="stroke:#181818;stroke-width:1.0;" x1="992.6206" x2="1211.7788" y1="596.5547" y2="596.5547"/><text fill="#000000" font-family="sans-serif" font-size="13" font-weight="bold" lengthAdjust="spacing" textLength="39.019" x="1004.6206" y="591.4888">[012]</text><text fill="#000000" font-family="sans-serif" font-size="13" lengthAdjust="spacing" textLength="82.2529" x="1047.6396" y="591.4888">Policy return</text><line style="stroke:#181818;stroke-width:1.0;" x1="987.6206" x2="1029.6206" y1="625.6875" y2="625.6875"/><line style="stroke:#181818;stroke-width:1.0;" x1="1029.6206" x2="1029.6206" y1="625.6875" y2="638.6875"/><line style="stroke:#181818;stroke-width:1.0;" x1="988.6206" x2="1029.6206" y1="638.6875" y2="638.6875"/><polygon fill="#181818" points="998.6206,634.6875,988.6206,638.6875,998.6206,642.6875,994.6206,638.6875" style="stroke:#181818;stroke-width:1.0;"/><text fill="#000000" font-family="sans-serif" font-size="13" font-weight="bold" lengthAdjust="spacing" textLength="39.019" x="994.6206" y="620.6216">[013]</text><text fill="#000000" font-family="sans-serif" font-size="13" lengthAdjust="spacing" textLength="79.7773" x="1037.6396" y="620.6216">Verify query</text><path d="M931.7881,653.6875 L1037.1099,653.6875 L1037.1099,660.8203 L1027.1099,670.8203 L931.7881,670.8203 L931.7881,653.6875 " fill="#EEEEEE" style="stroke:#000000;stroke-width:1.5;"/><rect fill="none" height="117.5313" style="stroke:#000000;stroke-width:1.5;" width="682.4492" x="931.7881" y="653.6875"/><text fill="#000000" font-family="sans-serif" font-size="13" font-weight="bold" lengthAdjust="spacing" textLength="60.3218" x="946.7881" y="666.7544">optional</text><polygon fill="#181818" points="1482.1006,687.9531,1492.1006,691.9531,1482.1006,695.9531,1486.1006,691.9531" style="stroke:#181818;stroke-width:1.0;"/><line style="stroke:#181818;stroke-width:1.0;" x1="992.6206" x2="1488.1006" y1="691.9531" y2="691.9531"/><text fill="#000000" font-family="sans-serif" font-size="13" font-weight="bold" lengthAdjust="spacing" textLength="39.019" x="999.6206" y="686.8872">[014]</text><text fill="#000000" font-family="sans-serif" font-size="13" lengthAdjust="spacing" textLength="170.8662" x="1042.6396" y="686.8872">Verify context information</text><line style="stroke:#181818;stroke-width:1.0;" x1="1504.1006" x2="1546.1006" y1="721.0859" y2="721.0859"/><line style="stroke:#181818;stroke-width:1.0;" x1="1546.1006" x2="1546.1006" y1="721.0859" y2="734.0859"/><line style="stroke:#181818;stroke-width:1.0;" x1="1505.1006" x2="1546.1006" y1="734.0859" y2="734.0859"/><polygon fill="#181818" points="1515.1006,730.0859,1505.1006,734.0859,1515.1006,738.0859,1511.1006,734.0859" style="stroke:#181818;stroke-width:1.0;"/><text fill="#000000" font-family="sans-serif" font-size="13" font-weight="bold" lengthAdjust="spacing" textLength="39.019" x="1511.1006" y="716.02">[015]</text><text fill="#000000" font-family="sans-serif" font-size="13" lengthAdjust="spacing" textLength="38.1177" x="1554.1196" y="716.02">Verify</text><polygon fill="#181818" points="998.6206,759.2188,988.6206,763.2188,998.6206,767.2188,994.6206,763.2188" style="stroke:#181818;stroke-width:1.0;"/><line style="stroke:#181818;stroke-width:1.0;" x1="992.6206" x2="1498.1006" y1="763.2188" y2="763.2188"/><text fill="#000000" font-family="sans-serif" font-size="13" font-weight="bold" lengthAdjust="spacing" textLength="39.019" x="1004.6206" y="758.1528">[016]</text><text fill="#000000" font-family="sans-serif" font-size="13" lengthAdjust="spacing" textLength="34.7026" x="1047.6396" y="758.1528">Allow</text><polygon fill="#181818" points="663.5439,795.3516,653.5439,799.3516,663.5439,803.3516,659.5439,799.3516" style="stroke:#181818;stroke-width:1.0;"/><line style="stroke:#181818;stroke-width:1.0;" x1="657.5439" x2="981.6206" y1="799.3516" y2="799.3516"/><text fill="#000000" font-family="sans-serif" font-size="13" font-weight="bold" lengthAdjust="spacing" textLength="39.019" x="669.5439" y="794.2856">[017]</text><text fill="#000000" font-family="sans-serif" font-size="13" lengthAdjust="spacing" textLength="77.416" x="712.563" y="794.2856">Query allow</text><line style="stroke:#181818;stroke-width:1.0;" x1="652.5439" x2="694.5439" y1="828.4844" y2="828.4844"/><line style="stroke:#181818;stroke-width:1.0;" x1="694.5439" x2="694.5439" y1="828.4844" y2="841.4844"/><line style="stroke:#181818;stroke-width:1.0;" x1="653.5439" x2="694.5439" y1="841.4844" y2="841.4844"/><polygon fill="#181818" points="663.5439,837.4844,653.5439,841.4844,663.5439,845.4844,659.5439,841.4844" style="stroke:#181818;stroke-width:1.0;"/><text fill="#000000" font-family="sans-serif" font-size="13" font-weight="bold" lengthAdjust="spacing" textLength="39.019" x="659.5439" y="823.4185">[018]</text><text fill="#000000" font-family="sans-serif" font-size="13" lengthAdjust="spacing" textLength="258.0576" x="702.563" y="823.4185">Valideer GraphQL request met scope(s)</text><path d="M445,815.8516 L445,840.8516 L636,840.8516 L636,825.8516 L626,815.8516 L445,815.8516 " fill="#FF0000" style="stroke:#181818;stroke-width:0.5;"/><path d="M626,815.8516 L626,825.8516 L636,825.8516 L626,815.8516 " fill="#FF0000" style="stroke:#181818;stroke-width:0.5;"/><text fill="#000000" font-family="sans-serif" font-size="13" lengthAdjust="spacing" textLength="170.79" x="451" y="832.9185">IS DEZE STAP NOG NODIG</text><polygon fill="#181818" points="1597.2373,866.6172,1607.2373,870.6172,1597.2373,874.6172,1601.2373,870.6172" style="stroke:#181818;stroke-width:1.0;"/><line style="stroke:#181818;stroke-width:1.0;" x1="1352.3394" x2="1603.2373" y1="870.6172" y2="870.6172"/><text fill="#000000" font-family="sans-serif" font-size="13" font-weight="bold" lengthAdjust="spacing" textLength="39.019" x="1359.3394" y="865.5513">[019]</text><text fill="#000000" font-family="sans-serif" font-size="13" lengthAdjust="spacing" textLength="114.8735" x="1402.3584" y="865.5513">GraphQL Request</text><polygon fill="#181818" points="1363.3394,895.75,1353.3394,899.75,1363.3394,903.75,1359.3394,899.75" style="stroke:#181818;stroke-width:1.0;"/><line style="stroke:#181818;stroke-width:1.0;stroke-dasharray:2.0,2.0;" x1="1357.3394" x2="1613.2373" y1="899.75" y2="899.75"/><text fill="#000000" font-family="sans-serif" font-size="13" font-weight="bold" lengthAdjust="spacing" textLength="39.019" x="1369.3394" y="894.6841">[020]</text><text fill="#000000" font-family="sans-serif" font-size="13" lengthAdjust="spacing" textLength="163.5918" x="1412.3584" y="894.6841">200 Response (GraphQL)</text><polygon fill="#181818" points="73.2651,924.8828,63.2651,928.8828,73.2651,932.8828,69.2651,928.8828" style="stroke:#181818;stroke-width:1.0;"/><line style="stroke:#181818;stroke-width:1.0;stroke-dasharray:2.0,2.0;" x1="67.2651" x2="1346.3394" y1="928.8828" y2="928.8828"/><text fill="#000000" font-family="sans-serif" font-size="13" font-weight="bold" lengthAdjust="spacing" textLength="39.019" x="79.2651" y="923.8169">[021]</text><text fill="#000000" font-family="sans-serif" font-size="13" lengthAdjust="spacing" textLength="163.5918" x="122.2842" y="923.8169">200 Response (GraphQL)</text><!--SRC=[ZLNlRzem4FsUl-AMVbZBHCVs4KsLw88OKxUbQRL9M_V190Ur6kpKSHZqhzyvFy0Gfn0f8l6zUtu-tbtUmfjCiSMIWKRv0beLw7dv4nSPKsm98LEQnpnZGeSiIRXOmCU15R-MwsRzmy3pPd8DVe2O2boYyZsWAzjHWFyvvIYq3oo7wj53aG2brRbY6ZYoMA6buZdJ77DKAs8s1AD2FxxSbU_jb70SbY3wTGI3EXYuWb4TZ1p127DPg1ZxbWxIt2pNQlRF5E62vzfPZd1QxpLzPQyISJt-rl3iw4rTHB6SeGB_q-pgps0m-EjxBDPynJGs5JR4rIFqh-og3Q7N6p6nelyV1QoO0AlGlTw3yFDOPkWFmLVrtlbxLQiQAcI9_o1AGkBciSbQyYJ1jDnoA-FmVpANjTOIzPEbF44AT34V8uWAGNUAVHGBBX3avUnoTGdbOSxpYos7Io6StV35evuejjdYJXPibU_av0aAL2Rvwwzx6CKnvdd_NZwXs6DmImsOUcefJV3LoXy9xqabhOrn-aDg_06G9pCfSeJpGxbLMJlOhUNQb9wtisIhWOmnwLpPu-qDxVXSOAwD7Hr-W7Ujkj7IRO5g0wr6s2sqMtQloCtG499UbF43oBbP7S9KfCPISvvIDvYnfofzkLTc4CQSg8GUzR4RV6Y11XNOgEg4IzIGoPJ76xTPcldMNFHUKaL4zOMnbCIdI7rFq8e6PBQNq6QCGYU0rhSYmufAeIwKSA8jEtGI1jQfgTBp3JoRCpl12oMBZBHhBWLBN-MRxlXYIGTVQ-1YBjMIcMHdwc59kqQ46pyDEq4KEz1q56hACKfJ-QyJQTSs24-2TKYapupJFSQkbVzOgSGxidstrviUhtkez7CpfM7NWIdEDPn5c53xtK4m_Zs6k_jH2Dz_JEWEffDAGgkfpORMTtC81pFbS6APjj_D2FkBwralvLXqZApzyLXlTM6FlZr6Xzhjk3s5h3t2sbFsFm00]--></g></svg>