<?xml version="1.0" encoding="us-ascii" standalone="no"?><svg xmlns="http://www.w3.org/2000/svg" xmlns:xlink="http://www.w3.org/1999/xlink" contentStyleType="text/css" height="645px" preserveAspectRatio="none" style="width:1005px;height:645px;background:#FFFFFF;" version="1.1" viewBox="0 0 1005 645" width="1005px" zoomAndPan="magnify"><defs/><g><text fill="#000000" font-family="sans-serif" font-size="14" font-weight="bold" lengthAdjust="spacing" textLength="239" x="385" y="27.9951">notificatie sequence-diagram</text><rect fill="#ADD8E6" height="596.0469" style="stroke:#181818;stroke-width:0.5;" width="423" x="41" y="43.2969"/><text fill="#000000" font-family="sans-serif" font-size="13" font-weight="bold" lengthAdjust="spacing" textLength="88" x="206" y="55.3638">bronhouder</text><rect fill="#DDDDDD" height="596.0469" style="stroke:#181818;stroke-width:0.5;" width="140" x="546" y="43.2969"/><text fill="#000000" font-family="sans-serif" font-size="13" font-weight="bold" lengthAdjust="spacing" textLength="79" x="576.5" y="55.3638">adresboek</text><rect fill="#FFFFE0" height="596.0469" style="stroke:#181818;stroke-width:0.5;" width="128" x="768" y="43.2969"/><text fill="#000000" font-family="sans-serif" font-size="13" font-weight="bold" lengthAdjust="spacing" textLength="79" x="790" y="55.3638">deelnemer</text><rect fill="#FFFFFF" height="438.5938" style="stroke:#181818;stroke-width:1.0;" width="10" x="105.5" y="141.1563"/><rect fill="#808080" height="40.1328" style="stroke:#181818;stroke-width:1.0;" width="10" x="110.5" y="273.6875"/><rect fill="#FFFFFF" height="71.2656" style="stroke:#181818;stroke-width:1.0;" width="10" x="395.5" y="141.1563"/><rect fill="#FFFFFF" height="29.1328" style="stroke:#181818;stroke-width:1.0;" width="10" x="611" y="356.9531"/><rect fill="#FFFFFF" height="71.2656" style="stroke:#181818;stroke-width:1.0;" width="10" x="827" y="457.3516"/><rect fill="none" height="101.3984" style="stroke:#000000;stroke-width:1.5;" width="370.5" x="35" y="227.4219"/><line style="stroke:#181818;stroke-width:0.5;stroke-dasharray:5.0,5.0;" x1="110" x2="110" y1="110.0234" y2="588.75"/><line style="stroke:#181818;stroke-width:0.5;stroke-dasharray:5.0,5.0;" x1="400" x2="400" y1="110.0234" y2="588.75"/><line style="stroke:#181818;stroke-width:0.5;stroke-dasharray:5.0,5.0;" x1="616" x2="616" y1="110.0234" y2="588.75"/><line style="stroke:#181818;stroke-width:0.5;stroke-dasharray:5.0,5.0;" x1="832" x2="832" y1="110.0234" y2="588.75"/><rect fill="#E2E2F0" height="30.2969" rx="2.5" ry="2.5" style="stroke:#181818;stroke-width:0.5;" width="91" x="65" y="78.7266"/><text fill="#000000" font-family="sans-serif" font-size="14" lengthAdjust="spacing" textLength="77" x="72" y="98.7217">Backoffice</text><rect fill="#E2E2F0" height="30.2969" rx="2.5" ry="2.5" style="stroke:#181818;stroke-width:0.5;" width="91" x="65" y="587.75"/><text fill="#000000" font-family="sans-serif" font-size="14" lengthAdjust="spacing" textLength="77" x="72" y="607.7451">Backoffice</text><rect fill="#E2E2F0" height="46.5938" rx="2.5" ry="2.5" style="stroke:#181818;stroke-width:0.5;" width="79" x="361" y="62.4297"/><text fill="#000000" font-family="sans-serif" font-size="14" lengthAdjust="spacing" textLength="61" x="368" y="82.4248">Register</text><text fill="#000000" font-family="sans-serif" font-size="14" lengthAdjust="spacing" textLength="42" x="379.5" y="98.7217">(data)</text><rect fill="#E2E2F0" height="46.5938" rx="2.5" ry="2.5" style="stroke:#181818;stroke-width:0.5;" width="79" x="361" y="587.75"/><text fill="#000000" font-family="sans-serif" font-size="14" lengthAdjust="spacing" textLength="61" x="368" y="607.7451">Register</text><text fill="#000000" font-family="sans-serif" font-size="14" lengthAdjust="spacing" textLength="42" x="379.5" y="624.042">(data)</text><rect fill="#E2E2F0" height="30.2969" rx="2.5" ry="2.5" style="stroke:#181818;stroke-width:0.5;" width="92" x="570" y="78.7266"/><text fill="#000000" font-family="sans-serif" font-size="14" lengthAdjust="spacing" textLength="78" x="577" y="98.7217">Adresboek</text><rect fill="#E2E2F0" height="30.2969" rx="2.5" ry="2.5" style="stroke:#181818;stroke-width:0.5;" width="92" x="570" y="587.75"/><text fill="#000000" font-family="sans-serif" font-size="14" lengthAdjust="spacing" textLength="78" x="577" y="607.7451">Adresboek</text><rect fill="#E2E2F0" height="30.2969" rx="2.5" ry="2.5" style="stroke:#181818;stroke-width:0.5;" width="80" x="792" y="78.7266"/><text fill="#000000" font-family="sans-serif" font-size="14" lengthAdjust="spacing" textLength="66" x="799" y="98.7217">Resource</text><rect fill="#E2E2F0" height="30.2969" rx="2.5" ry="2.5" style="stroke:#181818;stroke-width:0.5;" width="80" x="792" y="587.75"/><text fill="#000000" font-family="sans-serif" font-size="14" lengthAdjust="spacing" textLength="66" x="799" y="607.7451">Resource</text><rect fill="#FFFFFF" height="438.5938" style="stroke:#181818;stroke-width:1.0;" width="10" x="105.5" y="141.1563"/><rect fill="#808080" height="40.1328" style="stroke:#181818;stroke-width:1.0;" width="10" x="110.5" y="273.6875"/><rect fill="#FFFFFF" height="71.2656" style="stroke:#181818;stroke-width:1.0;" width="10" x="395.5" y="141.1563"/><rect fill="#FFFFFF" height="29.1328" style="stroke:#181818;stroke-width:1.0;" width="10" x="611" y="356.9531"/><rect fill="#FFFFFF" height="71.2656" style="stroke:#181818;stroke-width:1.0;" width="10" x="827" y="457.3516"/><polygon fill="#181818" points="383.5,137.1563,393.5,141.1563,383.5,145.1563,387.5,141.1563" style="stroke:#181818;stroke-width:1.0;"/><line style="stroke:#181818;stroke-width:1.0;" x1="115.5" x2="389.5" y1="141.1563" y2="141.1563"/><text fill="#000000" font-family="sans-serif" font-size="13" font-weight="bold" lengthAdjust="spacing" textLength="31" x="122.5" y="136.0903">[01]</text><text fill="#000000" font-family="sans-serif" font-size="13" lengthAdjust="spacing" textLength="98" x="157.5" y="136.0903">registratie data</text><line style="stroke:#181818;stroke-width:1.0;" x1="405.5" x2="447.5" y1="170.2891" y2="170.2891"/><line style="stroke:#181818;stroke-width:1.0;" x1="447.5" x2="447.5" y1="170.2891" y2="183.2891"/><line style="stroke:#181818;stroke-width:1.0;" x1="406.5" x2="447.5" y1="183.2891" y2="183.2891"/><polygon fill="#181818" points="416.5,179.2891,406.5,183.2891,416.5,187.2891,412.5,183.2891" style="stroke:#181818;stroke-width:1.0;"/><text fill="#000000" font-family="sans-serif" font-size="13" font-weight="bold" lengthAdjust="spacing" textLength="31" x="412.5" y="165.2231">[02]</text><text fill="#000000" font-family="sans-serif" font-size="13" lengthAdjust="spacing" textLength="83" x="447.5" y="165.2231">event trigger</text><polygon fill="#181818" points="126.5,208.4219,116.5,212.4219,126.5,216.4219,122.5,212.4219" style="stroke:#181818;stroke-width:1.0;"/><line style="stroke:#181818;stroke-width:1.0;" x1="120.5" x2="399.5" y1="212.4219" y2="212.4219"/><text fill="#000000" font-family="sans-serif" font-size="13" font-weight="bold" lengthAdjust="spacing" textLength="30" x="132.5" y="207.356">[03]</text><text fill="#000000" font-family="sans-serif" font-size="13" lengthAdjust="spacing" textLength="139" x="166.5" y="207.356">bepaal notificatietype</text><path d="M35,227.4219 L101,227.4219 L101,234.5547 L91,244.5547 L35,244.5547 L35,227.4219 " fill="#EEEEEE" style="stroke:#000000;stroke-width:1.5;"/><rect fill="none" height="101.3984" style="stroke:#000000;stroke-width:1.5;" width="370.5" x="35" y="227.4219"/><text fill="#000000" font-family="sans-serif" font-size="13" font-weight="bold" lengthAdjust="spacing" textLength="21" x="50" y="240.4888">alt</text><text fill="#000000" font-family="sans-serif" font-size="11" font-weight="bold" lengthAdjust="spacing" textLength="182" x="116" y="239.6323">[iWlz-vrijwillige notificatie]</text><line style="stroke:#181818;stroke-width:1.0;" x1="115.5" x2="162.5" y1="260.6875" y2="260.6875"/><line style="stroke:#181818;stroke-width:1.0;" x1="162.5" x2="162.5" y1="260.6875" y2="273.6875"/><line style="stroke:#181818;stroke-width:1.0;" x1="121.5" x2="162.5" y1="273.6875" y2="273.6875"/><polygon fill="#181818" points="131.5,269.6875,121.5,273.6875,131.5,277.6875,127.5,273.6875" style="stroke:#181818;stroke-width:1.0;"/><text fill="#000000" font-family="sans-serif" font-size="13" font-weight="bold" lengthAdjust="spacing" textLength="31" x="127.5" y="255.6216">[04]</text><text fill="#000000" font-family="sans-serif" font-size="13" lengthAdjust="spacing" textLength="231" x="162.5" y="255.6216">raadpleeg abonnementenregistratie</text><line style="stroke:#181818;stroke-width:1.0;" x1="120.5" x2="162.5" y1="312.8203" y2="312.8203"/><line style="stroke:#181818;stroke-width:1.0;" x1="162.5" x2="162.5" y1="312.8203" y2="325.8203"/><line style="stroke:#181818;stroke-width:1.0;" x1="115.5" x2="162.5" y1="325.8203" y2="325.8203"/><polygon fill="#181818" points="125.5,321.8203,115.5,325.8203,125.5,329.8203,121.5,325.8203" style="stroke:#181818;stroke-width:1.0;"/><text fill="#000000" font-family="sans-serif" font-size="13" font-weight="bold" lengthAdjust="spacing" textLength="31" x="127.5" y="307.7544">[05]</text><text fill="#000000" font-family="sans-serif" font-size="13" lengthAdjust="spacing" textLength="199" x="162.5" y="307.7544">geef geabonneerde deelnemer</text><polygon fill="#181818" points="599,352.9531,609,356.9531,599,360.9531,603,356.9531" style="stroke:#181818;stroke-width:1.0;"/><line style="stroke:#181818;stroke-width:1.0;" x1="115.5" x2="605" y1="356.9531" y2="356.9531"/><text fill="#000000" font-family="sans-serif" font-size="13" font-weight="bold" lengthAdjust="spacing" textLength="31" x="122.5" y="351.8872">[06]</text><text fill="#000000" font-family="sans-serif" font-size="13" lengthAdjust="spacing" textLength="183" x="157.5" y="351.8872">zoek endpoint deelnemer op</text><polygon fill="#181818" points="126.5,382.0859,116.5,386.0859,126.5,390.0859,122.5,386.0859" style="stroke:#181818;stroke-width:1.0;"/><line style="stroke:#181818;stroke-width:1.0;" x1="120.5" x2="615" y1="386.0859" y2="386.0859"/><text fill="#000000" font-family="sans-serif" font-size="13" font-weight="bold" lengthAdjust="spacing" textLength="31" x="132.5" y="381.02">[07]</text><text fill="#000000" font-family="sans-serif" font-size="13" lengthAdjust="spacing" textLength="190" x="167.5" y="381.02">return {endpoint deelnemer}</text><line style="stroke:#181818;stroke-width:1.0;" x1="115.5" x2="157.5" y1="415.2188" y2="415.2188"/><line style="stroke:#181818;stroke-width:1.0;" x1="157.5" x2="157.5" y1="415.2188" y2="428.2188"/><line style="stroke:#181818;stroke-width:1.0;" x1="116.5" x2="157.5" y1="428.2188" y2="428.2188"/><polygon fill="#181818" points="126.5,424.2188,116.5,428.2188,126.5,432.2188,122.5,428.2188" style="stroke:#181818;stroke-width:1.0;"/><text fill="#000000" font-family="sans-serif" font-size="13" font-weight="bold" lengthAdjust="spacing" textLength="31" x="122.5" y="410.1528">[08]</text><text fill="#000000" font-family="sans-serif" font-size="13" lengthAdjust="spacing" textLength="125" x="157.5" y="410.1528">genereer notificatie</text><polygon fill="#181818" points="815,453.3516,825,457.3516,815,461.3516,819,457.3516" style="stroke:#181818;stroke-width:1.0;"/><line style="stroke:#181818;stroke-width:1.0;" x1="115.5" x2="821" y1="457.3516" y2="457.3516"/><text fill="#000000" font-family="sans-serif" font-size="13" font-weight="bold" lengthAdjust="spacing" textLength="31" x="122.5" y="452.2856">[09]</text><text fill="#000000" font-family="sans-serif" font-size="13" lengthAdjust="spacing" textLength="98" x="157.5" y="452.2856">zend notificatie</text><line style="stroke:#181818;stroke-width:1.0;" x1="837" x2="879" y1="486.4844" y2="486.4844"/><line style="stroke:#181818;stroke-width:1.0;" x1="879" x2="879" y1="486.4844" y2="499.4844"/><line style="stroke:#181818;stroke-width:1.0;" x1="838" x2="879" y1="499.4844" y2="499.4844"/><polygon fill="#181818" points="848,495.4844,838,499.4844,848,503.4844,844,499.4844" style="stroke:#181818;stroke-width:1.0;"/><text fill="#000000" font-family="sans-serif" font-size="13" font-weight="bold" lengthAdjust="spacing" textLength="31" x="844" y="481.4185">[10]</text><text fill="#000000" font-family="sans-serif" font-size="13" lengthAdjust="spacing" textLength="119" x="879" y="481.4185">verwerk notificatie</text><polygon fill="#181818" points="126.5,524.6172,116.5,528.6172,126.5,532.6172,122.5,528.6172" style="stroke:#181818;stroke-width:1.0;"/><line style="stroke:#181818;stroke-width:1.0;stroke-dasharray:2.0,2.0;" x1="120.5" x2="831" y1="528.6172" y2="528.6172"/><text fill="#000000" font-family="sans-serif" font-size="13" font-weight="bold" lengthAdjust="spacing" textLength="30" x="132.5" y="523.5513">[11]</text><text fill="#000000" font-family="sans-serif" font-size="13" lengthAdjust="spacing" textLength="87" x="166.5" y="523.5513">200 response</text><line style="stroke:#181818;stroke-width:1.0;stroke-dasharray:2.0,2.0;" x1="115.5" x2="157.5" y1="557.75" y2="557.75"/><line style="stroke:#181818;stroke-width:1.0;stroke-dasharray:2.0,2.0;" x1="157.5" x2="157.5" y1="557.75" y2="570.75"/><line style="stroke:#181818;stroke-width:1.0;stroke-dasharray:2.0,2.0;" x1="116.5" x2="157.5" y1="570.75" y2="570.75"/><polygon fill="#181818" points="126.5,566.75,116.5,570.75,126.5,574.75,122.5,570.75" style="stroke:#181818;stroke-width:1.0;"/><text fill="#000000" font-family="sans-serif" font-size="13" font-weight="bold" lengthAdjust="spacing" textLength="30" x="122.5" y="552.6841">[12]</text><text fill="#000000" font-family="sans-serif" font-size="13" lengthAdjust="spacing" textLength="115" x="156.5" y="552.6841">verwerk response</text><!--SRC=[PL8xZjim4ErzYe6tIGe3mYAL4IoG766R5BifXkAOdfWc6PAoumrozmofZoMhaItD-_4DCsTBu7pc0xUOcI3HxuvSIplDQ2AUDm3fn2wW_8SZEdsDd3CvEA1Dj9ZACtFB0LqEg3Kx0y_D0g7ydt7ofKomozvrPqKHjb_LorlJ_DpAPu61YjuTVQTbz6JP7BEoNR6RcS3sExOdVv3ej0LCeD8Zu9KCfomQx-wJneoVAouQmP7JnMWp-A6Eb9IdqwF4jt5GgQZML4ra7Psdf3Uorb_NKPBluf1Kkx3K4QK4knU91dk8DNMi-oYfwnpRp1VCrAUVlTTJGs5M_XxeGcAO8nj3SJOJXpqe2eXsll9y2rHHckOUzPFOs0pymtxiBf5_NTdA2HSNPe3rwLMIy8WwM28ZNNbNUd5oNMP76eNl-U79HBgjb0pHGHwz34LDzwO7x2pnq49VwhnHL7luaFMLGV0ipTptvSDcsMLThxohwJIKk-ZWxvhyxx6pWJlFxoXAy5LTFKJkW2GhSH_dasH_JQ3yJemBnIl5qufKCOFpSzD8yXIyIwlL5XnCCGR2A3gI_WC0]--></g></svg>