<?xml version="1.0" encoding="us-ascii" standalone="no"?><svg xmlns="http://www.w3.org/2000/svg" xmlns:xlink="http://www.w3.org/1999/xlink" contentStyleType="text/css" height="645px" preserveAspectRatio="none" style="width:1001px;height:645px;background:#FFFFFF;" version="1.1" viewBox="0 0 1001 645" width="1001px" zoomAndPan="magnify"><defs/><g><text fill="#000000" font-family="sans-serif" font-size="14" font-weight="bold" lengthAdjust="spacing" textLength="239" x="383" y="27.9951">notificatie sequence-diagram</text><rect fill="#ADD8E6" height="596.0469" style="stroke:#181818;stroke-width:0.5;" width="418" x="41" y="43.2969"/><text fill="#000000" font-family="sans-serif" font-size="13" font-weight="bold" lengthAdjust="spacing" textLength="88" x="203.5" y="55.3638">bronhouder</text><rect fill="#DDDDDD" height="596.0469" style="stroke:#181818;stroke-width:0.5;" width="140" x="541" y="43.2969"/><text fill="#000000" font-family="sans-serif" font-size="13" font-weight="bold" lengthAdjust="spacing" textLength="79" x="571.5" y="55.3638">adresboek</text><rect fill="#FFFFE0" height="596.0469" style="stroke:#181818;stroke-width:0.5;" width="128" x="763" y="43.2969"/><text fill="#000000" font-family="sans-serif" font-size="13" font-weight="bold" lengthAdjust="spacing" textLength="79" x="785" y="55.3638">deelnemer</text><rect fill="#FFFFFF" height="438.5938" style="stroke:#181818;stroke-width:1.0;" width="10" x="97.5" y="141.1563"/><rect fill="#808080" height="40.1328" style="stroke:#181818;stroke-width:1.0;" width="10" x="102.5" y="273.6875"/><rect fill="#FFFFFF" height="71.2656" style="stroke:#181818;stroke-width:1.0;" width="10" x="387.5" y="141.1563"/><rect fill="#FFFFFF" height="29.1328" style="stroke:#181818;stroke-width:1.0;" width="10" x="606" y="356.9531"/><rect fill="#FFFFFF" height="71.2656" style="stroke:#181818;stroke-width:1.0;" width="10" x="822" y="457.3516"/><rect fill="none" height="101.3984" style="stroke:#000000;stroke-width:1.5;" width="362.5" x="35" y="227.4219"/><line style="stroke:#181818;stroke-width:0.5;stroke-dasharray:5.0,5.0;" x1="102" x2="102" y1="110.0234" y2="588.75"/><line style="stroke:#181818;stroke-width:0.5;stroke-dasharray:5.0,5.0;" x1="392" x2="392" y1="110.0234" y2="588.75"/><line style="stroke:#181818;stroke-width:0.5;stroke-dasharray:5.0,5.0;" x1="611" x2="611" y1="110.0234" y2="588.75"/><line style="stroke:#181818;stroke-width:0.5;stroke-dasharray:5.0,5.0;" x1="827" x2="827" y1="110.0234" y2="588.75"/><rect fill="#E2E2F0" height="30.2969" rx="2.5" ry="2.5" style="stroke:#181818;stroke-width:0.5;" width="75" x="65" y="78.7266"/><text fill="#000000" font-family="sans-serif" font-size="14" lengthAdjust="spacing" textLength="61" x="72" y="98.7217">Register</text><rect fill="#E2E2F0" height="30.2969" rx="2.5" ry="2.5" style="stroke:#181818;stroke-width:0.5;" width="75" x="65" y="587.75"/><text fill="#000000" font-family="sans-serif" font-size="14" lengthAdjust="spacing" textLength="61" x="72" y="607.7451">Register</text><rect fill="#E2E2F0" height="46.5938" rx="2.5" ry="2.5" style="stroke:#181818;stroke-width:0.5;" width="85" x="350" y="62.4297"/><text fill="#000000" font-family="sans-serif" font-size="14" lengthAdjust="spacing" textLength="67" x="357" y="82.4248">Register-</text><text fill="#000000" font-family="sans-serif" font-size="14" lengthAdjust="spacing" textLength="32" x="376.5" y="98.7217">data</text><rect fill="#E2E2F0" height="46.5938" rx="2.5" ry="2.5" style="stroke:#181818;stroke-width:0.5;" width="85" x="350" y="587.75"/><text fill="#000000" font-family="sans-serif" font-size="14" lengthAdjust="spacing" textLength="67" x="357" y="607.7451">Register-</text><text fill="#000000" font-family="sans-serif" font-size="14" lengthAdjust="spacing" textLength="32" x="376.5" y="624.042">data</text><rect fill="#E2E2F0" height="30.2969" rx="2.5" ry="2.5" style="stroke:#181818;stroke-width:0.5;" width="92" x="565" y="78.7266"/><text fill="#000000" font-family="sans-serif" font-size="14" lengthAdjust="spacing" textLength="78" x="572" y="98.7217">Adresboek</text><rect fill="#E2E2F0" height="30.2969" rx="2.5" ry="2.5" style="stroke:#181818;stroke-width:0.5;" width="92" x="565" y="587.75"/><text fill="#000000" font-family="sans-serif" font-size="14" lengthAdjust="spacing" textLength="78" x="572" y="607.7451">Adresboek</text><rect fill="#E2E2F0" height="30.2969" rx="2.5" ry="2.5" style="stroke:#181818;stroke-width:0.5;" width="80" x="787" y="78.7266"/><text fill="#000000" font-family="sans-serif" font-size="14" lengthAdjust="spacing" textLength="66" x="794" y="98.7217">Resource</text><rect fill="#E2E2F0" height="30.2969" rx="2.5" ry="2.5" style="stroke:#181818;stroke-width:0.5;" width="80" x="787" y="587.75"/><text fill="#000000" font-family="sans-serif" font-size="14" lengthAdjust="spacing" textLength="66" x="794" y="607.7451">Resource</text><rect fill="#FFFFFF" height="438.5938" style="stroke:#181818;stroke-width:1.0;" width="10" x="97.5" y="141.1563"/><rect fill="#808080" height="40.1328" style="stroke:#181818;stroke-width:1.0;" width="10" x="102.5" y="273.6875"/><rect fill="#FFFFFF" height="71.2656" style="stroke:#181818;stroke-width:1.0;" width="10" x="387.5" y="141.1563"/><rect fill="#FFFFFF" height="29.1328" style="stroke:#181818;stroke-width:1.0;" width="10" x="606" y="356.9531"/><rect fill="#FFFFFF" height="71.2656" style="stroke:#181818;stroke-width:1.0;" width="10" x="822" y="457.3516"/><polygon fill="#181818" points="375.5,137.1563,385.5,141.1563,375.5,145.1563,379.5,141.1563" style="stroke:#181818;stroke-width:1.0;"/><line style="stroke:#181818;stroke-width:1.0;" x1="107.5" x2="381.5" y1="141.1563" y2="141.1563"/><text fill="#000000" font-family="sans-serif" font-size="13" font-weight="bold" lengthAdjust="spacing" textLength="31" x="114.5" y="136.0903">[01]</text><text fill="#000000" font-family="sans-serif" font-size="13" lengthAdjust="spacing" textLength="98" x="149.5" y="136.0903">registratie data</text><line style="stroke:#181818;stroke-width:1.0;" x1="397.5" x2="439.5" y1="170.2891" y2="170.2891"/><line style="stroke:#181818;stroke-width:1.0;" x1="439.5" x2="439.5" y1="170.2891" y2="183.2891"/><line style="stroke:#181818;stroke-width:1.0;" x1="398.5" x2="439.5" y1="183.2891" y2="183.2891"/><polygon fill="#181818" points="408.5,179.2891,398.5,183.2891,408.5,187.2891,404.5,183.2891" style="stroke:#181818;stroke-width:1.0;"/><text fill="#000000" font-family="sans-serif" font-size="13" font-weight="bold" lengthAdjust="spacing" textLength="31" x="404.5" y="165.2231">[02]</text><text fill="#000000" font-family="sans-serif" font-size="13" lengthAdjust="spacing" textLength="83" x="439.5" y="165.2231">event trigger</text><polygon fill="#181818" points="118.5,208.4219,108.5,212.4219,118.5,216.4219,114.5,212.4219" style="stroke:#181818;stroke-width:1.0;"/><line style="stroke:#181818;stroke-width:1.0;" x1="112.5" x2="391.5" y1="212.4219" y2="212.4219"/><text fill="#000000" font-family="sans-serif" font-size="13" font-weight="bold" lengthAdjust="spacing" textLength="30" x="124.5" y="207.356">[03]</text><text fill="#000000" font-family="sans-serif" font-size="13" lengthAdjust="spacing" textLength="139" x="158.5" y="207.356">bepaal notificatietype</text><path d="M35,227.4219 L101,227.4219 L101,234.5547 L91,244.5547 L35,244.5547 L35,227.4219 " fill="#EEEEEE" style="stroke:#000000;stroke-width:1.5;"/><rect fill="none" height="101.3984" style="stroke:#000000;stroke-width:1.5;" width="362.5" x="35" y="227.4219"/><text fill="#000000" font-family="sans-serif" font-size="13" font-weight="bold" lengthAdjust="spacing" textLength="21" x="50" y="240.4888">alt</text><text fill="#000000" font-family="sans-serif" font-size="11" font-weight="bold" lengthAdjust="spacing" textLength="182" x="116" y="239.6323">[iWlz-vrijwillige notificatie]</text><line style="stroke:#181818;stroke-width:1.0;" x1="107.5" x2="154.5" y1="260.6875" y2="260.6875"/><line style="stroke:#181818;stroke-width:1.0;" x1="154.5" x2="154.5" y1="260.6875" y2="273.6875"/><line style="stroke:#181818;stroke-width:1.0;" x1="113.5" x2="154.5" y1="273.6875" y2="273.6875"/><polygon fill="#181818" points="123.5,269.6875,113.5,273.6875,123.5,277.6875,119.5,273.6875" style="stroke:#181818;stroke-width:1.0;"/><text fill="#000000" font-family="sans-serif" font-size="13" font-weight="bold" lengthAdjust="spacing" textLength="31" x="119.5" y="255.6216">[04]</text><text fill="#000000" font-family="sans-serif" font-size="13" lengthAdjust="spacing" textLength="231" x="154.5" y="255.6216">raadpleeg abonnementenregistratie</text><line style="stroke:#181818;stroke-width:1.0;" x1="112.5" x2="154.5" y1="312.8203" y2="312.8203"/><line style="stroke:#181818;stroke-width:1.0;" x1="154.5" x2="154.5" y1="312.8203" y2="325.8203"/><line style="stroke:#181818;stroke-width:1.0;" x1="107.5" x2="154.5" y1="325.8203" y2="325.8203"/><polygon fill="#181818" points="117.5,321.8203,107.5,325.8203,117.5,329.8203,113.5,325.8203" style="stroke:#181818;stroke-width:1.0;"/><text fill="#000000" font-family="sans-serif" font-size="13" font-weight="bold" lengthAdjust="spacing" textLength="31" x="119.5" y="307.7544">[05]</text><text fill="#000000" font-family="sans-serif" font-size="13" lengthAdjust="spacing" textLength="199" x="154.5" y="307.7544">geef geabonneerde deelnemer</text><polygon fill="#181818" points="594,352.9531,604,356.9531,594,360.9531,598,356.9531" style="stroke:#181818;stroke-width:1.0;"/><line style="stroke:#181818;stroke-width:1.0;" x1="107.5" x2="600" y1="356.9531" y2="356.9531"/><text fill="#000000" font-family="sans-serif" font-size="13" font-weight="bold" lengthAdjust="spacing" textLength="31" x="114.5" y="351.8872">[06]</text><text fill="#000000" font-family="sans-serif" font-size="13" lengthAdjust="spacing" textLength="214" x="149.5" y="351.8872">zoek endpoint &amp; ID deelnemer op</text><polygon fill="#181818" points="118.5,382.0859,108.5,386.0859,118.5,390.0859,114.5,386.0859" style="stroke:#181818;stroke-width:1.0;"/><line style="stroke:#181818;stroke-width:1.0;" x1="112.5" x2="610" y1="386.0859" y2="386.0859"/><text fill="#000000" font-family="sans-serif" font-size="13" font-weight="bold" lengthAdjust="spacing" textLength="31" x="124.5" y="381.02">[07]</text><text fill="#000000" font-family="sans-serif" font-size="13" lengthAdjust="spacing" textLength="221" x="159.5" y="381.02">return {endpoint &amp; ID deelnemer}</text><line style="stroke:#181818;stroke-width:1.0;" x1="107.5" x2="149.5" y1="415.2188" y2="415.2188"/><line style="stroke:#181818;stroke-width:1.0;" x1="149.5" x2="149.5" y1="415.2188" y2="428.2188"/><line style="stroke:#181818;stroke-width:1.0;" x1="108.5" x2="149.5" y1="428.2188" y2="428.2188"/><polygon fill="#181818" points="118.5,424.2188,108.5,428.2188,118.5,432.2188,114.5,428.2188" style="stroke:#181818;stroke-width:1.0;"/><text fill="#000000" font-family="sans-serif" font-size="13" font-weight="bold" lengthAdjust="spacing" textLength="31" x="114.5" y="410.1528">[08]</text><text fill="#000000" font-family="sans-serif" font-size="13" lengthAdjust="spacing" textLength="125" x="149.5" y="410.1528">genereer notificatie</text><polygon fill="#181818" points="810,453.3516,820,457.3516,810,461.3516,814,457.3516" style="stroke:#181818;stroke-width:1.0;"/><line style="stroke:#181818;stroke-width:1.0;" x1="107.5" x2="816" y1="457.3516" y2="457.3516"/><text fill="#000000" font-family="sans-serif" font-size="13" font-weight="bold" lengthAdjust="spacing" textLength="31" x="114.5" y="452.2856">[09]</text><text fill="#000000" font-family="sans-serif" font-size="13" lengthAdjust="spacing" textLength="98" x="149.5" y="452.2856">zend notificatie</text><line style="stroke:#181818;stroke-width:1.0;" x1="832" x2="874" y1="486.4844" y2="486.4844"/><line style="stroke:#181818;stroke-width:1.0;" x1="874" x2="874" y1="486.4844" y2="499.4844"/><line style="stroke:#181818;stroke-width:1.0;" x1="833" x2="874" y1="499.4844" y2="499.4844"/><polygon fill="#181818" points="843,495.4844,833,499.4844,843,503.4844,839,499.4844" style="stroke:#181818;stroke-width:1.0;"/><text fill="#000000" font-family="sans-serif" font-size="13" font-weight="bold" lengthAdjust="spacing" textLength="31" x="839" y="481.4185">[10]</text><text fill="#000000" font-family="sans-serif" font-size="13" lengthAdjust="spacing" textLength="120" x="874" y="481.4185">ontvang notificatie</text><polygon fill="#181818" points="118.5,524.6172,108.5,528.6172,118.5,532.6172,114.5,528.6172" style="stroke:#181818;stroke-width:1.0;"/><line style="stroke:#181818;stroke-width:1.0;stroke-dasharray:2.0,2.0;" x1="112.5" x2="826" y1="528.6172" y2="528.6172"/><text fill="#000000" font-family="sans-serif" font-size="13" font-weight="bold" lengthAdjust="spacing" textLength="30" x="124.5" y="523.5513">[11]</text><text fill="#000000" font-family="sans-serif" font-size="13" lengthAdjust="spacing" textLength="87" x="158.5" y="523.5513">200 response</text><line style="stroke:#181818;stroke-width:1.0;stroke-dasharray:2.0,2.0;" x1="107.5" x2="149.5" y1="557.75" y2="557.75"/><line style="stroke:#181818;stroke-width:1.0;stroke-dasharray:2.0,2.0;" x1="149.5" x2="149.5" y1="557.75" y2="570.75"/><line style="stroke:#181818;stroke-width:1.0;stroke-dasharray:2.0,2.0;" x1="108.5" x2="149.5" y1="570.75" y2="570.75"/><polygon fill="#181818" points="118.5,566.75,108.5,570.75,118.5,574.75,114.5,570.75" style="stroke:#181818;stroke-width:1.0;"/><text fill="#000000" font-family="sans-serif" font-size="13" font-weight="bold" lengthAdjust="spacing" textLength="30" x="114.5" y="552.6841">[12]</text><text fill="#000000" font-family="sans-serif" font-size="13" lengthAdjust="spacing" textLength="115" x="148.5" y="552.6841">verwerk response</text><!--SRC=[TLCzRzim4DtzAmuEqCs047GoYW05kdJDqY7fS1JFD6kQP8-KNAVeV- -HaXN9GXPzlNVlthsZiisEm8Ti3xR5R0aI_Ux8jxJJ5WtZUGEGJjP7b6SuejSNjZcJXmEwH0jKhjcsDgBF4RMsti1Zis2eyEU6V2u8TZduxgo8OVj5FRqqpS-jV1OQA0x-63ejq8EpvfYLwqgxMHFOFfEnAHDl0HEez16yWrUlCMEbiH4QULswRCPcg9cI2dIwL_Xw0sefgdMf9dAUpfFDApaNBcidANJSKfNHFYvrH2d1xacimHwuckQwZ6AwujXcssEcmVtilGuDfRBMxu5waeQPhJ74Cqmwx45HH7JpVUThfChIDEzHFqaRby7-S6-xdkslYtKouUAqZBJ1lKfY7b57HsGag-1BBbxEocoac_2xVtWmJDULaY4wo6MG8TRqdlJ8dJaUKnX2dIUAQWzlihu2n60bcK_m_TjiQI5kbe7M7SkxcaQYtB67lnye_BjFRnIOJ-A9POHLS0D5JeDuBCRlyKboE31GxbD5yBb7-O_kYofdxFpOD68_nU3JQic51vEDiQ0dlX2VfgB_]--></g></svg>