<?xml version="1.0" encoding="us-ascii" standalone="no"?><svg xmlns="http://www.w3.org/2000/svg" xmlns:xlink="http://www.w3.org/1999/xlink" contentStyleType="text/css" height="535px" preserveAspectRatio="none" style="width:897px;height:535px;background:#FFFFFF;" version="1.1" viewBox="0 0 897 535" width="897px" zoomAndPan="magnify"><defs/><g><text fill="#000000" font-family="sans-serif" font-size="14" font-weight="bold" lengthAdjust="spacing" textLength="201" x="357" y="27.9951">Verwijderen abonnement</text><rect fill="#ADD8E6" height="486.4531" style="stroke:#181818;stroke-width:0.5;" width="326" x="41" y="43.2969"/><text fill="#000000" font-family="sans-serif" font-size="13" font-weight="bold" lengthAdjust="spacing" textLength="88" x="157.5" y="55.3638">bronhouder</text><rect fill="#FFFFE0" height="486.4531" style="stroke:#181818;stroke-width:0.5;" width="375" x="500" y="43.2969"/><text fill="#000000" font-family="sans-serif" font-size="13" font-weight="bold" lengthAdjust="spacing" textLength="79" x="645.5" y="55.3638">deelnemer</text><rect fill="#FFFFFF" height="182.7969" style="stroke:#181818;stroke-width:1.0;" width="10" x="105.5" y="222.3906"/><rect fill="#FFFFFF" height="241.0625" style="stroke:#181818;stroke-width:1.0;" width="10" x="283.5" y="193.2578"/><rect fill="#FFFFFF" height="299.3281" style="stroke:#181818;stroke-width:1.0;" width="10" x="573.5" y="164.125"/><rect fill="#FFFFFF" height="299.3281" style="stroke:#181818;stroke-width:1.0;" width="10" x="800.5" y="164.125"/><rect fill="none" height="367.7266" style="stroke:#000000;stroke-width:1.5;" width="866" x="25" y="110.7266"/><rect fill="#FFC0CB" height="104.5313" style="stroke:#000000;stroke-width:1.5;" width="846" x="35" y="366.9219"/><line style="stroke:#181818;stroke-width:0.5;stroke-dasharray:5.0,5.0;" x1="110" x2="110" y1="93.7266" y2="495.4531"/><line style="stroke:#181818;stroke-width:0.5;stroke-dasharray:5.0,5.0;" x1="288" x2="288" y1="93.7266" y2="495.4531"/><line style="stroke:#181818;stroke-width:0.5;stroke-dasharray:5.0,5.0;" x1="578" x2="578" y1="93.7266" y2="495.4531"/><line style="stroke:#181818;stroke-width:0.5;stroke-dasharray:5.0,5.0;" x1="805" x2="805" y1="93.7266" y2="495.4531"/><rect fill="#E2E2F0" height="30.2969" rx="2.5" ry="2.5" style="stroke:#181818;stroke-width:0.5;" width="91" x="65" y="62.4297"/><text fill="#000000" font-family="sans-serif" font-size="14" lengthAdjust="spacing" textLength="77" x="72" y="82.4248">Backoffice</text><rect fill="#E2E2F0" height="30.2969" rx="2.5" ry="2.5" style="stroke:#181818;stroke-width:0.5;" width="91" x="65" y="494.4531"/><text fill="#000000" font-family="sans-serif" font-size="14" lengthAdjust="spacing" textLength="77" x="72" y="514.4482">Backoffice</text><rect fill="#E2E2F0" height="30.2969" rx="2.5" ry="2.5" style="stroke:#181818;stroke-width:0.5;" width="109" x="234" y="62.4297"/><text fill="#000000" font-family="sans-serif" font-size="14" lengthAdjust="spacing" textLength="95" x="241" y="82.4248">Netwerkpunt</text><rect fill="#E2E2F0" height="30.2969" rx="2.5" ry="2.5" style="stroke:#181818;stroke-width:0.5;" width="109" x="234" y="494.4531"/><text fill="#000000" font-family="sans-serif" font-size="14" lengthAdjust="spacing" textLength="95" x="241" y="514.4482">Netwerkpunt</text><rect fill="#E2E2F0" height="30.2969" rx="2.5" ry="2.5" style="stroke:#181818;stroke-width:0.5;" width="109" x="524" y="62.4297"/><text fill="#000000" font-family="sans-serif" font-size="14" lengthAdjust="spacing" textLength="95" x="531" y="82.4248">Netwerkpunt</text><rect fill="#E2E2F0" height="30.2969" rx="2.5" ry="2.5" style="stroke:#181818;stroke-width:0.5;" width="109" x="524" y="494.4531"/><text fill="#000000" font-family="sans-serif" font-size="14" lengthAdjust="spacing" textLength="95" x="531" y="514.4482">Netwerkpunt</text><rect fill="#E2E2F0" height="30.2969" rx="2.5" ry="2.5" style="stroke:#181818;stroke-width:0.5;" width="91" x="760" y="62.4297"/><text fill="#000000" font-family="sans-serif" font-size="14" lengthAdjust="spacing" textLength="77" x="767" y="82.4248">Backoffice</text><rect fill="#E2E2F0" height="30.2969" rx="2.5" ry="2.5" style="stroke:#181818;stroke-width:0.5;" width="91" x="760" y="494.4531"/><text fill="#000000" font-family="sans-serif" font-size="14" lengthAdjust="spacing" textLength="77" x="767" y="514.4482">Backoffice</text><rect fill="#FFFFFF" height="182.7969" style="stroke:#181818;stroke-width:1.0;" width="10" x="105.5" y="222.3906"/><rect fill="#FFFFFF" height="241.0625" style="stroke:#181818;stroke-width:1.0;" width="10" x="283.5" y="193.2578"/><rect fill="#FFFFFF" height="299.3281" style="stroke:#181818;stroke-width:1.0;" width="10" x="573.5" y="164.125"/><rect fill="#FFFFFF" height="299.3281" style="stroke:#181818;stroke-width:1.0;" width="10" x="800.5" y="164.125"/><path d="M25,110.7266 L382,110.7266 L382,117.8594 L372,127.8594 L25,127.8594 L25,110.7266 " fill="#EEEEEE" style="stroke:#000000;stroke-width:1.5;"/><rect fill="none" height="367.7266" style="stroke:#000000;stroke-width:1.5;" width="866" x="25" y="110.7266"/><text fill="#000000" font-family="sans-serif" font-size="13" font-weight="bold" lengthAdjust="spacing" textLength="312" x="40" y="123.7935">verwijderen abonnement door deelnemer</text><polygon fill="#181818" points="594.5,160.125,584.5,164.125,594.5,168.125,590.5,164.125" style="stroke:#181818;stroke-width:1.0;"/><line style="stroke:#181818;stroke-width:1.0;" x1="588.5" x2="799.5" y1="164.125" y2="164.125"/><text fill="#000000" font-family="sans-serif" font-size="13" font-weight="bold" lengthAdjust="spacing" textLength="31" x="600.5" y="151.4927">[01]</text><text fill="#000000" font-family="sans-serif" font-size="13" lengthAdjust="spacing" textLength="145" x="635.5" y="143.9263">abonnement verwijder</text><text fill="#000000" font-family="sans-serif" font-size="13" lengthAdjust="spacing" textLength="168" x="635.5" y="159.0591">verzoek {abonnementID}</text><polygon fill="#181818" points="304.5,189.2578,294.5,193.2578,304.5,197.2578,300.5,193.2578" style="stroke:#181818;stroke-width:1.0;"/><line style="stroke:#181818;stroke-width:1.0;" x1="298.5" x2="572.5" y1="193.2578" y2="193.2578"/><text fill="#000000" font-family="sans-serif" font-size="13" font-weight="bold" lengthAdjust="spacing" textLength="31" x="310.5" y="188.1919">[02]</text><text fill="#000000" font-family="sans-serif" font-size="13" lengthAdjust="spacing" textLength="226" x="345.5" y="188.1919">verstuur verzoek {abonnementID}</text><polygon fill="#181818" points="126.5,218.3906,116.5,222.3906,126.5,226.3906,122.5,222.3906" style="stroke:#181818;stroke-width:1.0;"/><line style="stroke:#181818;stroke-width:1.0;" x1="120.5" x2="282.5" y1="222.3906" y2="222.3906"/><text fill="#000000" font-family="sans-serif" font-size="13" font-weight="bold" lengthAdjust="spacing" textLength="30" x="132.5" y="217.3247">[03]</text><text fill="#000000" font-family="sans-serif" font-size="13" lengthAdjust="spacing" textLength="109" x="166.5" y="217.3247">verstuur verzoek</text><line style="stroke:#181818;stroke-width:1.0;" x1="115.5" x2="157.5" y1="251.5234" y2="251.5234"/><line style="stroke:#181818;stroke-width:1.0;" x1="157.5" x2="157.5" y1="251.5234" y2="264.5234"/><line style="stroke:#181818;stroke-width:1.0;" x1="116.5" x2="157.5" y1="264.5234" y2="264.5234"/><polygon fill="#181818" points="126.5,260.5234,116.5,264.5234,126.5,268.5234,122.5,264.5234" style="stroke:#181818;stroke-width:1.0;"/><text fill="#000000" font-family="sans-serif" font-size="13" font-weight="bold" lengthAdjust="spacing" textLength="31" x="122.5" y="246.4575">[04]</text><text fill="#000000" font-family="sans-serif" font-size="13" lengthAdjust="spacing" textLength="106" x="157.5" y="246.4575">valideer verzoek</text><polygon fill="#181818" points="271.5,289.6563,281.5,293.6563,271.5,297.6563,275.5,293.6563" style="stroke:#181818;stroke-width:1.0;"/><line style="stroke:#181818;stroke-width:1.0;stroke-dasharray:2.0,2.0;" x1="115.5" x2="277.5" y1="293.6563" y2="293.6563"/><text fill="#000000" font-family="sans-serif" font-size="13" font-weight="bold" lengthAdjust="spacing" textLength="31" x="122.5" y="288.5903">[05]</text><text fill="#000000" font-family="sans-serif" font-size="13" lengthAdjust="spacing" textLength="105" x="157.5" y="288.5903">response {204}</text><polygon fill="#181818" points="561.5,318.7891,571.5,322.7891,561.5,326.7891,565.5,322.7891" style="stroke:#181818;stroke-width:1.0;"/><line style="stroke:#181818;stroke-width:1.0;stroke-dasharray:2.0,2.0;" x1="293.5" x2="567.5" y1="322.7891" y2="322.7891"/><text fill="#000000" font-family="sans-serif" font-size="13" font-weight="bold" lengthAdjust="spacing" textLength="31" x="300.5" y="317.7231">[06]</text><text fill="#000000" font-family="sans-serif" font-size="13" lengthAdjust="spacing" textLength="105" x="335.5" y="317.7231">response {204}</text><polygon fill="#181818" points="788.5,347.9219,798.5,351.9219,788.5,355.9219,792.5,351.9219" style="stroke:#181818;stroke-width:1.0;"/><line style="stroke:#181818;stroke-width:1.0;stroke-dasharray:2.0,2.0;" x1="583.5" x2="794.5" y1="351.9219" y2="351.9219"/><text fill="#000000" font-family="sans-serif" font-size="13" font-weight="bold" lengthAdjust="spacing" textLength="31" x="590.5" y="346.856">[07]</text><text fill="#000000" font-family="sans-serif" font-size="13" lengthAdjust="spacing" textLength="105" x="625.5" y="346.856">response {204}</text><path d="M35,366.9219 L101,366.9219 L101,374.0547 L91,384.0547 L35,384.0547 L35,366.9219 " fill="#EEEEEE" style="stroke:#000000;stroke-width:1.5;"/><rect fill="none" height="104.5313" style="stroke:#000000;stroke-width:1.5;" width="846" x="35" y="366.9219"/><text fill="#000000" font-family="sans-serif" font-size="13" font-weight="bold" lengthAdjust="spacing" textLength="21" x="50" y="379.9888">alt</text><polygon fill="#181818" points="271.5,401.1875,281.5,405.1875,271.5,409.1875,275.5,405.1875" style="stroke:#181818;stroke-width:1.0;"/><line style="stroke:#181818;stroke-width:1.0;stroke-dasharray:2.0,2.0;" x1="110.5" x2="277.5" y1="405.1875" y2="405.1875"/><text fill="#000000" font-family="sans-serif" font-size="13" font-weight="bold" lengthAdjust="spacing" textLength="31" x="117.5" y="400.1216">[08]</text><text fill="#000000" font-family="sans-serif" font-size="13" lengthAdjust="spacing" textLength="109" x="152.5" y="400.1216">ongeldig verzoek</text><polygon fill="#181818" points="561.5,430.3203,571.5,434.3203,561.5,438.3203,565.5,434.3203" style="stroke:#181818;stroke-width:1.0;"/><line style="stroke:#181818;stroke-width:1.0;stroke-dasharray:2.0,2.0;" x1="288.5" x2="567.5" y1="434.3203" y2="434.3203"/><text fill="#000000" font-family="sans-serif" font-size="13" font-weight="bold" lengthAdjust="spacing" textLength="31" x="295.5" y="429.2544">[09]</text><text fill="#000000" font-family="sans-serif" font-size="13" lengthAdjust="spacing" textLength="109" x="330.5" y="429.2544">ongeldig verzoek</text><polygon fill="#181818" points="793.5,459.4531,803.5,463.4531,793.5,467.4531,797.5,463.4531" style="stroke:#181818;stroke-width:1.0;"/><line style="stroke:#181818;stroke-width:1.0;stroke-dasharray:2.0,2.0;" x1="578.5" x2="799.5" y1="463.4531" y2="463.4531"/><text fill="#000000" font-family="sans-serif" font-size="13" font-weight="bold" lengthAdjust="spacing" textLength="31" x="585.5" y="458.3872">[10]</text><text fill="#000000" font-family="sans-serif" font-size="13" lengthAdjust="spacing" textLength="109" x="620.5" y="458.3872">ongeldig verzoek</text><!--SRC=[ZL8xRy8m4Dxv5QSmLueGKrKnL5swL4nTsWvsV0GtvcpvGTeY_dlja40UIE0XYkw- -nwdyz8hXEmTRIs_1LeaO5mJuGx9Pp03S9KamopRmPQHgAtqFe8sJ3aSTEFNoq8QHjum8IILiCW72Av_kiuoTLZmciAEeuNiYQy-ylmhY-K80surRNM8Xc2kPBdrN8KarnE1x9aLbTviP84PC0VSZG5lw6kqbGafIaAGIOcGH1APjLe2KQMydTGlAgNhMro2p0q_eZ7K4okj3WRsLrSDGcjxiHBHwKKAU5WbhSS-zam1dnJ__pHMSBZqNr-ExJmhlDmpZwsNOQa9qAZ4jKGLdbGYdVCXMBYFbvz9U4lYfXoJeSxBALqpmfICuSSZ2T0vi-YC9eTmMEJBOr-rsz08qK-N84ddAabZJdcOhoLLlLfVNLE9IiXoPB0Hm6coYRSxvy_hd3Y_Zq0C2V3A0QINZZ8cdftkyny0]--></g></svg>