<svg xmlns="http://www.w3.org/2000/svg" xmlns:xlink="http://www.w3.org/1999/xlink" contentStyleType="text/css" height="908px" preserveAspectRatio="none" style="width:1308px;height:908px;background:#FFFFFF;" version="1.1" viewBox="0 0 1308 908" width="1308px" zoomAndPan="magnify"><defs/><g><rect fill="#DDDDDD" height="896.6484" style="stroke:#181818;stroke-width:0.5;" width="103.7266" x="21" y="6"/><text fill="#000000" font-family="sans-serif" font-size="13" font-weight="bold" lengthAdjust="spacing" textLength="79.7266" x="33" y="18.0669">Deelnemer</text><rect fill="#87CEEB" height="896.6484" style="stroke:#181818;stroke-width:0.5;" width="671.2744" x="215.8906" y="6"/><text fill="#000000" font-family="sans-serif" font-size="13" font-weight="bold" lengthAdjust="spacing" textLength="24.8828" x="539.0864" y="18.0669">nID</text><rect fill="#ADD8E6" height="876.5156" style="stroke:#181818;stroke-width:0.5;" width="352.165" x="535" y="26.1328"/><text fill="#000000" font-family="sans-serif" font-size="13" font-weight="bold" lengthAdjust="spacing" textLength="30.6401" x="695.7625" y="38.1997">OPA</text><rect fill="#DDDDDD" height="896.6484" style="stroke:#181818;stroke-width:0.5;" width="223.8398" x="919.165" y="6"/><text fill="#000000" font-family="sans-serif" font-size="13" font-weight="bold" lengthAdjust="spacing" textLength="76.7114" x="992.7292" y="18.0669">buiten nID</text><rect fill="#ADD8E6" height="876.5156" style="stroke:#181818;stroke-width:0.5;" width="223.8398" x="919.165" y="26.1328"/><text fill="#000000" font-family="sans-serif" font-size="13" font-weight="bold" lengthAdjust="spacing" textLength="30.6401" x="1015.7649" y="38.1997">OPA</text><rect fill="#DDDDDD" height="896.6484" style="stroke:#181818;stroke-width:0.5;" width="127.1396" x="1175.0049" y="6"/><text fill="#000000" font-family="sans-serif" font-size="13" font-weight="bold" lengthAdjust="spacing" textLength="61.769" x="1207.6902" y="18.0669">Register</text><line style="stroke:#181818;stroke-width:0.5;stroke-dasharray:5.0,5.0;" x1="72.8633" x2="72.8633" y1="76.5625" y2="865.3516"/><rect fill="#FFFFFF" height="422.4609" style="stroke:#181818;stroke-width:1.0;" width="10" x="67.8633" y="136.8281"/><line style="stroke:#181818;stroke-width:0.5;stroke-dasharray:5.0,5.0;" x1="259.7559" x2="259.7559" y1="76.5625" y2="865.3516"/><rect fill="#FFFFFF" height="422.4609" style="stroke:#181818;stroke-width:1.0;" width="10" x="254.7559" y="136.8281"/><line style="stroke:#181818;stroke-width:0.5;stroke-dasharray:5.0,5.0;" x1="579.8325" x2="579.8325" y1="76.5625" y2="865.3516"/><rect fill="#FFFFFF" height="216.7969" style="stroke:#181818;stroke-width:1.0;" width="10" x="574.8325" y="243.2266"/><rect fill="#FFFFFF" height="100.3984" style="stroke:#181818;stroke-width:1.0;" width="10" x="574.8325" y="719.9531"/><rect fill="#D3D3D3" height="71.2656" style="stroke:#181818;stroke-width:1.0;" width="10" x="579.8325" y="345.625"/><line style="stroke:#181818;stroke-width:0.5;stroke-dasharray:5.0,5.0;" x1="842.8589" x2="842.8589" y1="76.5625" y2="865.3516"/><rect fill="#FFFFFF" height="58.2656" style="stroke:#181818;stroke-width:1.0;" width="10" x="837.8589" y="690.8203"/><line style="stroke:#181818;stroke-width:0.5;stroke-dasharray:5.0,5.0;" x1="960.6719" x2="960.6719" y1="76.5625" y2="865.3516"/><rect fill="#FFFFFF" height="71.2656" style="stroke:#181818;stroke-width:1.0;" width="10" x="955.6719" y="345.625"/><line style="stroke:#181818;stroke-width:0.5;stroke-dasharray:5.0,5.0;" x1="1098.7739" x2="1098.7739" y1="76.5625" y2="865.3516"/><rect fill="#FFFFFF" height="78.3984" style="stroke:#181818;stroke-width:1.0;" width="10" x="1093.7739" y="612.4219"/><line style="stroke:#181818;stroke-width:0.5;stroke-dasharray:5.0,5.0;" x1="1238.5747" x2="1238.5747" y1="76.5625" y2="865.3516"/><rect fill="#FFFFFF" height="14" style="stroke:#181818;stroke-width:1.0;" width="10" x="1233.5747" y="531.2891"/><rect fill="#E2E2F0" height="30.2969" rx="2.5" ry="2.5" style="stroke:#181818;stroke-width:0.5;" width="54.5303" x="45.5981" y="45.2656"/><text fill="#000000" font-family="sans-serif" font-size="14" lengthAdjust="spacing" textLength="40.5303" x="52.5981" y="65.2607">Client</text><rect fill="#E2E2F0" height="30.2969" rx="2.5" ry="2.5" style="stroke:#181818;stroke-width:0.5;" width="39.7305" x="239.8906" y="45.2656"/><text fill="#000000" font-family="sans-serif" font-size="14" lengthAdjust="spacing" textLength="25.7305" x="246.8906" y="65.2607">PEP</text><rect fill="#E2E2F0" height="30.2969" rx="2.5" ry="2.5" style="stroke:#181818;stroke-width:0.5;" width="41.665" x="559" y="45.2656"/><text fill="#000000" font-family="sans-serif" font-size="14" lengthAdjust="spacing" textLength="27.665" x="566" y="65.2607">PDP</text><rect fill="#E2E2F0" height="30.2969" rx="2.5" ry="2.5" style="stroke:#181818;stroke-width:0.5;" width="40.6123" x="822.5527" y="45.2656"/><text fill="#000000" font-family="sans-serif" font-size="14" lengthAdjust="spacing" textLength="26.6123" x="829.5527" y="65.2607">PRP</text><rect fill="#E2E2F0" height="30.2969" rx="2.5" ry="2.5" style="stroke:#181818;stroke-width:0.5;" width="35.0137" x="943.165" y="45.2656"/><text fill="#000000" font-family="sans-serif" font-size="14" lengthAdjust="spacing" textLength="21.0137" x="950.165" y="65.2607">PIP</text><rect fill="#E2E2F0" height="30.2969" rx="2.5" ry="2.5" style="stroke:#181818;stroke-width:0.5;" width="40.4619" x="1078.543" y="45.2656"/><text fill="#000000" font-family="sans-serif" font-size="14" lengthAdjust="spacing" textLength="26.4619" x="1085.543" y="65.2607">PAP</text><rect fill="#E2E2F0" height="30.2969" rx="2.5" ry="2.5" style="stroke:#181818;stroke-width:0.5;" width="79.1396" x="1199.0049" y="45.2656"/><text fill="#000000" font-family="sans-serif" font-size="14" lengthAdjust="spacing" textLength="65.1396" x="1206.0049" y="65.2607">Resource</text><rect fill="#E2E2F0" height="30.2969" rx="2.5" ry="2.5" style="stroke:#181818;stroke-width:0.5;" width="54.5303" x="45.5981" y="865.3516"/><text fill="#000000" font-family="sans-serif" font-size="14" lengthAdjust="spacing" textLength="40.5303" x="52.5981" y="885.3467">Client</text><rect fill="#E2E2F0" height="30.2969" rx="2.5" ry="2.5" style="stroke:#181818;stroke-width:0.5;" width="39.7305" x="239.8906" y="865.3516"/><text fill="#000000" font-family="sans-serif" font-size="14" lengthAdjust="spacing" textLength="25.7305" x="246.8906" y="885.3467">PEP</text><rect fill="#E2E2F0" height="30.2969" rx="2.5" ry="2.5" style="stroke:#181818;stroke-width:0.5;" width="41.665" x="559" y="865.3516"/><text fill="#000000" font-family="sans-serif" font-size="14" lengthAdjust="spacing" textLength="27.665" x="566" y="885.3467">PDP</text><rect fill="#E2E2F0" height="30.2969" rx="2.5" ry="2.5" style="stroke:#181818;stroke-width:0.5;" width="40.6123" x="822.5527" y="865.3516"/><text fill="#000000" font-family="sans-serif" font-size="14" lengthAdjust="spacing" textLength="26.6123" x="829.5527" y="885.3467">PRP</text><rect fill="#E2E2F0" height="30.2969" rx="2.5" ry="2.5" style="stroke:#181818;stroke-width:0.5;" width="35.0137" x="943.165" y="865.3516"/><text fill="#000000" font-family="sans-serif" font-size="14" lengthAdjust="spacing" textLength="21.0137" x="950.165" y="885.3467">PIP</text><rect fill="#E2E2F0" height="30.2969" rx="2.5" ry="2.5" style="stroke:#181818;stroke-width:0.5;" width="40.4619" x="1078.543" y="865.3516"/><text fill="#000000" font-family="sans-serif" font-size="14" lengthAdjust="spacing" textLength="26.4619" x="1085.543" y="885.3467">PAP</text><rect fill="#E2E2F0" height="30.2969" rx="2.5" ry="2.5" style="stroke:#181818;stroke-width:0.5;" width="79.1396" x="1199.0049" y="865.3516"/><text fill="#000000" font-family="sans-serif" font-size="14" lengthAdjust="spacing" textLength="65.1396" x="1206.0049" y="885.3467">Resource</text><path d="M51.8633,88.5625 L180.0811,88.5625 L180.0811,95.6953 L170.0811,105.6953 L51.8633,105.6953 L51.8633,88.5625 " fill="#EEEEEE" style="stroke:#000000;stroke-width:1.5;"/><rect fill="none" height="478.7266" style="stroke:#000000;stroke-width:1.5;" width="1207.7114" x="51.8633" y="88.5625"/><text fill="#000000" font-family="sans-serif" font-size="13" font-weight="bold" lengthAdjust="spacing" textLength="83.2178" x="66.8633" y="101.6294">raadplegen</text><polygon fill="#181818" points="242.7559,132.8281,252.7559,136.8281,242.7559,140.8281,246.7559,136.8281" style="stroke:#181818;stroke-width:1.0;"/><line style="stroke:#181818;stroke-width:1.0;" x1="77.8633" x2="248.7559" y1="136.8281" y2="136.8281"/><text fill="#000000" font-family="sans-serif" font-size="13" font-weight="bold" lengthAdjust="spacing" textLength="39.019" x="84.8633" y="131.7622">[001]</text><text fill="#000000" font-family="sans-serif" font-size="13" lengthAdjust="spacing" textLength="114.8735" x="127.8823" y="131.7622">GraphQL Request</text><path d="M269.7559,149.8281 L269.7559,174.8281 L440.7559,174.8281 L440.7559,159.8281 L430.7559,149.8281 L269.7559,149.8281 " fill="#FEFFDD" style="stroke:#181818;stroke-width:0.5;"/><path d="M430.7559,149.8281 L430.7559,159.8281 L440.7559,159.8281 L430.7559,149.8281 " fill="#FEFFDD" style="stroke:#181818;stroke-width:0.5;"/><text fill="#000000" font-family="sans-serif" font-size="13" lengthAdjust="spacing" textLength="150.6172" x="275.7559" y="166.895">Inline filtering requests</text><line style="stroke:#181818;stroke-width:1.0;stroke-dasharray:2.0,2.0;" x1="264.7559" x2="306.7559" y1="201.0938" y2="201.0938"/><line style="stroke:#181818;stroke-width:1.0;stroke-dasharray:2.0,2.0;" x1="306.7559" x2="306.7559" y1="201.0938" y2="214.0938"/><line style="stroke:#181818;stroke-width:1.0;stroke-dasharray:2.0,2.0;" x1="265.7559" x2="306.7559" y1="214.0938" y2="214.0938"/><polygon fill="#181818" points="275.7559,210.0938,265.7559,214.0938,275.7559,218.0938,271.7559,214.0938" style="stroke:#181818;stroke-width:1.0;"/><text fill="#000000" font-family="sans-serif" font-size="13" font-weight="bold" lengthAdjust="spacing" textLength="39.019" x="271.7559" y="196.0278">[002]</text><text fill="#000000" font-family="sans-serif" font-size="13" lengthAdjust="spacing" textLength="110.3667" x="314.7749" y="196.0278">valideer toegang</text><polygon fill="#181818" points="562.8325,239.2266,572.8325,243.2266,562.8325,247.2266,566.8325,243.2266" style="stroke:#181818;stroke-width:1.0;"/><line style="stroke:#181818;stroke-width:1.0;" x1="264.7559" x2="568.8325" y1="243.2266" y2="243.2266"/><text fill="#000000" font-family="sans-serif" font-size="13" font-weight="bold" lengthAdjust="spacing" textLength="39.019" x="271.7559" y="238.1606">[003]</text><text fill="#000000" font-family="sans-serif" font-size="13" lengthAdjust="spacing" textLength="169.6094" x="314.7749" y="238.1606">Valideer Query met policy</text><line style="stroke:#181818;stroke-width:1.0;" x1="584.8325" x2="626.8325" y1="272.3594" y2="272.3594"/><line style="stroke:#181818;stroke-width:1.0;" x1="626.8325" x2="626.8325" y1="272.3594" y2="285.3594"/><line style="stroke:#181818;stroke-width:1.0;" x1="585.8325" x2="626.8325" y1="285.3594" y2="285.3594"/><polygon fill="#181818" points="595.8325,281.3594,585.8325,285.3594,595.8325,289.3594,591.8325,285.3594" style="stroke:#181818;stroke-width:1.0;"/><text fill="#000000" font-family="sans-serif" font-size="13" font-weight="bold" lengthAdjust="spacing" textLength="39.019" x="591.8325" y="267.2935">[004]</text><text fill="#000000" font-family="sans-serif" font-size="13" lengthAdjust="spacing" textLength="78.5776" x="634.8516" y="267.2935">verify query</text><path d="M558.8325,297.3594 L659.3555,297.3594 L659.3555,304.4922 L649.3555,314.4922 L558.8325,314.4922 L558.8325,297.3594 " fill="#EEEEEE" style="stroke:#000000;stroke-width:1.5;"/><rect fill="none" height="127.5313" style="stroke:#000000;stroke-width:1.5;" width="517.9761" x="558.8325" y="297.3594"/><text fill="#000000" font-family="sans-serif" font-size="13" font-weight="bold" lengthAdjust="spacing" textLength="55.5229" x="573.8325" y="310.4263">context</text><polygon fill="#181818" points="943.6719,341.625,953.6719,345.625,943.6719,349.625,947.6719,345.625" style="stroke:#181818;stroke-width:1.0;"/><line style="stroke:#181818;stroke-width:1.0;" x1="589.8325" x2="949.6719" y1="345.625" y2="345.625"/><text fill="#000000" font-family="sans-serif" font-size="13" font-weight="bold" lengthAdjust="spacing" textLength="39.019" x="596.8325" y="340.5591">[005]</text><text fill="#000000" font-family="sans-serif" font-size="13" lengthAdjust="spacing" textLength="170.8662" x="639.8516" y="340.5591">Verify context information</text><line style="stroke:#181818;stroke-width:1.0;" x1="965.6719" x2="1007.6719" y1="374.7578" y2="374.7578"/><line style="stroke:#181818;stroke-width:1.0;" x1="1007.6719" x2="1007.6719" y1="374.7578" y2="387.7578"/><line style="stroke:#181818;stroke-width:1.0;" x1="966.6719" x2="1007.6719" y1="387.7578" y2="387.7578"/><polygon fill="#181818" points="976.6719,383.7578,966.6719,387.7578,976.6719,391.7578,972.6719,387.7578" style="stroke:#181818;stroke-width:1.0;"/><text fill="#000000" font-family="sans-serif" font-size="13" font-weight="bold" lengthAdjust="spacing" textLength="39.019" x="972.6719" y="369.6919">[006]</text><text fill="#000000" font-family="sans-serif" font-size="13" lengthAdjust="spacing" textLength="38.1177" x="1015.6909" y="369.6919">Verify</text><polygon fill="#181818" points="600.8325,412.8906,590.8325,416.8906,600.8325,420.8906,596.8325,416.8906" style="stroke:#181818;stroke-width:1.0;"/><line style="stroke:#181818;stroke-width:1.0;" x1="594.8325" x2="954.6719" y1="416.8906" y2="416.8906"/><text fill="#000000" font-family="sans-serif" font-size="13" font-weight="bold" lengthAdjust="spacing" textLength="39.019" x="606.8325" y="411.8247">[007]</text><text fill="#000000" font-family="sans-serif" font-size="13" lengthAdjust="spacing" textLength="34.7026" x="649.8516" y="411.8247">Allow</text><polygon fill="#181818" points="275.7559,456.0234,265.7559,460.0234,275.7559,464.0234,271.7559,460.0234" style="stroke:#181818;stroke-width:1.0;"/><line style="stroke:#181818;stroke-width:1.0;" x1="269.7559" x2="573.8325" y1="460.0234" y2="460.0234"/><text fill="#000000" font-family="sans-serif" font-size="13" font-weight="bold" lengthAdjust="spacing" textLength="39.019" x="281.7559" y="454.9575">[008]</text><text fill="#000000" font-family="sans-serif" font-size="13" lengthAdjust="spacing" textLength="77.416" x="324.7749" y="454.9575">Query allow</text><line style="stroke:#181818;stroke-width:1.0;" x1="264.7559" x2="306.7559" y1="489.1563" y2="489.1563"/><line style="stroke:#181818;stroke-width:1.0;" x1="306.7559" x2="306.7559" y1="489.1563" y2="502.1563"/><line style="stroke:#181818;stroke-width:1.0;" x1="265.7559" x2="306.7559" y1="502.1563" y2="502.1563"/><polygon fill="#181818" points="275.7559,498.1563,265.7559,502.1563,275.7559,506.1563,271.7559,502.1563" style="stroke:#181818;stroke-width:1.0;"/><text fill="#000000" font-family="sans-serif" font-size="13" font-weight="bold" lengthAdjust="spacing" textLength="39.019" x="271.7559" y="484.0903">[009]</text><text fill="#000000" font-family="sans-serif" font-size="13" lengthAdjust="spacing" textLength="258.0576" x="314.7749" y="484.0903">Valideer GraphQL request met scope(s)</text><polygon fill="#181818" points="1221.5747,527.2891,1231.5747,531.2891,1221.5747,535.2891,1225.5747,531.2891" style="stroke:#181818;stroke-width:1.0;"/><line style="stroke:#181818;stroke-width:1.0;" x1="264.7559" x2="1227.5747" y1="531.2891" y2="531.2891"/><text fill="#000000" font-family="sans-serif" font-size="13" font-weight="bold" lengthAdjust="spacing" textLength="39.019" x="271.7559" y="526.2231">[010]</text><text fill="#000000" font-family="sans-serif" font-size="13" lengthAdjust="spacing" textLength="114.8735" x="314.7749" y="526.2231">GraphQL Request</text><polygon fill="#181818" points="275.7559,541.2891,265.7559,545.2891,275.7559,549.2891,271.7559,545.2891" style="stroke:#181818;stroke-width:1.0;"/><line style="stroke:#181818;stroke-width:1.0;stroke-dasharray:2.0,2.0;" x1="269.7559" x2="1232.5747" y1="545.2891" y2="545.2891"/><polygon fill="#181818" points="88.8633,555.2891,78.8633,559.2891,88.8633,563.2891,84.8633,559.2891" style="stroke:#181818;stroke-width:1.0;"/><line style="stroke:#181818;stroke-width:1.0;stroke-dasharray:2.0,2.0;" x1="82.8633" x2="253.7559" y1="559.2891" y2="559.2891"/><path d="M558.8325,585.2891 L703.1099,585.2891 L703.1099,592.4219 L693.1099,602.4219 L558.8325,602.4219 L558.8325,585.2891 " fill="#EEEEEE" style="stroke:#000000;stroke-width:1.5;"/><rect fill="none" height="256.0625" style="stroke:#000000;stroke-width:1.5;" width="560.9414" x="558.8325" y="585.2891"/><text fill="#000000" font-family="sans-serif" font-size="13" font-weight="bold" lengthAdjust="spacing" textLength="99.2773" x="573.8325" y="598.356">policy beheer</text><line style="stroke:#181818;stroke-width:1.0;" x1="1051.7739" x2="1092.7739" y1="648.6875" y2="648.6875"/><line style="stroke:#181818;stroke-width:1.0;" x1="1051.7739" x2="1051.7739" y1="648.6875" y2="661.6875"/><line style="stroke:#181818;stroke-width:1.0;" x1="1051.7739" x2="1091.7739" y1="661.6875" y2="661.6875"/><polygon fill="#181818" points="1081.7739,657.6875,1091.7739,661.6875,1081.7739,665.6875,1085.7739,661.6875" style="stroke:#181818;stroke-width:1.0;"/><text fill="#000000" font-family="sans-serif" font-size="13" font-weight="bold" lengthAdjust="spacing" textLength="39.019" x="967.6719" y="636.0552">[001]</text><text fill="#000000" font-family="sans-serif" font-size="13" lengthAdjust="spacing" textLength="76.083" x="1010.6909" y="628.4888">voer policy-</text><text fill="#000000" font-family="sans-serif" font-size="13" lengthAdjust="spacing" textLength="66.9106" x="1010.6909" y="643.6216">beheer uit</text><polygon fill="#181818" points="858.8589,686.8203,848.8589,690.8203,858.8589,694.8203,854.8589,690.8203" style="stroke:#181818;stroke-width:1.0;"/><line style="stroke:#181818;stroke-width:1.0;" x1="852.8589" x2="1092.7739" y1="690.8203" y2="690.8203"/><text fill="#000000" font-family="sans-serif" font-size="13" font-weight="bold" lengthAdjust="spacing" textLength="39.019" x="864.8589" y="685.7544">[002]</text><text fill="#000000" font-family="sans-serif" font-size="13" lengthAdjust="spacing" textLength="102.8574" x="907.8779" y="685.7544">publiceer policy</text><polygon fill="#181818" points="825.8589,715.9531,835.8589,719.9531,825.8589,723.9531,829.8589,719.9531" style="stroke:#181818;stroke-width:1.0;"/><line style="stroke:#181818;stroke-width:1.0;" x1="584.8325" x2="831.8589" y1="719.9531" y2="719.9531"/><text fill="#000000" font-family="sans-serif" font-size="13" font-weight="bold" lengthAdjust="spacing" textLength="39.019" x="591.8325" y="714.8872">[003]</text><text fill="#000000" font-family="sans-serif" font-size="13" lengthAdjust="spacing" textLength="191.0073" x="634.8516" y="714.8872">controleer op policy mutaties</text><polygon fill="#181818" points="595.8325,745.0859,585.8325,749.0859,595.8325,753.0859,591.8325,749.0859" style="stroke:#181818;stroke-width:1.0;"/><line style="stroke:#181818;stroke-width:1.0;" x1="589.8325" x2="836.8589" y1="749.0859" y2="749.0859"/><text fill="#000000" font-family="sans-serif" font-size="13" font-weight="bold" lengthAdjust="spacing" textLength="39.019" x="601.8325" y="744.02">[004]</text><text fill="#000000" font-family="sans-serif" font-size="13" lengthAdjust="spacing" textLength="133.5166" x="644.8516" y="744.02">return nieuwe policy</text><line style="stroke:#181818;stroke-width:1.0;" x1="584.8325" x2="626.8325" y1="778.2188" y2="778.2188"/><line style="stroke:#181818;stroke-width:1.0;" x1="626.8325" x2="626.8325" y1="778.2188" y2="791.2188"/><line style="stroke:#181818;stroke-width:1.0;" x1="585.8325" x2="626.8325" y1="791.2188" y2="791.2188"/><polygon fill="#181818" points="595.8325,787.2188,585.8325,791.2188,595.8325,795.2188,591.8325,791.2188" style="stroke:#181818;stroke-width:1.0;"/><text fill="#000000" font-family="sans-serif" font-size="13" font-weight="bold" lengthAdjust="spacing" textLength="39.019" x="591.8325" y="773.1528">[005]</text><text fill="#000000" font-family="sans-serif" font-size="13" lengthAdjust="spacing" textLength="145.793" x="634.8516" y="773.1528">verwerk nieuwe policy</text><line style="stroke:#181818;stroke-width:1.0;" x1="584.8325" x2="626.8325" y1="820.3516" y2="820.3516"/><line style="stroke:#181818;stroke-width:1.0;" x1="626.8325" x2="626.8325" y1="820.3516" y2="833.3516"/><line style="stroke:#181818;stroke-width:1.0;" x1="579.8325" x2="626.8325" y1="833.3516" y2="833.3516"/><polygon fill="#181818" points="589.8325,829.3516,579.8325,833.3516,589.8325,837.3516,585.8325,833.3516" style="stroke:#181818;stroke-width:1.0;"/><text fill="#000000" font-family="sans-serif" font-size="13" font-weight="bold" lengthAdjust="spacing" textLength="39.019" x="591.8325" y="815.2856">[006]</text><text fill="#000000" font-family="sans-serif" font-size="13" lengthAdjust="spacing" textLength="141.4258" x="634.8516" y="815.2856">pas nieuwe policy toe</text><!--SRC=[ZLJBRjim4BppAxRgfJqOS7iCWW1A71G20bHHWLxQ7YXfBHEMI8KY_UZNTobHBqi1weDDStTsbhD3VgWrBoeE1jLVCDeYOyrHo9fhNa7CjH6PgBaqCSzp8Glukft47zMbt_-oPInL5mXsYAN42dN0W3xrM0A2frAWD07m1hebGva3mJnMHhi0FluuNXzBQcG1Zv_Z5ak_h8sseEznIA0NKHpCEx2TX-tYbM3YWqaNx1kQDvPQOL22wu_z9sdawqPhfA4FXZ5R9qom48rP5J71HbcTOLkXpnlXt1ebRPMYXk0-VVYrtMx_18mLMjaQDETvNMA1adK3WCs3a_CElcbU7rvVgE2RnSOmdXbnuWRxGL4VmvRJ7q0gMcgd0AXzLoIIfP08Ur5IIyuLkglMK3ebmAPdE_5Iv4Wj6eK5bqKVVt13keEVVVZLehv2XGPgLOhisgenzk472curW4z4lR_2cuFwS7VuJ4c35-FtHb3a63kGJm4XzqfNt0WbX_GfhHyzYNPTYKVno17TSYn2hkUmBDLvYEIuSiJvza11SsVJmpXrEzNuK7DHRoBtyrJktWH-RAtmJQPg_DHyde1wqorTGogCzckCggUs6RmAmx9t19irEIHEREDjE3-CUmSc_oTlYiR2bfmgl7CXeByHdQyWnOCJOERoqBL5tt2_SJ_aB4Kf7M3pMte8lGpCInfsaYQKMjkKqd38dnLERixhcDWuGeTtHjIgT0NKq6Hb3LaI6tPp1nms6SsaqLXDZvL0UyQHVqhOTd1pQSweZmlGJLfDJyuinLrWjd1OEu8kuHy0]--></g></svg>