<?xml version="1.0" encoding="us-ascii" standalone="no"?><svg xmlns="http://www.w3.org/2000/svg" xmlns:xlink="http://www.w3.org/1999/xlink" contentStyleType="text/css" height="409px" preserveAspectRatio="none" style="width:1011px;height:409px;background:#FFFFFF;" version="1.1" viewBox="0 0 1011 409" width="1011px" zoomAndPan="magnify"><defs/><g><rect fill="#ADD8E6" height="397.0547" style="stroke:#181818;stroke-width:0.5;" width="423" x="41" y="6"/><text fill="#000000" font-family="sans-serif" font-size="13" font-weight="bold" lengthAdjust="spacing" textLength="88" x="206" y="18.0669">bronhouder</text><rect fill="#FFFFE0" height="397.0547" style="stroke:#181818;stroke-width:0.5;" width="362" x="561" y="6"/><text fill="#000000" font-family="sans-serif" font-size="13" font-weight="bold" lengthAdjust="spacing" textLength="79" x="700" y="18.0669">deelnemer</text><rect fill="#FFFFFF" height="29.1328" style="stroke:#181818;stroke-width:1.0;" width="10" x="105.5" y="256.3594"/><rect fill="#FFFFFF" height="87.3984" style="stroke:#181818;stroke-width:1.0;" width="10" x="380.5" y="227.2266"/><rect fill="#FFFFFF" height="145.6641" style="stroke:#181818;stroke-width:1.0;" width="10" x="634.5" y="198.0938"/><rect fill="#FFFFFF" height="256.1953" style="stroke:#181818;stroke-width:1.0;" width="10" x="848.5" y="87.5625"/><rect fill="none" height="249.1953" style="stroke:#000000;stroke-width:1.5;" width="970.5" x="35" y="102.5625"/><line style="stroke:#181818;stroke-width:0.5;stroke-dasharray:5.0,5.0;" x1="110" x2="110" y1="56.4297" y2="368.7578"/><line style="stroke:#181818;stroke-width:0.5;stroke-dasharray:5.0,5.0;" x1="243" x2="243" y1="56.4297" y2="368.7578"/><line style="stroke:#181818;stroke-width:0.5;stroke-dasharray:5.0,5.0;" x1="385" x2="385" y1="56.4297" y2="368.7578"/><line style="stroke:#181818;stroke-width:0.5;stroke-dasharray:5.0,5.0;" x1="639" x2="639" y1="56.4297" y2="368.7578"/><line style="stroke:#181818;stroke-width:0.5;stroke-dasharray:5.0,5.0;" x1="853" x2="853" y1="56.4297" y2="368.7578"/><rect fill="#E2E2F0" height="30.2969" rx="2.5" ry="2.5" style="stroke:#181818;stroke-width:0.5;" width="91" x="65" y="25.1328"/><text fill="#000000" font-family="sans-serif" font-size="14" lengthAdjust="spacing" textLength="77" x="72" y="45.1279">Backoffice</text><rect fill="#E2E2F0" height="30.2969" rx="2.5" ry="2.5" style="stroke:#181818;stroke-width:0.5;" width="91" x="65" y="367.7578"/><text fill="#000000" font-family="sans-serif" font-size="14" lengthAdjust="spacing" textLength="77" x="72" y="387.7529">Backoffice</text><rect fill="#E2E2F0" height="30.2969" rx="2.5" ry="2.5" style="stroke:#181818;stroke-width:0.5;" width="75" x="206" y="25.1328"/><text fill="#000000" font-family="sans-serif" font-size="14" lengthAdjust="spacing" textLength="61" x="213" y="45.1279">Register</text><rect fill="#E2E2F0" height="30.2969" rx="2.5" ry="2.5" style="stroke:#181818;stroke-width:0.5;" width="75" x="206" y="367.7578"/><text fill="#000000" font-family="sans-serif" font-size="14" lengthAdjust="spacing" textLength="61" x="213" y="387.7529">Register</text><rect fill="#E2E2F0" height="30.2969" rx="2.5" ry="2.5" style="stroke:#181818;stroke-width:0.5;" width="109" x="331" y="25.1328"/><text fill="#000000" font-family="sans-serif" font-size="14" lengthAdjust="spacing" textLength="95" x="338" y="45.1279">Netwerkpunt</text><rect fill="#E2E2F0" height="30.2969" rx="2.5" ry="2.5" style="stroke:#181818;stroke-width:0.5;" width="109" x="331" y="367.7578"/><text fill="#000000" font-family="sans-serif" font-size="14" lengthAdjust="spacing" textLength="95" x="338" y="387.7529">Netwerkpunt</text><rect fill="#E2E2F0" height="30.2969" rx="2.5" ry="2.5" style="stroke:#181818;stroke-width:0.5;" width="109" x="585" y="25.1328"/><text fill="#000000" font-family="sans-serif" font-size="14" lengthAdjust="spacing" textLength="95" x="592" y="45.1279">Netwerkpunt</text><rect fill="#E2E2F0" height="30.2969" rx="2.5" ry="2.5" style="stroke:#181818;stroke-width:0.5;" width="109" x="585" y="367.7578"/><text fill="#000000" font-family="sans-serif" font-size="14" lengthAdjust="spacing" textLength="95" x="592" y="387.7529">Netwerkpunt</text><rect fill="#E2E2F0" height="30.2969" rx="2.5" ry="2.5" style="stroke:#181818;stroke-width:0.5;" width="91" x="808" y="25.1328"/><text fill="#000000" font-family="sans-serif" font-size="14" lengthAdjust="spacing" textLength="77" x="815" y="45.1279">Backoffice</text><rect fill="#E2E2F0" height="30.2969" rx="2.5" ry="2.5" style="stroke:#181818;stroke-width:0.5;" width="91" x="808" y="367.7578"/><text fill="#000000" font-family="sans-serif" font-size="14" lengthAdjust="spacing" textLength="77" x="815" y="387.7529">Backoffice</text><rect fill="#FFFFFF" height="29.1328" style="stroke:#181818;stroke-width:1.0;" width="10" x="105.5" y="256.3594"/><rect fill="#FFFFFF" height="87.3984" style="stroke:#181818;stroke-width:1.0;" width="10" x="380.5" y="227.2266"/><rect fill="#FFFFFF" height="145.6641" style="stroke:#181818;stroke-width:1.0;" width="10" x="634.5" y="198.0938"/><rect fill="#FFFFFF" height="256.1953" style="stroke:#181818;stroke-width:1.0;" width="10" x="848.5" y="87.5625"/><ellipse cx="243" cy="86.8125" fill="none" rx="4" ry="4" style="stroke:#181818;stroke-width:1.5;"/><polygon fill="#181818" points="836.5,83.5625,846.5,87.5625,836.5,91.5625,840.5,87.5625" style="stroke:#181818;stroke-width:1.0;"/><line style="stroke:#181818;stroke-width:1.0;" x1="247.5" x2="842.5" y1="87.5625" y2="87.5625"/><text fill="#000000" font-family="sans-serif" font-size="13" font-weight="bold" lengthAdjust="spacing" textLength="31" x="250.5" y="82.4966">[01]</text><text fill="#000000" font-family="sans-serif" font-size="13" lengthAdjust="spacing" textLength="75" x="285.5" y="82.4966">raadpleging</text><path d="M35,102.5625 L173,102.5625 L173,109.6953 L163,119.6953 L35,119.6953 L35,102.5625 " fill="#EEEEEE" style="stroke:#000000;stroke-width:1.5;"/><rect fill="none" height="249.1953" style="stroke:#000000;stroke-width:1.5;" width="970.5" x="35" y="102.5625"/><text fill="#000000" font-family="sans-serif" font-size="13" font-weight="bold" lengthAdjust="spacing" textLength="93" x="50" y="115.6294">fout melden</text><line style="stroke:#181818;stroke-width:1.0;" x1="858.5" x2="900.5" y1="155.9609" y2="155.9609"/><line style="stroke:#181818;stroke-width:1.0;" x1="900.5" x2="900.5" y1="155.9609" y2="168.9609"/><line style="stroke:#181818;stroke-width:1.0;" x1="859.5" x2="900.5" y1="168.9609" y2="168.9609"/><polygon fill="#181818" points="869.5,164.9609,859.5,168.9609,869.5,172.9609,865.5,168.9609" style="stroke:#181818;stroke-width:1.0;"/><text fill="#000000" font-family="sans-serif" font-size="13" font-weight="bold" lengthAdjust="spacing" textLength="31" x="865.5" y="143.3286">[02]</text><text fill="#000000" font-family="sans-serif" font-size="13" lengthAdjust="spacing" textLength="28" x="900.5" y="135.7622">Fout</text><text fill="#000000" font-family="sans-serif" font-size="13" lengthAdjust="spacing" textLength="93" x="900.5" y="150.895">geconstateerd</text><polygon fill="#181818" points="655.5,194.0938,645.5,198.0938,655.5,202.0938,651.5,198.0938" style="stroke:#181818;stroke-width:1.0;"/><line style="stroke:#181818;stroke-width:1.0;" x1="649.5" x2="847.5" y1="198.0938" y2="198.0938"/><text fill="#000000" font-family="sans-serif" font-size="13" font-weight="bold" lengthAdjust="spacing" textLength="30" x="661.5" y="193.0278">[03]</text><text fill="#000000" font-family="sans-serif" font-size="13" lengthAdjust="spacing" textLength="151" x="695.5" y="193.0278">Foutmelding verzenden</text><polygon fill="#181818" points="401.5,223.2266,391.5,227.2266,401.5,231.2266,397.5,227.2266" style="stroke:#181818;stroke-width:1.0;"/><line style="stroke:#181818;stroke-width:1.0;" x1="395.5" x2="633.5" y1="227.2266" y2="227.2266"/><text fill="#000000" font-family="sans-serif" font-size="13" font-weight="bold" lengthAdjust="spacing" textLength="31" x="407.5" y="222.1606">[04]</text><text fill="#000000" font-family="sans-serif" font-size="13" lengthAdjust="spacing" textLength="190" x="442.5" y="222.1606">Foutmelding naar bronhouder</text><polygon fill="#181818" points="126.5,252.3594,116.5,256.3594,126.5,260.3594,122.5,256.3594" style="stroke:#181818;stroke-width:1.0;"/><line style="stroke:#181818;stroke-width:1.0;" x1="120.5" x2="379.5" y1="256.3594" y2="256.3594"/><text fill="#000000" font-family="sans-serif" font-size="13" font-weight="bold" lengthAdjust="spacing" textLength="31" x="132.5" y="251.2935">[05]</text><text fill="#000000" font-family="sans-serif" font-size="13" lengthAdjust="spacing" textLength="151" x="167.5" y="251.2935">doorzetten foutmelding</text><polygon fill="#181818" points="368.5,281.4922,378.5,285.4922,368.5,289.4922,372.5,285.4922" style="stroke:#181818;stroke-width:1.0;"/><line style="stroke:#181818;stroke-width:1.0;stroke-dasharray:2.0,2.0;" x1="110.5" x2="374.5" y1="285.4922" y2="285.4922"/><text fill="#000000" font-family="sans-serif" font-size="13" font-weight="bold" lengthAdjust="spacing" textLength="31" x="117.5" y="280.4263">[06]</text><text fill="#000000" font-family="sans-serif" font-size="13" lengthAdjust="spacing" textLength="105" x="152.5" y="280.4263">response {204}</text><polygon fill="#181818" points="622.5,310.625,632.5,314.625,622.5,318.625,626.5,314.625" style="stroke:#181818;stroke-width:1.0;"/><line style="stroke:#181818;stroke-width:1.0;stroke-dasharray:2.0,2.0;" x1="385.5" x2="628.5" y1="314.625" y2="314.625"/><text fill="#000000" font-family="sans-serif" font-size="13" font-weight="bold" lengthAdjust="spacing" textLength="31" x="392.5" y="309.5591">[07]</text><text fill="#000000" font-family="sans-serif" font-size="13" lengthAdjust="spacing" textLength="105" x="427.5" y="309.5591">response {204}</text><polygon fill="#181818" points="841.5,339.7578,851.5,343.7578,841.5,347.7578,845.5,343.7578" style="stroke:#181818;stroke-width:1.0;"/><line style="stroke:#181818;stroke-width:1.0;stroke-dasharray:2.0,2.0;" x1="639.5" x2="847.5" y1="343.7578" y2="343.7578"/><text fill="#000000" font-family="sans-serif" font-size="13" font-weight="bold" lengthAdjust="spacing" textLength="31" x="646.5" y="338.6919">[08]</text><text fill="#000000" font-family="sans-serif" font-size="13" lengthAdjust="spacing" textLength="105" x="681.5" y="338.6919">response {204}</text><!--SRC=[dPAxRiCm34LtVGNXpWMC85DHPEZGiKFNjWDbqOeGcHBqIFf0_xsqytI63DLWmRmyv2Njl74SCU40QsIpIwuKOkZHPrBvfCcpkCv5v1BH6CSM5ks5hiFdCRvi5TOIk0wQ4ZIFUlNMjX-DaXJGAV0wL2F2dNTsNRIlf2wAG_E4tIRqlUke0SoWyrn-9UjoeJI9oSx55oexIfjOkUnXZg28pMXFJGOCaMSQJls_oFkmkrt5SBnfqOZ7KvDa8TolnjW394GJlHXcgq0ETiLjiT14A9j2ZT27Mc0WRuYd797Wo3-FsZjRwWBd8Y0bCqlYk4yQ-N7rMqhVukHGwjnE1fWmMOTW-XfZn7JnQUQmFi3w08il4uBqsVydvp9NM9xU4vMQMAuSPGQ2dqMx_FstOcYsGXdr3m00]--></g></svg>