<?xml version="1.0" encoding="us-ascii" standalone="no"?><svg xmlns="http://www.w3.org/2000/svg" xmlns:xlink="http://www.w3.org/1999/xlink" contentStyleType="text/css" height="460px" preserveAspectRatio="none" style="width:939px;height:460px;background:#FFFFFF;" version="1.1" viewBox="0 0 939 460" width="939px" zoomAndPan="magnify"><defs/><g><text fill="#000000" font-family="sans-serif" font-size="14" font-weight="bold" lengthAdjust="spacing" textLength="239" x="364" y="27.9951">notificatie sequence-diagram</text><rect fill="#ADD8E6" height="411.0547" style="stroke:#181818;stroke-width:0.5;" width="473" x="41" y="43.2969"/><text fill="#000000" font-family="sans-serif" font-size="13" font-weight="bold" lengthAdjust="spacing" textLength="88" x="231" y="55.3638">bronhouder</text><rect fill="#FFFFE0" height="411.0547" style="stroke:#181818;stroke-width:0.5;" width="331" x="596" y="43.2969"/><text fill="#000000" font-family="sans-serif" font-size="13" font-weight="bold" lengthAdjust="spacing" textLength="79" x="719.5" y="55.3638">deelnemer</text><rect fill="#FFFFFF" height="246.0625" style="stroke:#181818;stroke-width:1.0;" width="10" x="105.5" y="148.9922"/><rect fill="#FFFFFF" height="71.2656" style="stroke:#181818;stroke-width:1.0;" width="10" x="288.5" y="148.9922"/><rect fill="#FFFFFF" height="145.6641" style="stroke:#181818;stroke-width:1.0;" width="10" x="430.5" y="249.3906"/><rect fill="#FFFFFF" height="87.3984" style="stroke:#181818;stroke-width:1.0;" width="10" x="669.5" y="278.5234"/><rect fill="#FFFFFF" height="29.1328" style="stroke:#181818;stroke-width:1.0;" width="10" x="852.5" y="307.6563"/><rect fill="none" height="292.3281" style="stroke:#000000;stroke-width:1.5;" width="898" x="35" y="110.7266"/><line style="stroke:#181818;stroke-width:0.5;stroke-dasharray:5.0,5.0;" x1="110" x2="110" y1="93.7266" y2="420.0547"/><line style="stroke:#181818;stroke-width:0.5;stroke-dasharray:5.0,5.0;" x1="293" x2="293" y1="93.7266" y2="420.0547"/><line style="stroke:#181818;stroke-width:0.5;stroke-dasharray:5.0,5.0;" x1="435" x2="435" y1="93.7266" y2="420.0547"/><line style="stroke:#181818;stroke-width:0.5;stroke-dasharray:5.0,5.0;" x1="674" x2="674" y1="93.7266" y2="420.0547"/><line style="stroke:#181818;stroke-width:0.5;stroke-dasharray:5.0,5.0;" x1="857" x2="857" y1="93.7266" y2="420.0547"/><rect fill="#E2E2F0" height="30.2969" rx="2.5" ry="2.5" style="stroke:#181818;stroke-width:0.5;" width="91" x="65" y="62.4297"/><text fill="#000000" font-family="sans-serif" font-size="14" lengthAdjust="spacing" textLength="77" x="72" y="82.4248">Backoffice</text><rect fill="#E2E2F0" height="30.2969" rx="2.5" ry="2.5" style="stroke:#181818;stroke-width:0.5;" width="91" x="65" y="419.0547"/><text fill="#000000" font-family="sans-serif" font-size="14" lengthAdjust="spacing" textLength="77" x="72" y="439.0498">Backoffice</text><rect fill="#E2E2F0" height="30.2969" rx="2.5" ry="2.5" style="stroke:#181818;stroke-width:0.5;" width="75" x="256" y="62.4297"/><text fill="#000000" font-family="sans-serif" font-size="14" lengthAdjust="spacing" textLength="61" x="263" y="82.4248">Register</text><rect fill="#E2E2F0" height="30.2969" rx="2.5" ry="2.5" style="stroke:#181818;stroke-width:0.5;" width="75" x="256" y="419.0547"/><text fill="#000000" font-family="sans-serif" font-size="14" lengthAdjust="spacing" textLength="61" x="263" y="439.0498">Register</text><rect fill="#E2E2F0" height="30.2969" rx="2.5" ry="2.5" style="stroke:#181818;stroke-width:0.5;" width="109" x="381" y="62.4297"/><text fill="#000000" font-family="sans-serif" font-size="14" lengthAdjust="spacing" textLength="95" x="388" y="82.4248">Netwerkpunt</text><rect fill="#E2E2F0" height="30.2969" rx="2.5" ry="2.5" style="stroke:#181818;stroke-width:0.5;" width="109" x="381" y="419.0547"/><text fill="#000000" font-family="sans-serif" font-size="14" lengthAdjust="spacing" textLength="95" x="388" y="439.0498">Netwerkpunt</text><rect fill="#E2E2F0" height="30.2969" rx="2.5" ry="2.5" style="stroke:#181818;stroke-width:0.5;" width="109" x="620" y="62.4297"/><text fill="#000000" font-family="sans-serif" font-size="14" lengthAdjust="spacing" textLength="95" x="627" y="82.4248">Netwerkpunt</text><rect fill="#E2E2F0" height="30.2969" rx="2.5" ry="2.5" style="stroke:#181818;stroke-width:0.5;" width="109" x="620" y="419.0547"/><text fill="#000000" font-family="sans-serif" font-size="14" lengthAdjust="spacing" textLength="95" x="627" y="439.0498">Netwerkpunt</text><rect fill="#E2E2F0" height="30.2969" rx="2.5" ry="2.5" style="stroke:#181818;stroke-width:0.5;" width="91" x="812" y="62.4297"/><text fill="#000000" font-family="sans-serif" font-size="14" lengthAdjust="spacing" textLength="77" x="819" y="82.4248">Backoffice</text><rect fill="#E2E2F0" height="30.2969" rx="2.5" ry="2.5" style="stroke:#181818;stroke-width:0.5;" width="91" x="812" y="419.0547"/><text fill="#000000" font-family="sans-serif" font-size="14" lengthAdjust="spacing" textLength="77" x="819" y="439.0498">Backoffice</text><rect fill="#FFFFFF" height="246.0625" style="stroke:#181818;stroke-width:1.0;" width="10" x="105.5" y="148.9922"/><rect fill="#FFFFFF" height="71.2656" style="stroke:#181818;stroke-width:1.0;" width="10" x="288.5" y="148.9922"/><rect fill="#FFFFFF" height="145.6641" style="stroke:#181818;stroke-width:1.0;" width="10" x="430.5" y="249.3906"/><rect fill="#FFFFFF" height="87.3984" style="stroke:#181818;stroke-width:1.0;" width="10" x="669.5" y="278.5234"/><rect fill="#FFFFFF" height="29.1328" style="stroke:#181818;stroke-width:1.0;" width="10" x="852.5" y="307.6563"/><path d="M35,110.7266 L164,110.7266 L164,117.8594 L154,127.8594 L35,127.8594 L35,110.7266 " fill="#EEEEEE" style="stroke:#000000;stroke-width:1.5;"/><rect fill="none" height="292.3281" style="stroke:#000000;stroke-width:1.5;" width="898" x="35" y="110.7266"/><text fill="#000000" font-family="sans-serif" font-size="13" font-weight="bold" lengthAdjust="spacing" textLength="84" x="50" y="123.7935">notificeren</text><polygon fill="#181818" points="276.5,144.9922,286.5,148.9922,276.5,152.9922,280.5,148.9922" style="stroke:#181818;stroke-width:1.0;"/><line style="stroke:#181818;stroke-width:1.0;" x1="115.5" x2="282.5" y1="148.9922" y2="148.9922"/><text fill="#000000" font-family="sans-serif" font-size="13" font-weight="bold" lengthAdjust="spacing" textLength="31" x="122.5" y="143.9263">[01]</text><text fill="#000000" font-family="sans-serif" font-size="13" lengthAdjust="spacing" textLength="98" x="157.5" y="143.9263">registratie data</text><line style="stroke:#181818;stroke-width:1.0;" x1="298.5" x2="340.5" y1="178.125" y2="178.125"/><line style="stroke:#181818;stroke-width:1.0;" x1="340.5" x2="340.5" y1="178.125" y2="191.125"/><line style="stroke:#181818;stroke-width:1.0;" x1="299.5" x2="340.5" y1="191.125" y2="191.125"/><polygon fill="#181818" points="309.5,187.125,299.5,191.125,309.5,195.125,305.5,191.125" style="stroke:#181818;stroke-width:1.0;"/><text fill="#000000" font-family="sans-serif" font-size="13" font-weight="bold" lengthAdjust="spacing" textLength="31" x="305.5" y="173.0591">[02]</text><text fill="#000000" font-family="sans-serif" font-size="13" lengthAdjust="spacing" textLength="83" x="340.5" y="173.0591">event trigger</text><polygon fill="#181818" points="126.5,216.2578,116.5,220.2578,126.5,224.2578,122.5,220.2578" style="stroke:#181818;stroke-width:1.0;"/><line style="stroke:#181818;stroke-width:1.0;" x1="120.5" x2="292.5" y1="220.2578" y2="220.2578"/><text fill="#000000" font-family="sans-serif" font-size="13" font-weight="bold" lengthAdjust="spacing" textLength="30" x="132.5" y="215.1919">[03]</text><text fill="#000000" font-family="sans-serif" font-size="13" lengthAdjust="spacing" textLength="115" x="166.5" y="215.1919">lookup deelnemer</text><polygon fill="#181818" points="418.5,245.3906,428.5,249.3906,418.5,253.3906,422.5,249.3906" style="stroke:#181818;stroke-width:1.0;"/><line style="stroke:#181818;stroke-width:1.0;" x1="115.5" x2="424.5" y1="249.3906" y2="249.3906"/><text fill="#000000" font-family="sans-serif" font-size="13" font-weight="bold" lengthAdjust="spacing" textLength="31" x="122.5" y="244.3247">[04]</text><text fill="#000000" font-family="sans-serif" font-size="13" lengthAdjust="spacing" textLength="125" x="157.5" y="244.3247">genereer notificatie</text><polygon fill="#181818" points="657.5,274.5234,667.5,278.5234,657.5,282.5234,661.5,278.5234" style="stroke:#181818;stroke-width:1.0;"/><line style="stroke:#181818;stroke-width:1.0;" x1="440.5" x2="663.5" y1="278.5234" y2="278.5234"/><text fill="#000000" font-family="sans-serif" font-size="13" font-weight="bold" lengthAdjust="spacing" textLength="31" x="447.5" y="273.4575">[05]</text><text fill="#000000" font-family="sans-serif" font-size="13" lengthAdjust="spacing" textLength="60" x="482.5" y="273.4575">notificeer</text><polygon fill="#181818" points="840.5,303.6563,850.5,307.6563,840.5,311.6563,844.5,307.6563" style="stroke:#181818;stroke-width:1.0;"/><line style="stroke:#181818;stroke-width:1.0;" x1="679.5" x2="846.5" y1="307.6563" y2="307.6563"/><text fill="#000000" font-family="sans-serif" font-size="13" font-weight="bold" lengthAdjust="spacing" textLength="31" x="686.5" y="302.5903">[06]</text><text fill="#000000" font-family="sans-serif" font-size="13" lengthAdjust="spacing" textLength="119" x="721.5" y="302.5903">verwerk notificatie</text><polygon fill="#181818" points="690.5,332.7891,680.5,336.7891,690.5,340.7891,686.5,336.7891" style="stroke:#181818;stroke-width:1.0;"/><line style="stroke:#181818;stroke-width:1.0;stroke-dasharray:2.0,2.0;" x1="684.5" x2="856.5" y1="336.7891" y2="336.7891"/><text fill="#000000" font-family="sans-serif" font-size="13" font-weight="bold" lengthAdjust="spacing" textLength="31" x="696.5" y="331.7231">[07]</text><text fill="#000000" font-family="sans-serif" font-size="13" lengthAdjust="spacing" textLength="90" x="731.5" y="331.7231">http-response</text><polygon fill="#181818" points="451.5,361.9219,441.5,365.9219,451.5,369.9219,447.5,365.9219" style="stroke:#181818;stroke-width:1.0;"/><line style="stroke:#181818;stroke-width:1.0;stroke-dasharray:2.0,2.0;" x1="445.5" x2="673.5" y1="365.9219" y2="365.9219"/><text fill="#000000" font-family="sans-serif" font-size="13" font-weight="bold" lengthAdjust="spacing" textLength="31" x="457.5" y="360.856">[08]</text><text fill="#000000" font-family="sans-serif" font-size="13" lengthAdjust="spacing" textLength="90" x="492.5" y="360.856">http-response</text><polygon fill="#181818" points="121.5,391.0547,111.5,395.0547,121.5,399.0547,117.5,395.0547" style="stroke:#181818;stroke-width:1.0;"/><line style="stroke:#181818;stroke-width:1.0;stroke-dasharray:2.0,2.0;" x1="115.5" x2="434.5" y1="395.0547" y2="395.0547"/><text fill="#000000" font-family="sans-serif" font-size="13" font-weight="bold" lengthAdjust="spacing" textLength="31" x="127.5" y="389.9888">[09]</text><text fill="#000000" font-family="sans-serif" font-size="13" lengthAdjust="spacing" textLength="115" x="162.5" y="389.9888">verwerk response</text><!--SRC=[VPAnJiGm38RtF8LLvfCgn5IX6tW01bR4a3Q-D6hF2Obx1s-FaxjMAK8iLPl_z-_FJjdnZ42UtSaDcXr2miy5QS23STf6VLPfSXIqlC6eoLoZOqQ2avuJLfeysGqkQEAWZN5auR6jzDv_hUTFhT8BUrhEFKPedllZUzj-D4eiq4TFer-C20-pioFtyuAg2eVcHG-JFmakDg0Jz6allw5rYJ4MCTgz-8fynJY5XVXMJ04KaibugW0On9dmlFN_nddsr_zJ38L_4Oqmhariz4jO5uuHIIcG6U1m55Ze81RyMAx2QDQYwe7THJFcQQel2OLSKoexm0jAQuxEMenARPfaTp1xFqdRRJXH3UvpRmooa0uiaf392gh_Gi6kjqmC-IGlKCfCBbk7Al6RrHIhkVlwrC45OrxVFhqgA8EPpBCcZypX4345JmbX3t-tv_oLVsV_vIuq_UgkQFxstmQj3yfL_W00]--></g></svg>