<svg xmlns="http://www.w3.org/2000/svg" xmlns:xlink="http://www.w3.org/1999/xlink" contentStyleType="text/css" height="739px" preserveAspectRatio="none" style="width:1286px;height:739px;background:#FFFFFF;" version="1.1" viewBox="0 0 1286 739" width="1286px" zoomAndPan="magnify"><defs/><g><rect fill="#DDDDDD" height="727.1172" style="stroke:#181818;stroke-width:0.5;" width="102.5303" x="11" y="6"/><text fill="#000000" font-family="sans-serif" font-size="13" font-weight="bold" lengthAdjust="spacing" textLength="79.7266" x="22.4019" y="18.0669">Deelnemer</text><rect fill="#DDDDDD" height="727.1172" style="stroke:#181818;stroke-width:0.5;" width="798.1733" x="266.4829" y="6"/><text fill="#000000" font-family="sans-serif" font-size="13" font-weight="bold" lengthAdjust="spacing" textLength="24.8828" x="653.1282" y="18.0669">nID</text><rect fill="#DDDDDD" height="727.1172" style="stroke:#181818;stroke-width:0.5;" width="127.1396" x="1153.4429" y="6"/><text fill="#000000" font-family="sans-serif" font-size="13" font-weight="bold" lengthAdjust="spacing" textLength="61.769" x="1186.1282" y="18.0669">Register</text><rect fill="#FFFFFF" height="279.0625" style="stroke:#181818;stroke-width:1.0;" width="10" x="57.2651" y="66.4297"/><rect fill="#FFFFFF" height="291.0625" style="stroke:#181818;stroke-width:1.0;" width="10" x="57.2651" y="389.7578"/><rect fill="#FFFFFF" height="227.6641" style="stroke:#181818;stroke-width:1.0;" width="10" x="352.1504" y="117.8281"/><rect fill="#D3D3D3" height="112.2656" style="stroke:#181818;stroke-width:1.0;" width="10" x="357.1504" y="197.0938"/><rect fill="#A9A9A9" height="28" style="stroke:#181818;stroke-width:1.0;" width="10" x="362.1504" y="281.3594"/><rect fill="#FFFFFF" height="232.7969" style="stroke:#181818;stroke-width:1.0;" width="10" x="636.3252" y="389.7578"/><rect fill="#FFFFFF" height="291.0625" style="stroke:#181818;stroke-width:1.0;" width="10" x="971.4019" y="389.7578"/><rect fill="#FFFFFF" height="29.1328" style="stroke:#181818;stroke-width:1.0;" width="10" x="1212.0127" y="622.5547"/><line style="stroke:#181818;stroke-width:0.5;stroke-dasharray:5.0,5.0;" x1="62" x2="62" y1="56.4297" y2="698.8203"/><line style="stroke:#181818;stroke-width:0.5;stroke-dasharray:5.0,5.0;" x1="356.4829" x2="356.4829" y1="56.4297" y2="698.8203"/><line style="stroke:#181818;stroke-width:0.5;stroke-dasharray:5.0,5.0;" x1="640.3638" x2="640.3638" y1="56.4297" y2="698.8203"/><line style="stroke:#181818;stroke-width:0.5;stroke-dasharray:5.0,5.0;" x1="976.1475" x2="976.1475" y1="56.4297" y2="698.8203"/><line style="stroke:#181818;stroke-width:0.5;stroke-dasharray:5.0,5.0;" x1="1216.4429" x2="1216.4429" y1="56.4297" y2="698.8203"/><rect fill="#E2E2F0" height="30.2969" rx="2.5" ry="2.5" style="stroke:#181818;stroke-width:0.5;" width="54.5303" x="35" y="25.1328"/><text fill="#000000" font-family="sans-serif" font-size="14" lengthAdjust="spacing" textLength="40.5303" x="42" y="45.1279">Client</text><rect fill="#E2E2F0" height="30.2969" rx="2.5" ry="2.5" style="stroke:#181818;stroke-width:0.5;" width="54.5303" x="35" y="697.8203"/><text fill="#000000" font-family="sans-serif" font-size="14" lengthAdjust="spacing" textLength="40.5303" x="42" y="717.8154">Client</text><rect fill="#E2E2F0" height="30.2969" rx="2.5" ry="2.5" style="stroke:#181818;stroke-width:0.5;" width="133.335" x="290.4829" y="25.1328"/><text fill="#000000" font-family="sans-serif" font-size="14" lengthAdjust="spacing" textLength="119.335" x="297.4829" y="45.1279">autorisatieserver</text><rect fill="#E2E2F0" height="30.2969" rx="2.5" ry="2.5" style="stroke:#181818;stroke-width:0.5;" width="133.335" x="290.4829" y="697.8203"/><text fill="#000000" font-family="sans-serif" font-size="14" lengthAdjust="spacing" textLength="119.335" x="297.4829" y="717.8154">autorisatieserver</text><rect fill="#E2E2F0" height="30.2969" rx="2.5" ry="2.5" style="stroke:#181818;stroke-width:0.5;" width="77.9229" x="602.3638" y="25.1328"/><text fill="#000000" font-family="sans-serif" font-size="14" lengthAdjust="spacing" textLength="63.9229" x="609.3638" y="45.1279">nID Filter</text><rect fill="#E2E2F0" height="30.2969" rx="2.5" ry="2.5" style="stroke:#181818;stroke-width:0.5;" width="77.9229" x="602.3638" y="697.8203"/><text fill="#000000" font-family="sans-serif" font-size="14" lengthAdjust="spacing" textLength="63.9229" x="609.3638" y="717.8154">nID Filter</text><rect fill="#E2E2F0" height="30.2969" rx="2.5" ry="2.5" style="stroke:#181818;stroke-width:0.5;" width="128.5088" x="912.1475" y="25.1328"/><text fill="#000000" font-family="sans-serif" font-size="14" lengthAdjust="spacing" textLength="114.5088" x="919.1475" y="45.1279">Resource-server</text><rect fill="#E2E2F0" height="30.2969" rx="2.5" ry="2.5" style="stroke:#181818;stroke-width:0.5;" width="128.5088" x="912.1475" y="697.8203"/><text fill="#000000" font-family="sans-serif" font-size="14" lengthAdjust="spacing" textLength="114.5088" x="919.1475" y="717.8154">Resource-server</text><rect fill="#E2E2F0" height="30.2969" rx="2.5" ry="2.5" style="stroke:#181818;stroke-width:0.5;" width="79.1396" x="1177.4429" y="25.1328"/><text fill="#000000" font-family="sans-serif" font-size="14" lengthAdjust="spacing" textLength="65.1396" x="1184.4429" y="45.1279">Resource</text><rect fill="#E2E2F0" height="30.2969" rx="2.5" ry="2.5" style="stroke:#181818;stroke-width:0.5;" width="79.1396" x="1177.4429" y="697.8203"/><text fill="#000000" font-family="sans-serif" font-size="14" lengthAdjust="spacing" textLength="65.1396" x="1184.4429" y="717.8154">Resource</text><rect fill="#FFFFFF" height="279.0625" style="stroke:#181818;stroke-width:1.0;" width="10" x="57.2651" y="66.4297"/><rect fill="#FFFFFF" height="291.0625" style="stroke:#181818;stroke-width:1.0;" width="10" x="57.2651" y="389.7578"/><rect fill="#FFFFFF" height="227.6641" style="stroke:#181818;stroke-width:1.0;" width="10" x="352.1504" y="117.8281"/><rect fill="#D3D3D3" height="112.2656" style="stroke:#181818;stroke-width:1.0;" width="10" x="357.1504" y="197.0938"/><rect fill="#A9A9A9" height="28" style="stroke:#181818;stroke-width:1.0;" width="10" x="362.1504" y="281.3594"/><rect fill="#FFFFFF" height="232.7969" style="stroke:#181818;stroke-width:1.0;" width="10" x="636.3252" y="389.7578"/><rect fill="#FFFFFF" height="291.0625" style="stroke:#181818;stroke-width:1.0;" width="10" x="971.4019" y="389.7578"/><rect fill="#FFFFFF" height="29.1328" style="stroke:#181818;stroke-width:1.0;" width="10" x="1212.0127" y="622.5547"/><polygon fill="#181818" points="340.1504,113.8281,350.1504,117.8281,340.1504,121.8281,344.1504,117.8281" style="stroke:#181818;stroke-width:1.0;"/><line style="stroke:#181818;stroke-width:1.0;" x1="67.2651" x2="346.1504" y1="117.8281" y2="117.8281"/><text fill="#000000" font-family="sans-serif" font-size="13" font-weight="bold" lengthAdjust="spacing" textLength="39.019" x="74.2651" y="97.6294">[001]</text><text fill="#000000" font-family="sans-serif" font-size="13" font-weight="bold" lengthAdjust="spacing" textLength="194.7144" x="117.2842" y="82.4966">Aanvragen van autorisatie</text><text fill="#000000" font-family="sans-serif" font-size="13" lengthAdjust="spacing" textLength="222.8662" x="117.2842" y="97.6294">"scope": "registers/resource:read"</text><text fill="#000000" font-family="sans-serif" font-size="13" lengthAdjust="spacing" textLength="131.625" x="121.4165" y="112.7622">Authenticatiemiddel</text><line style="stroke:#181818;stroke-width:1.0;" x1="362.1504" x2="404.1504" y1="146.9609" y2="146.9609"/><line style="stroke:#181818;stroke-width:1.0;" x1="404.1504" x2="404.1504" y1="146.9609" y2="159.9609"/><line style="stroke:#181818;stroke-width:1.0;" x1="363.1504" x2="404.1504" y1="159.9609" y2="159.9609"/><polygon fill="#181818" points="373.1504,155.9609,363.1504,159.9609,373.1504,163.9609,369.1504,159.9609" style="stroke:#181818;stroke-width:1.0;"/><text fill="#000000" font-family="sans-serif" font-size="13" font-weight="bold" lengthAdjust="spacing" textLength="39.019" x="369.1504" y="141.895">[002]</text><text fill="#000000" font-family="sans-serif" font-size="13" lengthAdjust="spacing" textLength="189.4331" x="412.1694" y="141.895">Valideer Authenticatiemiddel</text><line style="stroke:#181818;stroke-width:1.0;" x1="362.1504" x2="409.1504" y1="184.0938" y2="184.0938"/><line style="stroke:#181818;stroke-width:1.0;" x1="409.1504" x2="409.1504" y1="184.0938" y2="197.0938"/><line style="stroke:#181818;stroke-width:1.0;" x1="368.1504" x2="409.1504" y1="197.0938" y2="197.0938"/><polygon fill="#181818" points="378.1504,193.0938,368.1504,197.0938,378.1504,201.0938,374.1504,197.0938" style="stroke:#181818;stroke-width:1.0;"/><text fill="#000000" font-family="sans-serif" font-size="13" font-weight="bold" lengthAdjust="spacing" textLength="39.019" x="374.1504" y="179.0278">[003]</text><text fill="#000000" font-family="sans-serif" font-size="13" lengthAdjust="spacing" textLength="207.1558" x="417.1694" y="179.0278">Run Rule-engine o.b.v. scope(s)</text><line style="stroke:#181818;stroke-width:1.0;" x1="367.1504" x2="409.1504" y1="231.2266" y2="231.2266"/><line style="stroke:#181818;stroke-width:1.0;" x1="409.1504" x2="409.1504" y1="231.2266" y2="244.2266"/><line style="stroke:#181818;stroke-width:1.0;" x1="368.1504" x2="409.1504" y1="244.2266" y2="244.2266"/><polygon fill="#181818" points="378.1504,240.2266,368.1504,244.2266,378.1504,248.2266,374.1504,244.2266" style="stroke:#181818;stroke-width:1.0;"/><text fill="#000000" font-family="sans-serif" font-size="13" font-weight="bold" lengthAdjust="spacing" textLength="39.019" x="374.1504" y="226.1606">[004]</text><text fill="#000000" font-family="sans-serif" font-size="13" lengthAdjust="spacing" textLength="127.4673" x="417.1694" y="226.1606">Valideer autorisatie</text><line style="stroke:#181818;stroke-width:1.0;" x1="372.1504" x2="414.1504" y1="273.3594" y2="273.3594"/><line style="stroke:#181818;stroke-width:1.0;" x1="414.1504" x2="414.1504" y1="273.3594" y2="286.3594"/><line style="stroke:#181818;stroke-width:1.0;" x1="373.1504" x2="414.1504" y1="286.3594" y2="286.3594"/><polygon fill="#181818" points="383.1504,282.3594,373.1504,286.3594,383.1504,290.3594,379.1504,286.3594" style="stroke:#181818;stroke-width:1.0;"/><text fill="#000000" font-family="sans-serif" font-size="13" font-weight="bold" lengthAdjust="spacing" textLength="39.019" x="379.1504" y="268.2935">[005]</text><text fill="#000000" font-family="sans-serif" font-size="13" lengthAdjust="spacing" textLength="154.21" x="422.1694" y="268.2935">Genereer Access-Token</text><polygon fill="#181818" points="73.2651,341.4922,63.2651,345.4922,73.2651,349.4922,69.2651,345.4922" style="stroke:#181818;stroke-width:1.0;"/><line style="stroke:#181818;stroke-width:1.0;stroke-dasharray:2.0,2.0;" x1="67.2651" x2="356.1504" y1="345.4922" y2="345.4922"/><text fill="#000000" font-family="sans-serif" font-size="13" font-weight="bold" lengthAdjust="spacing" textLength="39.019" x="79.2651" y="340.4263">[006]</text><text fill="#000000" font-family="sans-serif" font-size="13" lengthAdjust="spacing" textLength="195.3237" x="122.2842" y="340.4263">200 Response (Access-Token)</text><polygon fill="#181818" points="959.4019,385.7578,969.4019,389.7578,959.4019,393.7578,963.4019,389.7578" style="stroke:#181818;stroke-width:1.0;"/><line style="stroke:#181818;stroke-width:1.0;" x1="67.2651" x2="965.4019" y1="389.7578" y2="389.7578"/><text fill="#000000" font-family="sans-serif" font-size="13" font-weight="bold" lengthAdjust="spacing" textLength="39.019" x="74.2651" y="377.1255">[007]</text><text fill="#000000" font-family="sans-serif" font-size="13" font-weight="bold" lengthAdjust="spacing" textLength="112.2837" x="117.2842" y="369.5591">GraphQL Query</text><text fill="#000000" font-family="sans-serif" font-size="13" lengthAdjust="spacing" textLength="239.8652" x="117.2842" y="384.6919">Authenticatiemiddel + Access-Token</text><path d="M651,402.7578 L651,427.7578 L822,427.7578 L822,412.7578 L812,402.7578 L651,402.7578 " fill="#FEFFDD" style="stroke:#181818;stroke-width:0.5;"/><path d="M812,402.7578 L812,412.7578 L822,412.7578 L812,402.7578 " fill="#FEFFDD" style="stroke:#181818;stroke-width:0.5;"/><text fill="#000000" font-family="sans-serif" font-size="13" lengthAdjust="spacing" textLength="150.6172" x="657" y="419.8247">Inline filtering requests</text><line style="stroke:#181818;stroke-width:1.0;" x1="646.3252" x2="688.3252" y1="454.0234" y2="454.0234"/><line style="stroke:#181818;stroke-width:1.0;" x1="688.3252" x2="688.3252" y1="454.0234" y2="467.0234"/><line style="stroke:#181818;stroke-width:1.0;" x1="647.3252" x2="688.3252" y1="467.0234" y2="467.0234"/><polygon fill="#181818" points="657.3252,463.0234,647.3252,467.0234,657.3252,471.0234,653.3252,467.0234" style="stroke:#181818;stroke-width:1.0;"/><text fill="#000000" font-family="sans-serif" font-size="13" font-weight="bold" lengthAdjust="spacing" textLength="39.019" x="653.3252" y="448.9575">[008]</text><text fill="#000000" font-family="sans-serif" font-size="13" lengthAdjust="spacing" textLength="189.4331" x="696.3442" y="448.9575">Valideer Authenticatiemiddel</text><line style="stroke:#181818;stroke-width:1.0;" x1="646.3252" x2="688.3252" y1="496.1563" y2="496.1563"/><line style="stroke:#181818;stroke-width:1.0;" x1="688.3252" x2="688.3252" y1="496.1563" y2="509.1563"/><line style="stroke:#181818;stroke-width:1.0;" x1="647.3252" x2="688.3252" y1="509.1563" y2="509.1563"/><polygon fill="#181818" points="657.3252,505.1563,647.3252,509.1563,657.3252,513.1563,653.3252,509.1563" style="stroke:#181818;stroke-width:1.0;"/><text fill="#000000" font-family="sans-serif" font-size="13" font-weight="bold" lengthAdjust="spacing" textLength="39.019" x="653.3252" y="491.0903">[009]</text><text fill="#000000" font-family="sans-serif" font-size="13" lengthAdjust="spacing" textLength="146.8911" x="696.3442" y="491.0903">Valideer Access-Token</text><line style="stroke:#181818;stroke-width:1.0;" x1="646.3252" x2="688.3252" y1="538.2891" y2="538.2891"/><line style="stroke:#181818;stroke-width:1.0;" x1="688.3252" x2="688.3252" y1="538.2891" y2="551.2891"/><line style="stroke:#181818;stroke-width:1.0;" x1="647.3252" x2="688.3252" y1="551.2891" y2="551.2891"/><polygon fill="#181818" points="657.3252,547.2891,647.3252,551.2891,657.3252,555.2891,653.3252,551.2891" style="stroke:#181818;stroke-width:1.0;"/><text fill="#000000" font-family="sans-serif" font-size="13" font-weight="bold" lengthAdjust="spacing" textLength="39.019" x="653.3252" y="533.2231">[010]</text><text fill="#000000" font-family="sans-serif" font-size="13" lengthAdjust="spacing" textLength="115.1592" x="696.3442" y="533.2231">Valideer GraphQL</text><line style="stroke:#181818;stroke-width:1.0;" x1="646.3252" x2="688.3252" y1="580.4219" y2="580.4219"/><line style="stroke:#181818;stroke-width:1.0;" x1="688.3252" x2="688.3252" y1="580.4219" y2="593.4219"/><line style="stroke:#181818;stroke-width:1.0;" x1="647.3252" x2="688.3252" y1="593.4219" y2="593.4219"/><polygon fill="#181818" points="657.3252,589.4219,647.3252,593.4219,657.3252,597.4219,653.3252,593.4219" style="stroke:#181818;stroke-width:1.0;"/><text fill="#000000" font-family="sans-serif" font-size="13" font-weight="bold" lengthAdjust="spacing" textLength="39.019" x="653.3252" y="575.356">[011]</text><text fill="#000000" font-family="sans-serif" font-size="13" lengthAdjust="spacing" textLength="258.0576" x="696.3442" y="575.356">Valideer GraphQL request met scope(s)</text><polygon fill="#181818" points="1200.0127,618.5547,1210.0127,622.5547,1200.0127,626.5547,1204.0127,622.5547" style="stroke:#181818;stroke-width:1.0;"/><line style="stroke:#181818;stroke-width:1.0;" x1="981.4019" x2="1206.0127" y1="622.5547" y2="622.5547"/><text fill="#000000" font-family="sans-serif" font-size="13" font-weight="bold" lengthAdjust="spacing" textLength="39.019" x="988.4019" y="617.4888">[012]</text><text fill="#000000" font-family="sans-serif" font-size="13" lengthAdjust="spacing" textLength="114.8735" x="1031.4209" y="617.4888">GraphQL Request</text><polygon fill="#181818" points="992.4019,647.6875,982.4019,651.6875,992.4019,655.6875,988.4019,651.6875" style="stroke:#181818;stroke-width:1.0;"/><line style="stroke:#181818;stroke-width:1.0;stroke-dasharray:2.0,2.0;" x1="986.4019" x2="1216.0127" y1="651.6875" y2="651.6875"/><text fill="#000000" font-family="sans-serif" font-size="13" font-weight="bold" lengthAdjust="spacing" textLength="39.019" x="998.4019" y="646.6216">[013]</text><text fill="#000000" font-family="sans-serif" font-size="13" lengthAdjust="spacing" textLength="163.5918" x="1041.4209" y="646.6216">200 Response (GraphQL)</text><polygon fill="#181818" points="73.2651,676.8203,63.2651,680.8203,73.2651,684.8203,69.2651,680.8203" style="stroke:#181818;stroke-width:1.0;"/><line style="stroke:#181818;stroke-width:1.0;stroke-dasharray:2.0,2.0;" x1="67.2651" x2="975.4019" y1="680.8203" y2="680.8203"/><text fill="#000000" font-family="sans-serif" font-size="13" font-weight="bold" lengthAdjust="spacing" textLength="39.019" x="79.2651" y="675.7544">[014]</text><text fill="#000000" font-family="sans-serif" font-size="13" lengthAdjust="spacing" textLength="163.5918" x="122.2842" y="675.7544">200 Response (GraphQL)</text><!--SRC=[ZLHDRvmm4BtpAwRqq6GhjhH7L4LAkcqKAPMIRTLBqeCN9gorCAQsGKb-VMqmh0baiqX8_fZt_6RynX_WNILPNZBGA9v1ong3GEquLKoo4cwOr3pb5IDzmxACKmvVOc__GZpswv_Z8DY8HmXNY0LXYJ8Cm7pLdWB2RmL7qY4m1TqmGCh0m1oMhbOpA5Ph8RbYcgD2sHXcIt1Uw-tphtO-XHWY-C4BxMAxuJHiZKhKCiN8upNGVjcnZpMkCUTApwRNurgUY-y_-z0zWqs5wdA34iAlcxExE8x_XW5BDM-OnhuebhWRGdJc9vh0Od7Eg35NXWGD8_1girZSKwXIKM6OG2ZTsUgJTAeIYImBxwabDDmyjQYIPnaMxP63Z9UbjP-tDX7rXnKyGxFn6lDR1EkQp5zWX9HpGX3BpR9PGflCYJeTEEOKmljhdc_rfMHFGzpHWhto7Gs-H4BPPfkcg5JqM-oGHkXvcIicTnEL6Hwi-XlR8vb6Ps-QA35z6eFnOoL88PpuKhjoliBiBJip1didJbh3-j6aL6rlh-6sHlbaFJXZ0lWuBjPmnhJPXYtNioJCMDeR1l7W5XEueiBwvA6TskT7uhyQbLQJNkeGLdsFFUZMG-5-1WVYN46E2EbLGubwR_PWKXJBuJqdoO1VTtZ_rbpPXhd_30NUfFNBp8MEVUCEElLF637EQ1ryU0pPr01J2_u7]--></g></svg>