<?xml version="1.0" encoding="us-ascii" standalone="no"?><svg xmlns="http://www.w3.org/2000/svg" xmlns:xlink="http://www.w3.org/1999/xlink" contentStyleType="text/css" height="332px" preserveAspectRatio="none" style="width:678px;height:332px;background:#FFFFFF;" version="1.1" viewBox="0 0 678 332" width="678px" zoomAndPan="magnify"><defs/><g><text fill="#000000" font-family="sans-serif" font-size="14" font-weight="bold" lengthAdjust="spacing" textLength="323" x="191.5" y="27.9951">Publiceren &amp; raadplegen notificatietype</text><rect fill="#ADD8E6" height="283.5234" style="stroke:#181818;stroke-width:0.5;" width="139" x="41" y="43.2969"/><text fill="#000000" font-family="sans-serif" font-size="13" font-weight="bold" lengthAdjust="spacing" textLength="88" x="64" y="55.3638">bronhouder</text><rect fill="#DDDDDD" height="283.5234" style="stroke:#181818;stroke-width:0.5;" width="183" x="262" y="43.2969"/><rect fill="#FFFFE0" height="283.5234" style="stroke:#181818;stroke-width:0.5;" width="139" x="527" y="43.2969"/><text fill="#000000" font-family="sans-serif" font-size="13" font-weight="bold" lengthAdjust="spacing" textLength="79" x="554.5" y="55.3638">deelnemer</text><rect fill="#FFFFFF" height="29.1328" style="stroke:#181818;stroke-width:1.0;" width="10" x="105.5" y="148.9922"/><rect fill="#FFFFFF" height="29.1328" style="stroke:#181818;stroke-width:1.0;" width="10" x="348.5" y="148.9922"/><rect fill="#FFFFFF" height="29.1328" style="stroke:#181818;stroke-width:1.0;" width="10" x="348.5" y="238.3906"/><rect fill="#FFFFFF" height="29.1328" style="stroke:#181818;stroke-width:1.0;" width="10" x="591.5" y="238.3906"/><rect fill="none" height="75.3984" style="stroke:#000000;stroke-width:1.5;" width="416" x="35" y="110.7266"/><rect fill="none" height="75.3984" style="stroke:#000000;stroke-width:1.5;" width="416" x="256" y="200.125"/><line style="stroke:#181818;stroke-width:0.5;stroke-dasharray:5.0,5.0;" x1="110" x2="110" y1="93.7266" y2="292.5234"/><line style="stroke:#181818;stroke-width:0.5;stroke-dasharray:5.0,5.0;" x1="353" x2="353" y1="93.7266" y2="292.5234"/><line style="stroke:#181818;stroke-width:0.5;stroke-dasharray:5.0,5.0;" x1="596" x2="596" y1="93.7266" y2="292.5234"/><rect fill="#E2E2F0" height="30.2969" rx="2.5" ry="2.5" style="stroke:#181818;stroke-width:0.5;" width="91" x="65" y="62.4297"/><text fill="#000000" font-family="sans-serif" font-size="14" lengthAdjust="spacing" textLength="77" x="72" y="82.4248">Backoffice</text><rect fill="#E2E2F0" height="30.2969" rx="2.5" ry="2.5" style="stroke:#181818;stroke-width:0.5;" width="91" x="65" y="291.5234"/><text fill="#000000" font-family="sans-serif" font-size="14" lengthAdjust="spacing" textLength="77" x="72" y="311.5186">Backoffice</text><rect fill="#E2E2F0" height="30.2969" rx="2.5" ry="2.5" style="stroke:#181818;stroke-width:0.5;" width="135" x="286" y="62.4297"/><text fill="#000000" font-family="sans-serif" font-size="14" lengthAdjust="spacing" textLength="121" x="293" y="82.4248">ServiceDirectory</text><rect fill="#E2E2F0" height="30.2969" rx="2.5" ry="2.5" style="stroke:#181818;stroke-width:0.5;" width="135" x="286" y="291.5234"/><text fill="#000000" font-family="sans-serif" font-size="14" lengthAdjust="spacing" textLength="121" x="293" y="311.5186">ServiceDirectory</text><rect fill="#E2E2F0" height="30.2969" rx="2.5" ry="2.5" style="stroke:#181818;stroke-width:0.5;" width="91" x="551" y="62.4297"/><text fill="#000000" font-family="sans-serif" font-size="14" lengthAdjust="spacing" textLength="77" x="558" y="82.4248">Backoffice</text><rect fill="#E2E2F0" height="30.2969" rx="2.5" ry="2.5" style="stroke:#181818;stroke-width:0.5;" width="91" x="551" y="291.5234"/><text fill="#000000" font-family="sans-serif" font-size="14" lengthAdjust="spacing" textLength="77" x="558" y="311.5186">Backoffice</text><rect fill="#FFFFFF" height="29.1328" style="stroke:#181818;stroke-width:1.0;" width="10" x="105.5" y="148.9922"/><rect fill="#FFFFFF" height="29.1328" style="stroke:#181818;stroke-width:1.0;" width="10" x="348.5" y="148.9922"/><rect fill="#FFFFFF" height="29.1328" style="stroke:#181818;stroke-width:1.0;" width="10" x="348.5" y="238.3906"/><rect fill="#FFFFFF" height="29.1328" style="stroke:#181818;stroke-width:1.0;" width="10" x="591.5" y="238.3906"/><path d="M35,110.7266 L281,110.7266 L281,117.8594 L271,127.8594 L35,127.8594 L35,110.7266 " fill="#EEEEEE" style="stroke:#000000;stroke-width:1.5;"/><rect fill="none" height="75.3984" style="stroke:#000000;stroke-width:1.5;" width="416" x="35" y="110.7266"/><text fill="#000000" font-family="sans-serif" font-size="13" font-weight="bold" lengthAdjust="spacing" textLength="201" x="50" y="123.7935">vastleggen notificatietype</text><polygon fill="#181818" points="336.5,144.9922,346.5,148.9922,336.5,152.9922,340.5,148.9922" style="stroke:#181818;stroke-width:1.0;"/><line style="stroke:#181818;stroke-width:1.0;" x1="115.5" x2="342.5" y1="148.9922" y2="148.9922"/><text fill="#000000" font-family="sans-serif" font-size="13" font-weight="bold" lengthAdjust="spacing" textLength="31" x="122.5" y="143.9263">[01]</text><text fill="#000000" font-family="sans-serif" font-size="13" lengthAdjust="spacing" textLength="162" x="157.5" y="143.9263">publiceren notificatietype</text><polygon fill="#181818" points="121.5,174.125,111.5,178.125,121.5,182.125,117.5,178.125" style="stroke:#181818;stroke-width:1.0;"/><line style="stroke:#181818;stroke-width:1.0;stroke-dasharray:2.0,2.0;" x1="115.5" x2="352.5" y1="178.125" y2="178.125"/><text fill="#000000" font-family="sans-serif" font-size="13" font-weight="bold" lengthAdjust="spacing" textLength="31" x="127.5" y="173.0591">[02]</text><text fill="#000000" font-family="sans-serif" font-size="13" lengthAdjust="spacing" textLength="59" x="162.5" y="173.0591">response</text><path d="M256,200.125 L503,200.125 L503,207.2578 L493,217.2578 L256,217.2578 L256,200.125 " fill="#EEEEEE" style="stroke:#000000;stroke-width:1.5;"/><rect fill="none" height="75.3984" style="stroke:#000000;stroke-width:1.5;" width="416" x="256" y="200.125"/><text fill="#000000" font-family="sans-serif" font-size="13" font-weight="bold" lengthAdjust="spacing" textLength="202" x="271" y="213.1919">raadplegen notificatietype</text><polygon fill="#181818" points="369.5,234.3906,359.5,238.3906,369.5,242.3906,365.5,238.3906" style="stroke:#181818;stroke-width:1.0;"/><line style="stroke:#181818;stroke-width:1.0;" x1="363.5" x2="590.5" y1="238.3906" y2="238.3906"/><text fill="#000000" font-family="sans-serif" font-size="13" font-weight="bold" lengthAdjust="spacing" textLength="30" x="375.5" y="233.3247">[03]</text><text fill="#000000" font-family="sans-serif" font-size="13" lengthAdjust="spacing" textLength="160" x="409.5" y="233.3247">raadpleeg notificatietype</text><polygon fill="#181818" points="584.5,263.5234,594.5,267.5234,584.5,271.5234,588.5,267.5234" style="stroke:#181818;stroke-width:1.0;"/><line style="stroke:#181818;stroke-width:1.0;stroke-dasharray:2.0,2.0;" x1="353.5" x2="590.5" y1="267.5234" y2="267.5234"/><text fill="#000000" font-family="sans-serif" font-size="13" font-weight="bold" lengthAdjust="spacing" textLength="31" x="360.5" y="262.4575">[04]</text><text fill="#000000" font-family="sans-serif" font-size="13" lengthAdjust="spacing" textLength="59" x="395.5" y="262.4575">response</text><!--SRC=[ZP71JiCm38RlUmghIDoG9iHfGZiW7W1fHyJ1QRpMMff4YTEnjyVjM5atCRWaIlp_zcTRM1p1Mp6EQqhauHuIeesE6dtu8Bpb6eL93f4M2u2yOnynOGSjUhjFBAB2BRfCiwYUmZL7z1BHMlODF2vd2XC-Jv6d8O95WY-TeGJLirc_BvSVbNwh34mAlWt5QkZESTEASMKeTrO4gXUiTs6hk5G1PZ1P1UJja63ndUVIig7Kg_wL4zKIqc4qPdjjj4JEKpVLFv1pOVy7WPqX03Gfb0WzPXrvyyjujLo6XxL2m0hYprekfOCIQ-4UXOwjdht73W0IIKbUhno3pqUFfRbBwIQo6uiVhIUorKb9pMqkUmq6_o6R1lS5]--></g></svg>