<?xml version="1.0" encoding="us-ascii" standalone="no"?><svg xmlns="http://www.w3.org/2000/svg" xmlns:xlink="http://www.w3.org/1999/xlink" contentStyleType="text/css" height="730px" preserveAspectRatio="none" style="width:788px;height:730px;background:#FFFFFF;" version="1.1" viewBox="0 0 788 730" width="788px" zoomAndPan="magnify"><defs/><g><text fill="#000000" font-family="sans-serif" font-size="14" font-weight="bold" lengthAdjust="spacing" textLength="175" x="308.5" y="27.9951">melding flow Silvester</text><rect fill="#ADD8E6" height="680.9844" style="stroke:#181818;stroke-width:0.5;" width="144" x="41" y="43.2969"/><text fill="#000000" font-family="sans-serif" font-size="13" font-weight="bold" lengthAdjust="spacing" textLength="5" x="110.5" y="55.3638">&#160;</text><rect fill="#FFFFE0" height="680.9844" style="stroke:#181818;stroke-width:0.5;" width="120" x="310" y="43.2969"/><text fill="#000000" font-family="sans-serif" font-size="13" font-weight="bold" lengthAdjust="spacing" textLength="5" x="367.5" y="55.3638">&#160;</text><rect fill="#ADD8E6" height="680.9844" style="stroke:#181818;stroke-width:0.5;" width="132" x="543" y="43.2969"/><text fill="#000000" font-family="sans-serif" font-size="13" font-weight="bold" lengthAdjust="spacing" textLength="5" x="606.5" y="55.3638">&#160;</text><rect fill="#FFFFFF" height="577.2578" style="stroke:#181818;stroke-width:1.0;" width="10" x="108" y="103.7266"/><rect fill="#FFFFFF" height="513.9922" style="stroke:#181818;stroke-width:1.0;" width="10" x="365" y="166.9922"/><rect fill="#FFFFFF" height="237.9297" style="stroke:#181818;stroke-width:1.0;" width="10" x="604" y="296.5234"/><rect fill="#FFC0CB" height="152.6641" style="stroke:#000000;stroke-width:1.5;" width="646" x="35" y="311.5234"/><rect fill="#D3D3D3" height="81.3984" style="stroke:#000000;stroke-width:1.5;" width="404" x="35" y="591.5859"/><line style="stroke:#181818;stroke-width:0.5;stroke-dasharray:5.0,5.0;" x1="113" x2="113" y1="93.7266" y2="689.9844"/><line style="stroke:#181818;stroke-width:0.5;stroke-dasharray:5.0,5.0;" x1="370" x2="370" y1="93.7266" y2="689.9844"/><line style="stroke:#181818;stroke-width:0.5;stroke-dasharray:5.0,5.0;" x1="609" x2="609" y1="93.7266" y2="689.9844"/><rect fill="#E2E2F0" height="30.2969" rx="2.5" ry="2.5" style="stroke:#181818;stroke-width:0.5;" width="96" x="65" y="62.4297"/><text fill="#000000" font-family="sans-serif" font-size="14" lengthAdjust="spacing" textLength="82" x="72" y="82.4248">bronhouder</text><rect fill="#E2E2F0" height="30.2969" rx="2.5" ry="2.5" style="stroke:#181818;stroke-width:0.5;" width="96" x="65" y="688.9844"/><text fill="#000000" font-family="sans-serif" font-size="14" lengthAdjust="spacing" textLength="82" x="72" y="708.9795">bronhouder</text><rect fill="#E2E2F0" height="30.2969" rx="2.5" ry="2.5" style="stroke:#181818;stroke-width:0.5;" width="72" x="334" y="62.4297"/><text fill="#000000" font-family="sans-serif" font-size="14" lengthAdjust="spacing" textLength="58" x="341" y="82.4248">Silvester</text><rect fill="#E2E2F0" height="30.2969" rx="2.5" ry="2.5" style="stroke:#181818;stroke-width:0.5;" width="72" x="334" y="688.9844"/><text fill="#000000" font-family="sans-serif" font-size="14" lengthAdjust="spacing" textLength="58" x="341" y="708.9795">Silvester</text><rect fill="#E2E2F0" height="30.2969" rx="2.5" ry="2.5" style="stroke:#181818;stroke-width:0.5;" width="84" x="567" y="62.4297"/><text fill="#000000" font-family="sans-serif" font-size="14" lengthAdjust="spacing" textLength="70" x="574" y="82.4248">ontvanger</text><rect fill="#E2E2F0" height="30.2969" rx="2.5" ry="2.5" style="stroke:#181818;stroke-width:0.5;" width="84" x="567" y="688.9844"/><text fill="#000000" font-family="sans-serif" font-size="14" lengthAdjust="spacing" textLength="70" x="574" y="708.9795">ontvanger</text><rect fill="#FFFFFF" height="577.2578" style="stroke:#181818;stroke-width:1.0;" width="10" x="108" y="103.7266"/><rect fill="#FFFFFF" height="513.9922" style="stroke:#181818;stroke-width:1.0;" width="10" x="365" y="166.9922"/><rect fill="#FFFFFF" height="237.9297" style="stroke:#181818;stroke-width:1.0;" width="10" x="604" y="296.5234"/><line style="stroke:#181818;stroke-width:1.0;" x1="118" x2="160" y1="124.8594" y2="124.8594"/><line style="stroke:#181818;stroke-width:1.0;" x1="160" x2="160" y1="124.8594" y2="137.8594"/><line style="stroke:#181818;stroke-width:1.0;" x1="119" x2="160" y1="137.8594" y2="137.8594"/><polygon fill="#181818" points="129,133.8594,119,137.8594,129,141.8594,125,137.8594" style="stroke:#181818;stroke-width:1.0;"/><text fill="#000000" font-family="sans-serif" font-size="13" font-weight="bold" lengthAdjust="spacing" textLength="30" x="125" y="119.7935">[01]</text><text fill="#000000" font-family="sans-serif" font-size="13" lengthAdjust="spacing" textLength="36" x="159" y="119.7935">event</text><polygon fill="#181818" points="353,162.9922,363,166.9922,353,170.9922,357,166.9922" style="stroke:#181818;stroke-width:1.0;"/><line style="stroke:#181818;stroke-width:1.0;" x1="118" x2="359" y1="166.9922" y2="166.9922"/><text fill="#000000" font-family="sans-serif" font-size="13" font-weight="bold" lengthAdjust="spacing" textLength="30" x="125" y="161.9263">[02]</text><text fill="#000000" font-family="sans-serif" font-size="13" lengthAdjust="spacing" textLength="62" x="159" y="161.9263">notificatie</text><polygon fill="#181818" points="129,192.125,119,196.125,129,200.125,125,196.125" style="stroke:#181818;stroke-width:1.0;"/><line style="stroke:#181818;stroke-width:1.0;" x1="123" x2="364" y1="196.125" y2="196.125"/><text fill="#000000" font-family="sans-serif" font-size="13" font-weight="bold" lengthAdjust="spacing" textLength="30" x="135" y="191.0591">[03]</text><text fill="#000000" font-family="sans-serif" font-size="13" lengthAdjust="spacing" textLength="97" x="169" y="191.0591">raadpleeg bron</text><polygon fill="#181818" points="353,221.2578,363,225.2578,353,229.2578,357,225.2578" style="stroke:#181818;stroke-width:1.0;"/><line style="stroke:#181818;stroke-width:1.0;" x1="118" x2="359" y1="225.2578" y2="225.2578"/><text fill="#000000" font-family="sans-serif" font-size="13" font-weight="bold" lengthAdjust="spacing" textLength="30" x="125" y="220.1919">[04]</text><text fill="#000000" font-family="sans-serif" font-size="13" lengthAdjust="spacing" textLength="29" x="159" y="220.1919">data</text><line style="stroke:#181818;stroke-width:1.0;" x1="375" x2="417" y1="254.3906" y2="254.3906"/><line style="stroke:#181818;stroke-width:1.0;" x1="417" x2="417" y1="254.3906" y2="267.3906"/><line style="stroke:#181818;stroke-width:1.0;" x1="376" x2="417" y1="267.3906" y2="267.3906"/><polygon fill="#181818" points="386,263.3906,376,267.3906,386,271.3906,382,267.3906" style="stroke:#181818;stroke-width:1.0;"/><text fill="#000000" font-family="sans-serif" font-size="13" font-weight="bold" lengthAdjust="spacing" textLength="30" x="382" y="249.3247">[05]</text><text fill="#000000" font-family="sans-serif" font-size="13" lengthAdjust="spacing" textLength="119" x="416" y="249.3247">stel xml-bericht op</text><polygon fill="#181818" points="592,292.5234,602,296.5234,592,300.5234,596,296.5234" style="stroke:#181818;stroke-width:1.0;"/><line style="stroke:#181818;stroke-width:1.0;" x1="375" x2="598" y1="296.5234" y2="296.5234"/><text fill="#000000" font-family="sans-serif" font-size="13" font-weight="bold" lengthAdjust="spacing" textLength="30" x="382" y="291.4575">[06]</text><text fill="#000000" font-family="sans-serif" font-size="13" lengthAdjust="spacing" textLength="109" x="416" y="291.4575">stuur xml-bericht</text><path d="M35,311.5234 L99,311.5234 L99,318.6563 L89,328.6563 L35,328.6563 L35,311.5234 " fill="#EEEEEE" style="stroke:#000000;stroke-width:1.5;"/><rect fill="none" height="152.6641" style="stroke:#000000;stroke-width:1.5;" width="646" x="35" y="311.5234"/><text fill="#000000" font-family="sans-serif" font-size="13" font-weight="bold" lengthAdjust="spacing" textLength="19" x="50" y="324.5903">alt</text><text fill="#000000" font-family="sans-serif" font-size="11" font-weight="bold" lengthAdjust="spacing" textLength="211" x="114" y="323.7339">[xml-bericht kan niet afgeleverd]</text><line style="stroke:#181818;stroke-width:2.0;" x1="586" x2="596" y1="344.7891" y2="354.7891"/><line style="stroke:#181818;stroke-width:2.0;" x1="586" x2="596" y1="354.7891" y2="344.7891"/><line style="stroke:#181818;stroke-width:1.0;" x1="375" x2="591" y1="349.7891" y2="349.7891"/><text fill="#000000" font-family="sans-serif" font-size="13" font-weight="bold" lengthAdjust="spacing" textLength="30" x="382" y="344.7231">[07]</text><text fill="#000000" font-family="sans-serif" font-size="13" lengthAdjust="spacing" textLength="171" x="416" y="344.7231">xml-bericht niet afgeleverd</text><line style="stroke:#181818;stroke-width:1.0;" x1="375" x2="417" y1="378.9219" y2="378.9219"/><line style="stroke:#181818;stroke-width:1.0;" x1="417" x2="417" y1="378.9219" y2="391.9219"/><line style="stroke:#181818;stroke-width:1.0;" x1="376" x2="417" y1="391.9219" y2="391.9219"/><polygon fill="#181818" points="386,387.9219,376,391.9219,386,395.9219,382,391.9219" style="stroke:#181818;stroke-width:1.0;"/><text fill="#000000" font-family="sans-serif" font-size="13" font-weight="bold" lengthAdjust="spacing" textLength="30" x="382" y="373.856">[08]</text><text fill="#000000" font-family="sans-serif" font-size="13" lengthAdjust="spacing" textLength="103" x="416" y="373.856">bepaal BRS-fout</text><polygon fill="#181818" points="129,417.0547,119,421.0547,129,425.0547,125,421.0547" style="stroke:#181818;stroke-width:1.0;"/><line style="stroke:#181818;stroke-width:1.0;" x1="123" x2="364" y1="421.0547" y2="421.0547"/><text fill="#000000" font-family="sans-serif" font-size="13" font-weight="bold" lengthAdjust="spacing" textLength="30" x="135" y="415.9888">[09]</text><text fill="#000000" font-family="sans-serif" font-size="13" lengthAdjust="spacing" textLength="82" x="169" y="415.9888">BRS-melding</text><path d="M50,434.0547 L50,459.0547 L671,459.0547 L671,444.0547 L661,434.0547 L50,434.0547 " fill="#ADFF2F" style="stroke:#181818;stroke-width:0.5;"/><path d="M661,434.0547 L661,444.0547 L671,444.0547 L661,434.0547 " fill="#ADFF2F" style="stroke:#181818;stroke-width:0.5;"/><text fill="#000000" font-family="sans-serif" font-size="13" lengthAdjust="spacing" textLength="192" x="260" y="451.1216">beschreven in deze RFC0018a</text><line style="stroke:#181818;stroke-width:1.0;" x1="614" x2="656" y1="492.3203" y2="492.3203"/><line style="stroke:#181818;stroke-width:1.0;" x1="656" x2="656" y1="492.3203" y2="505.3203"/><line style="stroke:#181818;stroke-width:1.0;" x1="615" x2="656" y1="505.3203" y2="505.3203"/><polygon fill="#181818" points="625,501.3203,615,505.3203,625,509.3203,621,505.3203" style="stroke:#181818;stroke-width:1.0;"/><text fill="#000000" font-family="sans-serif" font-size="13" font-weight="bold" lengthAdjust="spacing" textLength="30" x="621" y="487.2544">[10]</text><text fill="#000000" font-family="sans-serif" font-size="13" lengthAdjust="spacing" textLength="126" x="655" y="487.2544">valideer xml-bericht</text><polygon fill="#181818" points="386,530.4531,376,534.4531,386,538.4531,382,534.4531" style="stroke:#181818;stroke-width:1.0;"/><line style="stroke:#181818;stroke-width:1.0;" x1="380" x2="608" y1="534.4531" y2="534.4531"/><text fill="#000000" font-family="sans-serif" font-size="13" font-weight="bold" lengthAdjust="spacing" textLength="30" x="392" y="529.3872">[11]</text><text fill="#000000" font-family="sans-serif" font-size="13" lengthAdjust="spacing" textLength="120" x="426" y="529.3872">stuur retourbericht</text><line style="stroke:#181818;stroke-width:1.0;" x1="333" x2="375" y1="563.5859" y2="563.5859"/><line style="stroke:#181818;stroke-width:1.0;" x1="333" x2="333" y1="563.5859" y2="576.5859"/><line style="stroke:#181818;stroke-width:1.0;" x1="333" x2="374" y1="576.5859" y2="576.5859"/><polygon fill="#181818" points="366,572.5859,376,576.5859,366,580.5859,370,576.5859" style="stroke:#181818;stroke-width:1.0;"/><text fill="#000000" font-family="sans-serif" font-size="13" font-weight="bold" lengthAdjust="spacing" textLength="30" x="142" y="558.52">[12]</text><text fill="#000000" font-family="sans-serif" font-size="13" lengthAdjust="spacing" textLength="199" x="176" y="558.52">controleer inhoud retourbericht</text><path d="M35,591.5859 L99,591.5859 L99,598.7188 L89,608.7188 L35,608.7188 L35,591.5859 " fill="#EEEEEE" style="stroke:#000000;stroke-width:1.5;"/><rect fill="none" height="81.3984" style="stroke:#000000;stroke-width:1.5;" width="404" x="35" y="591.5859"/><text fill="#000000" font-family="sans-serif" font-size="13" font-weight="bold" lengthAdjust="spacing" textLength="19" x="50" y="604.6528">alt</text><text fill="#000000" font-family="sans-serif" font-size="11" font-weight="bold" lengthAdjust="spacing" textLength="213" x="114" y="603.7964">[retourbericht bevat iWlz-fouten]</text><polygon fill="#181818" points="129,625.8516,119,629.8516,129,633.8516,125,629.8516" style="stroke:#181818;stroke-width:1.0;"/><line style="stroke:#181818;stroke-width:1.0;" x1="123" x2="364" y1="629.8516" y2="629.8516"/><text fill="#000000" font-family="sans-serif" font-size="13" font-weight="bold" lengthAdjust="spacing" textLength="30" x="135" y="624.7856">[13]</text><text fill="#000000" font-family="sans-serif" font-size="13" lengthAdjust="spacing" textLength="104" x="169" y="624.7856">iWlz foutmelding</text><path d="M53,642.8516 L53,667.8516 L429,667.8516 L429,652.8516 L419,642.8516 L53,642.8516 " fill="#FEFFDD" style="stroke:#181818;stroke-width:0.5;"/><path d="M419,642.8516 L419,652.8516 L429,652.8516 L419,642.8516 " fill="#FEFFDD" style="stroke:#181818;stroke-width:0.5;"/><text fill="#000000" font-family="sans-serif" font-size="13" lengthAdjust="spacing" textLength="149" x="162" y="659.9185">beschreven in RFC0018</text><!--SRC=[TL9DRzim3BtxLn39TG6yOOUXA7hOWEqwj8TX67QWBTeceaY6JBjfV_r4sKbaTxq88D-7o2S9YoKuaJNiMcYiVuOdjXCDGg4OZknw37Y23frv3Yn23Xgq0sLOF8Lhxj59ZoRvV2eplFBdI_zpMU0etesdYWBixgk7FsNvTrT42i3USjj9PKSgCalOLS6xpe-6mWvm02qBSaPzYrpvGZQElzPUTqdI8LR_bRwzr3kPqBMBKAkR46lX2ONcKVI0mqCgxe0cSdBjwOLtuBnmmpKAKoPEm-Xn4mT4qrkYTkqyknWKlFBdLbpCmlba3p5DhZi1tryPEh8onZ7ab6o0j5I1Lc3_azrnPNH41uv909kMR5mgc09WyJulvhdWNV8oQaKzeeMlZq-7ne-IuVFg2Yo_C68nCGAiWny6sFy8HEvtUbpr6UekQCh03Woz4Zn-_rQM7x-WFb2ntK-FMnmJMZP4wqGkb4kccbWWyMEuC0njGakptnyMIHsRmLlrvVHJD_8vu_JHsa0lQpHk58s1VzdNb4nSx4qu2eA2cuHyZ3fHFio2RJnBCXhCFm00]--></g></svg>