<?xml version="1.0" encoding="us-ascii" standalone="no"?><svg xmlns="http://www.w3.org/2000/svg" xmlns:xlink="http://www.w3.org/1999/xlink" contentStyleType="text/css" height="270px" preserveAspectRatio="none" style="width:666px;height:270px;background:#FFFFFF;" version="1.1" viewBox="0 0 666 270" width="666px" zoomAndPan="magnify"><defs/><g><text fill="#000000" font-family="sans-serif" font-size="14" font-weight="bold" lengthAdjust="spacing" textLength="236" x="232.25" y="27.9951">adresboek sequence-diagram</text><rect fill="#ADD8E6" height="221.2578" style="stroke:#181818;stroke-width:0.5;" width="139" x="41" y="43.2969"/><text fill="#000000" font-family="sans-serif" font-size="13" font-weight="bold" lengthAdjust="spacing" textLength="88" x="64" y="55.3638">bronhouder</text><rect fill="#DDDDDD" height="221.2578" style="stroke:#181818;stroke-width:0.5;" width="140" x="262" y="43.2969"/><text fill="#000000" font-family="sans-serif" font-size="13" font-weight="bold" lengthAdjust="spacing" textLength="79" x="292.5" y="55.3638">adresboek</text><rect fill="#FFFFE0" height="221.2578" style="stroke:#181818;stroke-width:0.5;" width="139" x="521.5" y="43.2969"/><text fill="#000000" font-family="sans-serif" font-size="13" font-weight="bold" lengthAdjust="spacing" textLength="79" x="549" y="55.3638">deelnemer</text><rect fill="#FFFFFF" height="29.1328" style="stroke:#181818;stroke-width:1.0;" width="10" x="105.5" y="124.8594"/><rect fill="#FFFFFF" height="29.1328" style="stroke:#181818;stroke-width:1.0;" width="10" x="327" y="124.8594"/><rect fill="#FFFFFF" height="29.1328" style="stroke:#181818;stroke-width:1.0;" width="10" x="327" y="183.125"/><rect fill="#FFFFFF" height="29.1328" style="stroke:#181818;stroke-width:1.0;" width="10" x="586" y="183.125"/><line style="stroke:#181818;stroke-width:0.5;stroke-dasharray:5.0,5.0;" x1="110" x2="110" y1="93.7266" y2="230.2578"/><line style="stroke:#181818;stroke-width:0.5;stroke-dasharray:5.0,5.0;" x1="332" x2="332" y1="93.7266" y2="230.2578"/><line style="stroke:#181818;stroke-width:0.5;stroke-dasharray:5.0,5.0;" x1="590.5" x2="590.5" y1="93.7266" y2="230.2578"/><rect fill="#E2E2F0" height="30.2969" rx="2.5" ry="2.5" style="stroke:#181818;stroke-width:0.5;" width="91" x="65" y="62.4297"/><text fill="#000000" font-family="sans-serif" font-size="14" lengthAdjust="spacing" textLength="77" x="72" y="82.4248">Backoffice</text><rect fill="#E2E2F0" height="30.2969" rx="2.5" ry="2.5" style="stroke:#181818;stroke-width:0.5;" width="91" x="65" y="229.2578"/><text fill="#000000" font-family="sans-serif" font-size="14" lengthAdjust="spacing" textLength="77" x="72" y="249.2529">Backoffice</text><rect fill="#E2E2F0" height="30.2969" rx="2.5" ry="2.5" style="stroke:#181818;stroke-width:0.5;" width="92" x="286" y="62.4297"/><text fill="#000000" font-family="sans-serif" font-size="14" lengthAdjust="spacing" textLength="78" x="293" y="82.4248">Adresboek</text><rect fill="#E2E2F0" height="30.2969" rx="2.5" ry="2.5" style="stroke:#181818;stroke-width:0.5;" width="92" x="286" y="229.2578"/><text fill="#000000" font-family="sans-serif" font-size="14" lengthAdjust="spacing" textLength="78" x="293" y="249.2529">Adresboek</text><rect fill="#E2E2F0" height="30.2969" rx="2.5" ry="2.5" style="stroke:#181818;stroke-width:0.5;" width="91" x="545.5" y="62.4297"/><text fill="#000000" font-family="sans-serif" font-size="14" lengthAdjust="spacing" textLength="77" x="552.5" y="82.4248">Backoffice</text><rect fill="#E2E2F0" height="30.2969" rx="2.5" ry="2.5" style="stroke:#181818;stroke-width:0.5;" width="91" x="545.5" y="229.2578"/><text fill="#000000" font-family="sans-serif" font-size="14" lengthAdjust="spacing" textLength="77" x="552.5" y="249.2529">Backoffice</text><rect fill="#FFFFFF" height="29.1328" style="stroke:#181818;stroke-width:1.0;" width="10" x="105.5" y="124.8594"/><rect fill="#FFFFFF" height="29.1328" style="stroke:#181818;stroke-width:1.0;" width="10" x="327" y="124.8594"/><rect fill="#FFFFFF" height="29.1328" style="stroke:#181818;stroke-width:1.0;" width="10" x="327" y="183.125"/><rect fill="#FFFFFF" height="29.1328" style="stroke:#181818;stroke-width:1.0;" width="10" x="586" y="183.125"/><polygon fill="#181818" points="315,120.8594,325,124.8594,315,128.8594,319,124.8594" style="stroke:#181818;stroke-width:1.0;"/><line style="stroke:#181818;stroke-width:1.0;" x1="115.5" x2="321" y1="124.8594" y2="124.8594"/><text fill="#000000" font-family="sans-serif" font-size="13" font-weight="bold" lengthAdjust="spacing" textLength="31" x="122.5" y="119.7935">[01]</text><text fill="#000000" font-family="sans-serif" font-size="13" lengthAdjust="spacing" textLength="161" x="157.5" y="119.7935">publiceer adresgegevens</text><polygon fill="#181818" points="121.5,149.9922,111.5,153.9922,121.5,157.9922,117.5,153.9922" style="stroke:#181818;stroke-width:1.0;"/><line style="stroke:#181818;stroke-width:1.0;" x1="115.5" x2="331" y1="153.9922" y2="153.9922"/><text fill="#000000" font-family="sans-serif" font-size="13" font-weight="bold" lengthAdjust="spacing" textLength="31" x="127.5" y="148.9263">[02]</text><text fill="#000000" font-family="sans-serif" font-size="13" lengthAdjust="spacing" textLength="59" x="162.5" y="148.9263">response</text><polygon fill="#181818" points="348,179.125,338,183.125,348,187.125,344,183.125" style="stroke:#181818;stroke-width:1.0;"/><line style="stroke:#181818;stroke-width:1.0;" x1="342" x2="585" y1="183.125" y2="183.125"/><text fill="#000000" font-family="sans-serif" font-size="13" font-weight="bold" lengthAdjust="spacing" textLength="30" x="354" y="178.0591">[03]</text><text fill="#000000" font-family="sans-serif" font-size="13" lengthAdjust="spacing" textLength="183" x="388" y="178.0591">zoek endpoint deelnemer op</text><polygon fill="#181818" points="579,208.2578,589,212.2578,579,216.2578,583,212.2578" style="stroke:#181818;stroke-width:1.0;"/><line style="stroke:#181818;stroke-width:1.0;" x1="332" x2="585" y1="212.2578" y2="212.2578"/><text fill="#000000" font-family="sans-serif" font-size="13" font-weight="bold" lengthAdjust="spacing" textLength="31" x="339" y="207.1919">[04]</text><text fill="#000000" font-family="sans-serif" font-size="13" lengthAdjust="spacing" textLength="190" x="374" y="207.1919">return {endpoint deelnemer}</text><!--SRC=[XP7BReGm34NtV8L5roEXgYjKZTJ-HjM5Gmn412VDOwOFzTzhe4DXPj5D5CVtNXz3CiaIe0uKbQC18hrbueOEsc0NS2m0uc3OezoXHzRdO58YXXPjf5rNpcGQuv6JHwqDTt1VxHJAlLyw3rC7StASHqK1oaTrVAcgrrAU2z612evxbxNqxgpf-gHidkPjfa3vZCtWsjOqL096K544n7eQLCXrobbNk_O-NHgp5TMjLHDPfd4b-21htVaV1ir-doHP4Gv7cG0r-AoiA2LovkgeenDnd6NO97F2H0lBffQrn2mH4bI3sBpZ-Tk386vLc-etOpaM325RE6hud7wrC7fdP8M_FPqlRb3M-x8PmC8YrSIISc3uketwliQJf4qbxXy0]--></g></svg>