<?xml version="1.0" encoding="us-ascii" standalone="no"?><svg xmlns="http://www.w3.org/2000/svg" xmlns:xlink="http://www.w3.org/1999/xlink" contentStyleType="text/css" height="468px" preserveAspectRatio="none" style="width:824px;height:468px;background:#FFFFFF;" version="1.1" viewBox="0 0 824 468" width="824px" zoomAndPan="magnify"><defs/><g><rect fill="#ADD8E6" height="456.3203" style="stroke:#181818;stroke-width:0.5;" width="412" x="41" y="6"/><text fill="#000000" font-family="sans-serif" font-size="13" font-weight="bold" lengthAdjust="spacing" textLength="88" x="200.5" y="18.0669">bronhouder</text><rect fill="#FFFFE0" height="456.3203" style="stroke:#181818;stroke-width:0.5;" width="128" x="602.5" y="6"/><text fill="#000000" font-family="sans-serif" font-size="13" font-weight="bold" lengthAdjust="spacing" textLength="79" x="624.5" y="18.0669">deelnemer</text><rect fill="#FFFFFF" height="29.1328" style="stroke:#181818;stroke-width:1.0;" width="10" x="100" y="284.4922"/><rect fill="#FFFFFF" height="182.7969" style="stroke:#181818;stroke-width:1.0;" width="10" x="369.5" y="213.2266"/><rect fill="#FFFFFF" height="308.4609" style="stroke:#181818;stroke-width:1.0;" width="10" x="661.5" y="87.5625"/><rect fill="none" height="308.4609" style="stroke:#000000;stroke-width:1.5;" width="783.5" x="35" y="102.5625"/><rect fill="#FFC0CB" height="46.2656" style="stroke:#000000;stroke-width:1.5;" width="446.5" x="290" y="357.7578"/><line style="stroke:#181818;stroke-width:0.5;stroke-dasharray:5.0,5.0;" x1="105" x2="105" y1="56.4297" y2="428.0234"/><line style="stroke:#181818;stroke-width:0.5;stroke-dasharray:5.0,5.0;" x1="232" x2="232" y1="56.4297" y2="428.0234"/><line style="stroke:#181818;stroke-width:0.5;stroke-dasharray:5.0,5.0;" x1="374" x2="374" y1="56.4297" y2="428.0234"/><line style="stroke:#181818;stroke-width:0.5;stroke-dasharray:5.0,5.0;" x1="666.5" x2="666.5" y1="56.4297" y2="428.0234"/><rect fill="#E2E2F0" height="30.2969" rx="2.5" ry="2.5" style="stroke:#181818;stroke-width:0.5;" width="80" x="65" y="25.1328"/><text fill="#000000" font-family="sans-serif" font-size="14" lengthAdjust="spacing" textLength="66" x="72" y="45.1279">Resource</text><rect fill="#E2E2F0" height="30.2969" rx="2.5" ry="2.5" style="stroke:#181818;stroke-width:0.5;" width="80" x="65" y="427.0234"/><text fill="#000000" font-family="sans-serif" font-size="14" lengthAdjust="spacing" textLength="66" x="72" y="447.0186">Resource</text><rect fill="#E2E2F0" height="30.2969" rx="2.5" ry="2.5" style="stroke:#181818;stroke-width:0.5;" width="75" x="195" y="25.1328"/><text fill="#000000" font-family="sans-serif" font-size="14" lengthAdjust="spacing" textLength="61" x="202" y="45.1279">Register</text><rect fill="#E2E2F0" height="30.2969" rx="2.5" ry="2.5" style="stroke:#181818;stroke-width:0.5;" width="75" x="195" y="427.0234"/><text fill="#000000" font-family="sans-serif" font-size="14" lengthAdjust="spacing" textLength="61" x="202" y="447.0186">Register</text><rect fill="#E2E2F0" height="30.2969" rx="2.5" ry="2.5" style="stroke:#181818;stroke-width:0.5;" width="109" x="320" y="25.1328"/><text fill="#000000" font-family="sans-serif" font-size="14" lengthAdjust="spacing" textLength="95" x="327" y="45.1279">Netwerkpunt</text><rect fill="#E2E2F0" height="30.2969" rx="2.5" ry="2.5" style="stroke:#181818;stroke-width:0.5;" width="109" x="320" y="427.0234"/><text fill="#000000" font-family="sans-serif" font-size="14" lengthAdjust="spacing" textLength="95" x="327" y="447.0186">Netwerkpunt</text><rect fill="#E2E2F0" height="30.2969" rx="2.5" ry="2.5" style="stroke:#181818;stroke-width:0.5;" width="80" x="626.5" y="25.1328"/><text fill="#000000" font-family="sans-serif" font-size="14" lengthAdjust="spacing" textLength="66" x="633.5" y="45.1279">Resource</text><rect fill="#E2E2F0" height="30.2969" rx="2.5" ry="2.5" style="stroke:#181818;stroke-width:0.5;" width="80" x="626.5" y="427.0234"/><text fill="#000000" font-family="sans-serif" font-size="14" lengthAdjust="spacing" textLength="66" x="633.5" y="447.0186">Resource</text><rect fill="#FFFFFF" height="29.1328" style="stroke:#181818;stroke-width:1.0;" width="10" x="100" y="284.4922"/><rect fill="#FFFFFF" height="182.7969" style="stroke:#181818;stroke-width:1.0;" width="10" x="369.5" y="213.2266"/><rect fill="#FFFFFF" height="308.4609" style="stroke:#181818;stroke-width:1.0;" width="10" x="661.5" y="87.5625"/><ellipse cx="232" cy="86.8125" fill="none" rx="4" ry="4" style="stroke:#181818;stroke-width:1.5;"/><polygon fill="#181818" points="649.5,83.5625,659.5,87.5625,649.5,91.5625,653.5,87.5625" style="stroke:#181818;stroke-width:1.0;"/><line style="stroke:#181818;stroke-width:1.0;" x1="236.5" x2="655.5" y1="87.5625" y2="87.5625"/><text fill="#000000" font-family="sans-serif" font-size="13" font-weight="bold" lengthAdjust="spacing" textLength="31" x="239.5" y="82.4966">[01]</text><text fill="#000000" font-family="sans-serif" font-size="13" lengthAdjust="spacing" textLength="75" x="274.5" y="82.4966">raadpleging</text><path d="M35,102.5625 L173,102.5625 L173,109.6953 L163,119.6953 L35,119.6953 L35,102.5625 " fill="#EEEEEE" style="stroke:#000000;stroke-width:1.5;"/><rect fill="none" height="308.4609" style="stroke:#000000;stroke-width:1.5;" width="783.5" x="35" y="102.5625"/><text fill="#000000" font-family="sans-serif" font-size="13" font-weight="bold" lengthAdjust="spacing" textLength="93" x="50" y="115.6294">fout melden</text><line style="stroke:#181818;stroke-width:1.0;" x1="671.5" x2="713.5" y1="155.9609" y2="155.9609"/><line style="stroke:#181818;stroke-width:1.0;" x1="713.5" x2="713.5" y1="155.9609" y2="168.9609"/><line style="stroke:#181818;stroke-width:1.0;" x1="672.5" x2="713.5" y1="168.9609" y2="168.9609"/><polygon fill="#181818" points="682.5,164.9609,672.5,168.9609,682.5,172.9609,678.5,168.9609" style="stroke:#181818;stroke-width:1.0;"/><text fill="#000000" font-family="sans-serif" font-size="13" font-weight="bold" lengthAdjust="spacing" textLength="31" x="678.5" y="143.3286">[02]</text><text fill="#000000" font-family="sans-serif" font-size="13" lengthAdjust="spacing" textLength="59" x="713.5" y="135.7622">iWlz-Fout</text><text fill="#000000" font-family="sans-serif" font-size="13" lengthAdjust="spacing" textLength="93" x="713.5" y="150.895">geconstateerd</text><polygon fill="#181818" points="390.5,209.2266,380.5,213.2266,390.5,217.2266,386.5,213.2266" style="stroke:#181818;stroke-width:1.0;"/><line style="stroke:#181818;stroke-width:1.0;" x1="384.5" x2="660.5" y1="213.2266" y2="213.2266"/><text fill="#000000" font-family="sans-serif" font-size="13" font-weight="bold" lengthAdjust="spacing" textLength="30" x="396.5" y="200.5942">[03]</text><text fill="#000000" font-family="sans-serif" font-size="13" lengthAdjust="spacing" textLength="143" x="430.5" y="193.0278">iWlz-Foutmelding naar</text><text fill="#000000" font-family="sans-serif" font-size="13" lengthAdjust="spacing" textLength="74" x="430.5" y="208.1606">bronhouder</text><line style="stroke:#181818;stroke-width:1.0;" x1="379.5" x2="421.5" y1="242.3594" y2="242.3594"/><line style="stroke:#181818;stroke-width:1.0;" x1="421.5" x2="421.5" y1="242.3594" y2="255.3594"/><line style="stroke:#181818;stroke-width:1.0;" x1="380.5" x2="421.5" y1="255.3594" y2="255.3594"/><polygon fill="#181818" points="390.5,251.3594,380.5,255.3594,390.5,259.3594,386.5,255.3594" style="stroke:#181818;stroke-width:1.0;"/><text fill="#000000" font-family="sans-serif" font-size="13" font-weight="bold" lengthAdjust="spacing" textLength="31" x="386.5" y="237.2935">[04]</text><text fill="#000000" font-family="sans-serif" font-size="13" lengthAdjust="spacing" textLength="116" x="421.5" y="237.2935">valideer inzending</text><polygon fill="#181818" points="121,280.4922,111,284.4922,121,288.4922,117,284.4922" style="stroke:#181818;stroke-width:1.0;"/><line style="stroke:#181818;stroke-width:1.0;" x1="115" x2="368.5" y1="284.4922" y2="284.4922"/><text fill="#000000" font-family="sans-serif" font-size="13" font-weight="bold" lengthAdjust="spacing" textLength="31" x="127" y="279.4263">[05]</text><text fill="#000000" font-family="sans-serif" font-size="13" lengthAdjust="spacing" textLength="182" x="162" y="279.4263">doorzetten iWlz-foutmelding</text><polygon fill="#181818" points="357.5,309.625,367.5,313.625,357.5,317.625,361.5,313.625" style="stroke:#181818;stroke-width:1.0;"/><line style="stroke:#181818;stroke-width:1.0;" x1="105" x2="363.5" y1="313.625" y2="313.625"/><text fill="#000000" font-family="sans-serif" font-size="13" font-weight="bold" lengthAdjust="spacing" textLength="31" x="112" y="308.5591">[06]</text><text fill="#000000" font-family="sans-serif" font-size="13" lengthAdjust="spacing" textLength="148" x="147" y="308.5591">return response {204}</text><polygon fill="#181818" points="649.5,338.7578,659.5,342.7578,649.5,346.7578,653.5,342.7578" style="stroke:#181818;stroke-width:1.0;"/><line style="stroke:#181818;stroke-width:1.0;" x1="379.5" x2="655.5" y1="342.7578" y2="342.7578"/><text fill="#000000" font-family="sans-serif" font-size="13" font-weight="bold" lengthAdjust="spacing" textLength="31" x="386.5" y="337.6919">[07]</text><text fill="#000000" font-family="sans-serif" font-size="13" lengthAdjust="spacing" textLength="148" x="421.5" y="337.6919">return response {204}</text><path d="M290,357.7578 L356,357.7578 L356,364.8906 L346,374.8906 L290,374.8906 L290,357.7578 " fill="#EEEEEE" style="stroke:#000000;stroke-width:1.5;"/><rect fill="none" height="46.2656" style="stroke:#000000;stroke-width:1.5;" width="446.5" x="290" y="357.7578"/><text fill="#000000" font-family="sans-serif" font-size="13" font-weight="bold" lengthAdjust="spacing" textLength="21" x="305" y="370.8247">alt</text><polygon fill="#181818" points="654.5,392.0234,664.5,396.0234,654.5,400.0234,658.5,396.0234" style="stroke:#181818;stroke-width:1.0;"/><line style="stroke:#181818;stroke-width:1.0;stroke-dasharray:2.0,2.0;" x1="374.5" x2="660.5" y1="396.0234" y2="396.0234"/><text fill="#000000" font-family="sans-serif" font-size="13" font-weight="bold" lengthAdjust="spacing" textLength="31" x="381.5" y="390.9575">[08]</text><text fill="#000000" font-family="sans-serif" font-size="13" lengthAdjust="spacing" textLength="223" x="416.5" y="390.9575">response: {400} ongeldig verzoek</text><!--SRC=[VL8zJyCm4DtzAqvbHefGfmfrP4I8XG4OdFZgMdNFqTbkeQZ_dRFJj2aWCYJotViulqlSEEerwosiDPazkvIGOALzH1NFFNadrxbUK-grCOuit3MJVXi-nlgyKJgdG7dR8iFilbs-DitxJ0a4MWwq3jb8uyOxkqwjpwWcuZ1xnXWoTpW37GKVVtQjYmcvTjbUDnynxP4tVQOqiAa7XMJATAhw6qHFk3tRVwBtOV_F01ovkqYmXN2xhCK5iDQczp8FMGNow2wvdKuuS9Jba7jOXPnWYzuWLL3fmLd2lVZ3xKE1l975Bb1C8e1ihh1oZGcqY9MOIMiMsYNHwo64L0ibWr5ZfxsJ11WS7UHEu-0ZXEC2J0XymFeBLCVLnV67lcocaZcUzHbJPf9FxEKg25ztpVnOKGP_4mVNKvP_CWT7d-3coT6cdawy2N5WBE1htZH729AZJ6jXXtm8E9Ac_gTWhefrPQLMLYsEgkpy6m00]--></g></svg>