<?xml version="1.0" encoding="us-ascii" standalone="no"?><svg xmlns="http://www.w3.org/2000/svg" xmlns:xlink="http://www.w3.org/1999/xlink" contentStyleType="text/css" height="995px" preserveAspectRatio="none" style="width:1701px;height:995px;background:#FFFFFF;" version="1.1" viewBox="0 0 1701 995" width="1701px" zoomAndPan="magnify"><defs/><g><rect fill="#DDDDDD" height="983.2422" style="stroke:#181818;stroke-width:0.5;" width="105" x="11" y="6"/><text fill="#000000" font-family="sans-serif" font-size="13" font-weight="bold" lengthAdjust="spacing" textLength="81" x="23" y="18.0669">Deelnemer</text><rect fill="#DDDDDD" height="983.2422" style="stroke:#181818;stroke-width:0.5;" width="919.5" x="387.5" y="6"/><text fill="#000000" font-family="sans-serif" font-size="13" font-weight="bold" lengthAdjust="spacing" textLength="25" x="834.75" y="18.0669">nID</text><rect fill="#DDDDDD" height="983.2422" style="stroke:#181818;stroke-width:0.5;" width="128" x="1567.5" y="6"/><text fill="#000000" font-family="sans-serif" font-size="13" font-weight="bold" lengthAdjust="spacing" textLength="64" x="1599.5" y="18.0669">Register</text><rect fill="#FFFFFF" height="415.2578" style="stroke:#181818;stroke-width:1.0;" width="10" x="58.5" y="66.4297"/><rect fill="#FFFFFF" height="365.5938" style="stroke:#181818;stroke-width:1.0;" width="10" x="58.5" y="571.3516"/><rect fill="#FFFFFF" height="318.4609" style="stroke:#181818;stroke-width:1.0;" width="10" x="474.5" y="163.2266"/><rect fill="#D3D3D3" height="157.6641" style="stroke:#181818;stroke-width:1.0;" width="10" x="479.5" y="287.8906"/><rect fill="#D3D3D3" height="28" style="stroke:#181818;stroke-width:1.0;" width="10" x="484.5" y="417.5547"/><rect fill="#FFFFFF" height="232.7969" style="stroke:#181818;stroke-width:1.0;" width="10" x="890.5" y="571.3516"/><rect fill="#FFFFFF" height="132.7969" style="stroke:#181818;stroke-width:1.0;" width="10" x="1212.5" y="804.1484"/><rect fill="#FFFFFF" height="29.1328" style="stroke:#181818;stroke-width:1.0;" width="10" x="1626.5" y="878.6797"/><line style="stroke:#181818;stroke-width:0.5;stroke-dasharray:5.0,5.0;" x1="63" x2="63" y1="56.4297" y2="954.9453"/><line style="stroke:#181818;stroke-width:0.5;stroke-dasharray:5.0,5.0;" x1="479.5" x2="479.5" y1="56.4297" y2="954.9453"/><line style="stroke:#181818;stroke-width:0.5;stroke-dasharray:5.0,5.0;" x1="895.5" x2="895.5" y1="56.4297" y2="954.9453"/><line style="stroke:#181818;stroke-width:0.5;stroke-dasharray:5.0,5.0;" x1="1217" x2="1217" y1="56.4297" y2="954.9453"/><line style="stroke:#181818;stroke-width:0.5;stroke-dasharray:5.0,5.0;" x1="1631.5" x2="1631.5" y1="56.4297" y2="954.9453"/><rect fill="#E2E2F0" height="30.2969" rx="2.5" ry="2.5" style="stroke:#181818;stroke-width:0.5;" width="57" x="35" y="25.1328"/><text fill="#000000" font-family="sans-serif" font-size="14" lengthAdjust="spacing" textLength="43" x="42" y="45.1279">Client</text><rect fill="#E2E2F0" height="30.2969" rx="2.5" ry="2.5" style="stroke:#181818;stroke-width:0.5;" width="57" x="35" y="953.9453"/><text fill="#000000" font-family="sans-serif" font-size="14" lengthAdjust="spacing" textLength="43" x="42" y="973.9404">Client</text><rect fill="#E2E2F0" height="30.2969" rx="2.5" ry="2.5" style="stroke:#181818;stroke-width:0.5;" width="136" x="411.5" y="25.1328"/><text fill="#000000" font-family="sans-serif" font-size="14" lengthAdjust="spacing" textLength="122" x="418.5" y="45.1279">autorisatieserver</text><rect fill="#E2E2F0" height="30.2969" rx="2.5" ry="2.5" style="stroke:#181818;stroke-width:0.5;" width="136" x="411.5" y="953.9453"/><text fill="#000000" font-family="sans-serif" font-size="14" lengthAdjust="spacing" textLength="122" x="418.5" y="973.9404">autorisatieserver</text><rect fill="#E2E2F0" height="30.2969" rx="2.5" ry="2.5" style="stroke:#181818;stroke-width:0.5;" width="80" x="855.5" y="25.1328"/><text fill="#000000" font-family="sans-serif" font-size="14" lengthAdjust="spacing" textLength="66" x="862.5" y="45.1279">nID Filter</text><rect fill="#E2E2F0" height="30.2969" rx="2.5" ry="2.5" style="stroke:#181818;stroke-width:0.5;" width="80" x="855.5" y="953.9453"/><text fill="#000000" font-family="sans-serif" font-size="14" lengthAdjust="spacing" textLength="66" x="862.5" y="973.9404">nID Filter</text><rect fill="#E2E2F0" height="30.2969" rx="2.5" ry="2.5" style="stroke:#181818;stroke-width:0.5;" width="131" x="1152" y="25.1328"/><text fill="#000000" font-family="sans-serif" font-size="14" lengthAdjust="spacing" textLength="117" x="1159" y="45.1279">Resource-server</text><rect fill="#E2E2F0" height="30.2969" rx="2.5" ry="2.5" style="stroke:#181818;stroke-width:0.5;" width="131" x="1152" y="953.9453"/><text fill="#000000" font-family="sans-serif" font-size="14" lengthAdjust="spacing" textLength="117" x="1159" y="973.9404">Resource-server</text><rect fill="#E2E2F0" height="30.2969" rx="2.5" ry="2.5" style="stroke:#181818;stroke-width:0.5;" width="80" x="1591.5" y="25.1328"/><text fill="#000000" font-family="sans-serif" font-size="14" lengthAdjust="spacing" textLength="66" x="1598.5" y="45.1279">Resource</text><rect fill="#E2E2F0" height="30.2969" rx="2.5" ry="2.5" style="stroke:#181818;stroke-width:0.5;" width="80" x="1591.5" y="953.9453"/><text fill="#000000" font-family="sans-serif" font-size="14" lengthAdjust="spacing" textLength="66" x="1598.5" y="973.9404">Resource</text><rect fill="#FFFFFF" height="415.2578" style="stroke:#181818;stroke-width:1.0;" width="10" x="58.5" y="66.4297"/><rect fill="#FFFFFF" height="365.5938" style="stroke:#181818;stroke-width:1.0;" width="10" x="58.5" y="571.3516"/><rect fill="#FFFFFF" height="318.4609" style="stroke:#181818;stroke-width:1.0;" width="10" x="474.5" y="163.2266"/><rect fill="#D3D3D3" height="157.6641" style="stroke:#181818;stroke-width:1.0;" width="10" x="479.5" y="287.8906"/><rect fill="#D3D3D3" height="28" style="stroke:#181818;stroke-width:1.0;" width="10" x="484.5" y="417.5547"/><rect fill="#FFFFFF" height="232.7969" style="stroke:#181818;stroke-width:1.0;" width="10" x="890.5" y="571.3516"/><rect fill="#FFFFFF" height="132.7969" style="stroke:#181818;stroke-width:1.0;" width="10" x="1212.5" y="804.1484"/><rect fill="#FFFFFF" height="29.1328" style="stroke:#181818;stroke-width:1.0;" width="10" x="1626.5" y="878.6797"/><polygon fill="#181818" points="462.5,159.2266,472.5,163.2266,462.5,167.2266,466.5,163.2266" style="stroke:#181818;stroke-width:1.0;"/><line style="stroke:#181818;stroke-width:1.0;" x1="68.5" x2="468.5" y1="163.2266" y2="163.2266"/><text fill="#000000" font-family="sans-serif" font-size="13" font-weight="bold" lengthAdjust="spacing" textLength="41" x="75.5" y="120.3286">[001]</text><text fill="#000000" font-family="sans-serif" font-size="13" font-weight="bold" lengthAdjust="spacing" textLength="200" x="120.5" y="82.4966">Aanvragen van autorisatie</text><text fill="#000000" font-family="sans-serif" font-size="13" lengthAdjust="spacing" textLength="217" x="120.5" y="97.6294">"scope": "registers/resource:read"</text><text fill="#000000" font-family="sans-serif" font-size="13" lengthAdjust="spacing" textLength="128" x="124.5" y="112.7622">Authenticatiemiddel</text><text fill="#FF0000" font-family="sans-serif" font-size="13" lengthAdjust="spacing" textLength="342" x="120.5" y="127.895">X-B3-TraceId: 463ac35c9f6413ad48485a3953bb6124</text><text fill="#FF0000" font-family="sans-serif" font-size="13" lengthAdjust="spacing" textLength="212" x="120.5" y="143.0278">X-B3-SpanId: a2fb4a1d1a96d312</text><text fill="#000000" font-family="sans-serif" font-size="13" lengthAdjust="spacing" textLength="4" x="120.5" y="158.1606">&#160;</text><line style="stroke:#181818;stroke-width:1.0;" x1="484.5" x2="526.5" y1="192.3594" y2="192.3594"/><line style="stroke:#181818;stroke-width:1.0;" x1="526.5" x2="526.5" y1="192.3594" y2="205.3594"/><line style="stroke:#181818;stroke-width:1.0;" x1="485.5" x2="526.5" y1="205.3594" y2="205.3594"/><polygon fill="#181818" points="495.5,201.3594,485.5,205.3594,495.5,209.3594,491.5,205.3594" style="stroke:#181818;stroke-width:1.0;"/><text fill="#000000" font-family="sans-serif" font-size="13" font-weight="bold" lengthAdjust="spacing" textLength="41" x="491.5" y="187.2935">[002]</text><text fill="#000000" font-family="sans-serif" font-size="13" lengthAdjust="spacing" textLength="184" x="536.5" y="187.2935">Valideer Authenticatiemiddel</text><line style="stroke:#181818;stroke-width:1.0;" x1="484.5" x2="531.5" y1="274.8906" y2="274.8906"/><line style="stroke:#181818;stroke-width:1.0;" x1="531.5" x2="531.5" y1="274.8906" y2="287.8906"/><line style="stroke:#181818;stroke-width:1.0;" x1="490.5" x2="531.5" y1="287.8906" y2="287.8906"/><polygon fill="#181818" points="500.5,283.8906,490.5,287.8906,500.5,291.8906,496.5,287.8906" style="stroke:#181818;stroke-width:1.0;"/><text fill="#000000" font-family="sans-serif" font-size="13" font-weight="bold" lengthAdjust="spacing" textLength="40" x="496.5" y="247.1255">[003]</text><text fill="#000000" font-family="sans-serif" font-size="13" lengthAdjust="spacing" textLength="204" x="540.5" y="224.4263">Run Rule-engine o.b.v. scope(s)</text><text fill="#FF0000" font-family="sans-serif" font-size="13" lengthAdjust="spacing" textLength="342" x="540.5" y="239.5591">X-B3-TraceId: 463ac35c9f6413ad48485a3953bb6124</text><text fill="#FF0000" font-family="sans-serif" font-size="13" lengthAdjust="spacing" textLength="211" x="540.5" y="254.6919">X-B3-SpanId: 34cfd3ee730bbe13</text><text fill="#FF0000" font-family="sans-serif" font-size="13" lengthAdjust="spacing" textLength="254" x="540.5" y="269.8247">X-B3-ParentSpanId: a2fb4a1d1a96d312</text><line style="stroke:#181818;stroke-width:1.0;" x1="489.5" x2="531.5" y1="322.0234" y2="322.0234"/><line style="stroke:#181818;stroke-width:1.0;" x1="531.5" x2="531.5" y1="322.0234" y2="335.0234"/><line style="stroke:#181818;stroke-width:1.0;" x1="490.5" x2="531.5" y1="335.0234" y2="335.0234"/><polygon fill="#181818" points="500.5,331.0234,490.5,335.0234,500.5,339.0234,496.5,335.0234" style="stroke:#181818;stroke-width:1.0;"/><text fill="#000000" font-family="sans-serif" font-size="13" font-weight="bold" lengthAdjust="spacing" textLength="41" x="496.5" y="316.9575">[004]</text><text fill="#000000" font-family="sans-serif" font-size="13" lengthAdjust="spacing" textLength="124" x="541.5" y="316.9575">Valideer autorisatie</text><line style="stroke:#181818;stroke-width:1.0;" x1="494.5" x2="536.5" y1="409.5547" y2="409.5547"/><line style="stroke:#181818;stroke-width:1.0;" x1="536.5" x2="536.5" y1="409.5547" y2="422.5547"/><line style="stroke:#181818;stroke-width:1.0;" x1="495.5" x2="536.5" y1="422.5547" y2="422.5547"/><polygon fill="#181818" points="505.5,418.5547,495.5,422.5547,505.5,426.5547,501.5,422.5547" style="stroke:#181818;stroke-width:1.0;"/><text fill="#000000" font-family="sans-serif" font-size="13" font-weight="bold" lengthAdjust="spacing" textLength="41" x="501.5" y="381.7896">[005]</text><text fill="#000000" font-family="sans-serif" font-size="13" lengthAdjust="spacing" textLength="153" x="546.5" y="359.0903">Genereer Access-Token</text><text fill="#FF0000" font-family="sans-serif" font-size="13" lengthAdjust="spacing" textLength="342" x="546.5" y="374.2231">X-B3-TraceId: 463ac35c9f6413ad48485a3953bb6124</text><text fill="#FF0000" font-family="sans-serif" font-size="13" lengthAdjust="spacing" textLength="211" x="546.5" y="389.356">X-B3-SpanId: 34cfd3ee730bbe13</text><text fill="#FF0000" font-family="sans-serif" font-size="13" lengthAdjust="spacing" textLength="254" x="546.5" y="404.4888">X-B3-ParentSpanId: a2fb4a1d1a96d312</text><polygon fill="#181818" points="74.5,477.6875,64.5,481.6875,74.5,485.6875,70.5,481.6875" style="stroke:#181818;stroke-width:1.0;"/><line style="stroke:#181818;stroke-width:1.0;stroke-dasharray:2.0,2.0;" x1="68.5" x2="478.5" y1="481.6875" y2="481.6875"/><text fill="#000000" font-family="sans-serif" font-size="13" font-weight="bold" lengthAdjust="spacing" textLength="41" x="80.5" y="476.6216">[006]</text><text fill="#000000" font-family="sans-serif" font-size="13" lengthAdjust="spacing" textLength="194" x="125.5" y="476.6216">200 Response (Access-Token)</text><polygon fill="#181818" points="878.5,567.3516,888.5,571.3516,878.5,575.3516,882.5,571.3516" style="stroke:#181818;stroke-width:1.0;"/><line style="stroke:#181818;stroke-width:1.0;" x1="68.5" x2="884.5" y1="571.3516" y2="571.3516"/><text fill="#000000" font-family="sans-serif" font-size="13" font-weight="bold" lengthAdjust="spacing" textLength="41" x="75.5" y="536.02">[007]</text><text fill="#000000" font-family="sans-serif" font-size="13" font-weight="bold" lengthAdjust="spacing" textLength="113" x="120.5" y="505.7544">GraphQL Query</text><text fill="#000000" font-family="sans-serif" font-size="13" lengthAdjust="spacing" textLength="235" x="120.5" y="520.8872">Authenticatiemiddel + Access-Token</text><text fill="#FF0000" font-family="sans-serif" font-size="13" lengthAdjust="spacing" textLength="342" x="120.5" y="536.02">X-B3-TraceId: 463ac35c9f6413ad48485a3953bb6124</text><text fill="#FF0000" font-family="sans-serif" font-size="13" lengthAdjust="spacing" textLength="212" x="120.5" y="551.1528">X-B3-SpanId: 2edb09379a27bfb1</text><text fill="#000000" font-family="sans-serif" font-size="13" lengthAdjust="spacing" textLength="4" x="120.5" y="566.2856">&#160;</text><path d="M905,584.3516 L905,609.3516 L1071,609.3516 L1071,594.3516 L1061,584.3516 L905,584.3516 " fill="#FEFFDD" style="stroke:#181818;stroke-width:0.5;"/><path d="M1061,584.3516 L1061,594.3516 L1071,594.3516 L1061,584.3516 " fill="#FEFFDD" style="stroke:#181818;stroke-width:0.5;"/><text fill="#000000" font-family="sans-serif" font-size="13" lengthAdjust="spacing" textLength="145" x="911" y="601.4185">Inline filtering requests</text><line style="stroke:#181818;stroke-width:1.0;" x1="900.5" x2="942.5" y1="635.6172" y2="635.6172"/><line style="stroke:#181818;stroke-width:1.0;" x1="942.5" x2="942.5" y1="635.6172" y2="648.6172"/><line style="stroke:#181818;stroke-width:1.0;" x1="901.5" x2="942.5" y1="648.6172" y2="648.6172"/><polygon fill="#181818" points="911.5,644.6172,901.5,648.6172,911.5,652.6172,907.5,648.6172" style="stroke:#181818;stroke-width:1.0;"/><text fill="#000000" font-family="sans-serif" font-size="13" font-weight="bold" lengthAdjust="spacing" textLength="41" x="907.5" y="630.5513">[008]</text><text fill="#000000" font-family="sans-serif" font-size="13" lengthAdjust="spacing" textLength="184" x="952.5" y="630.5513">Valideer Authenticatiemiddel</text><line style="stroke:#181818;stroke-width:1.0;" x1="900.5" x2="942.5" y1="677.75" y2="677.75"/><line style="stroke:#181818;stroke-width:1.0;" x1="942.5" x2="942.5" y1="677.75" y2="690.75"/><line style="stroke:#181818;stroke-width:1.0;" x1="901.5" x2="942.5" y1="690.75" y2="690.75"/><polygon fill="#181818" points="911.5,686.75,901.5,690.75,911.5,694.75,907.5,690.75" style="stroke:#181818;stroke-width:1.0;"/><text fill="#000000" font-family="sans-serif" font-size="13" font-weight="bold" lengthAdjust="spacing" textLength="41" x="907.5" y="672.6841">[009]</text><text fill="#000000" font-family="sans-serif" font-size="13" lengthAdjust="spacing" textLength="145" x="952.5" y="672.6841">Valideer Access-Token</text><line style="stroke:#181818;stroke-width:1.0;" x1="900.5" x2="942.5" y1="719.8828" y2="719.8828"/><line style="stroke:#181818;stroke-width:1.0;" x1="942.5" x2="942.5" y1="719.8828" y2="732.8828"/><line style="stroke:#181818;stroke-width:1.0;" x1="901.5" x2="942.5" y1="732.8828" y2="732.8828"/><polygon fill="#181818" points="911.5,728.8828,901.5,732.8828,911.5,736.8828,907.5,732.8828" style="stroke:#181818;stroke-width:1.0;"/><text fill="#000000" font-family="sans-serif" font-size="13" font-weight="bold" lengthAdjust="spacing" textLength="41" x="907.5" y="714.8169">[010]</text><text fill="#000000" font-family="sans-serif" font-size="13" lengthAdjust="spacing" textLength="112" x="952.5" y="714.8169">Valideer GraphQL</text><line style="stroke:#181818;stroke-width:1.0;" x1="900.5" x2="942.5" y1="762.0156" y2="762.0156"/><line style="stroke:#181818;stroke-width:1.0;" x1="942.5" x2="942.5" y1="762.0156" y2="775.0156"/><line style="stroke:#181818;stroke-width:1.0;" x1="901.5" x2="942.5" y1="775.0156" y2="775.0156"/><polygon fill="#181818" points="911.5,771.0156,901.5,775.0156,911.5,779.0156,907.5,775.0156" style="stroke:#181818;stroke-width:1.0;"/><text fill="#000000" font-family="sans-serif" font-size="13" font-weight="bold" lengthAdjust="spacing" textLength="40" x="907.5" y="756.9497">[011]</text><text fill="#000000" font-family="sans-serif" font-size="13" lengthAdjust="spacing" textLength="254" x="951.5" y="756.9497">Valideer GraphQL request met scope(s)</text><polygon fill="#181818" points="1200.5,800.1484,1210.5,804.1484,1200.5,808.1484,1204.5,804.1484" style="stroke:#181818;stroke-width:1.0;"/><line style="stroke:#181818;stroke-width:1.0;" x1="895.5" x2="1206.5" y1="804.1484" y2="804.1484"/><text fill="#000000" font-family="sans-serif" font-size="13" font-weight="bold" lengthAdjust="spacing" textLength="40" x="902.5" y="799.0825">[012]</text><text fill="#000000" font-family="sans-serif" font-size="13" lengthAdjust="spacing" textLength="4" x="946.5" y="799.0825">&#160;</text><polygon fill="#181818" points="1614.5,874.6797,1624.5,878.6797,1614.5,882.6797,1618.5,878.6797" style="stroke:#181818;stroke-width:1.0;"/><line style="stroke:#181818;stroke-width:1.0;" x1="1222.5" x2="1620.5" y1="878.6797" y2="878.6797"/><text fill="#000000" font-family="sans-serif" font-size="13" font-weight="bold" lengthAdjust="spacing" textLength="39" x="1229.5" y="850.9146">[013]</text><text fill="#000000" font-family="sans-serif" font-size="13" lengthAdjust="spacing" textLength="113" x="1272.5" y="828.2153">GraphQL Request</text><text fill="#FF0000" font-family="sans-serif" font-size="13" lengthAdjust="spacing" textLength="342" x="1272.5" y="843.3481">X-B3-TraceId: 463ac35c9f6413ad48485a3953bb6124</text><text fill="#FF0000" font-family="sans-serif" font-size="13" lengthAdjust="spacing" textLength="211" x="1272.5" y="858.481">X-B3-SpanId: 75c38117346fa472</text><text fill="#FF0000" font-family="sans-serif" font-size="13" lengthAdjust="spacing" textLength="254" x="1272.5" y="873.6138">X-B3-ParentSpanId: 2edb09379a27bfb1</text><polygon fill="#181818" points="1233.5,903.8125,1223.5,907.8125,1233.5,911.8125,1229.5,907.8125" style="stroke:#181818;stroke-width:1.0;"/><line style="stroke:#181818;stroke-width:1.0;stroke-dasharray:2.0,2.0;" x1="1227.5" x2="1630.5" y1="907.8125" y2="907.8125"/><text fill="#000000" font-family="sans-serif" font-size="13" font-weight="bold" lengthAdjust="spacing" textLength="40" x="1239.5" y="902.7466">[014]</text><text fill="#000000" font-family="sans-serif" font-size="13" lengthAdjust="spacing" textLength="161" x="1283.5" y="902.7466">200 Response (GraphQL)</text><polygon fill="#181818" points="74.5,932.9453,64.5,936.9453,74.5,940.9453,70.5,936.9453" style="stroke:#181818;stroke-width:1.0;"/><line style="stroke:#181818;stroke-width:1.0;stroke-dasharray:2.0,2.0;" x1="68.5" x2="1216.5" y1="936.9453" y2="936.9453"/><text fill="#000000" font-family="sans-serif" font-size="13" font-weight="bold" lengthAdjust="spacing" textLength="40" x="80.5" y="931.8794">[015]</text><text fill="#000000" font-family="sans-serif" font-size="13" lengthAdjust="spacing" textLength="161" x="124.5" y="931.8794">200 Response (GraphQL)</text><!--SRC=[rLNHJjim57tFLtZPmw1JM1AdBQqO4emD8J492fecZJquyKsnIEtCTYhWw-UaIMf8wBe79YrI9DkvvyJtND_ZT-XDBibyGP06yOYqBC1nr1tZEP5aWIw8r2nXEU7wWb3A-1o5llNzMDmtwu7lEB6uH-u9GCPX0T9ra7doDGLoFsKCk7OHKMWrT81JP60rbf-TzA18eOLaYcW62kJIC9S4HuM-VRogvbs88K9VMARhsDMm6pO39GgPW6Vn6cYpNBC_tUCCvapftlGQNCLp_Fbh4xfcA5FXnI86YTo3-F27x_i_NOSacYs9XaQKadWrHDwXdUWK3GP7X2zDoO2Z9U78qcOmkE6kIaGExXIvilwt-Y3hNKqb4EhUy8hGSBEaH2qOfP3Ty8DKcDyb8XFoemHw-Dqxnjwr90cSqIcAHfWaU9XCqb4KO4AZ_MX_IF1aYEDu58JH2_Wheqi99s4QHoIW0PcCA0x2RdYLSwl3yzgMZxNMKUKRoHW5yw4djQq8PWKtRmOUy3dZWCHUlBVSGvMQEshtbUN1KP9I3336VXn3W5y8DzreSdj9qpRFFXNHstCslzMdaZoqSLkBQfsnhS6dm45M5KaIKCgx5dV0_oiP_rPA2XkFxny-Fz7IYDcqlpSrZkiZuoovu0hGZgtdhhE1sLgkRSLPUyhA44ixCNdajvVdwB80-L1QI4yBeVV_iemXqDYVuF64XECuZOCUirWxPktiN9YnBEk2HDfcTyQpifdJQbfUKX9-5Q2qwZZk2c4hiz5IDeLRGcsAgtNV8gJPDLg0RXt9SInazygoYbyhP6dM3U-ibApM1JPjzp9RxUMLZy1ucE3z81ZZQ9IIQ1nkrSdFpyqwOVigTgn9rMcTt9ztN9twhYtg4yOUzTeEteQiMuzky_u6]--></g></svg>