<svg xmlns="http://www.w3.org/2000/svg" xmlns:xlink="http://www.w3.org/1999/xlink" contentStyleType="text/css" data-diagram-type="SEQUENCE" height="993px" preserveAspectRatio="none" style="width:960px;height:993px;background:#FFFFFF;" version="1.1" viewBox="0 0 960 993" width="960px" zoomAndPan="magnify"><title>melding sequence-diagram + error</title><defs/><g><text fill="#000000" font-family="sans-serif" font-size="14" font-weight="bold" lengthAdjust="spacing" textLength="275.9805" x="349.4502" y="27.9951">melding sequence-diagram + error</text><rect fill="#FFFFE0" height="944.0391" style="stroke:#181818;stroke-width:0.5;" width="127.1396" x="21" y="43.2969"/><text fill="#000000" font-family="sans-serif" font-size="13" font-weight="bold" lengthAdjust="spacing" textLength="78.2412" x="43.1863" y="55.3638">deelnemer</text><rect fill="#DDDDDD" height="944.0391" style="stroke:#181818;stroke-width:0.5;" width="495.5249" x="273.5269" y="43.2969"/><text fill="#000000" font-family="sans-serif" font-size="13" font-weight="bold" lengthAdjust="spacing" textLength="24.8828" x="508.8479" y="55.3638">nID</text><rect fill="#ADD8E6" height="944.0391" style="stroke:#181818;stroke-width:0.5;" width="132.1914" x="811.0518" y="43.2969"/><text fill="#000000" font-family="sans-serif" font-size="13" font-weight="bold" lengthAdjust="spacing" textLength="85.8774" x="831.9458" y="55.3638">bronhouder</text><rect fill="#FFFFFF" height="706.0547" style="stroke:#181818;stroke-width:1;" width="10" x="79.5698" y="221.6875"/><rect fill="#A9A9A9" height="29.1328" style="stroke:#181818;stroke-width:1;" width="10" x="359.1943" y="392.3516"/><rect fill="#A9A9A9" height="410.8594" style="stroke:#181818;stroke-width:1;" width="10" x="495.7271" y="465.75"/><rect fill="#A9A9A9" height="158.6641" style="stroke:#181818;stroke-width:1;" width="10" x="500.7271" y="552.1484"/><rect fill="#A9A9A9" height="129.5313" style="stroke:#181818;stroke-width:1;" width="10" x="719.2192" y="552.1484"/><rect fill="#FFFFFF" height="86.3984" style="stroke:#181818;stroke-width:1;" width="10" x="872.1475" y="710.8125"/><line style="stroke:#181818;stroke-width:0.5;stroke-dasharray:5.0,5.0;" x1="84" x2="84" y1="110.0234" y2="936.7422"/><line style="stroke:#181818;stroke-width:0.5;stroke-dasharray:5.0,5.0;" x1="363.5269" x2="363.5269" y1="110.0234" y2="936.7422"/><line style="stroke:#181818;stroke-width:0.5;stroke-dasharray:5.0,5.0;" x1="499.8618" x2="499.8618" y1="110.0234" y2="936.7422"/><line style="stroke:#181818;stroke-width:0.5;stroke-dasharray:5.0,5.0;" x1="723.3867" x2="723.3867" y1="110.0234" y2="936.7422"/><line style="stroke:#181818;stroke-width:0.5;stroke-dasharray:5.0,5.0;" x1="877.0518" x2="877.0518" y1="110.0234" y2="936.7422"/><rect fill="#E2E2F0" height="30.2969" rx="2.5" ry="2.5" style="stroke:#181818;stroke-width:0.5;" width="79.1396" x="45" y="78.7266"/><text fill="#000000" font-family="sans-serif" font-size="14" lengthAdjust="spacing" textLength="65.1396" x="52" y="98.7217">Resource</text><rect fill="#E2E2F0" height="30.2969" rx="2.5" ry="2.5" style="stroke:#181818;stroke-width:0.5;" width="79.1396" x="45" y="935.7422"/><text fill="#000000" font-family="sans-serif" font-size="14" lengthAdjust="spacing" textLength="65.1396" x="52" y="955.7373">Resource</text><rect fill="#E2E2F0" height="30.2969" rx="2.5" ry="2.5" style="stroke:#181818;stroke-width:0.5;" width="133.335" x="297.5269" y="78.7266"/><text fill="#000000" font-family="sans-serif" font-size="14" lengthAdjust="spacing" textLength="119.335" x="304.5269" y="98.7217">autorisatieserver</text><rect fill="#E2E2F0" height="30.2969" rx="2.5" ry="2.5" style="stroke:#181818;stroke-width:0.5;" width="133.335" x="297.5269" y="935.7422"/><text fill="#000000" font-family="sans-serif" font-size="14" lengthAdjust="spacing" textLength="119.335" x="304.5269" y="955.7373">autorisatieserver</text><rect fill="#E2E2F0" height="30.2969" rx="2.5" ry="2.5" style="stroke:#181818;stroke-width:0.5;" width="39.7305" x="480.8618" y="78.7266"/><text fill="#000000" font-family="sans-serif" font-size="14" lengthAdjust="spacing" textLength="25.7305" x="487.8618" y="98.7217">PEP</text><rect fill="#E2E2F0" height="30.2969" rx="2.5" ry="2.5" style="stroke:#181818;stroke-width:0.5;" width="39.7305" x="480.8618" y="935.7422"/><text fill="#000000" font-family="sans-serif" font-size="14" lengthAdjust="spacing" textLength="25.7305" x="487.8618" y="955.7373">PEP</text><rect fill="#E2E2F0" height="30.2969" rx="2.5" ry="2.5" style="stroke:#181818;stroke-width:0.5;" width="41.665" x="703.3867" y="78.7266"/><text fill="#000000" font-family="sans-serif" font-size="14" lengthAdjust="spacing" textLength="27.665" x="710.3867" y="98.7217">PDP</text><rect fill="#E2E2F0" height="30.2969" rx="2.5" ry="2.5" style="stroke:#181818;stroke-width:0.5;" width="41.665" x="703.3867" y="935.7422"/><text fill="#000000" font-family="sans-serif" font-size="14" lengthAdjust="spacing" textLength="27.665" x="710.3867" y="955.7373">PDP</text><rect fill="#E2E2F0" height="46.5938" rx="2.5" ry="2.5" style="stroke:#181818;stroke-width:0.5;" width="84.1914" x="835.0518" y="62.4297"/><text fill="#000000" font-family="sans-serif" font-size="14" lengthAdjust="spacing" textLength="70.1914" x="842.0518" y="82.4248">Resource-</text><text fill="#000000" font-family="sans-serif" font-size="14" lengthAdjust="spacing" textLength="45.9102" x="854.1924" y="98.7217">Server</text><rect fill="#E2E2F0" height="46.5938" rx="2.5" ry="2.5" style="stroke:#181818;stroke-width:0.5;" width="84.1914" x="835.0518" y="935.7422"/><text fill="#000000" font-family="sans-serif" font-size="14" lengthAdjust="spacing" textLength="70.1914" x="842.0518" y="955.7373">Resource-</text><text fill="#000000" font-family="sans-serif" font-size="14" lengthAdjust="spacing" textLength="45.9102" x="854.1924" y="972.0342">Server</text><rect fill="#FFFFFF" height="706.0547" style="stroke:#181818;stroke-width:1;" width="10" x="79.5698" y="221.6875"/><rect fill="#A9A9A9" height="29.1328" style="stroke:#181818;stroke-width:1;" width="10" x="359.1943" y="392.3516"/><rect fill="#A9A9A9" height="410.8594" style="stroke:#181818;stroke-width:1;" width="10" x="495.7271" y="465.75"/><rect fill="#A9A9A9" height="158.6641" style="stroke:#181818;stroke-width:1;" width="10" x="500.7271" y="552.1484"/><rect fill="#A9A9A9" height="129.5313" style="stroke:#181818;stroke-width:1;" width="10" x="719.2192" y="552.1484"/><rect fill="#FFFFFF" height="86.3984" style="stroke:#181818;stroke-width:1;" width="10" x="872.1475" y="710.8125"/><path d="M340,125.0234 L340,195.0234 L661,195.0234 L661,135.0234 L651,125.0234 L340,125.0234 " fill="#90EE90" style="stroke:#181818;stroke-width:0.5;"/><path d="M651,125.0234 L651,135.0234 L661,135.0234 L651,125.0234 " fill="#90EE90" style="stroke:#181818;stroke-width:0.5;"/><text fill="#000000" font-family="sans-serif" font-size="13" lengthAdjust="spacing" textLength="225.1323" x="346" y="142.0903">Het autorisatie en validatie-proces</text><text fill="#000000" font-family="sans-serif" font-size="13" lengthAdjust="spacing" textLength="168.9873" x="346" y="157.2231">is beschreven in RFC0014</text><text fill="#000000" font-family="sans-serif" font-size="13" lengthAdjust="spacing" textLength="295.8896" x="346" y="172.356">Functionele uitwerking aanvragen autorisatie</text><text fill="#000000" font-family="sans-serif" font-size="13" lengthAdjust="spacing" textLength="69.2402" x="346" y="187.4888">(oAuth2.0)</text><polygon fill="#181818" points="100.5698,217.6875,90.5698,221.6875,100.5698,225.6875,96.5698,221.6875" style="stroke:#181818;stroke-width:1;"/><ellipse cx="876.6475" cy="220.9375" fill="#000000" rx="4" ry="4" style="stroke:#181818;stroke-width:1.5;"/><line style="stroke:#181818;stroke-width:1;" x1="94.5698" x2="872.1475" y1="221.6875" y2="221.6875"/><text fill="#000000" font-family="sans-serif" font-size="13" font-weight="bold" lengthAdjust="spacing" textLength="184.9453" x="106.5698" y="216.6216">ontvang data uit register</text><line style="stroke:#181818;stroke-width:1;" x1="89.5698" x2="131.5698" y1="250.8203" y2="250.8203"/><line style="stroke:#181818;stroke-width:1;" x1="131.5698" x2="131.5698" y1="250.8203" y2="263.8203"/><line style="stroke:#181818;stroke-width:1;" x1="90.5698" x2="131.5698" y1="263.8203" y2="263.8203"/><polygon fill="#181818" points="100.5698,259.8203,90.5698,263.8203,100.5698,267.8203,96.5698,263.8203" style="stroke:#181818;stroke-width:1;"/><text fill="#000000" font-family="sans-serif" font-size="13" font-weight="bold" lengthAdjust="spacing" textLength="97.1001" x="96.5698" y="245.7544">valideer data</text><line style="stroke:#181818;stroke-width:1;" x1="89.5698" x2="131.5698" y1="292.9531" y2="292.9531"/><line style="stroke:#181818;stroke-width:1;" x1="131.5698" x2="131.5698" y1="292.9531" y2="305.9531"/><line style="stroke:#181818;stroke-width:1;" x1="102.5698" x2="131.5698" y1="305.9531" y2="305.9531"/><line style="stroke:#181818;stroke-width:2;" x1="95.5698" x2="105.5698" y1="300.9531" y2="310.9531"/><line style="stroke:#181818;stroke-width:2;" x1="95.5698" x2="105.5698" y1="310.9531" y2="300.9531"/><text fill="#000000" font-family="sans-serif" font-size="13" font-weight="bold" lengthAdjust="spacing" textLength="118.771" x="96.5698" y="287.8872">bepaal foutcode</text><line style="stroke:#181818;stroke-width:1;" x1="89.5698" x2="131.5698" y1="335.0859" y2="335.0859"/><line style="stroke:#181818;stroke-width:1;" x1="131.5698" x2="131.5698" y1="335.0859" y2="348.0859"/><line style="stroke:#181818;stroke-width:1;" x1="90.5698" x2="131.5698" y1="348.0859" y2="348.0859"/><polygon fill="#181818" points="100.5698,344.0859,90.5698,348.0859,100.5698,352.0859,96.5698,348.0859" style="stroke:#181818;stroke-width:1;"/><text fill="#000000" font-family="sans-serif" font-size="13" font-weight="bold" lengthAdjust="spacing" textLength="228.6489" x="96.5698" y="330.02">genereer GraphQL foutmelding</text><polygon fill="#181818" points="347.1943,388.3516,357.1943,392.3516,347.1943,396.3516,351.1943,392.3516" style="stroke:#181818;stroke-width:1;"/><line style="stroke:#181818;stroke-width:1;" x1="89.5698" x2="353.1943" y1="392.3516" y2="392.3516"/><text fill="#000000" font-family="sans-serif" font-size="13" lengthAdjust="spacing" textLength="172.415" x="96.5698" y="372.1528">Aanvragen van autorisatie</text><text fill="#000000" font-family="sans-serif" font-size="13" lengthAdjust="spacing" textLength="250.6245" x="96.5698" y="387.2856">"scope": "..meldingen/melding:create"</text><polygon fill="#181818" points="100.5698,417.4844,90.5698,421.4844,100.5698,425.4844,96.5698,421.4844" style="stroke:#181818;stroke-width:1;"/><line style="stroke:#181818;stroke-width:1;stroke-dasharray:2.0,2.0;" x1="94.5698" x2="363.1943" y1="421.4844" y2="421.4844"/><text fill="#000000" font-family="sans-serif" font-size="13" lengthAdjust="spacing" textLength="224.085" x="106.5698" y="416.4185">200 Response (JWT Access-Token)</text><polygon fill="#181818" points="483.7271,461.75,493.7271,465.75,483.7271,469.75,487.7271,465.75" style="stroke:#181818;stroke-width:1;"/><line style="stroke:#181818;stroke-width:1;" x1="89.5698" x2="489.7271" y1="465.75" y2="465.75"/><text fill="#000000" font-family="sans-serif" font-size="13" font-weight="bold" lengthAdjust="spacing" textLength="128.4321" x="96.5698" y="445.5513">GraphQL Request</text><text fill="#000000" font-family="sans-serif" font-size="13" lengthAdjust="spacing" textLength="366.2788" x="96.5698" y="460.6841">Authenticatiemiddel + JWT Access-Token + foutmelding</text><line style="stroke:#181818;stroke-width:1;" x1="505.7271" x2="547.7271" y1="510.0156" y2="510.0156"/><line style="stroke:#181818;stroke-width:1;" x1="547.7271" x2="547.7271" y1="510.0156" y2="523.0156"/><line style="stroke:#181818;stroke-width:1;" x1="506.7271" x2="547.7271" y1="523.0156" y2="523.0156"/><polygon fill="#181818" points="516.7271,519.0156,506.7271,523.0156,516.7271,527.0156,512.7271,523.0156" style="stroke:#181818;stroke-width:1;"/><text fill="#000000" font-family="sans-serif" font-size="13" lengthAdjust="spacing" textLength="165.4136" x="512.7271" y="489.8169">Valideer Authenticatie en</text><text fill="#000000" font-family="sans-serif" font-size="13" lengthAdjust="spacing" textLength="44.7319" x="512.7271" y="504.9497">Access</text><polygon fill="#181818" points="707.2192,548.1484,717.2192,552.1484,707.2192,556.1484,711.2192,552.1484" style="stroke:#181818;stroke-width:1;"/><line style="stroke:#181818;stroke-width:1;" x1="510.7271" x2="713.2192" y1="552.1484" y2="552.1484"/><text fill="#000000" font-family="sans-serif" font-size="13" lengthAdjust="spacing" textLength="194.4922" x="517.7271" y="547.0825">GraphQL met policy valideren</text><line style="stroke:#181818;stroke-width:1;" x1="729.2192" x2="771.2192" y1="581.2813" y2="581.2813"/><line style="stroke:#181818;stroke-width:1;" x1="771.2192" x2="771.2192" y1="581.2813" y2="594.2813"/><line style="stroke:#181818;stroke-width:1;" x1="730.2192" x2="771.2192" y1="594.2813" y2="594.2813"/><polygon fill="#181818" points="740.2192,590.2813,730.2192,594.2813,740.2192,598.2813,736.2192,594.2813" style="stroke:#181818;stroke-width:1;"/><text fill="#000000" font-family="sans-serif" font-size="13" lengthAdjust="spacing" textLength="107.7261" x="736.2192" y="576.2153">Valideer graphql</text><polygon fill="#FF0000" points="100.5698,619.4141,90.5698,623.4141,100.5698,627.4141,96.5698,623.4141" style="stroke:#FF0000;stroke-width:1;"/><line style="stroke:#FF0000;stroke-width:2;" x1="701.2192" x2="711.2192" y1="618.4141" y2="628.4141"/><line style="stroke:#FF0000;stroke-width:2;" x1="701.2192" x2="711.2192" y1="628.4141" y2="618.4141"/><line style="stroke:#FF0000;stroke-width:1;stroke-dasharray:2.0,2.0;" x1="94.5698" x2="706.2192" y1="623.4141" y2="623.4141"/><text fill="#FF0000" font-family="sans-serif" font-size="13" font-weight="bold" lengthAdjust="spacing" textLength="29.9736" x="106.5698" y="618.3481">[01]</text><text fill="#FF0000" font-family="sans-serif" font-size="13" lengthAdjust="spacing" textLength="111.6045" x="144.6758" y="618.3481">400 Bad Request</text><polygon fill="#FF0000" points="100.5698,648.5469,90.5698,652.5469,100.5698,656.5469,96.5698,652.5469" style="stroke:#FF0000;stroke-width:1;"/><line style="stroke:#FF0000;stroke-width:2;" x1="701.2192" x2="711.2192" y1="647.5469" y2="657.5469"/><line style="stroke:#FF0000;stroke-width:2;" x1="701.2192" x2="711.2192" y1="657.5469" y2="647.5469"/><line style="stroke:#FF0000;stroke-width:1;stroke-dasharray:2.0,2.0;" x1="94.5698" x2="706.2192" y1="652.5469" y2="652.5469"/><text fill="#FF0000" font-family="sans-serif" font-size="13" font-weight="bold" lengthAdjust="spacing" textLength="29.9736" x="106.5698" y="647.481">[02]</text><text fill="#FF0000" font-family="sans-serif" font-size="13" lengthAdjust="spacing" textLength="321.3755" x="144.6758" y="647.481">400 Bad Request: GRAPHQL_VALIDATION_FAILED</text><polygon fill="#181818" points="521.7271,677.6797,511.7271,681.6797,521.7271,685.6797,517.7271,681.6797" style="stroke:#181818;stroke-width:1;"/><line style="stroke:#181818;stroke-width:1;stroke-dasharray:2.0,2.0;" x1="515.7271" x2="723.2192" y1="681.6797" y2="681.6797"/><text fill="#000000" font-family="sans-serif" font-size="13" lengthAdjust="spacing" textLength="105.8979" x="527.7271" y="676.6138">Graphql allowed</text><polygon fill="#181818" points="860.1475,706.8125,870.1475,710.8125,860.1475,714.8125,864.1475,710.8125" style="stroke:#181818;stroke-width:1;"/><line style="stroke:#181818;stroke-width:1;" x1="505.7271" x2="866.1475" y1="710.8125" y2="710.8125"/><text fill="#000000" font-family="sans-serif" font-size="13" font-weight="bold" lengthAdjust="spacing" textLength="162.9316" x="512.7271" y="705.7466">[05] GraphQL Request</text><line style="stroke:#181818;stroke-width:1;" x1="882.1475" x2="924.1475" y1="755.0781" y2="755.0781"/><line style="stroke:#181818;stroke-width:1;" x1="924.1475" x2="924.1475" y1="755.0781" y2="768.0781"/><line style="stroke:#181818;stroke-width:1;" x1="883.1475" x2="924.1475" y1="768.0781" y2="768.0781"/><polygon fill="#181818" points="893.1475,764.0781,883.1475,768.0781,893.1475,772.0781,889.1475,768.0781" style="stroke:#181818;stroke-width:1;"/><text fill="#000000" font-family="sans-serif" font-size="13" font-weight="bold" lengthAdjust="spacing" textLength="60.2075" x="889.1475" y="734.8794">ontvang</text><text fill="#000000" font-family="sans-serif" font-size="13" font-weight="bold" lengthAdjust="spacing" textLength="59.1411" x="889.1475" y="750.0122">melding</text><polygon fill="#181818" points="516.7271,793.2109,506.7271,797.2109,516.7271,801.2109,512.7271,797.2109" style="stroke:#181818;stroke-width:1;"/><line style="stroke:#181818;stroke-width:1;stroke-dasharray:2.0,2.0;" x1="510.7271" x2="876.1475" y1="797.2109" y2="797.2109"/><text fill="#000000" font-family="sans-serif" font-size="13" font-weight="bold" lengthAdjust="spacing" textLength="166.9497" x="522.7271" y="792.145">GraphQL 200 response</text><path d="M658,810.2109 L658,850.2109 L943,850.2109 L943,820.2109 L933,810.2109 L658,810.2109 " fill="#FFC0CB" style="stroke:#181818;stroke-width:0.5;"/><path d="M933,810.2109 L933,820.2109 L943,820.2109 L933,810.2109 " fill="#FFC0CB" style="stroke:#181818;stroke-width:0.5;"/><text fill="#000000" font-family="sans-serif" font-size="13" lengthAdjust="spacing" textLength="192.9497" x="664" y="827.2778">Er komt een nieuwe RFC voor</text><text fill="#000000" font-family="sans-serif" font-size="13" lengthAdjust="spacing" textLength="264.1641" x="664" y="842.4106">foutafhandeling door de GraphQL-server</text><polygon fill="#181818" points="100.5698,872.6094,90.5698,876.6094,100.5698,880.6094,96.5698,876.6094" style="stroke:#181818;stroke-width:1;"/><line style="stroke:#181818;stroke-width:1;stroke-dasharray:2.0,2.0;" x1="94.5698" x2="499.7271" y1="876.6094" y2="876.6094"/><text fill="#000000" font-family="sans-serif" font-size="13" lengthAdjust="spacing" textLength="149.7603" x="106.5698" y="871.5435">GraphQL 200 response</text><line style="stroke:#181818;stroke-width:1;stroke-dasharray:2.0,2.0;" x1="89.5698" x2="131.5698" y1="905.7422" y2="905.7422"/><line style="stroke:#181818;stroke-width:1;stroke-dasharray:2.0,2.0;" x1="131.5698" x2="131.5698" y1="905.7422" y2="918.7422"/><line style="stroke:#181818;stroke-width:1;stroke-dasharray:2.0,2.0;" x1="90.5698" x2="131.5698" y1="918.7422" y2="918.7422"/><polygon fill="#181818" points="100.5698,914.7422,90.5698,918.7422,100.5698,922.7422,96.5698,918.7422" style="stroke:#181818;stroke-width:1;"/><text fill="#000000" font-family="sans-serif" font-size="13" lengthAdjust="spacing" textLength="206.4321" x="96.5698" y="900.6763">verwerk GraphQL 200 response</text><!--SRC=[fLLjJzim4FwUNt5Alq2ti0wnBn52wXPUEg6j5CGcKOJS-6YjfdQmdHRswtTEazG9R9gqVcZjUtdkdhlprGgR8QmmuqBEmU1JWJB5Y0isrsm5xm2rLZemIo5pvYGB9lb62sjHmYFB37ew-hOY5JcJDcUyH3mSUFgPUlRa0Ls18sOILwYXbudvmhvWbgbD03uMX1Cqgj0fXi0Cr9S09NUGMw1GZfAmwySAgxGmp0eqgDUeIu1XOHU_hijxrs5yEYvDwFULAgbKoRWTUQQLNAY2DnncMO5_OX1DvVKk4v9MUJI8Kba4HIANGmKuruWoXWkqu342wi2QPOAxIvHhbQA1gHG6PcZIXSOr6GW9axClWy778rAT5JArGacabXV2Rb0lNIyOaslDvcJjeq_bddALEZmOx4CG14skeAAJfWan7CzEbBHhHa2K2NF0e74kZ2LQZEAj6J6gxO4AqvoxE2KRf0WEg6Nul3kNbZFC6SlWKHKsLHp_1agyK3lGSytonTLbwLGDVD1nz2OZXc5J5YBdbsOgGvEg7CCOmeE32WhbX-eKfng9SkYe0ZGLyB2Xbp2zfAw-b2RkusiZZm9TOdei0oV8bJG8Urz_tC0mfMQRw4OjKUvl0t5yArI78CrK3Fr-NOg9U-_6acGgdHDAcbX7SIKunuoUVpSOYJhrQwAMyzeG8uqJr35lwzQsmhWHfiWblkUGa4ETueg6FbUPI5-smqwzbEt2jkDkoxbJ9g-LJbQ7QVAQktXFMTCGrszPh6Qa2ezJbIaTQ-GdD51tWy5zsDXvzJsExdfaSn_zt69xRd14BVpCU5tn_tIdyao6uukhouVRuUKe6TwCldzxE1kEBa-J2lKj7iQgF6WKPHNgzfnlsGDpsnTvPUIDbDjwbT-sISqwSFDqD_Xq3vsXwlUxO-cMQhjrk_rNLQ9-0IryRyDC9LtguUlur5p8eax5FHnTFPnkDktOtjfDnkyzs5ukv3A6KmrBjR90YnYam6A3Rg_2MYbDIRadmHxTNoDcRgDo9-POboGokq1b-Lexwb-ITLv1QrhQ68JkjlcRMBy1]--></g></svg>