<?xml version="1.0" encoding="us-ascii" standalone="no"?><svg xmlns="http://www.w3.org/2000/svg" xmlns:xlink="http://www.w3.org/1999/xlink" contentStyleType="text/css" height="460px" preserveAspectRatio="none" style="width:883px;height:460px;background:#FFFFFF;" version="1.1" viewBox="0 0 883 460" width="883px" zoomAndPan="magnify"><defs/><g><text fill="#000000" font-family="sans-serif" font-size="14" font-weight="bold" lengthAdjust="spacing" textLength="244" x="333.5" y="27.9951">notificatie sequencie-diagram</text><rect fill="#ADD8E6" height="411.0547" style="stroke:#181818;stroke-width:0.5;" width="439" x="41" y="43.2969"/><text fill="#000000" font-family="sans-serif" font-size="13" font-weight="bold" lengthAdjust="spacing" textLength="88" x="214" y="55.3638">bronhouder</text><rect fill="#FFFFE0" height="411.0547" style="stroke:#181818;stroke-width:0.5;" width="309" x="562" y="43.2969"/><text fill="#000000" font-family="sans-serif" font-size="13" font-weight="bold" lengthAdjust="spacing" textLength="79" x="674.5" y="55.3638">deelnemer</text><rect fill="#FFFFFF" height="246.0625" style="stroke:#181818;stroke-width:1.0;" width="10" x="105.5" y="148.9922"/><rect fill="#FFFFFF" height="71.2656" style="stroke:#181818;stroke-width:1.0;" width="10" x="254.5" y="148.9922"/><rect fill="#FFFFFF" height="145.6641" style="stroke:#181818;stroke-width:1.0;" width="10" x="396.5" y="249.3906"/><rect fill="#FFFFFF" height="87.3984" style="stroke:#181818;stroke-width:1.0;" width="10" x="635.5" y="278.5234"/><rect fill="#FFFFFF" height="29.1328" style="stroke:#181818;stroke-width:1.0;" width="10" x="796.5" y="307.6563"/><rect fill="none" height="292.3281" style="stroke:#000000;stroke-width:1.5;" width="842" x="35" y="110.7266"/><line style="stroke:#181818;stroke-width:0.5;stroke-dasharray:5.0,5.0;" x1="110" x2="110" y1="93.7266" y2="420.0547"/><line style="stroke:#181818;stroke-width:0.5;stroke-dasharray:5.0,5.0;" x1="259" x2="259" y1="93.7266" y2="420.0547"/><line style="stroke:#181818;stroke-width:0.5;stroke-dasharray:5.0,5.0;" x1="401" x2="401" y1="93.7266" y2="420.0547"/><line style="stroke:#181818;stroke-width:0.5;stroke-dasharray:5.0,5.0;" x1="640" x2="640" y1="93.7266" y2="420.0547"/><line style="stroke:#181818;stroke-width:0.5;stroke-dasharray:5.0,5.0;" x1="801" x2="801" y1="93.7266" y2="420.0547"/><rect fill="#E2E2F0" height="30.2969" rx="2.5" ry="2.5" style="stroke:#181818;stroke-width:0.5;" width="91" x="65" y="62.4297"/><text fill="#000000" font-family="sans-serif" font-size="14" lengthAdjust="spacing" textLength="77" x="72" y="82.4248">Backoffice</text><rect fill="#E2E2F0" height="30.2969" rx="2.5" ry="2.5" style="stroke:#181818;stroke-width:0.5;" width="91" x="65" y="419.0547"/><text fill="#000000" font-family="sans-serif" font-size="14" lengthAdjust="spacing" textLength="77" x="72" y="439.0498">Backoffice</text><rect fill="#E2E2F0" height="30.2969" rx="2.5" ry="2.5" style="stroke:#181818;stroke-width:0.5;" width="75" x="222" y="62.4297"/><text fill="#000000" font-family="sans-serif" font-size="14" lengthAdjust="spacing" textLength="61" x="229" y="82.4248">Register</text><rect fill="#E2E2F0" height="30.2969" rx="2.5" ry="2.5" style="stroke:#181818;stroke-width:0.5;" width="75" x="222" y="419.0547"/><text fill="#000000" font-family="sans-serif" font-size="14" lengthAdjust="spacing" textLength="61" x="229" y="439.0498">Register</text><rect fill="#E2E2F0" height="30.2969" rx="2.5" ry="2.5" style="stroke:#181818;stroke-width:0.5;" width="109" x="347" y="62.4297"/><text fill="#000000" font-family="sans-serif" font-size="14" lengthAdjust="spacing" textLength="95" x="354" y="82.4248">Netwerkpunt</text><rect fill="#E2E2F0" height="30.2969" rx="2.5" ry="2.5" style="stroke:#181818;stroke-width:0.5;" width="109" x="347" y="419.0547"/><text fill="#000000" font-family="sans-serif" font-size="14" lengthAdjust="spacing" textLength="95" x="354" y="439.0498">Netwerkpunt</text><rect fill="#E2E2F0" height="30.2969" rx="2.5" ry="2.5" style="stroke:#181818;stroke-width:0.5;" width="109" x="586" y="62.4297"/><text fill="#000000" font-family="sans-serif" font-size="14" lengthAdjust="spacing" textLength="95" x="593" y="82.4248">Netwerkpunt</text><rect fill="#E2E2F0" height="30.2969" rx="2.5" ry="2.5" style="stroke:#181818;stroke-width:0.5;" width="109" x="586" y="419.0547"/><text fill="#000000" font-family="sans-serif" font-size="14" lengthAdjust="spacing" textLength="95" x="593" y="439.0498">Netwerkpunt</text><rect fill="#E2E2F0" height="30.2969" rx="2.5" ry="2.5" style="stroke:#181818;stroke-width:0.5;" width="91" x="756" y="62.4297"/><text fill="#000000" font-family="sans-serif" font-size="14" lengthAdjust="spacing" textLength="77" x="763" y="82.4248">Backoffice</text><rect fill="#E2E2F0" height="30.2969" rx="2.5" ry="2.5" style="stroke:#181818;stroke-width:0.5;" width="91" x="756" y="419.0547"/><text fill="#000000" font-family="sans-serif" font-size="14" lengthAdjust="spacing" textLength="77" x="763" y="439.0498">Backoffice</text><rect fill="#FFFFFF" height="246.0625" style="stroke:#181818;stroke-width:1.0;" width="10" x="105.5" y="148.9922"/><rect fill="#FFFFFF" height="71.2656" style="stroke:#181818;stroke-width:1.0;" width="10" x="254.5" y="148.9922"/><rect fill="#FFFFFF" height="145.6641" style="stroke:#181818;stroke-width:1.0;" width="10" x="396.5" y="249.3906"/><rect fill="#FFFFFF" height="87.3984" style="stroke:#181818;stroke-width:1.0;" width="10" x="635.5" y="278.5234"/><rect fill="#FFFFFF" height="29.1328" style="stroke:#181818;stroke-width:1.0;" width="10" x="796.5" y="307.6563"/><path d="M35,110.7266 L164,110.7266 L164,117.8594 L154,127.8594 L35,127.8594 L35,110.7266 " fill="#EEEEEE" style="stroke:#000000;stroke-width:1.5;"/><rect fill="none" height="292.3281" style="stroke:#000000;stroke-width:1.5;" width="842" x="35" y="110.7266"/><text fill="#000000" font-family="sans-serif" font-size="13" font-weight="bold" lengthAdjust="spacing" textLength="84" x="50" y="123.7935">notificeren</text><polygon fill="#181818" points="242.5,144.9922,252.5,148.9922,242.5,152.9922,246.5,148.9922" style="stroke:#181818;stroke-width:1.0;"/><line style="stroke:#181818;stroke-width:1.0;" x1="115.5" x2="248.5" y1="148.9922" y2="148.9922"/><text fill="#000000" font-family="sans-serif" font-size="13" font-weight="bold" lengthAdjust="spacing" textLength="9" x="122.5" y="143.9263">1</text><text fill="#000000" font-family="sans-serif" font-size="13" lengthAdjust="spacing" textLength="98" x="135.5" y="143.9263">registratie data</text><line style="stroke:#181818;stroke-width:1.0;" x1="264.5" x2="306.5" y1="178.125" y2="178.125"/><line style="stroke:#181818;stroke-width:1.0;" x1="306.5" x2="306.5" y1="178.125" y2="191.125"/><line style="stroke:#181818;stroke-width:1.0;" x1="265.5" x2="306.5" y1="191.125" y2="191.125"/><polygon fill="#181818" points="275.5,187.125,265.5,191.125,275.5,195.125,271.5,191.125" style="stroke:#181818;stroke-width:1.0;"/><text fill="#000000" font-family="sans-serif" font-size="13" font-weight="bold" lengthAdjust="spacing" textLength="9" x="271.5" y="173.0591">2</text><text fill="#000000" font-family="sans-serif" font-size="13" lengthAdjust="spacing" textLength="83" x="284.5" y="173.0591">event trigger</text><polygon fill="#181818" points="126.5,216.2578,116.5,220.2578,126.5,224.2578,122.5,220.2578" style="stroke:#181818;stroke-width:1.0;"/><line style="stroke:#181818;stroke-width:1.0;" x1="120.5" x2="258.5" y1="220.2578" y2="220.2578"/><text fill="#000000" font-family="sans-serif" font-size="13" font-weight="bold" lengthAdjust="spacing" textLength="8" x="132.5" y="215.1919">3</text><text fill="#000000" font-family="sans-serif" font-size="13" lengthAdjust="spacing" textLength="103" x="144.5" y="215.1919">lookup Abonnee</text><polygon fill="#181818" points="384.5,245.3906,394.5,249.3906,384.5,253.3906,388.5,249.3906" style="stroke:#181818;stroke-width:1.0;"/><line style="stroke:#181818;stroke-width:1.0;" x1="115.5" x2="390.5" y1="249.3906" y2="249.3906"/><text fill="#000000" font-family="sans-serif" font-size="13" font-weight="bold" lengthAdjust="spacing" textLength="9" x="122.5" y="244.3247">4</text><text fill="#000000" font-family="sans-serif" font-size="13" lengthAdjust="spacing" textLength="125" x="135.5" y="244.3247">genereer notificatie</text><polygon fill="#181818" points="623.5,274.5234,633.5,278.5234,623.5,282.5234,627.5,278.5234" style="stroke:#181818;stroke-width:1.0;"/><line style="stroke:#181818;stroke-width:1.0;" x1="406.5" x2="629.5" y1="278.5234" y2="278.5234"/><text fill="#000000" font-family="sans-serif" font-size="13" font-weight="bold" lengthAdjust="spacing" textLength="9" x="413.5" y="273.4575">5</text><text fill="#000000" font-family="sans-serif" font-size="13" lengthAdjust="spacing" textLength="60" x="426.5" y="273.4575">notificeer</text><polygon fill="#181818" points="784.5,303.6563,794.5,307.6563,784.5,311.6563,788.5,307.6563" style="stroke:#181818;stroke-width:1.0;"/><line style="stroke:#181818;stroke-width:1.0;" x1="645.5" x2="790.5" y1="307.6563" y2="307.6563"/><text fill="#000000" font-family="sans-serif" font-size="13" font-weight="bold" lengthAdjust="spacing" textLength="9" x="652.5" y="302.5903">6</text><text fill="#000000" font-family="sans-serif" font-size="13" lengthAdjust="spacing" textLength="119" x="665.5" y="302.5903">verwerk notificatie</text><polygon fill="#181818" points="656.5,332.7891,646.5,336.7891,656.5,340.7891,652.5,336.7891" style="stroke:#181818;stroke-width:1.0;"/><line style="stroke:#181818;stroke-width:1.0;stroke-dasharray:2.0,2.0;" x1="650.5" x2="800.5" y1="336.7891" y2="336.7891"/><text fill="#000000" font-family="sans-serif" font-size="13" font-weight="bold" lengthAdjust="spacing" textLength="9" x="662.5" y="331.7231">7</text><text fill="#000000" font-family="sans-serif" font-size="13" lengthAdjust="spacing" textLength="90" x="675.5" y="331.7231">http-response</text><polygon fill="#181818" points="417.5,361.9219,407.5,365.9219,417.5,369.9219,413.5,365.9219" style="stroke:#181818;stroke-width:1.0;"/><line style="stroke:#181818;stroke-width:1.0;stroke-dasharray:2.0,2.0;" x1="411.5" x2="639.5" y1="365.9219" y2="365.9219"/><text fill="#000000" font-family="sans-serif" font-size="13" font-weight="bold" lengthAdjust="spacing" textLength="9" x="423.5" y="360.856">8</text><text fill="#000000" font-family="sans-serif" font-size="13" lengthAdjust="spacing" textLength="90" x="436.5" y="360.856">http-response</text><polygon fill="#181818" points="121.5,391.0547,111.5,395.0547,121.5,399.0547,117.5,395.0547" style="stroke:#181818;stroke-width:1.0;"/><line style="stroke:#181818;stroke-width:1.0;stroke-dasharray:2.0,2.0;" x1="115.5" x2="400.5" y1="395.0547" y2="395.0547"/><text fill="#000000" font-family="sans-serif" font-size="13" font-weight="bold" lengthAdjust="spacing" textLength="9" x="127.5" y="389.9888">9</text><text fill="#000000" font-family="sans-serif" font-size="13" lengthAdjust="spacing" textLength="115" x="140.5" y="389.9888">verwerk response</text><!--SRC=[VPB1JiCm38RlUGeBpfC6ujG34Zm01zuWQRmqQkQ4nDtWxN6oTKeHsgLgy__-_TafUmu85DaV_AZP8nJyMf16ZplhjSlwgChiAMbvWqcJFMVFZ0G77GfscZpPZpvfugIjzUJWUT_f9dwlvozxfHUEj1mDPjZldvI8O7AaAIvMZXw3TnERiA3gOk7XNOzpF0WfFe0kOCfM_aJd2sDkOdPRyGFvZ7bE2_6bc18e95l1L0EmY87mUEl_Wo74y_qKI-akeXN6jOdBSKdhhZ4ZAGKo0-nU1HO6o0q_jrkmchMeUcH_qenrckvBGg7MjCe1y8JIchDt3hDIDqso1mWnpjBspKGYHD4iRbCl1BAE0HoISCa2kXz2mQQpp0lrfAvFocmjMqUIvftLDgkz-amPu8IvBc-RtXMqiMpbMPCdvhJBM5AaWh25lzfh_ig_iVznDngpkZkQ__sNGVk3Tf6_]--></g></svg>