<?xml version="1.0" encoding="us-ascii" standalone="no"?><svg xmlns="http://www.w3.org/2000/svg" xmlns:xlink="http://www.w3.org/1999/xlink" contentStyleType="text/css" height="468px" preserveAspectRatio="none" style="width:857px;height:468px;background:#FFFFFF;" version="1.1" viewBox="0 0 857 468" width="857px" zoomAndPan="magnify"><defs/><g><rect fill="#ADD8E6" height="456.3203" style="stroke:#181818;stroke-width:0.5;" width="445" x="41" y="6"/><text fill="#000000" font-family="sans-serif" font-size="13" font-weight="bold" lengthAdjust="spacing" textLength="88" x="217" y="18.0669">bronhouder</text><rect fill="#FFFFE0" height="456.3203" style="stroke:#181818;stroke-width:0.5;" width="128" x="635.5" y="6"/><text fill="#000000" font-family="sans-serif" font-size="13" font-weight="bold" lengthAdjust="spacing" textLength="79" x="657.5" y="18.0669">deelnemer</text><rect fill="#FFFFFF" height="29.1328" style="stroke:#181818;stroke-width:1.0;" width="10" x="97.5" y="284.4922"/><rect fill="#FFFFFF" height="182.7969" style="stroke:#181818;stroke-width:1.0;" width="10" x="402.5" y="213.2266"/><rect fill="#FFFFFF" height="308.4609" style="stroke:#181818;stroke-width:1.0;" width="10" x="694.5" y="87.5625"/><rect fill="none" height="308.4609" style="stroke:#000000;stroke-width:1.5;" width="816.5" x="35" y="102.5625"/><rect fill="#FFC0CB" height="46.2656" style="stroke:#000000;stroke-width:1.5;" width="446.5" x="323" y="357.7578"/><line style="stroke:#181818;stroke-width:0.5;stroke-dasharray:5.0,5.0;" x1="102" x2="102" y1="56.4297" y2="428.0234"/><line style="stroke:#181818;stroke-width:0.5;stroke-dasharray:5.0,5.0;" x1="246" x2="246" y1="56.4297" y2="428.0234"/><line style="stroke:#181818;stroke-width:0.5;stroke-dasharray:5.0,5.0;" x1="407" x2="407" y1="56.4297" y2="428.0234"/><line style="stroke:#181818;stroke-width:0.5;stroke-dasharray:5.0,5.0;" x1="699.5" x2="699.5" y1="56.4297" y2="428.0234"/><rect fill="#E2E2F0" height="30.2969" rx="2.5" ry="2.5" style="stroke:#181818;stroke-width:0.5;" width="75" x="65" y="25.1328"/><text fill="#000000" font-family="sans-serif" font-size="14" lengthAdjust="spacing" textLength="61" x="72" y="45.1279">Register</text><rect fill="#E2E2F0" height="30.2969" rx="2.5" ry="2.5" style="stroke:#181818;stroke-width:0.5;" width="75" x="65" y="427.0234"/><text fill="#000000" font-family="sans-serif" font-size="14" lengthAdjust="spacing" textLength="61" x="72" y="447.0186">Register</text><rect fill="#E2E2F0" height="30.2969" rx="2.5" ry="2.5" style="stroke:#181818;stroke-width:0.5;" width="113" x="190" y="25.1328"/><text fill="#000000" font-family="sans-serif" font-size="14" lengthAdjust="spacing" textLength="99" x="197" y="45.1279">Register-data</text><rect fill="#E2E2F0" height="30.2969" rx="2.5" ry="2.5" style="stroke:#181818;stroke-width:0.5;" width="113" x="190" y="427.0234"/><text fill="#000000" font-family="sans-serif" font-size="14" lengthAdjust="spacing" textLength="99" x="197" y="447.0186">Register-data</text><rect fill="#E2E2F0" height="30.2969" rx="2.5" ry="2.5" style="stroke:#181818;stroke-width:0.5;" width="109" x="353" y="25.1328"/><text fill="#000000" font-family="sans-serif" font-size="14" lengthAdjust="spacing" textLength="95" x="360" y="45.1279">Netwerkpunt</text><rect fill="#E2E2F0" height="30.2969" rx="2.5" ry="2.5" style="stroke:#181818;stroke-width:0.5;" width="109" x="353" y="427.0234"/><text fill="#000000" font-family="sans-serif" font-size="14" lengthAdjust="spacing" textLength="95" x="360" y="447.0186">Netwerkpunt</text><rect fill="#E2E2F0" height="30.2969" rx="2.5" ry="2.5" style="stroke:#181818;stroke-width:0.5;" width="80" x="659.5" y="25.1328"/><text fill="#000000" font-family="sans-serif" font-size="14" lengthAdjust="spacing" textLength="66" x="666.5" y="45.1279">Resource</text><rect fill="#E2E2F0" height="30.2969" rx="2.5" ry="2.5" style="stroke:#181818;stroke-width:0.5;" width="80" x="659.5" y="427.0234"/><text fill="#000000" font-family="sans-serif" font-size="14" lengthAdjust="spacing" textLength="66" x="666.5" y="447.0186">Resource</text><rect fill="#FFFFFF" height="29.1328" style="stroke:#181818;stroke-width:1.0;" width="10" x="97.5" y="284.4922"/><rect fill="#FFFFFF" height="182.7969" style="stroke:#181818;stroke-width:1.0;" width="10" x="402.5" y="213.2266"/><rect fill="#FFFFFF" height="308.4609" style="stroke:#181818;stroke-width:1.0;" width="10" x="694.5" y="87.5625"/><ellipse cx="246" cy="86.8125" fill="none" rx="4" ry="4" style="stroke:#181818;stroke-width:1.5;"/><polygon fill="#181818" points="682.5,83.5625,692.5,87.5625,682.5,91.5625,686.5,87.5625" style="stroke:#181818;stroke-width:1.0;"/><line style="stroke:#181818;stroke-width:1.0;" x1="250.5" x2="688.5" y1="87.5625" y2="87.5625"/><text fill="#000000" font-family="sans-serif" font-size="13" font-weight="bold" lengthAdjust="spacing" textLength="31" x="253.5" y="82.4966">[01]</text><text fill="#000000" font-family="sans-serif" font-size="13" lengthAdjust="spacing" textLength="75" x="288.5" y="82.4966">raadpleging</text><path d="M35,102.5625 L173,102.5625 L173,109.6953 L163,119.6953 L35,119.6953 L35,102.5625 " fill="#EEEEEE" style="stroke:#000000;stroke-width:1.5;"/><rect fill="none" height="308.4609" style="stroke:#000000;stroke-width:1.5;" width="816.5" x="35" y="102.5625"/><text fill="#000000" font-family="sans-serif" font-size="13" font-weight="bold" lengthAdjust="spacing" textLength="93" x="50" y="115.6294">fout melden</text><line style="stroke:#181818;stroke-width:1.0;" x1="704.5" x2="746.5" y1="155.9609" y2="155.9609"/><line style="stroke:#181818;stroke-width:1.0;" x1="746.5" x2="746.5" y1="155.9609" y2="168.9609"/><line style="stroke:#181818;stroke-width:1.0;" x1="705.5" x2="746.5" y1="168.9609" y2="168.9609"/><polygon fill="#181818" points="715.5,164.9609,705.5,168.9609,715.5,172.9609,711.5,168.9609" style="stroke:#181818;stroke-width:1.0;"/><text fill="#000000" font-family="sans-serif" font-size="13" font-weight="bold" lengthAdjust="spacing" textLength="31" x="711.5" y="143.3286">[02]</text><text fill="#000000" font-family="sans-serif" font-size="13" lengthAdjust="spacing" textLength="59" x="746.5" y="135.7622">iWlz-Fout</text><text fill="#000000" font-family="sans-serif" font-size="13" lengthAdjust="spacing" textLength="93" x="746.5" y="150.895">geconstateerd</text><polygon fill="#181818" points="423.5,209.2266,413.5,213.2266,423.5,217.2266,419.5,213.2266" style="stroke:#181818;stroke-width:1.0;"/><line style="stroke:#181818;stroke-width:1.0;" x1="417.5" x2="693.5" y1="213.2266" y2="213.2266"/><text fill="#000000" font-family="sans-serif" font-size="13" font-weight="bold" lengthAdjust="spacing" textLength="30" x="429.5" y="200.5942">[03]</text><text fill="#000000" font-family="sans-serif" font-size="13" lengthAdjust="spacing" textLength="143" x="463.5" y="193.0278">iWlz-Foutmelding naar</text><text fill="#000000" font-family="sans-serif" font-size="13" lengthAdjust="spacing" textLength="74" x="463.5" y="208.1606">bronhouder</text><line style="stroke:#181818;stroke-width:1.0;" x1="412.5" x2="454.5" y1="242.3594" y2="242.3594"/><line style="stroke:#181818;stroke-width:1.0;" x1="454.5" x2="454.5" y1="242.3594" y2="255.3594"/><line style="stroke:#181818;stroke-width:1.0;" x1="413.5" x2="454.5" y1="255.3594" y2="255.3594"/><polygon fill="#181818" points="423.5,251.3594,413.5,255.3594,423.5,259.3594,419.5,255.3594" style="stroke:#181818;stroke-width:1.0;"/><text fill="#000000" font-family="sans-serif" font-size="13" font-weight="bold" lengthAdjust="spacing" textLength="31" x="419.5" y="237.2935">[04]</text><text fill="#000000" font-family="sans-serif" font-size="13" lengthAdjust="spacing" textLength="116" x="454.5" y="237.2935">valideer inzending</text><polygon fill="#181818" points="118.5,280.4922,108.5,284.4922,118.5,288.4922,114.5,284.4922" style="stroke:#181818;stroke-width:1.0;"/><line style="stroke:#181818;stroke-width:1.0;" x1="112.5" x2="401.5" y1="284.4922" y2="284.4922"/><text fill="#000000" font-family="sans-serif" font-size="13" font-weight="bold" lengthAdjust="spacing" textLength="31" x="124.5" y="279.4263">[05]</text><text fill="#000000" font-family="sans-serif" font-size="13" lengthAdjust="spacing" textLength="182" x="159.5" y="279.4263">doorzetten iWlz-foutmelding</text><polygon fill="#181818" points="390.5,309.625,400.5,313.625,390.5,317.625,394.5,313.625" style="stroke:#181818;stroke-width:1.0;"/><line style="stroke:#181818;stroke-width:1.0;" x1="102.5" x2="396.5" y1="313.625" y2="313.625"/><text fill="#000000" font-family="sans-serif" font-size="13" font-weight="bold" lengthAdjust="spacing" textLength="31" x="109.5" y="308.5591">[06]</text><text fill="#000000" font-family="sans-serif" font-size="13" lengthAdjust="spacing" textLength="148" x="144.5" y="308.5591">return response {204}</text><polygon fill="#181818" points="682.5,338.7578,692.5,342.7578,682.5,346.7578,686.5,342.7578" style="stroke:#181818;stroke-width:1.0;"/><line style="stroke:#181818;stroke-width:1.0;" x1="412.5" x2="688.5" y1="342.7578" y2="342.7578"/><text fill="#000000" font-family="sans-serif" font-size="13" font-weight="bold" lengthAdjust="spacing" textLength="31" x="419.5" y="337.6919">[07]</text><text fill="#000000" font-family="sans-serif" font-size="13" lengthAdjust="spacing" textLength="148" x="454.5" y="337.6919">return response {204}</text><path d="M323,357.7578 L389,357.7578 L389,364.8906 L379,374.8906 L323,374.8906 L323,357.7578 " fill="#EEEEEE" style="stroke:#000000;stroke-width:1.5;"/><rect fill="none" height="46.2656" style="stroke:#000000;stroke-width:1.5;" width="446.5" x="323" y="357.7578"/><text fill="#000000" font-family="sans-serif" font-size="13" font-weight="bold" lengthAdjust="spacing" textLength="21" x="338" y="370.8247">alt</text><polygon fill="#181818" points="687.5,392.0234,697.5,396.0234,687.5,400.0234,691.5,396.0234" style="stroke:#181818;stroke-width:1.0;"/><line style="stroke:#181818;stroke-width:1.0;stroke-dasharray:2.0,2.0;" x1="407.5" x2="693.5" y1="396.0234" y2="396.0234"/><text fill="#000000" font-family="sans-serif" font-size="13" font-weight="bold" lengthAdjust="spacing" textLength="31" x="414.5" y="390.9575">[08]</text><text fill="#000000" font-family="sans-serif" font-size="13" lengthAdjust="spacing" textLength="223" x="449.5" y="390.9575">response: {400} ongeldig verzoek</text><!--SRC=[RLAzZjim3Dxr54Hk3c0SCWN5ZHsBeiiDRGVQOXGX2cLGKjBcSEzUIeuJvteUR8Zy_aGw7JoFA7Y4FR8zYy-P67OO4fbqw-ax-y6Fo7b4QpqxUEuM_Jx-cUkRpc39aSkn9u7Lb_xbPzVzNXc5G2-Hzx5ORJm5x_Qv3uNCGXnMFyZvb4bMW4dnwVFkscB61X7tYFX6-Kno60ldIO97CCIsHZGjX2KAJCTRXhyKGZn_z4cno42JHPBXBY4Eulgb5RSWY7OC6egT0NrmoFw4cIQESHBB2BjOCXmfME86gZsuIVZNS5b_hP1Vx6Y8dB8AaDW7h5vZ0QrYTTQCA4gxZ_KnX99QeSvWrZXXy3e10SyNlTCSV8P8seADKIxK_eFckBixVj3NzJIof9k-K2x2-acZNeNWxRdRl3UKfV-9a-jrbfyo9yUGuUcxvqCxNNaBuiJOmjkcwzuXwXmrhOCJoINIJ5hwNmVpK6mhgxMwQdKqTUV_0000]--></g></svg>