<svg xmlns="http://www.w3.org/2000/svg" xmlns:xlink="http://www.w3.org/1999/xlink" contentStyleType="text/css" data-diagram-type="SEQUENCE" height="871px" preserveAspectRatio="none" style="width:1322px;height:871px;background:#FFFFFF;" version="1.1" viewBox="0 0 1322 871" width="1322px" zoomAndPan="magnify"><title>notificatie sequence-diagram</title><defs/><g><text fill="#000000" font-family="sans-serif" font-size="14" font-weight="bold" lengthAdjust="spacing" textLength="231.6836" x="552.4304" y="27.9951">notificatie sequence-diagram</text><rect fill="#ADD8E6" height="822.5078" style="stroke:#181818;stroke-width:0.5;" width="428.0161" x="41" y="43.2969"/><text fill="#000000" font-family="sans-serif" font-size="13" font-weight="bold" lengthAdjust="spacing" textLength="85.8774" x="209.8064" y="55.3638">bronhouder</text><rect fill="#DDDDDD" height="822.5078" style="stroke:#181818;stroke-width:0.5;" width="495.5249" x="551.0161" y="43.2969"/><text fill="#000000" font-family="sans-serif" font-size="13" font-weight="bold" lengthAdjust="spacing" textLength="24.8828" x="786.3372" y="55.3638">nID</text><rect fill="#FFFFE0" height="822.5078" style="stroke:#181818;stroke-width:0.5;" width="132.1914" x="1128.541" y="43.2969"/><text fill="#000000" font-family="sans-serif" font-size="13" font-weight="bold" lengthAdjust="spacing" textLength="78.2412" x="1153.2532" y="55.3638">deelnemer</text><rect fill="#FFFFFF" height="584.5234" style="stroke:#181818;stroke-width:1;" width="10" x="99.5698" y="221.6875"/><rect fill="#FFFFFF" height="71.2656" style="stroke:#181818;stroke-width:1;" width="10" x="399.1304" y="221.6875"/><rect fill="#A9A9A9" height="29.1328" style="stroke:#181818;stroke-width:1;" width="10" x="636.6836" y="379.3516"/><rect fill="#FFFFFF" height="302.3281" style="stroke:#181818;stroke-width:1;" width="10" x="773.2163" y="452.75"/><rect fill="#D3D3D3" height="100.3984" style="stroke:#181818;stroke-width:1;" width="10" x="778.2163" y="539.1484"/><rect fill="#FFFFFF" height="71.2656" style="stroke:#181818;stroke-width:1;" width="10" x="996.7085" y="539.1484"/><rect fill="#FFFFFF" height="86.3984" style="stroke:#181818;stroke-width:1;" width="10" x="1189.6367" y="639.5469"/><line style="stroke:#181818;stroke-width:0.5;stroke-dasharray:5.0,5.0;" x1="104" x2="104" y1="110.0234" y2="815.2109"/><line style="stroke:#181818;stroke-width:0.5;stroke-dasharray:5.0,5.0;" x1="403.2446" x2="403.2446" y1="110.0234" y2="815.2109"/><line style="stroke:#181818;stroke-width:0.5;stroke-dasharray:5.0,5.0;" x1="641.0161" x2="641.0161" y1="110.0234" y2="815.2109"/><line style="stroke:#181818;stroke-width:0.5;stroke-dasharray:5.0,5.0;" x1="777.3511" x2="777.3511" y1="110.0234" y2="815.2109"/><line style="stroke:#181818;stroke-width:0.5;stroke-dasharray:5.0,5.0;" x1="1000.876" x2="1000.876" y1="110.0234" y2="815.2109"/><line style="stroke:#181818;stroke-width:0.5;stroke-dasharray:5.0,5.0;" x1="1194.541" x2="1194.541" y1="110.0234" y2="815.2109"/><rect fill="#E2E2F0" height="30.2969" rx="2.5" ry="2.5" style="stroke:#181818;stroke-width:0.5;" width="79.1396" x="65" y="78.7266"/><text fill="#000000" font-family="sans-serif" font-size="14" lengthAdjust="spacing" textLength="65.1396" x="72" y="98.7217">Resource</text><rect fill="#E2E2F0" height="30.2969" rx="2.5" ry="2.5" style="stroke:#181818;stroke-width:0.5;" width="79.1396" x="65" y="814.2109"/><text fill="#000000" font-family="sans-serif" font-size="14" lengthAdjust="spacing" textLength="65.1396" x="72" y="834.2061">Resource</text><rect fill="#E2E2F0" height="46.5938" rx="2.5" ry="2.5" style="stroke:#181818;stroke-width:0.5;" width="81.7715" x="363.2446" y="62.4297"/><text fill="#000000" font-family="sans-serif" font-size="14" lengthAdjust="spacing" textLength="63.3213" x="370.2446" y="82.4248">Register-</text><text fill="#000000" font-family="sans-serif" font-size="14" lengthAdjust="spacing" textLength="31.5342" x="388.3633" y="98.7217">data</text><rect fill="#E2E2F0" height="46.5938" rx="2.5" ry="2.5" style="stroke:#181818;stroke-width:0.5;" width="81.7715" x="363.2446" y="814.2109"/><text fill="#000000" font-family="sans-serif" font-size="14" lengthAdjust="spacing" textLength="63.3213" x="370.2446" y="834.2061">Register-</text><text fill="#000000" font-family="sans-serif" font-size="14" lengthAdjust="spacing" textLength="31.5342" x="388.3633" y="850.5029">data</text><rect fill="#E2E2F0" height="30.2969" rx="2.5" ry="2.5" style="stroke:#181818;stroke-width:0.5;" width="133.335" x="575.0161" y="78.7266"/><text fill="#000000" font-family="sans-serif" font-size="14" lengthAdjust="spacing" textLength="119.335" x="582.0161" y="98.7217">autorisatieserver</text><rect fill="#E2E2F0" height="30.2969" rx="2.5" ry="2.5" style="stroke:#181818;stroke-width:0.5;" width="133.335" x="575.0161" y="814.2109"/><text fill="#000000" font-family="sans-serif" font-size="14" lengthAdjust="spacing" textLength="119.335" x="582.0161" y="834.2061">autorisatieserver</text><rect fill="#E2E2F0" height="30.2969" rx="2.5" ry="2.5" style="stroke:#181818;stroke-width:0.5;" width="39.7305" x="758.3511" y="78.7266"/><text fill="#000000" font-family="sans-serif" font-size="14" lengthAdjust="spacing" textLength="25.7305" x="765.3511" y="98.7217">PEP</text><rect fill="#E2E2F0" height="30.2969" rx="2.5" ry="2.5" style="stroke:#181818;stroke-width:0.5;" width="39.7305" x="758.3511" y="814.2109"/><text fill="#000000" font-family="sans-serif" font-size="14" lengthAdjust="spacing" textLength="25.7305" x="765.3511" y="834.2061">PEP</text><rect fill="#E2E2F0" height="30.2969" rx="2.5" ry="2.5" style="stroke:#181818;stroke-width:0.5;" width="41.665" x="980.876" y="78.7266"/><text fill="#000000" font-family="sans-serif" font-size="14" lengthAdjust="spacing" textLength="27.665" x="987.876" y="98.7217">PDP</text><rect fill="#E2E2F0" height="30.2969" rx="2.5" ry="2.5" style="stroke:#181818;stroke-width:0.5;" width="41.665" x="980.876" y="814.2109"/><text fill="#000000" font-family="sans-serif" font-size="14" lengthAdjust="spacing" textLength="27.665" x="987.876" y="834.2061">PDP</text><rect fill="#E2E2F0" height="46.5938" rx="2.5" ry="2.5" style="stroke:#181818;stroke-width:0.5;" width="84.1914" x="1152.541" y="62.4297"/><text fill="#000000" font-family="sans-serif" font-size="14" lengthAdjust="spacing" textLength="70.1914" x="1159.541" y="82.4248">Resource-</text><text fill="#000000" font-family="sans-serif" font-size="14" lengthAdjust="spacing" textLength="45.9102" x="1171.6816" y="98.7217">Server</text><rect fill="#E2E2F0" height="46.5938" rx="2.5" ry="2.5" style="stroke:#181818;stroke-width:0.5;" width="84.1914" x="1152.541" y="814.2109"/><text fill="#000000" font-family="sans-serif" font-size="14" lengthAdjust="spacing" textLength="70.1914" x="1159.541" y="834.2061">Resource-</text><text fill="#000000" font-family="sans-serif" font-size="14" lengthAdjust="spacing" textLength="45.9102" x="1171.6816" y="850.5029">Server</text><rect fill="#FFFFFF" height="584.5234" style="stroke:#181818;stroke-width:1;" width="10" x="99.5698" y="221.6875"/><rect fill="#FFFFFF" height="71.2656" style="stroke:#181818;stroke-width:1;" width="10" x="399.1304" y="221.6875"/><rect fill="#A9A9A9" height="29.1328" style="stroke:#181818;stroke-width:1;" width="10" x="636.6836" y="379.3516"/><rect fill="#FFFFFF" height="302.3281" style="stroke:#181818;stroke-width:1;" width="10" x="773.2163" y="452.75"/><rect fill="#D3D3D3" height="100.3984" style="stroke:#181818;stroke-width:1;" width="10" x="778.2163" y="539.1484"/><rect fill="#FFFFFF" height="71.2656" style="stroke:#181818;stroke-width:1;" width="10" x="996.7085" y="539.1484"/><rect fill="#FFFFFF" height="86.3984" style="stroke:#181818;stroke-width:1;" width="10" x="1189.6367" y="639.5469"/><path d="M617,125.0234 L617,195.0234 L938,195.0234 L938,135.0234 L928,125.0234 L617,125.0234 " fill="#90EE90" style="stroke:#181818;stroke-width:0.5;"/><path d="M928,125.0234 L928,135.0234 L938,135.0234 L928,125.0234 " fill="#90EE90" style="stroke:#181818;stroke-width:0.5;"/><text fill="#000000" font-family="sans-serif" font-size="13" lengthAdjust="spacing" textLength="225.1323" x="623" y="142.0903">Het autorisatie en validatie-proces</text><text fill="#000000" font-family="sans-serif" font-size="13" lengthAdjust="spacing" textLength="168.9873" x="623" y="157.2231">is beschreven in RFC0014</text><text fill="#000000" font-family="sans-serif" font-size="13" lengthAdjust="spacing" textLength="295.8896" x="623" y="172.356">Functionele uitwerking aanvragen autorisatie</text><text fill="#000000" font-family="sans-serif" font-size="13" lengthAdjust="spacing" textLength="69.2402" x="623" y="187.4888">(oAuth2.0)</text><polygon fill="#181818" points="387.1304,217.6875,397.1304,221.6875,387.1304,225.6875,391.1304,221.6875" style="stroke:#181818;stroke-width:1;"/><line style="stroke:#181818;stroke-width:1;" x1="109.5698" x2="393.1304" y1="221.6875" y2="221.6875"/><text fill="#000000" font-family="sans-serif" font-size="13" font-weight="bold" lengthAdjust="spacing" textLength="29.9736" x="116.5698" y="216.6216">[01]</text><text fill="#000000" font-family="sans-serif" font-size="13" font-weight="bold" lengthAdjust="spacing" textLength="115.2036" x="150.5435" y="216.6216">registratie data</text><line style="stroke:#181818;stroke-width:1;" x1="409.1304" x2="451.1304" y1="250.8203" y2="250.8203"/><line style="stroke:#181818;stroke-width:1;" x1="451.1304" x2="451.1304" y1="250.8203" y2="263.8203"/><line style="stroke:#181818;stroke-width:1;" x1="410.1304" x2="451.1304" y1="263.8203" y2="263.8203"/><polygon fill="#181818" points="420.1304,259.8203,410.1304,263.8203,420.1304,267.8203,416.1304,263.8203" style="stroke:#181818;stroke-width:1;"/><text fill="#000000" font-family="sans-serif" font-size="13" font-weight="bold" lengthAdjust="spacing" textLength="29.9736" x="416.1304" y="245.7544">[02]</text><text fill="#000000" font-family="sans-serif" font-size="13" font-weight="bold" lengthAdjust="spacing" textLength="97.0239" x="450.104" y="245.7544">event trigger</text><polygon fill="#181818" points="120.5698,288.9531,110.5698,292.9531,120.5698,296.9531,116.5698,292.9531" style="stroke:#181818;stroke-width:1;"/><line style="stroke:#181818;stroke-width:1;" x1="114.5698" x2="403.1304" y1="292.9531" y2="292.9531"/><text fill="#000000" font-family="sans-serif" font-size="13" font-weight="bold" lengthAdjust="spacing" textLength="29.9736" x="126.5698" y="287.8872">[03]</text><text fill="#000000" font-family="sans-serif" font-size="13" font-weight="bold" lengthAdjust="spacing" textLength="161.7002" x="160.5435" y="287.8872">bepaal notificatietype</text><line style="stroke:#181818;stroke-width:1;" x1="109.5698" x2="151.5698" y1="322.0859" y2="322.0859"/><line style="stroke:#181818;stroke-width:1;" x1="151.5698" x2="151.5698" y1="322.0859" y2="335.0859"/><line style="stroke:#181818;stroke-width:1;" x1="110.5698" x2="151.5698" y1="335.0859" y2="335.0859"/><polygon fill="#181818" points="120.5698,331.0859,110.5698,335.0859,120.5698,339.0859,116.5698,335.0859" style="stroke:#181818;stroke-width:1;"/><text fill="#000000" font-family="sans-serif" font-size="13" font-weight="bold" lengthAdjust="spacing" textLength="29.9736" x="116.5698" y="317.02">[04]</text><text fill="#000000" font-family="sans-serif" font-size="13" font-weight="bold" lengthAdjust="spacing" textLength="214.3857" x="150.5435" y="317.02">genereer GraphQL notificatie</text><polygon fill="#181818" points="624.6836,375.3516,634.6836,379.3516,624.6836,383.3516,628.6836,379.3516" style="stroke:#181818;stroke-width:1;"/><line style="stroke:#181818;stroke-width:1;" x1="109.5698" x2="630.6836" y1="379.3516" y2="379.3516"/><text fill="#000000" font-family="sans-serif" font-size="13" lengthAdjust="spacing" textLength="172.415" x="116.5698" y="359.1528">Aanvragen van autorisatie</text><text fill="#000000" font-family="sans-serif" font-size="13" lengthAdjust="spacing" textLength="270.1055" x="116.5698" y="374.2856">"scope": "../notificaties/notificatie:create"</text><polygon fill="#181818" points="120.5698,404.4844,110.5698,408.4844,120.5698,412.4844,116.5698,408.4844" style="stroke:#181818;stroke-width:1;"/><line style="stroke:#181818;stroke-width:1;stroke-dasharray:2.0,2.0;" x1="114.5698" x2="640.6836" y1="408.4844" y2="408.4844"/><text fill="#000000" font-family="sans-serif" font-size="13" lengthAdjust="spacing" textLength="224.085" x="126.5698" y="403.4185">200 Response (JWT Access-Token)</text><polygon fill="#181818" points="761.2163,448.75,771.2163,452.75,761.2163,456.75,765.2163,452.75" style="stroke:#181818;stroke-width:1;"/><line style="stroke:#181818;stroke-width:1;" x1="109.5698" x2="767.2163" y1="452.75" y2="452.75"/><text fill="#000000" font-family="sans-serif" font-size="13" font-weight="bold" lengthAdjust="spacing" textLength="29.9736" x="116.5698" y="440.1177">[05]</text><text fill="#000000" font-family="sans-serif" font-size="13" font-weight="bold" lengthAdjust="spacing" textLength="128.4321" x="150.5435" y="432.5513">GraphQL Request</text><text fill="#000000" font-family="sans-serif" font-size="13" lengthAdjust="spacing" textLength="352.6948" x="150.5435" y="447.6841">Authenticatiemiddel + JWT Access-Token + notificatie</text><line style="stroke:#181818;stroke-width:1;" x1="783.2163" x2="825.2163" y1="497.0156" y2="497.0156"/><line style="stroke:#181818;stroke-width:1;" x1="825.2163" x2="825.2163" y1="497.0156" y2="510.0156"/><line style="stroke:#181818;stroke-width:1;" x1="784.2163" x2="825.2163" y1="510.0156" y2="510.0156"/><polygon fill="#181818" points="794.2163,506.0156,784.2163,510.0156,794.2163,514.0156,790.2163,510.0156" style="stroke:#181818;stroke-width:1;"/><text fill="#000000" font-family="sans-serif" font-size="13" lengthAdjust="spacing" textLength="165.4136" x="790.2163" y="476.8169">Valideer Authenticatie en</text><text fill="#000000" font-family="sans-serif" font-size="13" lengthAdjust="spacing" textLength="44.7319" x="790.2163" y="491.9497">Access</text><polygon fill="#181818" points="984.7085,535.1484,994.7085,539.1484,984.7085,543.1484,988.7085,539.1484" style="stroke:#181818;stroke-width:1;"/><line style="stroke:#181818;stroke-width:1;" x1="788.2163" x2="990.7085" y1="539.1484" y2="539.1484"/><text fill="#000000" font-family="sans-serif" font-size="13" lengthAdjust="spacing" textLength="194.4922" x="795.2163" y="534.0825">GraphQL met policy valideren</text><line style="stroke:#181818;stroke-width:1;" x1="1006.7085" x2="1048.7085" y1="568.2813" y2="568.2813"/><line style="stroke:#181818;stroke-width:1;" x1="1048.7085" x2="1048.7085" y1="568.2813" y2="581.2813"/><line style="stroke:#181818;stroke-width:1;" x1="1007.7085" x2="1048.7085" y1="581.2813" y2="581.2813"/><polygon fill="#181818" points="1017.7085,577.2813,1007.7085,581.2813,1017.7085,585.2813,1013.7085,581.2813" style="stroke:#181818;stroke-width:1;"/><text fill="#000000" font-family="sans-serif" font-size="13" lengthAdjust="spacing" textLength="107.7261" x="1013.7085" y="563.2153">Valideer graphql</text><polygon fill="#181818" points="799.2163,606.4141,789.2163,610.4141,799.2163,614.4141,795.2163,610.4141" style="stroke:#181818;stroke-width:1;"/><line style="stroke:#181818;stroke-width:1;" x1="793.2163" x2="1000.7085" y1="610.4141" y2="610.4141"/><text fill="#000000" font-family="sans-serif" font-size="13" lengthAdjust="spacing" textLength="105.8979" x="805.2163" y="605.3481">Graphql allowed</text><polygon fill="#181818" points="1177.6367,635.5469,1187.6367,639.5469,1177.6367,643.5469,1181.6367,639.5469" style="stroke:#181818;stroke-width:1;"/><line style="stroke:#181818;stroke-width:1;" x1="783.2163" x2="1183.6367" y1="639.5469" y2="639.5469"/><text fill="#000000" font-family="sans-serif" font-size="13" font-weight="bold" lengthAdjust="spacing" textLength="162.9316" x="790.2163" y="634.481">[05] GraphQL Request</text><line style="stroke:#181818;stroke-width:1;" x1="1199.6367" x2="1241.6367" y1="683.8125" y2="683.8125"/><line style="stroke:#181818;stroke-width:1;" x1="1241.6367" x2="1241.6367" y1="683.8125" y2="696.8125"/><line style="stroke:#181818;stroke-width:1;" x1="1200.6367" x2="1241.6367" y1="696.8125" y2="696.8125"/><polygon fill="#181818" points="1210.6367,692.8125,1200.6367,696.8125,1210.6367,700.8125,1206.6367,696.8125" style="stroke:#181818;stroke-width:1;"/><text fill="#000000" font-family="sans-serif" font-size="13" font-weight="bold" lengthAdjust="spacing" textLength="29.9736" x="1206.6367" y="671.1802">[06]</text><text fill="#000000" font-family="sans-serif" font-size="13" font-weight="bold" lengthAdjust="spacing" textLength="60.2075" x="1240.6104" y="663.6138">ontvang</text><text fill="#000000" font-family="sans-serif" font-size="13" font-weight="bold" lengthAdjust="spacing" textLength="74.9341" x="1240.6104" y="678.7466">notificatie</text><polygon fill="#181818" points="794.2163,721.9453,784.2163,725.9453,794.2163,729.9453,790.2163,725.9453" style="stroke:#181818;stroke-width:1;"/><line style="stroke:#181818;stroke-width:1;stroke-dasharray:2.0,2.0;" x1="788.2163" x2="1193.6367" y1="725.9453" y2="725.9453"/><text fill="#000000" font-family="sans-serif" font-size="13" font-weight="bold" lengthAdjust="spacing" textLength="29.9736" x="800.2163" y="720.8794">[07]</text><text fill="#000000" font-family="sans-serif" font-size="13" font-weight="bold" lengthAdjust="spacing" textLength="166.9497" x="834.1899" y="720.8794">GraphQL 200 response</text><polygon fill="#181818" points="120.5698,751.0781,110.5698,755.0781,120.5698,759.0781,116.5698,755.0781" style="stroke:#181818;stroke-width:1;"/><line style="stroke:#181818;stroke-width:1;stroke-dasharray:2.0,2.0;" x1="114.5698" x2="777.2163" y1="755.0781" y2="755.0781"/><text fill="#000000" font-family="sans-serif" font-size="13" font-weight="bold" lengthAdjust="spacing" textLength="201.4492" x="126.5698" y="750.0122">[07] GraphQL 200 response</text><line style="stroke:#181818;stroke-width:1;stroke-dasharray:2.0,2.0;" x1="109.5698" x2="151.5698" y1="784.2109" y2="784.2109"/><line style="stroke:#181818;stroke-width:1;stroke-dasharray:2.0,2.0;" x1="151.5698" x2="151.5698" y1="784.2109" y2="797.2109"/><line style="stroke:#181818;stroke-width:1;stroke-dasharray:2.0,2.0;" x1="110.5698" x2="151.5698" y1="797.2109" y2="797.2109"/><polygon fill="#181818" points="120.5698,793.2109,110.5698,797.2109,120.5698,801.2109,116.5698,797.2109" style="stroke:#181818;stroke-width:1;"/><text fill="#000000" font-family="sans-serif" font-size="13" font-weight="bold" lengthAdjust="spacing" textLength="265.5605" x="116.5698" y="779.145">[08] verwerk GraphQL 200 response</text><!--SRC=[TLHDRzim3BtxLn3kfStWpYiwR3260iNIxWCxP6sn7PeUP9jrX3YIAydfiby_IlwIxQo7r2AfzyX7KeQR4a58mvzvnWn7qFXIeyWmoZah5Di5Uij5nUWBDapahueRWmAUMQdHyz6luHclc30LotCk2hY8FNyg_tJsopW8w0Yfac8ZwnmLd9Iys9Yqh3407mh2EzIoLXc6m3HqXtbGmRL15S5QvComDhWn1YXoIz-GXkBRCgJx4mHM6wcujWfeL7jK3kAwDfk_z-uylxAwMRaW-d_4kMoTozMOFqSi1UxwcWzOblBrVrL7Qt4_f4FMDfaUaZg78CbaqsWX2uKe4lYA1hooW9gsPoNFxI6gbCnGarnSGuewsoZSKm0NS7VxEOxVNPBhjXQPuL8WJKZDpIkghMqVOsAlM47HFlfQd4ehryLvV0Q1zOXwbr9UuQVqwZ6EdyAWAmgYgxuva03vbJif1sJx5mICcFUCQkilaKIUiMqj340UgCEqzHWmYXV5aS0Mr4McM35M-ajW3fMTiHpdZ0x9hwFvTa2a2PBs2hueLcr-_l0XVKcqaTK4nvkq1AvxXVTifF9QX3gJ5OO9XEVdRpruxH-IJ24b7OARoxu6ZmDEbanjQL0EBiJ- -Tx8roYA4bhbs1egAJJ2wVVV3t2TqVpew45kKPmrH9vS_k9uXIlKzGudfTFW9h1OT9hTsVT76xAiXOMXBZPLxNYUOmblO4fF9b_e8qhtUTbTTRdQRUcuVzcji6qRqTbzeGmSp-ZAagvqoUvenofPykpGx1QrNxIA-fnmyiCk9jqQz1xyorLlfE-Ueq-hi6GlfVKFjsSrJY5kkZJf9hDl3EPzbDUf4NjJOV_CsBOynk-VODARnIAOurXbZxLwjBRQUqpxquIJ5aaAGvDVaFvqy7ixkTVLIL5TYdPILJkfqwaS-8_9vwgVhlHZ_64eVuGT17C5e4kmsvmPsiSd87xxb1v5_GS0]--></g></svg>