<?xml version="1.0" encoding="us-ascii" standalone="no"?><svg xmlns="http://www.w3.org/2000/svg" xmlns:xlink="http://www.w3.org/1999/xlink" contentStyleType="text/css" height="654px" preserveAspectRatio="none" style="width:1258px;height:654px;background:#FFFFFF;" version="1.1" viewBox="0 0 1258 654" width="1258px" zoomAndPan="magnify"><defs/><g><rect fill="#DDDDDD" height="642.8516" style="stroke:#181818;stroke-width:0.5;" width="105" x="11" y="6"/><text fill="#000000" font-family="sans-serif" font-size="13" font-weight="bold" lengthAdjust="spacing" textLength="81" x="23" y="18.0669">Deelnemer</text><rect fill="#DDDDDD" height="642.8516" style="stroke:#181818;stroke-width:0.5;" width="780.5" x="258.5" y="6"/><text fill="#000000" font-family="sans-serif" font-size="13" font-weight="bold" lengthAdjust="spacing" textLength="25" x="636.25" y="18.0669">nID</text><rect fill="#DDDDDD" height="642.8516" style="stroke:#181818;stroke-width:0.5;" width="128" x="1124.5" y="6"/><text fill="#000000" font-family="sans-serif" font-size="13" font-weight="bold" lengthAdjust="spacing" textLength="64" x="1156.5" y="18.0669">Register</text><rect fill="#FFFFFF" height="279.0625" style="stroke:#181818;stroke-width:1.0;" width="10" x="58.5" y="66.4297"/><rect fill="#FFFFFF" height="206.7969" style="stroke:#181818;stroke-width:1.0;" width="10" x="58.5" y="389.7578"/><rect fill="#FFFFFF" height="227.6641" style="stroke:#181818;stroke-width:1.0;" width="10" x="349.5" y="117.8281"/><rect fill="#D3D3D3" height="112.2656" style="stroke:#181818;stroke-width:1.0;" width="10" x="354.5" y="197.0938"/><rect fill="#D3D3D3" height="28" style="stroke:#181818;stroke-width:1.0;" width="10" x="359.5" y="281.3594"/><rect fill="#FFFFFF" height="148.5313" style="stroke:#181818;stroke-width:1.0;" width="10" x="621.5" y="389.7578"/><rect fill="#FFFFFF" height="206.7969" style="stroke:#181818;stroke-width:1.0;" width="10" x="944.5" y="389.7578"/><rect fill="#FFFFFF" height="29.1328" style="stroke:#181818;stroke-width:1.0;" width="10" x="1183.5" y="538.2891"/><line style="stroke:#181818;stroke-width:0.5;stroke-dasharray:5.0,5.0;" x1="63" x2="63" y1="56.4297" y2="614.5547"/><line style="stroke:#181818;stroke-width:0.5;stroke-dasharray:5.0,5.0;" x1="354.5" x2="354.5" y1="56.4297" y2="614.5547"/><line style="stroke:#181818;stroke-width:0.5;stroke-dasharray:5.0,5.0;" x1="626.5" x2="626.5" y1="56.4297" y2="614.5547"/><line style="stroke:#181818;stroke-width:0.5;stroke-dasharray:5.0,5.0;" x1="949" x2="949" y1="56.4297" y2="614.5547"/><line style="stroke:#181818;stroke-width:0.5;stroke-dasharray:5.0,5.0;" x1="1188.5" x2="1188.5" y1="56.4297" y2="614.5547"/><rect fill="#E2E2F0" height="30.2969" rx="2.5" ry="2.5" style="stroke:#181818;stroke-width:0.5;" width="57" x="35" y="25.1328"/><text fill="#000000" font-family="sans-serif" font-size="14" lengthAdjust="spacing" textLength="43" x="42" y="45.1279">Client</text><rect fill="#E2E2F0" height="30.2969" rx="2.5" ry="2.5" style="stroke:#181818;stroke-width:0.5;" width="57" x="35" y="613.5547"/><text fill="#000000" font-family="sans-serif" font-size="14" lengthAdjust="spacing" textLength="43" x="42" y="633.5498">Client</text><rect fill="#E2E2F0" height="30.2969" rx="2.5" ry="2.5" style="stroke:#181818;stroke-width:0.5;" width="144" x="282.5" y="25.1328"/><text fill="#000000" font-family="sans-serif" font-size="14" lengthAdjust="spacing" textLength="130" x="289.5" y="45.1279">Autorisatie-server</text><rect fill="#E2E2F0" height="30.2969" rx="2.5" ry="2.5" style="stroke:#181818;stroke-width:0.5;" width="144" x="282.5" y="613.5547"/><text fill="#000000" font-family="sans-serif" font-size="14" lengthAdjust="spacing" textLength="130" x="289.5" y="633.5498">Autorisatie-server</text><rect fill="#E2E2F0" height="30.2969" rx="2.5" ry="2.5" style="stroke:#181818;stroke-width:0.5;" width="80" x="586.5" y="25.1328"/><text fill="#000000" font-family="sans-serif" font-size="14" lengthAdjust="spacing" textLength="66" x="593.5" y="45.1279">nID Filter</text><rect fill="#E2E2F0" height="30.2969" rx="2.5" ry="2.5" style="stroke:#181818;stroke-width:0.5;" width="80" x="586.5" y="613.5547"/><text fill="#000000" font-family="sans-serif" font-size="14" lengthAdjust="spacing" textLength="66" x="593.5" y="633.5498">nID Filter</text><rect fill="#E2E2F0" height="30.2969" rx="2.5" ry="2.5" style="stroke:#181818;stroke-width:0.5;" width="131" x="884" y="25.1328"/><text fill="#000000" font-family="sans-serif" font-size="14" lengthAdjust="spacing" textLength="117" x="891" y="45.1279">Resource-server</text><rect fill="#E2E2F0" height="30.2969" rx="2.5" ry="2.5" style="stroke:#181818;stroke-width:0.5;" width="131" x="884" y="613.5547"/><text fill="#000000" font-family="sans-serif" font-size="14" lengthAdjust="spacing" textLength="117" x="891" y="633.5498">Resource-server</text><rect fill="#E2E2F0" height="30.2969" rx="2.5" ry="2.5" style="stroke:#181818;stroke-width:0.5;" width="80" x="1148.5" y="25.1328"/><text fill="#000000" font-family="sans-serif" font-size="14" lengthAdjust="spacing" textLength="66" x="1155.5" y="45.1279">Resource</text><rect fill="#E2E2F0" height="30.2969" rx="2.5" ry="2.5" style="stroke:#181818;stroke-width:0.5;" width="80" x="1148.5" y="613.5547"/><text fill="#000000" font-family="sans-serif" font-size="14" lengthAdjust="spacing" textLength="66" x="1155.5" y="633.5498">Resource</text><rect fill="#FFFFFF" height="279.0625" style="stroke:#181818;stroke-width:1.0;" width="10" x="58.5" y="66.4297"/><rect fill="#FFFFFF" height="206.7969" style="stroke:#181818;stroke-width:1.0;" width="10" x="58.5" y="389.7578"/><rect fill="#FFFFFF" height="227.6641" style="stroke:#181818;stroke-width:1.0;" width="10" x="349.5" y="117.8281"/><rect fill="#D3D3D3" height="112.2656" style="stroke:#181818;stroke-width:1.0;" width="10" x="354.5" y="197.0938"/><rect fill="#D3D3D3" height="28" style="stroke:#181818;stroke-width:1.0;" width="10" x="359.5" y="281.3594"/><rect fill="#FFFFFF" height="148.5313" style="stroke:#181818;stroke-width:1.0;" width="10" x="621.5" y="389.7578"/><rect fill="#FFFFFF" height="206.7969" style="stroke:#181818;stroke-width:1.0;" width="10" x="944.5" y="389.7578"/><rect fill="#FFFFFF" height="29.1328" style="stroke:#181818;stroke-width:1.0;" width="10" x="1183.5" y="538.2891"/><polygon fill="#181818" points="337.5,113.8281,347.5,117.8281,337.5,121.8281,341.5,117.8281" style="stroke:#181818;stroke-width:1.0;"/><line style="stroke:#181818;stroke-width:1.0;" x1="68.5" x2="343.5" y1="117.8281" y2="117.8281"/><text fill="#000000" font-family="sans-serif" font-size="13" font-weight="bold" lengthAdjust="spacing" textLength="41" x="75.5" y="97.6294">[001]</text><text fill="#000000" font-family="sans-serif" font-size="13" font-weight="bold" lengthAdjust="spacing" textLength="200" x="120.5" y="82.4966">Aanvragen van autorisatie</text><text fill="#000000" font-family="sans-serif" font-size="13" lengthAdjust="spacing" textLength="217" x="120.5" y="97.6294">"scope": "registers/resource:read"</text><text fill="#000000" font-family="sans-serif" font-size="13" lengthAdjust="spacing" textLength="128" x="124.5" y="112.7622">Authenticatiemiddel</text><line style="stroke:#181818;stroke-width:1.0;" x1="359.5" x2="401.5" y1="146.9609" y2="146.9609"/><line style="stroke:#181818;stroke-width:1.0;" x1="401.5" x2="401.5" y1="146.9609" y2="159.9609"/><line style="stroke:#181818;stroke-width:1.0;" x1="360.5" x2="401.5" y1="159.9609" y2="159.9609"/><polygon fill="#181818" points="370.5,155.9609,360.5,159.9609,370.5,163.9609,366.5,159.9609" style="stroke:#181818;stroke-width:1.0;"/><text fill="#000000" font-family="sans-serif" font-size="13" font-weight="bold" lengthAdjust="spacing" textLength="41" x="366.5" y="141.895">[002]</text><text fill="#000000" font-family="sans-serif" font-size="13" lengthAdjust="spacing" textLength="184" x="411.5" y="141.895">Validate Authenticatiemiddel</text><line style="stroke:#181818;stroke-width:1.0;" x1="359.5" x2="406.5" y1="184.0938" y2="184.0938"/><line style="stroke:#181818;stroke-width:1.0;" x1="406.5" x2="406.5" y1="184.0938" y2="197.0938"/><line style="stroke:#181818;stroke-width:1.0;" x1="365.5" x2="406.5" y1="197.0938" y2="197.0938"/><polygon fill="#181818" points="375.5,193.0938,365.5,197.0938,375.5,201.0938,371.5,197.0938" style="stroke:#181818;stroke-width:1.0;"/><text fill="#000000" font-family="sans-serif" font-size="13" font-weight="bold" lengthAdjust="spacing" textLength="40" x="371.5" y="179.0278">[003]</text><text fill="#000000" font-family="sans-serif" font-size="13" lengthAdjust="spacing" textLength="204" x="415.5" y="179.0278">Run Rule-engine o.b.v. scope(s)</text><line style="stroke:#181818;stroke-width:1.0;" x1="364.5" x2="406.5" y1="231.2266" y2="231.2266"/><line style="stroke:#181818;stroke-width:1.0;" x1="406.5" x2="406.5" y1="231.2266" y2="244.2266"/><line style="stroke:#181818;stroke-width:1.0;" x1="365.5" x2="406.5" y1="244.2266" y2="244.2266"/><polygon fill="#181818" points="375.5,240.2266,365.5,244.2266,375.5,248.2266,371.5,244.2266" style="stroke:#181818;stroke-width:1.0;"/><text fill="#000000" font-family="sans-serif" font-size="13" font-weight="bold" lengthAdjust="spacing" textLength="41" x="371.5" y="226.1606">[004]</text><text fill="#000000" font-family="sans-serif" font-size="13" lengthAdjust="spacing" textLength="124" x="416.5" y="226.1606">Valideer autorisatie</text><line style="stroke:#181818;stroke-width:1.0;" x1="369.5" x2="411.5" y1="273.3594" y2="273.3594"/><line style="stroke:#181818;stroke-width:1.0;" x1="411.5" x2="411.5" y1="273.3594" y2="286.3594"/><line style="stroke:#181818;stroke-width:1.0;" x1="370.5" x2="411.5" y1="286.3594" y2="286.3594"/><polygon fill="#181818" points="380.5,282.3594,370.5,286.3594,380.5,290.3594,376.5,286.3594" style="stroke:#181818;stroke-width:1.0;"/><text fill="#000000" font-family="sans-serif" font-size="13" font-weight="bold" lengthAdjust="spacing" textLength="41" x="376.5" y="268.2935">[005]</text><text fill="#000000" font-family="sans-serif" font-size="13" lengthAdjust="spacing" textLength="153" x="421.5" y="268.2935">Genereer Access-Token</text><polygon fill="#181818" points="74.5,341.4922,64.5,345.4922,74.5,349.4922,70.5,345.4922" style="stroke:#181818;stroke-width:1.0;"/><line style="stroke:#181818;stroke-width:1.0;stroke-dasharray:2.0,2.0;" x1="68.5" x2="353.5" y1="345.4922" y2="345.4922"/><text fill="#000000" font-family="sans-serif" font-size="13" font-weight="bold" lengthAdjust="spacing" textLength="41" x="80.5" y="340.4263">[006]</text><text fill="#000000" font-family="sans-serif" font-size="13" lengthAdjust="spacing" textLength="194" x="125.5" y="340.4263">200 Response (Access-Token)</text><polygon fill="#181818" points="932.5,385.7578,942.5,389.7578,932.5,393.7578,936.5,389.7578" style="stroke:#181818;stroke-width:1.0;"/><line style="stroke:#181818;stroke-width:1.0;" x1="68.5" x2="938.5" y1="389.7578" y2="389.7578"/><text fill="#000000" font-family="sans-serif" font-size="13" font-weight="bold" lengthAdjust="spacing" textLength="41" x="75.5" y="377.1255">[007]</text><text fill="#000000" font-family="sans-serif" font-size="13" font-weight="bold" lengthAdjust="spacing" textLength="113" x="120.5" y="369.5591">GraphQL Query</text><text fill="#000000" font-family="sans-serif" font-size="13" lengthAdjust="spacing" textLength="235" x="120.5" y="384.6919">Authenticatiemiddel + Access-Token</text><path d="M636,402.7578 L636,427.7578 L802,427.7578 L802,412.7578 L792,402.7578 L636,402.7578 " fill="#FEFFDD" style="stroke:#181818;stroke-width:0.5;"/><path d="M792,402.7578 L792,412.7578 L802,412.7578 L792,402.7578 " fill="#FEFFDD" style="stroke:#181818;stroke-width:0.5;"/><text fill="#000000" font-family="sans-serif" font-size="13" lengthAdjust="spacing" textLength="145" x="642" y="419.8247">Inline filtering requests</text><line style="stroke:#181818;stroke-width:1.0;" x1="631.5" x2="673.5" y1="454.0234" y2="454.0234"/><line style="stroke:#181818;stroke-width:1.0;" x1="673.5" x2="673.5" y1="454.0234" y2="467.0234"/><line style="stroke:#181818;stroke-width:1.0;" x1="632.5" x2="673.5" y1="467.0234" y2="467.0234"/><polygon fill="#181818" points="642.5,463.0234,632.5,467.0234,642.5,471.0234,638.5,467.0234" style="stroke:#181818;stroke-width:1.0;"/><text fill="#000000" font-family="sans-serif" font-size="13" font-weight="bold" lengthAdjust="spacing" textLength="41" x="638.5" y="448.9575">[008]</text><text fill="#000000" font-family="sans-serif" font-size="13" lengthAdjust="spacing" textLength="145" x="683.5" y="448.9575">Valideer Access-Token</text><line style="stroke:#181818;stroke-width:1.0;" x1="631.5" x2="673.5" y1="496.1563" y2="496.1563"/><line style="stroke:#181818;stroke-width:1.0;" x1="673.5" x2="673.5" y1="496.1563" y2="509.1563"/><line style="stroke:#181818;stroke-width:1.0;" x1="632.5" x2="673.5" y1="509.1563" y2="509.1563"/><polygon fill="#181818" points="642.5,505.1563,632.5,509.1563,642.5,513.1563,638.5,509.1563" style="stroke:#181818;stroke-width:1.0;"/><text fill="#000000" font-family="sans-serif" font-size="13" font-weight="bold" lengthAdjust="spacing" textLength="41" x="638.5" y="491.0903">[009]</text><text fill="#000000" font-family="sans-serif" font-size="13" lengthAdjust="spacing" textLength="254" x="683.5" y="491.0903">Valideer GraphQL request met scope(s)</text><polygon fill="#181818" points="1171.5,534.2891,1181.5,538.2891,1171.5,542.2891,1175.5,538.2891" style="stroke:#181818;stroke-width:1.0;"/><line style="stroke:#181818;stroke-width:1.0;" x1="954.5" x2="1177.5" y1="538.2891" y2="538.2891"/><text fill="#000000" font-family="sans-serif" font-size="13" font-weight="bold" lengthAdjust="spacing" textLength="41" x="961.5" y="533.2231">[010]</text><text fill="#000000" font-family="sans-serif" font-size="13" lengthAdjust="spacing" textLength="113" x="1006.5" y="533.2231">GraphQL Request</text><polygon fill="#181818" points="965.5,563.4219,955.5,567.4219,965.5,571.4219,961.5,567.4219" style="stroke:#181818;stroke-width:1.0;"/><line style="stroke:#181818;stroke-width:1.0;stroke-dasharray:2.0,2.0;" x1="959.5" x2="1187.5" y1="567.4219" y2="567.4219"/><text fill="#000000" font-family="sans-serif" font-size="13" font-weight="bold" lengthAdjust="spacing" textLength="40" x="971.5" y="562.356">[011]</text><text fill="#000000" font-family="sans-serif" font-size="13" lengthAdjust="spacing" textLength="161" x="1015.5" y="562.356">200 Response (GraphQL)</text><polygon fill="#181818" points="74.5,592.5547,64.5,596.5547,74.5,600.5547,70.5,596.5547" style="stroke:#181818;stroke-width:1.0;"/><line style="stroke:#181818;stroke-width:1.0;stroke-dasharray:2.0,2.0;" x1="68.5" x2="948.5" y1="596.5547" y2="596.5547"/><text fill="#000000" font-family="sans-serif" font-size="13" font-weight="bold" lengthAdjust="spacing" textLength="40" x="80.5" y="591.4888">[012]</text><text fill="#000000" font-family="sans-serif" font-size="13" lengthAdjust="spacing" textLength="161" x="124.5" y="591.4888">200 Response (GraphQL)</text><!--SRC=[ZLDDRvmm4BtpAwRqq6GhjhH7L4NQD6aKAPKsAEgbwS4B4zOAZAbjq6v_VGtOosTMHKBOPjvxC_F67-1TALbMCD0e_eAM5NgUUkLKCiaAs3AfUS9BHdhBqfHJ1b_2mVzhSN3ddqFFsua3-3U8EM61qlV0F6LF0Vwtd2Df7vY2RkaXfM1W5hkfj91SCSqnK2XhHp89e_kR1V85S2DaZlUtstcu8O7lFDSsh5lEms9KefB9Y78hnU4OJvAACUDABvRjE5hmzUqF5zepC9CxLSKE9VXVTrU_mZ3yxNiiqRnc6bspkWy4LxQe25Qh3QFQE8W4DIDWVGzMgsVoLI9Az2FmfPLKdwHD9fB8Kl-PMYv3ovC6LV0qnRnNjjthFaFbdopdgOkOmkVXSKNcpJ50oZWXYFLkNQ-XpUz2NKu5uVq3p_RwJhBZMzfeUZKeTo7i3Wbb4xP94bGgU1AlIEUKKfpMFJznCaR7sH54vbQ4O5mk1Ic4Yw7UvNbMw-p0scwu6cjDJkN-yG4UAvJ7niw5LiF7DwgpCthQs_acOTQogHZ4YpsCu9xonfINTjlSPeb_AbHQpKRGwo1DeWvyScEKo9auLvSLWG9rFmXUbtW37DoKw0IAEz2mXxQqqtvumxp1fZNDjNVic6KVcJMYSLcTRFyV1kl1tEz_]--></g></svg>