<svg xmlns="http://www.w3.org/2000/svg" xmlns:xlink="http://www.w3.org/1999/xlink" contentStyleType="text/css" height="1454px" preserveAspectRatio="none" style="width:1078px;height:1454px;background:#FFFFFF;" version="1.1" viewBox="0 0 1078 1454" width="1078px" zoomAndPan="magnify"><defs/><g><rect fill="#DDDDDD" height="1442.4375" style="stroke:#181818;stroke-width:0.5;" width="102.5303" x="11" y="6"/><text fill="#000000" font-family="sans-serif" font-size="13" font-weight="bold" lengthAdjust="spacing" textLength="79.7266" x="22.4019" y="18.0669">Deelnemer</text><rect fill="#DDDDDD" height="1442.4375" style="stroke:#181818;stroke-width:0.5;" width="418.7075" x="273.5576" y="6"/><text fill="#000000" font-family="sans-serif" font-size="13" font-weight="bold" lengthAdjust="spacing" textLength="24.8828" x="470.47" y="18.0669">nID</text><rect fill="#DDDDDD" height="1442.4375" style="stroke:#181818;stroke-width:0.5;" width="178.1016" x="894.4258" y="6"/><text fill="#000000" font-family="sans-serif" font-size="13" font-weight="bold" lengthAdjust="spacing" textLength="61.769" x="952.592" y="18.0669">Register</text><rect fill="#FFFFFF" height="686.9219" style="stroke:#181818;stroke-width:1.0;" width="10" x="57.2651" y="66.4297"/><rect fill="#FFFFFF" height="598.5234" style="stroke:#181818;stroke-width:1.0;" width="10" x="57.2651" y="797.6172"/><rect fill="#FFFFFF" height="518.9922" style="stroke:#181818;stroke-width:1.0;" width="10" x="359.2251" y="234.3594"/><rect fill="#D3D3D3" height="165.5313" style="stroke:#181818;stroke-width:1.0;" width="10" x="364.2251" y="551.6875"/><rect fill="#D3D3D3" height="28" style="stroke:#181818;stroke-width:1.0;" width="10" x="369.2251" y="689.2188"/><rect fill="#FFFFFF" height="598.5234" style="stroke:#181818;stroke-width:1.0;" width="10" x="643.3999" y="797.6172"/><rect fill="#FFFFFF" height="116.5313" style="stroke:#181818;stroke-width:1.0;" width="10" x="978.4766" y="1250.4766"/><line style="stroke:#181818;stroke-width:0.5;stroke-dasharray:5.0,5.0;" x1="62" x2="62" y1="56.4297" y2="1414.1406"/><line style="stroke:#181818;stroke-width:0.5;stroke-dasharray:5.0,5.0;" x1="363.5576" x2="363.5576" y1="56.4297" y2="1414.1406"/><line style="stroke:#181818;stroke-width:0.5;stroke-dasharray:5.0,5.0;" x1="647.5347" x2="647.5347" y1="56.4297" y2="1414.1406"/><line style="stroke:#181818;stroke-width:0.5;stroke-dasharray:5.0,5.0;" x1="983.4258" x2="983.4258" y1="56.4297" y2="1414.1406"/><rect fill="#E2E2F0" height="30.2969" rx="2.5" ry="2.5" style="stroke:#181818;stroke-width:0.5;" width="54.5303" x="35" y="25.1328"/><text fill="#000000" font-family="sans-serif" font-size="14" lengthAdjust="spacing" textLength="40.5303" x="42" y="45.1279">Client</text><rect fill="#E2E2F0" height="30.2969" rx="2.5" ry="2.5" style="stroke:#181818;stroke-width:0.5;" width="54.5303" x="35" y="1413.1406"/><text fill="#000000" font-family="sans-serif" font-size="14" lengthAdjust="spacing" textLength="40.5303" x="42" y="1433.1357">Client</text><rect fill="#E2E2F0" height="30.2969" rx="2.5" ry="2.5" style="stroke:#181818;stroke-width:0.5;" width="133.335" x="297.5576" y="25.1328"/><text fill="#000000" font-family="sans-serif" font-size="14" lengthAdjust="spacing" textLength="119.335" x="304.5576" y="45.1279">autorisatieserver</text><rect fill="#E2E2F0" height="30.2969" rx="2.5" ry="2.5" style="stroke:#181818;stroke-width:0.5;" width="133.335" x="297.5576" y="1413.1406"/><text fill="#000000" font-family="sans-serif" font-size="14" lengthAdjust="spacing" textLength="119.335" x="304.5576" y="1433.1357">autorisatieserver</text><rect fill="#E2E2F0" height="30.2969" rx="2.5" ry="2.5" style="stroke:#181818;stroke-width:0.5;" width="39.7305" x="628.5347" y="25.1328"/><text fill="#000000" font-family="sans-serif" font-size="14" lengthAdjust="spacing" textLength="25.7305" x="635.5347" y="45.1279">PEP</text><rect fill="#E2E2F0" height="30.2969" rx="2.5" ry="2.5" style="stroke:#181818;stroke-width:0.5;" width="39.7305" x="628.5347" y="1413.1406"/><text fill="#000000" font-family="sans-serif" font-size="14" lengthAdjust="spacing" textLength="25.7305" x="635.5347" y="1433.1357">PEP</text><rect fill="#E2E2F0" height="30.2969" rx="2.5" ry="2.5" style="stroke:#181818;stroke-width:0.5;" width="130.1016" x="918.4258" y="25.1328"/><text fill="#000000" font-family="sans-serif" font-size="14" lengthAdjust="spacing" textLength="116.1016" x="925.4258" y="45.1279">Resource-Server</text><rect fill="#E2E2F0" height="30.2969" rx="2.5" ry="2.5" style="stroke:#181818;stroke-width:0.5;" width="130.1016" x="918.4258" y="1413.1406"/><text fill="#000000" font-family="sans-serif" font-size="14" lengthAdjust="spacing" textLength="116.1016" x="925.4258" y="1433.1357">Resource-Server</text><rect fill="#FFFFFF" height="686.9219" style="stroke:#181818;stroke-width:1.0;" width="10" x="57.2651" y="66.4297"/><rect fill="#FFFFFF" height="598.5234" style="stroke:#181818;stroke-width:1.0;" width="10" x="57.2651" y="797.6172"/><rect fill="#FFFFFF" height="518.9922" style="stroke:#181818;stroke-width:1.0;" width="10" x="359.2251" y="234.3594"/><rect fill="#D3D3D3" height="165.5313" style="stroke:#181818;stroke-width:1.0;" width="10" x="364.2251" y="551.6875"/><rect fill="#D3D3D3" height="28" style="stroke:#181818;stroke-width:1.0;" width="10" x="369.2251" y="689.2188"/><rect fill="#FFFFFF" height="598.5234" style="stroke:#181818;stroke-width:1.0;" width="10" x="643.3999" y="797.6172"/><rect fill="#FFFFFF" height="116.5313" style="stroke:#181818;stroke-width:1.0;" width="10" x="978.4766" y="1250.4766"/><polygon fill="#181818" points="352.2251,113.8281,362.2251,117.8281,352.2251,121.8281,356.2251,117.8281" style="stroke:#181818;stroke-width:1.0;"/><line style="stroke:#181818;stroke-width:1.0;" x1="67.2651" x2="358.2251" y1="117.8281" y2="117.8281"/><text fill="#000000" font-family="sans-serif" font-size="13" font-weight="bold" lengthAdjust="spacing" textLength="39.019" x="74.2651" y="97.6294">[001]</text><text fill="#000000" font-family="sans-serif" font-size="13" font-weight="bold" lengthAdjust="spacing" textLength="194.7144" x="117.2842" y="82.4966">Aanvragen van autorisatie</text><text fill="#000000" font-family="sans-serif" font-size="13" lengthAdjust="spacing" textLength="222.8662" x="117.2842" y="97.6294">"scope": "registers/resource:read"</text><text fill="#000000" font-family="sans-serif" font-size="13" lengthAdjust="spacing" textLength="131.625" x="121.4165" y="112.7622">Authenticatiemiddel</text><polygon fill="#FF0000" points="78.2651,142.9609,68.2651,146.9609,78.2651,150.9609,74.2651,146.9609" style="stroke:#FF0000;stroke-width:1.0;"/><line style="stroke:#FF0000;stroke-width:2.0;" x1="346.2251" x2="356.2251" y1="141.9609" y2="151.9609"/><line style="stroke:#FF0000;stroke-width:2.0;" x1="346.2251" x2="356.2251" y1="151.9609" y2="141.9609"/><line style="stroke:#FF0000;stroke-width:1.0;stroke-dasharray:2.0,2.0;" x1="72.2651" x2="351.2251" y1="146.9609" y2="146.9609"/><text fill="#FF0000" font-family="sans-serif" font-size="13" lengthAdjust="spacing" textLength="160.1958" x="84.2651" y="141.895">[1] 401 Unauthenticated</text><polygon fill="#FF0000" points="78.2651,172.0938,68.2651,176.0938,78.2651,180.0938,74.2651,176.0938" style="stroke:#FF0000;stroke-width:1.0;"/><line style="stroke:#FF0000;stroke-width:2.0;" x1="346.2251" x2="356.2251" y1="171.0938" y2="181.0938"/><line style="stroke:#FF0000;stroke-width:2.0;" x1="346.2251" x2="356.2251" y1="181.0938" y2="171.0938"/><line style="stroke:#FF0000;stroke-width:1.0;stroke-dasharray:2.0,2.0;" x1="72.2651" x2="351.2251" y1="176.0938" y2="176.0938"/><text fill="#FF0000" font-family="sans-serif" font-size="13" lengthAdjust="spacing" textLength="138.7725" x="84.2651" y="171.0278">[2] 403 Unauthorized</text><polygon fill="#FF0000" points="78.2651,201.2266,68.2651,205.2266,78.2651,209.2266,74.2651,205.2266" style="stroke:#FF0000;stroke-width:1.0;"/><line style="stroke:#FF0000;stroke-width:2.0;" x1="346.2251" x2="356.2251" y1="200.2266" y2="210.2266"/><line style="stroke:#FF0000;stroke-width:2.0;" x1="346.2251" x2="356.2251" y1="210.2266" y2="200.2266"/><line style="stroke:#FF0000;stroke-width:1.0;stroke-dasharray:2.0,2.0;" x1="72.2651" x2="351.2251" y1="205.2266" y2="205.2266"/><text fill="#FF0000" font-family="sans-serif" font-size="13" lengthAdjust="spacing" textLength="204.2676" x="84.2651" y="200.1606">[3] 403 Invalid client certificate</text><polygon fill="#FF0000" points="78.2651,230.3594,68.2651,234.3594,78.2651,238.3594,74.2651,234.3594" style="stroke:#FF0000;stroke-width:1.0;"/><line style="stroke:#FF0000;stroke-width:2.0;" x1="341.2251" x2="351.2251" y1="229.3594" y2="239.3594"/><line style="stroke:#FF0000;stroke-width:2.0;" x1="341.2251" x2="351.2251" y1="239.3594" y2="229.3594"/><line style="stroke:#FF0000;stroke-width:1.0;stroke-dasharray:2.0,2.0;" x1="72.2651" x2="346.2251" y1="234.3594" y2="234.3594"/><text fill="#FF0000" font-family="sans-serif" font-size="13" lengthAdjust="spacing" textLength="115.6606" x="84.2651" y="229.2935">[4] 404 Not found</text><line style="stroke:#181818;stroke-width:1.0;" x1="369.2251" x2="411.2251" y1="263.4922" y2="263.4922"/><line style="stroke:#181818;stroke-width:1.0;" x1="411.2251" x2="411.2251" y1="263.4922" y2="276.4922"/><line style="stroke:#181818;stroke-width:1.0;" x1="370.2251" x2="411.2251" y1="276.4922" y2="276.4922"/><polygon fill="#181818" points="380.2251,272.4922,370.2251,276.4922,380.2251,280.4922,376.2251,276.4922" style="stroke:#181818;stroke-width:1.0;"/><text fill="#000000" font-family="sans-serif" font-size="13" font-weight="bold" lengthAdjust="spacing" textLength="39.019" x="376.2251" y="258.4263">[002]</text><text fill="#000000" font-family="sans-serif" font-size="13" lengthAdjust="spacing" textLength="189.4331" x="419.2441" y="258.4263">Valideer Authenticatiemiddel</text><polygon fill="#FF0000" points="78.2651,301.625,68.2651,305.625,78.2651,309.625,74.2651,305.625" style="stroke:#FF0000;stroke-width:1.0;"/><line style="stroke:#FF0000;stroke-width:2.0;" x1="341.2251" x2="351.2251" y1="300.625" y2="310.625"/><line style="stroke:#FF0000;stroke-width:2.0;" x1="341.2251" x2="351.2251" y1="310.625" y2="300.625"/><line style="stroke:#FF0000;stroke-width:1.0;stroke-dasharray:2.0,2.0;" x1="72.2651" x2="346.2251" y1="305.625" y2="305.625"/><text fill="#FF0000" font-family="sans-serif" font-size="13" lengthAdjust="spacing" textLength="136.957" x="84.2651" y="300.5591">[5] 400 Invalid scope</text><polygon fill="#FF0000" points="78.2651,330.7578,68.2651,334.7578,78.2651,338.7578,74.2651,334.7578" style="stroke:#FF0000;stroke-width:1.0;"/><line style="stroke:#FF0000;stroke-width:2.0;" x1="341.2251" x2="351.2251" y1="329.7578" y2="339.7578"/><line style="stroke:#FF0000;stroke-width:2.0;" x1="341.2251" x2="351.2251" y1="339.7578" y2="329.7578"/><line style="stroke:#FF0000;stroke-width:1.0;stroke-dasharray:2.0,2.0;" x1="72.2651" x2="346.2251" y1="334.7578" y2="334.7578"/><text fill="#FF0000" font-family="sans-serif" font-size="13" lengthAdjust="spacing" textLength="171.0439" x="84.2651" y="329.6919">[6] 400 Audience required</text><polygon fill="#FF0000" points="78.2651,359.8906,68.2651,363.8906,78.2651,367.8906,74.2651,363.8906" style="stroke:#FF0000;stroke-width:1.0;"/><line style="stroke:#FF0000;stroke-width:2.0;" x1="341.2251" x2="351.2251" y1="358.8906" y2="368.8906"/><line style="stroke:#FF0000;stroke-width:2.0;" x1="341.2251" x2="351.2251" y1="368.8906" y2="358.8906"/><line style="stroke:#FF0000;stroke-width:1.0;stroke-dasharray:2.0,2.0;" x1="72.2651" x2="346.2251" y1="363.8906" y2="363.8906"/><text fill="#FF0000" font-family="sans-serif" font-size="13" lengthAdjust="spacing" textLength="136.3604" x="84.2651" y="358.8247">[7] 400 Invalid query</text><polygon fill="#FF0000" points="78.2651,389.0234,68.2651,393.0234,78.2651,397.0234,74.2651,393.0234" style="stroke:#FF0000;stroke-width:1.0;"/><line style="stroke:#FF0000;stroke-width:2.0;" x1="341.2251" x2="351.2251" y1="388.0234" y2="398.0234"/><line style="stroke:#FF0000;stroke-width:2.0;" x1="341.2251" x2="351.2251" y1="398.0234" y2="388.0234"/><line style="stroke:#FF0000;stroke-width:1.0;stroke-dasharray:2.0,2.0;" x1="72.2651" x2="346.2251" y1="393.0234" y2="393.0234"/><text fill="#FF0000" font-family="sans-serif" font-size="13" lengthAdjust="spacing" textLength="135.7192" x="84.2651" y="387.9575">[8] 400 No operation</text><polygon fill="#FF0000" points="78.2651,418.1563,68.2651,422.1563,78.2651,426.1563,74.2651,422.1563" style="stroke:#FF0000;stroke-width:1.0;"/><line style="stroke:#FF0000;stroke-width:2.0;" x1="341.2251" x2="351.2251" y1="417.1563" y2="427.1563"/><line style="stroke:#FF0000;stroke-width:2.0;" x1="341.2251" x2="351.2251" y1="427.1563" y2="417.1563"/><line style="stroke:#FF0000;stroke-width:1.0;stroke-dasharray:2.0,2.0;" x1="72.2651" x2="346.2251" y1="422.1563" y2="422.1563"/><text fill="#FF0000" font-family="sans-serif" font-size="13" lengthAdjust="spacing" textLength="143.9204" x="84.2651" y="417.0903">[9] 401 JWT is expired</text><polygon fill="#FF0000" points="78.2651,447.2891,68.2651,451.2891,78.2651,455.2891,74.2651,451.2891" style="stroke:#FF0000;stroke-width:1.0;"/><line style="stroke:#FF0000;stroke-width:2.0;" x1="341.2251" x2="351.2251" y1="446.2891" y2="456.2891"/><line style="stroke:#FF0000;stroke-width:2.0;" x1="341.2251" x2="351.2251" y1="456.2891" y2="446.2891"/><line style="stroke:#FF0000;stroke-width:1.0;stroke-dasharray:2.0,2.0;" x1="72.2651" x2="346.2251" y1="451.2891" y2="451.2891"/><text fill="#FF0000" font-family="sans-serif" font-size="13" lengthAdjust="spacing" textLength="252.4717" x="84.2651" y="446.2231">[10] 401 JWT header is an invalid JSON</text><line style="stroke:#181818;stroke-width:1.0;" x1="369.2251" x2="411.2251" y1="480.4219" y2="480.4219"/><line style="stroke:#181818;stroke-width:1.0;" x1="411.2251" x2="411.2251" y1="480.4219" y2="493.4219"/><line style="stroke:#181818;stroke-width:1.0;" x1="370.2251" x2="411.2251" y1="493.4219" y2="493.4219"/><polygon fill="#181818" points="380.2251,489.4219,370.2251,493.4219,380.2251,497.4219,376.2251,493.4219" style="stroke:#181818;stroke-width:1.0;"/><text fill="#000000" font-family="sans-serif" font-size="13" font-weight="bold" lengthAdjust="spacing" textLength="39.019" x="376.2251" y="475.356">[003]</text><text fill="#000000" font-family="sans-serif" font-size="13" lengthAdjust="spacing" textLength="207.1558" x="419.2441" y="475.356">Run Rule-engine o.b.v. scope(s)</text><polygon fill="#FF0000" points="78.2651,518.5547,68.2651,522.5547,78.2651,526.5547,74.2651,522.5547" style="stroke:#FF0000;stroke-width:1.0;"/><line style="stroke:#FF0000;stroke-width:2.0;" x1="341.2251" x2="351.2251" y1="517.5547" y2="527.5547"/><line style="stroke:#FF0000;stroke-width:2.0;" x1="341.2251" x2="351.2251" y1="527.5547" y2="517.5547"/><line style="stroke:#FF0000;stroke-width:1.0;stroke-dasharray:2.0,2.0;" x1="72.2651" x2="346.2251" y1="522.5547" y2="522.5547"/><text fill="#FF0000" font-family="sans-serif" font-size="13" lengthAdjust="spacing" textLength="246.4858" x="84.2651" y="517.4888">[11] 401 Access denied, invalid scope</text><polygon fill="#FF0000" points="78.2651,547.6875,68.2651,551.6875,78.2651,555.6875,74.2651,551.6875" style="stroke:#FF0000;stroke-width:1.0;"/><line style="stroke:#FF0000;stroke-width:2.0;" x1="346.2251" x2="356.2251" y1="546.6875" y2="556.6875"/><line style="stroke:#FF0000;stroke-width:2.0;" x1="346.2251" x2="356.2251" y1="556.6875" y2="546.6875"/><line style="stroke:#FF0000;stroke-width:1.0;stroke-dasharray:2.0,2.0;" x1="72.2651" x2="351.2251" y1="551.6875" y2="551.6875"/><text fill="#FF0000" font-family="sans-serif" font-size="13" lengthAdjust="spacing" textLength="146.542" x="84.2651" y="546.6216">[12] 401 Token invalid</text><line style="stroke:#181818;stroke-width:1.0;" x1="374.2251" x2="416.2251" y1="580.8203" y2="580.8203"/><line style="stroke:#181818;stroke-width:1.0;" x1="416.2251" x2="416.2251" y1="580.8203" y2="593.8203"/><line style="stroke:#181818;stroke-width:1.0;" x1="375.2251" x2="416.2251" y1="593.8203" y2="593.8203"/><polygon fill="#181818" points="385.2251,589.8203,375.2251,593.8203,385.2251,597.8203,381.2251,593.8203" style="stroke:#181818;stroke-width:1.0;"/><text fill="#000000" font-family="sans-serif" font-size="13" font-weight="bold" lengthAdjust="spacing" textLength="39.019" x="381.2251" y="575.7544">[004]</text><text fill="#000000" font-family="sans-serif" font-size="13" lengthAdjust="spacing" textLength="127.4673" x="424.2441" y="575.7544">Valideer autorisatie</text><polygon fill="#FF0000" points="78.2651,618.9531,68.2651,622.9531,78.2651,626.9531,74.2651,622.9531" style="stroke:#FF0000;stroke-width:1.0;"/><line style="stroke:#FF0000;stroke-width:2.0;" x1="346.2251" x2="356.2251" y1="617.9531" y2="627.9531"/><line style="stroke:#FF0000;stroke-width:2.0;" x1="346.2251" x2="356.2251" y1="627.9531" y2="617.9531"/><line style="stroke:#FF0000;stroke-width:1.0;stroke-dasharray:2.0,2.0;" x1="72.2651" x2="351.2251" y1="622.9531" y2="622.9531"/><text fill="#FF0000" font-family="sans-serif" font-size="13" lengthAdjust="spacing" textLength="192.1055" x="84.2651" y="617.8872">[13] 403 RBAC access denied</text><polygon fill="#FF0000" points="78.2651,648.0859,68.2651,652.0859,78.2651,656.0859,74.2651,652.0859" style="stroke:#FF0000;stroke-width:1.0;"/><line style="stroke:#FF0000;stroke-width:2.0;" x1="346.2251" x2="356.2251" y1="647.0859" y2="657.0859"/><line style="stroke:#FF0000;stroke-width:2.0;" x1="346.2251" x2="356.2251" y1="657.0859" y2="647.0859"/><line style="stroke:#FF0000;stroke-width:1.0;stroke-dasharray:2.0,2.0;" x1="72.2651" x2="351.2251" y1="652.0859" y2="652.0859"/><text fill="#FF0000" font-family="sans-serif" font-size="13" lengthAdjust="spacing" textLength="267.96" x="84.2651" y="647.02">[14] 403 Request does not match scopes</text><line style="stroke:#181818;stroke-width:1.0;" x1="379.2251" x2="421.2251" y1="681.2188" y2="681.2188"/><line style="stroke:#181818;stroke-width:1.0;" x1="421.2251" x2="421.2251" y1="681.2188" y2="694.2188"/><line style="stroke:#181818;stroke-width:1.0;" x1="380.2251" x2="421.2251" y1="694.2188" y2="694.2188"/><polygon fill="#181818" points="390.2251,690.2188,380.2251,694.2188,390.2251,698.2188,386.2251,694.2188" style="stroke:#181818;stroke-width:1.0;"/><text fill="#000000" font-family="sans-serif" font-size="13" font-weight="bold" lengthAdjust="spacing" textLength="39.019" x="386.2251" y="676.1528">[005]</text><text fill="#000000" font-family="sans-serif" font-size="13" lengthAdjust="spacing" textLength="154.21" x="429.2441" y="676.1528">Genereer Access-Token</text><polygon fill="#181818" points="73.2651,749.3516,63.2651,753.3516,73.2651,757.3516,69.2651,753.3516" style="stroke:#181818;stroke-width:1.0;"/><line style="stroke:#181818;stroke-width:1.0;stroke-dasharray:2.0,2.0;" x1="67.2651" x2="363.2251" y1="753.3516" y2="753.3516"/><text fill="#000000" font-family="sans-serif" font-size="13" font-weight="bold" lengthAdjust="spacing" textLength="39.019" x="79.2651" y="748.2856">[006]</text><text fill="#000000" font-family="sans-serif" font-size="13" lengthAdjust="spacing" textLength="195.3237" x="122.2842" y="748.2856">200 Response (Access-Token)</text><polygon fill="#181818" points="631.3999,793.6172,641.3999,797.6172,631.3999,801.6172,635.3999,797.6172" style="stroke:#181818;stroke-width:1.0;"/><line style="stroke:#181818;stroke-width:1.0;" x1="67.2651" x2="637.3999" y1="797.6172" y2="797.6172"/><text fill="#000000" font-family="sans-serif" font-size="13" font-weight="bold" lengthAdjust="spacing" textLength="39.019" x="74.2651" y="784.9849">[007]</text><text fill="#000000" font-family="sans-serif" font-size="13" font-weight="bold" lengthAdjust="spacing" textLength="112.2837" x="117.2842" y="777.4185">GraphQL Query</text><text fill="#000000" font-family="sans-serif" font-size="13" lengthAdjust="spacing" textLength="239.8652" x="117.2842" y="792.5513">Authenticatiemiddel + Access-Token</text><path d="M658,810.6172 L658,835.6172 L829,835.6172 L829,820.6172 L819,810.6172 L658,810.6172 " fill="#FEFFDD" style="stroke:#181818;stroke-width:0.5;"/><path d="M819,810.6172 L819,820.6172 L829,820.6172 L819,810.6172 " fill="#FEFFDD" style="stroke:#181818;stroke-width:0.5;"/><text fill="#000000" font-family="sans-serif" font-size="13" lengthAdjust="spacing" textLength="150.6172" x="664" y="827.6841">Inline filtering requests</text><polygon fill="#FF0000" points="78.2651,857.8828,68.2651,861.8828,78.2651,865.8828,74.2651,861.8828" style="stroke:#FF0000;stroke-width:1.0;"/><line style="stroke:#FF0000;stroke-width:2.0;" x1="625.3999" x2="635.3999" y1="856.8828" y2="866.8828"/><line style="stroke:#FF0000;stroke-width:2.0;" x1="625.3999" x2="635.3999" y1="866.8828" y2="856.8828"/><line style="stroke:#FF0000;stroke-width:1.0;stroke-dasharray:2.0,2.0;" x1="72.2651" x2="630.3999" y1="861.8828" y2="861.8828"/><text fill="#FF0000" font-family="sans-serif" font-size="13" lengthAdjust="spacing" textLength="191.4961" x="84.2651" y="856.8169">[15] 500 Internal server error</text><polygon fill="#FF0000" points="78.2651,887.0156,68.2651,891.0156,78.2651,895.0156,74.2651,891.0156" style="stroke:#FF0000;stroke-width:1.0;"/><line style="stroke:#FF0000;stroke-width:2.0;" x1="625.3999" x2="635.3999" y1="886.0156" y2="896.0156"/><line style="stroke:#FF0000;stroke-width:2.0;" x1="625.3999" x2="635.3999" y1="896.0156" y2="886.0156"/><line style="stroke:#FF0000;stroke-width:1.0;stroke-dasharray:2.0,2.0;" x1="72.2651" x2="630.3999" y1="891.0156" y2="891.0156"/><text fill="#FF0000" font-family="sans-serif" font-size="13" lengthAdjust="spacing" textLength="144.6377" x="84.2651" y="885.9497">[16] 502 Bad gateway</text><line style="stroke:#181818;stroke-width:1.0;" x1="653.3999" x2="695.3999" y1="920.1484" y2="920.1484"/><line style="stroke:#181818;stroke-width:1.0;" x1="695.3999" x2="695.3999" y1="920.1484" y2="933.1484"/><line style="stroke:#181818;stroke-width:1.0;" x1="654.3999" x2="695.3999" y1="933.1484" y2="933.1484"/><polygon fill="#181818" points="664.3999,929.1484,654.3999,933.1484,664.3999,937.1484,660.3999,933.1484" style="stroke:#181818;stroke-width:1.0;"/><text fill="#000000" font-family="sans-serif" font-size="13" font-weight="bold" lengthAdjust="spacing" textLength="39.019" x="660.3999" y="915.0825">[008]</text><text fill="#000000" font-family="sans-serif" font-size="13" lengthAdjust="spacing" textLength="189.4331" x="703.4189" y="915.0825">Valideer Authenticatiemiddel</text><line style="stroke:#181818;stroke-width:1.0;" x1="653.3999" x2="695.3999" y1="962.2813" y2="962.2813"/><line style="stroke:#181818;stroke-width:1.0;" x1="695.3999" x2="695.3999" y1="962.2813" y2="975.2813"/><line style="stroke:#181818;stroke-width:1.0;" x1="654.3999" x2="695.3999" y1="975.2813" y2="975.2813"/><polygon fill="#181818" points="664.3999,971.2813,654.3999,975.2813,664.3999,979.2813,660.3999,975.2813" style="stroke:#181818;stroke-width:1.0;"/><text fill="#000000" font-family="sans-serif" font-size="13" font-weight="bold" lengthAdjust="spacing" textLength="39.019" x="660.3999" y="957.2153">[009]</text><text fill="#000000" font-family="sans-serif" font-size="13" lengthAdjust="spacing" textLength="115.1592" x="703.4189" y="957.2153">Valideer GraphQL</text><polygon fill="#FF0000" points="78.2651,1000.4141,68.2651,1004.4141,78.2651,1008.4141,74.2651,1004.4141" style="stroke:#FF0000;stroke-width:1.0;"/><line style="stroke:#FF0000;stroke-width:2.0;" x1="625.3999" x2="635.3999" y1="999.4141" y2="1009.4141"/><line style="stroke:#FF0000;stroke-width:2.0;" x1="625.3999" x2="635.3999" y1="1009.4141" y2="999.4141"/><line style="stroke:#FF0000;stroke-width:1.0;stroke-dasharray:2.0,2.0;" x1="72.2651" x2="630.3999" y1="1004.4141" y2="1004.4141"/><text fill="#FF0000" font-family="sans-serif" font-size="13" lengthAdjust="spacing" textLength="145.228" x="84.2651" y="999.3481">[17] 400 Invalid scope</text><polygon fill="#FF0000" points="78.2651,1029.5469,68.2651,1033.5469,78.2651,1037.5469,74.2651,1033.5469" style="stroke:#FF0000;stroke-width:1.0;"/><line style="stroke:#FF0000;stroke-width:2.0;" x1="625.3999" x2="635.3999" y1="1028.5469" y2="1038.5469"/><line style="stroke:#FF0000;stroke-width:2.0;" x1="625.3999" x2="635.3999" y1="1038.5469" y2="1028.5469"/><line style="stroke:#FF0000;stroke-width:1.0;stroke-dasharray:2.0,2.0;" x1="72.2651" x2="630.3999" y1="1033.5469" y2="1033.5469"/><text fill="#FF0000" font-family="sans-serif" font-size="13" lengthAdjust="spacing" textLength="179.3149" x="84.2651" y="1028.481">[18] 400 Audience required</text><polygon fill="#FF0000" points="78.2651,1058.6797,68.2651,1062.6797,78.2651,1066.6797,74.2651,1062.6797" style="stroke:#FF0000;stroke-width:1.0;"/><line style="stroke:#FF0000;stroke-width:2.0;" x1="625.3999" x2="635.3999" y1="1057.6797" y2="1067.6797"/><line style="stroke:#FF0000;stroke-width:2.0;" x1="625.3999" x2="635.3999" y1="1067.6797" y2="1057.6797"/><line style="stroke:#FF0000;stroke-width:1.0;stroke-dasharray:2.0,2.0;" x1="72.2651" x2="630.3999" y1="1062.6797" y2="1062.6797"/><text fill="#FF0000" font-family="sans-serif" font-size="13" lengthAdjust="spacing" textLength="144.6313" x="84.2651" y="1057.6138">[19] 400 Invalid query</text><polygon fill="#FF0000" points="78.2651,1087.8125,68.2651,1091.8125,78.2651,1095.8125,74.2651,1091.8125" style="stroke:#FF0000;stroke-width:1.0;"/><line style="stroke:#FF0000;stroke-width:2.0;" x1="625.3999" x2="635.3999" y1="1086.8125" y2="1096.8125"/><line style="stroke:#FF0000;stroke-width:2.0;" x1="625.3999" x2="635.3999" y1="1096.8125" y2="1086.8125"/><line style="stroke:#FF0000;stroke-width:1.0;stroke-dasharray:2.0,2.0;" x1="72.2651" x2="630.3999" y1="1091.8125" y2="1091.8125"/><text fill="#FF0000" font-family="sans-serif" font-size="13" lengthAdjust="spacing" textLength="143.9902" x="84.2651" y="1086.7466">[20] 400 No operation</text><line style="stroke:#181818;stroke-width:1.0;" x1="653.3999" x2="695.3999" y1="1120.9453" y2="1120.9453"/><line style="stroke:#181818;stroke-width:1.0;" x1="695.3999" x2="695.3999" y1="1120.9453" y2="1133.9453"/><line style="stroke:#181818;stroke-width:1.0;" x1="654.3999" x2="695.3999" y1="1133.9453" y2="1133.9453"/><polygon fill="#181818" points="664.3999,1129.9453,654.3999,1133.9453,664.3999,1137.9453,660.3999,1133.9453" style="stroke:#181818;stroke-width:1.0;"/><text fill="#000000" font-family="sans-serif" font-size="13" font-weight="bold" lengthAdjust="spacing" textLength="39.019" x="660.3999" y="1115.8794">[010]</text><text fill="#000000" font-family="sans-serif" font-size="13" lengthAdjust="spacing" textLength="258.0576" x="703.4189" y="1115.8794">Valideer GraphQL request met scope(s)</text><polygon fill="#FF0000" points="78.2651,1159.0781,68.2651,1163.0781,78.2651,1167.0781,74.2651,1163.0781" style="stroke:#FF0000;stroke-width:1.0;"/><line style="stroke:#FF0000;stroke-width:2.0;" x1="625.3999" x2="635.3999" y1="1158.0781" y2="1168.0781"/><line style="stroke:#FF0000;stroke-width:2.0;" x1="625.3999" x2="635.3999" y1="1168.0781" y2="1158.0781"/><line style="stroke:#FF0000;stroke-width:1.0;stroke-dasharray:2.0,2.0;" x1="72.2651" x2="630.3999" y1="1163.0781" y2="1163.0781"/><text fill="#FF0000" font-family="sans-serif" font-size="13" lengthAdjust="spacing" textLength="246.4858" x="84.2651" y="1158.0122">[21] 401 Access denied, invalid scope</text><polygon fill="#FF0000" points="78.2651,1188.2109,68.2651,1192.2109,78.2651,1196.2109,74.2651,1192.2109" style="stroke:#FF0000;stroke-width:1.0;"/><line style="stroke:#FF0000;stroke-width:2.0;" x1="625.3999" x2="635.3999" y1="1187.2109" y2="1197.2109"/><line style="stroke:#FF0000;stroke-width:2.0;" x1="625.3999" x2="635.3999" y1="1197.2109" y2="1187.2109"/><line style="stroke:#FF0000;stroke-width:1.0;stroke-dasharray:2.0,2.0;" x1="72.2651" x2="630.3999" y1="1192.2109" y2="1192.2109"/><text fill="#FF0000" font-family="sans-serif" font-size="13" lengthAdjust="spacing" textLength="192.1055" x="84.2651" y="1187.145">[22] 403 RBAC access denied</text><polygon fill="#FF0000" points="78.2651,1217.3438,68.2651,1221.3438,78.2651,1225.3438,74.2651,1221.3438" style="stroke:#FF0000;stroke-width:1.0;"/><line style="stroke:#FF0000;stroke-width:2.0;" x1="625.3999" x2="635.3999" y1="1216.3438" y2="1226.3438"/><line style="stroke:#FF0000;stroke-width:2.0;" x1="625.3999" x2="635.3999" y1="1226.3438" y2="1216.3438"/><line style="stroke:#FF0000;stroke-width:1.0;stroke-dasharray:2.0,2.0;" x1="72.2651" x2="630.3999" y1="1221.3438" y2="1221.3438"/><text fill="#FF0000" font-family="sans-serif" font-size="13" lengthAdjust="spacing" textLength="267.96" x="84.2651" y="1216.2778">[23] 403 Request does not match scopes</text><polygon fill="#181818" points="966.4766,1246.4766,976.4766,1250.4766,966.4766,1254.4766,970.4766,1250.4766" style="stroke:#181818;stroke-width:1.0;"/><line style="stroke:#181818;stroke-width:1.0;" x1="653.3999" x2="972.4766" y1="1250.4766" y2="1250.4766"/><text fill="#000000" font-family="sans-serif" font-size="13" font-weight="bold" lengthAdjust="spacing" textLength="39.019" x="660.3999" y="1245.4106">[011]</text><text fill="#000000" font-family="sans-serif" font-size="13" lengthAdjust="spacing" textLength="114.8735" x="703.4189" y="1245.4106">GraphQL Request</text><polygon fill="#FF0000" points="78.2651,1275.6094,68.2651,1279.6094,78.2651,1283.6094,74.2651,1279.6094" style="stroke:#FF0000;stroke-width:1.0;"/><line style="stroke:#FF0000;stroke-width:2.0;" x1="625.3999" x2="635.3999" y1="1274.6094" y2="1284.6094"/><line style="stroke:#FF0000;stroke-width:2.0;" x1="625.3999" x2="635.3999" y1="1284.6094" y2="1274.6094"/><line style="stroke:#FF0000;stroke-width:1.0;stroke-dasharray:2.0,2.0;" x1="72.2651" x2="630.3999" y1="1279.6094" y2="1279.6094"/><text fill="#FF0000" font-family="sans-serif" font-size="13" lengthAdjust="spacing" textLength="171.9834" x="84.2651" y="1274.5435">[24] 504 Gateway timeout</text><polygon fill="#FF0000" points="664.3999,1304.7422,654.3999,1308.7422,664.3999,1312.7422,660.3999,1308.7422" style="stroke:#FF0000;stroke-width:1.0;"/><line style="stroke:#FF0000;stroke-width:2.0;" x1="960.4766" x2="970.4766" y1="1303.7422" y2="1313.7422"/><line style="stroke:#FF0000;stroke-width:2.0;" x1="960.4766" x2="970.4766" y1="1313.7422" y2="1303.7422"/><line style="stroke:#FF0000;stroke-width:1.0;stroke-dasharray:2.0,2.0;" x1="658.3999" x2="965.4766" y1="1308.7422" y2="1308.7422"/><text fill="#FF0000" font-family="sans-serif" font-size="13" lengthAdjust="spacing" textLength="191.4961" x="670.3999" y="1303.6763">[25] 500 Internal server error</text><polygon fill="#FF0000" points="78.2651,1333.875,68.2651,1337.875,78.2651,1341.875,74.2651,1337.875" style="stroke:#FF0000;stroke-width:1.0;"/><line style="stroke:#FF0000;stroke-width:2.0;" x1="625.3999" x2="635.3999" y1="1332.875" y2="1342.875"/><line style="stroke:#FF0000;stroke-width:2.0;" x1="625.3999" x2="635.3999" y1="1342.875" y2="1332.875"/><line style="stroke:#FF0000;stroke-width:1.0;stroke-dasharray:2.0,2.0;" x1="72.2651" x2="630.3999" y1="1337.875" y2="1337.875"/><text fill="#FF0000" font-family="sans-serif" font-size="13" lengthAdjust="spacing" textLength="191.4961" x="84.2651" y="1332.8091">[25] 500 Internal server error</text><polygon fill="#181818" points="664.3999,1363.0078,654.3999,1367.0078,664.3999,1371.0078,660.3999,1367.0078" style="stroke:#181818;stroke-width:1.0;"/><line style="stroke:#181818;stroke-width:1.0;stroke-dasharray:2.0,2.0;" x1="658.3999" x2="982.4766" y1="1367.0078" y2="1367.0078"/><text fill="#000000" font-family="sans-serif" font-size="13" font-weight="bold" lengthAdjust="spacing" textLength="39.019" x="670.3999" y="1361.9419">[012]</text><text fill="#000000" font-family="sans-serif" font-size="13" lengthAdjust="spacing" textLength="163.5918" x="713.4189" y="1361.9419">200 Response (GraphQL)</text><polygon fill="#181818" points="73.2651,1392.1406,63.2651,1396.1406,73.2651,1400.1406,69.2651,1396.1406" style="stroke:#181818;stroke-width:1.0;"/><line style="stroke:#181818;stroke-width:1.0;stroke-dasharray:2.0,2.0;" x1="67.2651" x2="647.3999" y1="1396.1406" y2="1396.1406"/><text fill="#000000" font-family="sans-serif" font-size="13" font-weight="bold" lengthAdjust="spacing" textLength="39.019" x="79.2651" y="1391.0747">[013]</text><text fill="#000000" font-family="sans-serif" font-size="13" lengthAdjust="spacing" textLength="163.5918" x="122.2842" y="1391.0747">200 Response (GraphQL)</text><!--SRC=[hLRRJjj047tFLqpDGu4sr0dX5Y6a02q28Sgj5mbuMBn3iiBUDRlh5FZwZYz9R69ebZHIbCJEd3rpPkQCFyA7MBD-nC2YUWQh4smqpBsGCTCiWbEchGX4pAGzPPmBsOUsNxg_gnv7rrj-et6h7i7RHmmbHgYz1j0hda20jnSAbDO3PY3_sa39WSAAM7cuNnF54gkqCCmADAY7X9m2z18xUBx8Va-7d7uzpVxqJOIMxbTFESU-CBQMu3aQbUW0cnUJWtHnBJzxWfNIaabqYngyxTkTAz_tRxm62wmOCekZ1FCFQEwK2NTXURd7v92aHmb39g6Ku_BojVHCe6Bqkk3fWgpvCkBHrSYuToqpGC8MGHeL2SunhB0oLiMZyxURLmiQ-KtpTuN7Tg12fGcHxrorRg3Zj-27P1DSv0u0xHHWjG2WR9wTebVpw4CvPA7W4EI10L9rxZ8g3bYT5Ai39yh2dKeaBwj2CYOHTVcuKEL6AdsVAjdFb1VIZJhTto_xMihL7-UT5TuXV3qFxoMS8WAaz1uIePsKtwWoU4XGFpc4R-RX9mg8kIPDb7I8tigxxkZN9GW3-1Wxac_v4u013GOLW71eeaIHpj75zvEw-hzLwlD4qZl49ig-a0XgvNPbk9BNPj4ipJDanPJr0Z8K0nobGFvvJDQr-grs3dUfxd6SSassTSqE2yUYFx07cZtDrlSbZvf7WMBGptTxUy3AChY0T0eGwdOq5hX20vB6FM8s6EGo6jUg7w14dGrunggPYVfFwJZMEiahbold4u7HUcXsQRFwb8-9bJG8YsKEIpCSKgoRqhx9Tr-wQeXdF3WxXhDqijFrKkDWyAcQzYJlOeUIkkGkQTgWxiRWXp9C1-Gk-va-1-Yy8cPg4Rxic7JtJXTyX5ifDbdaMcPGT4ko4F9D3AYrqYuuwobE6tOPXpun-qFLgscHFBIiu9lE_zR_2-7doNsZRZqun6- -jXySCBRg5iJiyMs_PaEu2J_guAAx848xSUCvv6tFOiSESErNlSq1PFMTtZRHh_h8sXtBLq2MXll5m-qSIdRIuUh0GJvOO4M4Ah4PGa6iXF2IO0NfFutxspWr-bL9PVOymgrwSo5dnPPV23aknjZZPm4fh7RQr_y2]--></g></svg>