<?xml version="1.0" encoding="us-ascii" standalone="no"?><svg xmlns="http://www.w3.org/2000/svg" xmlns:xlink="http://www.w3.org/1999/xlink" contentStyleType="text/css" height="361px" preserveAspectRatio="none" style="width:421px;height:361px;background:#FFFFFF;" version="1.1" viewBox="0 0 421 361" width="421px" zoomAndPan="magnify"><defs/><g><rect fill="#ADD8E6" height="349.7891" style="stroke:#181818;stroke-width:0.5;" width="146" x="41" y="6"/><text fill="#000000" font-family="sans-serif" font-size="13" font-weight="bold" lengthAdjust="spacing" textLength="5" x="111.5" y="18.0669">&#160;</text><rect fill="#FFFFE0" height="349.7891" style="stroke:#181818;stroke-width:0.5;" width="140" x="269" y="6"/><text fill="#000000" font-family="sans-serif" font-size="13" font-weight="bold" lengthAdjust="spacing" textLength="5" x="336.5" y="18.0669">&#160;</text><rect fill="#FFFFFF" height="62.2656" style="stroke:#181818;stroke-width:1.0;" width="10" x="109" y="111.6953"/><rect fill="#FFFFFF" height="62.2656" style="stroke:#181818;stroke-width:1.0;" width="10" x="109" y="234.2266"/><rect fill="#FFFFFF" height="62.2656" style="stroke:#181818;stroke-width:1.0;" width="10" x="334" y="111.6953"/><rect fill="#FFFFFF" height="62.2656" style="stroke:#181818;stroke-width:1.0;" width="10" x="334" y="234.2266"/><rect fill="none" height="108.5313" style="stroke:#000000;stroke-width:1.5;" width="380" x="35" y="73.4297"/><rect fill="none" height="108.5313" style="stroke:#000000;stroke-width:1.5;" width="380" x="35" y="195.9609"/><line style="stroke:#181818;stroke-width:0.5;stroke-dasharray:5.0,5.0;" x1="114" x2="114" y1="56.4297" y2="321.4922"/><line style="stroke:#181818;stroke-width:0.5;stroke-dasharray:5.0,5.0;" x1="339" x2="339" y1="56.4297" y2="321.4922"/><rect fill="#E2E2F0" height="30.2969" rx="2.5" ry="2.5" style="stroke:#181818;stroke-width:0.5;" width="98" x="65" y="25.1328"/><text fill="#000000" font-family="sans-serif" font-size="14" lengthAdjust="spacing" textLength="84" x="72" y="45.1279">bronhouder</text><rect fill="#E2E2F0" height="30.2969" rx="2.5" ry="2.5" style="stroke:#181818;stroke-width:0.5;" width="98" x="65" y="320.4922"/><text fill="#000000" font-family="sans-serif" font-size="14" lengthAdjust="spacing" textLength="84" x="72" y="340.4873">bronhouder</text><rect fill="#E2E2F0" height="30.2969" rx="2.5" ry="2.5" style="stroke:#181818;stroke-width:0.5;" width="92" x="293" y="25.1328"/><text fill="#000000" font-family="sans-serif" font-size="14" lengthAdjust="spacing" textLength="78" x="300" y="45.1279">deelnemer</text><rect fill="#E2E2F0" height="30.2969" rx="2.5" ry="2.5" style="stroke:#181818;stroke-width:0.5;" width="92" x="293" y="320.4922"/><text fill="#000000" font-family="sans-serif" font-size="14" lengthAdjust="spacing" textLength="78" x="300" y="340.4873">deelnemer</text><rect fill="#FFFFFF" height="62.2656" style="stroke:#181818;stroke-width:1.0;" width="10" x="109" y="111.6953"/><rect fill="#FFFFFF" height="62.2656" style="stroke:#181818;stroke-width:1.0;" width="10" x="109" y="234.2266"/><rect fill="#FFFFFF" height="62.2656" style="stroke:#181818;stroke-width:1.0;" width="10" x="334" y="111.6953"/><rect fill="#FFFFFF" height="62.2656" style="stroke:#181818;stroke-width:1.0;" width="10" x="334" y="234.2266"/><path d="M35,73.4297 L166,73.4297 L166,80.5625 L156,90.5625 L35,90.5625 L35,73.4297 " fill="#EEEEEE" style="stroke:#000000;stroke-width:1.5;"/><rect fill="none" height="108.5313" style="stroke:#000000;stroke-width:1.5;" width="380" x="35" y="73.4297"/><text fill="#000000" font-family="sans-serif" font-size="13" font-weight="bold" lengthAdjust="spacing" textLength="86" x="50" y="86.4966">Notificeren</text><polygon fill="#181818" points="322,107.6953,332,111.6953,322,115.6953,326,111.6953" style="stroke:#181818;stroke-width:1.0;"/><line style="stroke:#181818;stroke-width:1.0;" x1="119" x2="328" y1="111.6953" y2="111.6953"/><text fill="#000000" font-family="sans-serif" font-size="13" font-weight="bold" lengthAdjust="spacing" textLength="9" x="126" y="106.6294">1</text><text fill="#000000" font-family="sans-serif" font-size="13" lengthAdjust="spacing" textLength="108" x="139" y="106.6294">sturen notificatie</text><polygon fill="#FEFFDD" points="59,124.6953,394,124.6953,404,135.6953,394,147.6953,59,147.6953,49,135.6953,59,124.6953" style="stroke:#181818;stroke-width:0.5;"/><text fill="#000000" font-family="sans-serif" font-size="13" lengthAdjust="spacing" textLength="63" x="195" y="140.7622">notificatie</text><polygon fill="#181818" points="125,169.9609,115,173.9609,125,177.9609,121,173.9609" style="stroke:#181818;stroke-width:1.0;"/><line style="stroke:#181818;stroke-width:1.0;stroke-dasharray:2.0,2.0;" x1="119" x2="338" y1="173.9609" y2="173.9609"/><text fill="#000000" font-family="sans-serif" font-size="13" font-weight="bold" lengthAdjust="spacing" textLength="9" x="131" y="168.895">2</text><text fill="#000000" font-family="sans-serif" font-size="13" lengthAdjust="spacing" textLength="59" x="144" y="168.895">response</text><path d="M35,195.9609 L133,195.9609 L133,203.0938 L123,213.0938 L35,213.0938 L35,195.9609 " fill="#EEEEEE" style="stroke:#000000;stroke-width:1.5;"/><rect fill="none" height="108.5313" style="stroke:#000000;stroke-width:1.5;" width="380" x="35" y="195.9609"/><text fill="#000000" font-family="sans-serif" font-size="13" font-weight="bold" lengthAdjust="spacing" textLength="53" x="50" y="209.0278">Melden</text><polygon fill="#181818" points="130,230.2266,120,234.2266,130,238.2266,126,234.2266" style="stroke:#181818;stroke-width:1.0;"/><line style="stroke:#181818;stroke-width:1.0;" x1="124" x2="333" y1="234.2266" y2="234.2266"/><text fill="#000000" font-family="sans-serif" font-size="13" font-weight="bold" lengthAdjust="spacing" textLength="8" x="136" y="229.1606">3</text><text fill="#000000" font-family="sans-serif" font-size="13" lengthAdjust="spacing" textLength="96" x="148" y="229.1606">sturen melding</text><polygon fill="#FEFFDD" points="59,247.2266,394,247.2266,404,258.2266,394,270.2266,59,270.2266,49,258.2266,59,247.2266" style="stroke:#181818;stroke-width:0.5;"/><text fill="#000000" font-family="sans-serif" font-size="13" lengthAdjust="spacing" textLength="51" x="201" y="263.2935">melding</text><polygon fill="#181818" points="327,292.4922,337,296.4922,327,300.4922,331,296.4922" style="stroke:#181818;stroke-width:1.0;"/><line style="stroke:#181818;stroke-width:1.0;stroke-dasharray:2.0,2.0;" x1="114" x2="333" y1="296.4922" y2="296.4922"/><text fill="#000000" font-family="sans-serif" font-size="13" font-weight="bold" lengthAdjust="spacing" textLength="9" x="121" y="291.4263">4</text><text fill="#000000" font-family="sans-serif" font-size="13" lengthAdjust="spacing" textLength="59" x="134" y="291.4263">response</text><!--SRC=[fP2nJWCn38RtF8LLPgI2EdLWPO9tSCvkpoBddEA4mjlNvQvL2YCP4ld__JkVR1-YCnQSO4IbKv5QMU60oJZOpVExoY0pQfsHIFG8pzlEZ_dhgk-s0LlDsgR81Pw2Mm0FIOvZZQbnw4R19fQiOsx4PGDe42smqcLQw7FVd58-tIU9EIbFQv3wv6l9RORtNEKW0nVM07wYmUFBfH7sOBMv3BgqO1N-QHbTOC2XPBFzRnE7Af_eldzrLzCg5FQfwe_DMMq94VSn9xpIlN6Y5OmMicWthibDN-LVfjxuBy-wiZC0]--></g></svg>