<?xml version="1.0" encoding="us-ascii" standalone="no"?><svg xmlns="http://www.w3.org/2000/svg" xmlns:xlink="http://www.w3.org/1999/xlink" contentStyleType="text/css" height="590px" preserveAspectRatio="none" style="width:1024px;height:590px;background:#FFFFFF;" version="1.1" viewBox="0 0 1024 590" width="1024px" zoomAndPan="magnify"><defs/><g><text fill="#000000" font-family="sans-serif" font-size="14" font-weight="bold" lengthAdjust="spacing" textLength="177" x="425.25" y="27.9951">Abonneren notificatie</text><rect fill="#ADD8E6" height="541.5859" style="stroke:#181818;stroke-width:0.5;" width="393" x="41" y="43.2969"/><text fill="#000000" font-family="sans-serif" font-size="13" font-weight="bold" lengthAdjust="spacing" textLength="88" x="191" y="55.3638">bronhouder</text><rect fill="#FFFFE0" height="541.5859" style="stroke:#181818;stroke-width:0.5;" width="393" x="523" y="43.2969"/><text fill="#000000" font-family="sans-serif" font-size="13" font-weight="bold" lengthAdjust="spacing" textLength="79" x="677.5" y="55.3638">deelnemer</text><rect fill="#FFFFFF" height="71.2656" style="stroke:#181818;stroke-width:1.0;" width="10" x="105.5" y="249.3906"/><rect fill="#FFFFFF" height="311.3281" style="stroke:#181818;stroke-width:1.0;" width="10" x="350.5" y="178.125"/><rect fill="#FFFFFF" height="369.5938" style="stroke:#181818;stroke-width:1.0;" width="10" x="596.5" y="148.9922"/><rect fill="#FFFFFF" height="384.5938" style="stroke:#181818;stroke-width:1.0;" width="10" x="841.5" y="148.9922"/><rect fill="none" height="422.8594" style="stroke:#000000;stroke-width:1.5;" width="983.5" x="35" y="110.7266"/><rect fill="#FFC0CB" height="75.3984" style="stroke:#000000;stroke-width:1.5;" width="651" x="271" y="451.1875"/><line style="stroke:#181818;stroke-width:0.5;stroke-dasharray:5.0,5.0;" x1="110" x2="110" y1="93.7266" y2="550.5859"/><line style="stroke:#181818;stroke-width:0.5;stroke-dasharray:5.0,5.0;" x1="355" x2="355" y1="93.7266" y2="550.5859"/><line style="stroke:#181818;stroke-width:0.5;stroke-dasharray:5.0,5.0;" x1="601" x2="601" y1="93.7266" y2="550.5859"/><line style="stroke:#181818;stroke-width:0.5;stroke-dasharray:5.0,5.0;" x1="846" x2="846" y1="93.7266" y2="550.5859"/><rect fill="#E2E2F0" height="30.2969" rx="2.5" ry="2.5" style="stroke:#181818;stroke-width:0.5;" width="91" x="65" y="62.4297"/><text fill="#000000" font-family="sans-serif" font-size="14" lengthAdjust="spacing" textLength="77" x="72" y="82.4248">Backoffice</text><rect fill="#E2E2F0" height="30.2969" rx="2.5" ry="2.5" style="stroke:#181818;stroke-width:0.5;" width="91" x="65" y="549.5859"/><text fill="#000000" font-family="sans-serif" font-size="14" lengthAdjust="spacing" textLength="77" x="72" y="569.5811">Backoffice</text><rect fill="#E2E2F0" height="30.2969" rx="2.5" ry="2.5" style="stroke:#181818;stroke-width:0.5;" width="109" x="301" y="62.4297"/><text fill="#000000" font-family="sans-serif" font-size="14" lengthAdjust="spacing" textLength="95" x="308" y="82.4248">Netwerkpunt</text><rect fill="#E2E2F0" height="30.2969" rx="2.5" ry="2.5" style="stroke:#181818;stroke-width:0.5;" width="109" x="301" y="549.5859"/><text fill="#000000" font-family="sans-serif" font-size="14" lengthAdjust="spacing" textLength="95" x="308" y="569.5811">Netwerkpunt</text><rect fill="#E2E2F0" height="30.2969" rx="2.5" ry="2.5" style="stroke:#181818;stroke-width:0.5;" width="109" x="547" y="62.4297"/><text fill="#000000" font-family="sans-serif" font-size="14" lengthAdjust="spacing" textLength="95" x="554" y="82.4248">Netwerkpunt</text><rect fill="#E2E2F0" height="30.2969" rx="2.5" ry="2.5" style="stroke:#181818;stroke-width:0.5;" width="109" x="547" y="549.5859"/><text fill="#000000" font-family="sans-serif" font-size="14" lengthAdjust="spacing" textLength="95" x="554" y="569.5811">Netwerkpunt</text><rect fill="#E2E2F0" height="30.2969" rx="2.5" ry="2.5" style="stroke:#181818;stroke-width:0.5;" width="91" x="801" y="62.4297"/><text fill="#000000" font-family="sans-serif" font-size="14" lengthAdjust="spacing" textLength="77" x="808" y="82.4248">Backoffice</text><rect fill="#E2E2F0" height="30.2969" rx="2.5" ry="2.5" style="stroke:#181818;stroke-width:0.5;" width="91" x="801" y="549.5859"/><text fill="#000000" font-family="sans-serif" font-size="14" lengthAdjust="spacing" textLength="77" x="808" y="569.5811">Backoffice</text><rect fill="#FFFFFF" height="71.2656" style="stroke:#181818;stroke-width:1.0;" width="10" x="105.5" y="249.3906"/><rect fill="#FFFFFF" height="311.3281" style="stroke:#181818;stroke-width:1.0;" width="10" x="350.5" y="178.125"/><rect fill="#FFFFFF" height="369.5938" style="stroke:#181818;stroke-width:1.0;" width="10" x="596.5" y="148.9922"/><rect fill="#FFFFFF" height="384.5938" style="stroke:#181818;stroke-width:1.0;" width="10" x="841.5" y="148.9922"/><path d="M35,110.7266 L285,110.7266 L285,117.8594 L275,127.8594 L35,127.8594 L35,110.7266 " fill="#EEEEEE" style="stroke:#000000;stroke-width:1.5;"/><rect fill="none" height="422.8594" style="stroke:#000000;stroke-width:1.5;" width="983.5" x="35" y="110.7266"/><text fill="#000000" font-family="sans-serif" font-size="13" font-weight="bold" lengthAdjust="spacing" textLength="205" x="50" y="123.7935">abonneren op iWlz-vrijwiliig</text><polygon fill="#181818" points="617.5,144.9922,607.5,148.9922,617.5,152.9922,613.5,148.9922" style="stroke:#181818;stroke-width:1.0;"/><line style="stroke:#181818;stroke-width:1.0;" x1="611.5" x2="840.5" y1="148.9922" y2="148.9922"/><text fill="#000000" font-family="sans-serif" font-size="13" font-weight="bold" lengthAdjust="spacing" textLength="31" x="623.5" y="143.9263">[01]</text><text fill="#000000" font-family="sans-serif" font-size="13" lengthAdjust="spacing" textLength="137" x="658.5" y="143.9263">abonnement verzoek</text><polygon fill="#181818" points="371.5,174.125,361.5,178.125,371.5,182.125,367.5,178.125" style="stroke:#181818;stroke-width:1.0;"/><line style="stroke:#181818;stroke-width:1.0;" x1="365.5" x2="595.5" y1="178.125" y2="178.125"/><text fill="#000000" font-family="sans-serif" font-size="13" font-weight="bold" lengthAdjust="spacing" textLength="31" x="377.5" y="173.0591">[02]</text><text fill="#000000" font-family="sans-serif" font-size="13" lengthAdjust="spacing" textLength="109" x="412.5" y="173.0591">verstuur verzoek</text><line style="stroke:#181818;stroke-width:1.0;" x1="318.5" x2="360.5" y1="207.2578" y2="207.2578"/><line style="stroke:#181818;stroke-width:1.0;" x1="318.5" x2="318.5" y1="207.2578" y2="220.2578"/><line style="stroke:#181818;stroke-width:1.0;" x1="318.5" x2="359.5" y1="220.2578" y2="220.2578"/><polygon fill="#181818" points="351.5,216.2578,361.5,220.2578,351.5,224.2578,355.5,220.2578" style="stroke:#181818;stroke-width:1.0;"/><text fill="#000000" font-family="sans-serif" font-size="13" font-weight="bold" lengthAdjust="spacing" textLength="30" x="220.5" y="202.1919">[03]</text><text fill="#000000" font-family="sans-serif" font-size="13" lengthAdjust="spacing" textLength="106" x="254.5" y="202.1919">valideer verzoek</text><polygon fill="#181818" points="126.5,245.3906,116.5,249.3906,126.5,253.3906,122.5,249.3906" style="stroke:#181818;stroke-width:1.0;"/><line style="stroke:#181818;stroke-width:1.0;" x1="120.5" x2="349.5" y1="249.3906" y2="249.3906"/><text fill="#000000" font-family="sans-serif" font-size="13" font-weight="bold" lengthAdjust="spacing" textLength="31" x="132.5" y="244.3247">[04]</text><text fill="#000000" font-family="sans-serif" font-size="13" lengthAdjust="spacing" textLength="109" x="167.5" y="244.3247">verstuur verzoek</text><line style="stroke:#181818;stroke-width:1.0;" x1="115.5" x2="157.5" y1="278.5234" y2="278.5234"/><line style="stroke:#181818;stroke-width:1.0;" x1="157.5" x2="157.5" y1="278.5234" y2="291.5234"/><line style="stroke:#181818;stroke-width:1.0;" x1="116.5" x2="157.5" y1="291.5234" y2="291.5234"/><polygon fill="#181818" points="126.5,287.5234,116.5,291.5234,126.5,295.5234,122.5,291.5234" style="stroke:#181818;stroke-width:1.0;"/><text fill="#000000" font-family="sans-serif" font-size="13" font-weight="bold" lengthAdjust="spacing" textLength="31" x="122.5" y="273.4575">[05]</text><text fill="#000000" font-family="sans-serif" font-size="13" lengthAdjust="spacing" textLength="143" x="157.5" y="273.4575">registeer abonnement</text><polygon fill="#181818" points="338.5,316.6563,348.5,320.6563,338.5,324.6563,342.5,320.6563" style="stroke:#181818;stroke-width:1.0;"/><line style="stroke:#181818;stroke-width:1.0;stroke-dasharray:2.0,2.0;" x1="110.5" x2="344.5" y1="320.6563" y2="320.6563"/><text fill="#000000" font-family="sans-serif" font-size="13" font-weight="bold" lengthAdjust="spacing" textLength="31" x="117.5" y="315.5903">[06]</text><text fill="#000000" font-family="sans-serif" font-size="13" lengthAdjust="spacing" textLength="176" x="152.5" y="315.5903">response {abonnementID}</text><polygon fill="#181818" points="584.5,345.7891,594.5,349.7891,584.5,353.7891,588.5,349.7891" style="stroke:#181818;stroke-width:1.0;"/><line style="stroke:#181818;stroke-width:1.0;stroke-dasharray:2.0,2.0;" x1="360.5" x2="590.5" y1="349.7891" y2="349.7891"/><text fill="#000000" font-family="sans-serif" font-size="13" font-weight="bold" lengthAdjust="spacing" textLength="31" x="367.5" y="344.7231">[07]</text><text fill="#000000" font-family="sans-serif" font-size="13" lengthAdjust="spacing" textLength="176" x="402.5" y="344.7231">response {abonnementID}</text><polygon fill="#181818" points="829.5,374.9219,839.5,378.9219,829.5,382.9219,833.5,378.9219" style="stroke:#181818;stroke-width:1.0;"/><line style="stroke:#181818;stroke-width:1.0;stroke-dasharray:2.0,2.0;" x1="606.5" x2="835.5" y1="378.9219" y2="378.9219"/><text fill="#000000" font-family="sans-serif" font-size="13" font-weight="bold" lengthAdjust="spacing" textLength="31" x="613.5" y="373.856">[08]</text><text fill="#000000" font-family="sans-serif" font-size="13" lengthAdjust="spacing" textLength="176" x="648.5" y="373.856">response {abonnementID}</text><line style="stroke:#181818;stroke-width:1.0;" x1="851.5" x2="893.5" y1="423.1875" y2="423.1875"/><line style="stroke:#181818;stroke-width:1.0;" x1="893.5" x2="893.5" y1="423.1875" y2="436.1875"/><line style="stroke:#181818;stroke-width:1.0;" x1="852.5" x2="893.5" y1="436.1875" y2="436.1875"/><polygon fill="#181818" points="862.5,432.1875,852.5,436.1875,862.5,440.1875,858.5,436.1875" style="stroke:#181818;stroke-width:1.0;"/><text fill="#000000" font-family="sans-serif" font-size="13" font-weight="bold" lengthAdjust="spacing" textLength="31" x="858.5" y="410.5552">[09]</text><text fill="#000000" font-family="sans-serif" font-size="13" lengthAdjust="spacing" textLength="62" x="893.5" y="402.9888">registreer</text><text fill="#000000" font-family="sans-serif" font-size="13" lengthAdjust="spacing" textLength="113" x="893.5" y="418.1216">{abonnementID}</text><path d="M271,451.1875 L337,451.1875 L337,458.3203 L327,468.3203 L271,468.3203 L271,451.1875 " fill="#EEEEEE" style="stroke:#000000;stroke-width:1.5;"/><rect fill="none" height="75.3984" style="stroke:#000000;stroke-width:1.5;" width="651" x="271" y="451.1875"/><text fill="#000000" font-family="sans-serif" font-size="13" font-weight="bold" lengthAdjust="spacing" textLength="21" x="286" y="464.2544">alt</text><polygon fill="#181818" points="584.5,485.4531,594.5,489.4531,584.5,493.4531,588.5,489.4531" style="stroke:#181818;stroke-width:1.0;"/><line style="stroke:#181818;stroke-width:1.0;stroke-dasharray:2.0,2.0;" x1="355.5" x2="590.5" y1="489.4531" y2="489.4531"/><text fill="#000000" font-family="sans-serif" font-size="13" font-weight="bold" lengthAdjust="spacing" textLength="31" x="362.5" y="484.3872">[10]</text><text fill="#000000" font-family="sans-serif" font-size="13" lengthAdjust="spacing" textLength="177" x="397.5" y="484.3872">response: ongeldig verzoek</text><polygon fill="#181818" points="829.5,514.5859,839.5,518.5859,829.5,522.5859,833.5,518.5859" style="stroke:#181818;stroke-width:1.0;"/><line style="stroke:#181818;stroke-width:1.0;stroke-dasharray:2.0,2.0;" x1="601.5" x2="835.5" y1="518.5859" y2="518.5859"/><text fill="#000000" font-family="sans-serif" font-size="13" font-weight="bold" lengthAdjust="spacing" textLength="30" x="608.5" y="513.52">[11]</text><text fill="#000000" font-family="sans-serif" font-size="13" lengthAdjust="spacing" textLength="177" x="642.5" y="513.52">response: ongeldig verzoek</text><!--SRC=[ZP91Jm8n48Nl_8e9d4c8yKG8YSQB5-FDWtfewR2CMwPDEmkAyR_Rmkx28WXxs4Fdc_VUJ2ia5k5EEsOCoC1EQ4up9OIz7a0iYRqAQWaBnMOTI2H1SsKZTghfBpGZhrYyCeQuW9jHXz3kiwdSveggn76rr1YWFz7Jrz7elP-E4mOwE5wuogJIm5An46shR7TW0lrxDIlTF4N5FgW8EXu3JoXh3AMlM7O4UqWCiiaclThB85h6PMlrXTQwzIKjm_v27hCDT61M15TvKEsYdGTwiPlXAj37cYnHaQ3yfKuOJhF5kCQNc0nM63OEonfICw6L4gnzkaVRS5kfD7AIqbagzKUfgd1EIBTTUL6JOTsbBAKL7NVfMZXUeTlasusLMm8M52MhxkSxW9h40QDt716-zzZZmqyp6vwmoB6QtLreRz1Te7_H-aBsqKFE_iOdwUtmLc3mJ5mUd9tCDWR71Lf3nT7wZYTiB-TizckbJ4SgFz2KzkzEs_Vx2m00]--></g></svg>