<svg xmlns="http://www.w3.org/2000/svg" xmlns:xlink="http://www.w3.org/1999/xlink" contentStyleType="text/css" height="471px" preserveAspectRatio="none" style="width:761px;height:471px;background:#FFFFFF;" version="1.1" viewBox="0 0 761 471" width="761px" zoomAndPan="magnify"><title>notificatie sequence-diagram</title><defs/><g><text fill="#000000" font-family="sans-serif" font-size="14" font-weight="bold" lengthAdjust="spacing" textLength="231.6836" x="271.8853" y="27.9951">notificatie sequence-diagram</text><rect fill="#ADD8E6" height="422.3828" style="stroke:#181818;stroke-width:0.5;" width="399.4263" x="41" y="43.2969"/><text fill="#000000" font-family="sans-serif" font-size="13" font-weight="bold" lengthAdjust="spacing" textLength="85.8774" x="195.5115" y="55.3638">bronhouder</text><rect fill="#FFFFE0" height="422.3828" style="stroke:#181818;stroke-width:0.5;" width="127.1396" x="522.4263" y="43.2969"/><text fill="#000000" font-family="sans-serif" font-size="13" font-weight="bold" lengthAdjust="spacing" textLength="78.2412" x="544.6125" y="55.3638">deelnemer</text><rect fill="#FFFFFF" height="264.9297" style="stroke:#181818;stroke-width:1;" width="10" x="96.1348" y="141.1563"/><rect fill="#FFFFFF" height="71.2656" style="stroke:#181818;stroke-width:1;" width="10" x="370.5405" y="141.1563"/><rect fill="#FFFFFF" height="71.2656" style="stroke:#181818;stroke-width:1;" width="10" x="580.9961" y="283.6875"/><line style="stroke:#181818;stroke-width:0.5;stroke-dasharray:5.0,5.0;" x1="101" x2="101" y1="110.0234" y2="415.0859"/><line style="stroke:#181818;stroke-width:0.5;stroke-dasharray:5.0,5.0;" x1="374.6548" x2="374.6548" y1="110.0234" y2="415.0859"/><line style="stroke:#181818;stroke-width:0.5;stroke-dasharray:5.0,5.0;" x1="585.4263" x2="585.4263" y1="110.0234" y2="415.0859"/><rect fill="#E2E2F0" height="30.2969" rx="2.5" ry="2.5" style="stroke:#181818;stroke-width:0.5;" width="72.2695" x="65" y="78.7266"/><text fill="#000000" font-family="sans-serif" font-size="14" lengthAdjust="spacing" textLength="58.2695" x="72" y="98.7217">Register</text><rect fill="#E2E2F0" height="30.2969" rx="2.5" ry="2.5" style="stroke:#181818;stroke-width:0.5;" width="72.2695" x="65" y="414.0859"/><text fill="#000000" font-family="sans-serif" font-size="14" lengthAdjust="spacing" textLength="58.2695" x="72" y="434.0811">Register</text><rect fill="#E2E2F0" height="46.5938" rx="2.5" ry="2.5" style="stroke:#181818;stroke-width:0.5;" width="81.7715" x="334.6548" y="62.4297"/><text fill="#000000" font-family="sans-serif" font-size="14" lengthAdjust="spacing" textLength="63.3213" x="341.6548" y="82.4248">Register-</text><text fill="#000000" font-family="sans-serif" font-size="14" lengthAdjust="spacing" textLength="31.5342" x="359.7734" y="98.7217">data</text><rect fill="#E2E2F0" height="46.5938" rx="2.5" ry="2.5" style="stroke:#181818;stroke-width:0.5;" width="81.7715" x="334.6548" y="414.0859"/><text fill="#000000" font-family="sans-serif" font-size="14" lengthAdjust="spacing" textLength="63.3213" x="341.6548" y="434.0811">Register-</text><text fill="#000000" font-family="sans-serif" font-size="14" lengthAdjust="spacing" textLength="31.5342" x="359.7734" y="450.3779">data</text><rect fill="#E2E2F0" height="30.2969" rx="2.5" ry="2.5" style="stroke:#181818;stroke-width:0.5;" width="79.1396" x="546.4263" y="78.7266"/><text fill="#000000" font-family="sans-serif" font-size="14" lengthAdjust="spacing" textLength="65.1396" x="553.4263" y="98.7217">Resource</text><rect fill="#E2E2F0" height="30.2969" rx="2.5" ry="2.5" style="stroke:#181818;stroke-width:0.5;" width="79.1396" x="546.4263" y="414.0859"/><text fill="#000000" font-family="sans-serif" font-size="14" lengthAdjust="spacing" textLength="65.1396" x="553.4263" y="434.0811">Resource</text><rect fill="#FFFFFF" height="264.9297" style="stroke:#181818;stroke-width:1;" width="10" x="96.1348" y="141.1563"/><rect fill="#FFFFFF" height="71.2656" style="stroke:#181818;stroke-width:1;" width="10" x="370.5405" y="141.1563"/><rect fill="#FFFFFF" height="71.2656" style="stroke:#181818;stroke-width:1;" width="10" x="580.9961" y="283.6875"/><polygon fill="#181818" points="358.5405,137.1563,368.5405,141.1563,358.5405,145.1563,362.5405,141.1563" style="stroke:#181818;stroke-width:1;"/><line style="stroke:#181818;stroke-width:1;" x1="106.1348" x2="364.5405" y1="141.1563" y2="141.1563"/><text fill="#000000" font-family="sans-serif" font-size="13" font-weight="bold" lengthAdjust="spacing" textLength="29.9736" x="113.1348" y="136.0903">[01]</text><text fill="#000000" font-family="sans-serif" font-size="13" lengthAdjust="spacing" textLength="100.5088" x="147.1084" y="136.0903">registratie data</text><line style="stroke:#181818;stroke-width:1;" x1="380.5405" x2="422.5405" y1="170.2891" y2="170.2891"/><line style="stroke:#181818;stroke-width:1;" x1="422.5405" x2="422.5405" y1="170.2891" y2="183.2891"/><line style="stroke:#181818;stroke-width:1;" x1="381.5405" x2="422.5405" y1="183.2891" y2="183.2891"/><polygon fill="#181818" points="391.5405,179.2891,381.5405,183.2891,391.5405,187.2891,387.5405,183.2891" style="stroke:#181818;stroke-width:1;"/><text fill="#000000" font-family="sans-serif" font-size="13" font-weight="bold" lengthAdjust="spacing" textLength="29.9736" x="387.5405" y="165.2231">[02]</text><text fill="#000000" font-family="sans-serif" font-size="13" lengthAdjust="spacing" textLength="85.0586" x="421.5142" y="165.2231">event trigger</text><polygon fill="#181818" points="117.1348,208.4219,107.1348,212.4219,117.1348,216.4219,113.1348,212.4219" style="stroke:#181818;stroke-width:1;"/><line style="stroke:#181818;stroke-width:1;" x1="111.1348" x2="374.5405" y1="212.4219" y2="212.4219"/><text fill="#000000" font-family="sans-serif" font-size="13" font-weight="bold" lengthAdjust="spacing" textLength="29.9736" x="123.1348" y="207.356">[03]</text><text fill="#000000" font-family="sans-serif" font-size="13" lengthAdjust="spacing" textLength="142.1304" x="157.1084" y="207.356">bepaal notificatietype</text><line style="stroke:#181818;stroke-width:1;" x1="106.1348" x2="148.1348" y1="241.5547" y2="241.5547"/><line style="stroke:#181818;stroke-width:1;" x1="148.1348" x2="148.1348" y1="241.5547" y2="254.5547"/><line style="stroke:#181818;stroke-width:1;" x1="107.1348" x2="148.1348" y1="254.5547" y2="254.5547"/><polygon fill="#181818" points="117.1348,250.5547,107.1348,254.5547,117.1348,258.5547,113.1348,254.5547" style="stroke:#181818;stroke-width:1;"/><text fill="#000000" font-family="sans-serif" font-size="13" font-weight="bold" lengthAdjust="spacing" textLength="29.9736" x="113.1348" y="236.4888">[04]</text><text fill="#000000" font-family="sans-serif" font-size="13" lengthAdjust="spacing" textLength="189.6997" x="147.1084" y="236.4888">genereer GraphQL notificatie</text><polygon fill="#181818" points="568.9961,279.6875,578.9961,283.6875,568.9961,287.6875,572.9961,283.6875" style="stroke:#181818;stroke-width:1;"/><line style="stroke:#181818;stroke-width:1;" x1="106.1348" x2="574.9961" y1="283.6875" y2="283.6875"/><text fill="#000000" font-family="sans-serif" font-size="13" font-weight="bold" lengthAdjust="spacing" textLength="29.9736" x="113.1348" y="278.6216">[05]</text><text fill="#000000" font-family="sans-serif" font-size="13" lengthAdjust="spacing" textLength="161.8398" x="147.1084" y="278.6216">zend GraphQL notificatie</text><line style="stroke:#181818;stroke-width:1;" x1="590.9961" x2="632.9961" y1="312.8203" y2="312.8203"/><line style="stroke:#181818;stroke-width:1;" x1="632.9961" x2="632.9961" y1="312.8203" y2="325.8203"/><line style="stroke:#181818;stroke-width:1;" x1="591.9961" x2="632.9961" y1="325.8203" y2="325.8203"/><polygon fill="#181818" points="601.9961,321.8203,591.9961,325.8203,601.9961,329.8203,597.9961,325.8203" style="stroke:#181818;stroke-width:1;"/><text fill="#000000" font-family="sans-serif" font-size="13" font-weight="bold" lengthAdjust="spacing" textLength="29.9736" x="597.9961" y="307.7544">[06]</text><text fill="#000000" font-family="sans-serif" font-size="13" lengthAdjust="spacing" textLength="122.4844" x="631.9697" y="307.7544">ontvang notificatie</text><polygon fill="#181818" points="117.1348,350.9531,107.1348,354.9531,117.1348,358.9531,113.1348,354.9531" style="stroke:#181818;stroke-width:1;"/><line style="stroke:#181818;stroke-width:1;stroke-dasharray:2.0,2.0;" x1="111.1348" x2="584.9961" y1="354.9531" y2="354.9531"/><text fill="#000000" font-family="sans-serif" font-size="13" font-weight="bold" lengthAdjust="spacing" textLength="29.9736" x="123.1348" y="349.8872">[07]</text><text fill="#000000" font-family="sans-serif" font-size="13" lengthAdjust="spacing" textLength="149.7603" x="157.1084" y="349.8872">GraphQL 200 response</text><line style="stroke:#181818;stroke-width:1;stroke-dasharray:2.0,2.0;" x1="106.1348" x2="148.1348" y1="384.0859" y2="384.0859"/><line style="stroke:#181818;stroke-width:1;stroke-dasharray:2.0,2.0;" x1="148.1348" x2="148.1348" y1="384.0859" y2="397.0859"/><line style="stroke:#181818;stroke-width:1;stroke-dasharray:2.0,2.0;" x1="107.1348" x2="148.1348" y1="397.0859" y2="397.0859"/><polygon fill="#181818" points="117.1348,393.0859,107.1348,397.0859,117.1348,401.0859,113.1348,397.0859" style="stroke:#181818;stroke-width:1;"/><text fill="#000000" font-family="sans-serif" font-size="13" font-weight="bold" lengthAdjust="spacing" textLength="29.9736" x="113.1348" y="379.02">[08]</text><text fill="#000000" font-family="sans-serif" font-size="13" lengthAdjust="spacing" textLength="206.4321" x="147.1084" y="379.02">verwerk GraphQL 200 response</text><!--SRC=[TP4zKyCm38Rt_WfTc7kNuvXoN5SM5bY1GOvLnzTKDhQIKduzjlk1I-cI3x-ltaUInSf8m4xislOebY3IvqJSqr9RD06t2u2uiUmnVSE0h7V1YX336iT85sfwYksjHnQFMbisSDzUE9JxEYaFMS5974zRHG6QHxLwQzkF9Xqd6wZWU72JJjBTQCqWQfmohe90yqh6Hg7G04PGyPQyX7VMA5XimIGRiSwKnH6cYKQcxPcrft5qk-kuwARGKudHx2zpKbA4vIhbGmUXa4FPQ2ON7NknCmeTMgZ-I-UGAqjz1pHJ0agmnb2ej4JeG9577EjBaxsduj9KCyfHrPcA7HXY2fG6VGheXvVdEgQofkaw-CxJtVATGOT5G7wVAntBZEcI_nOLpx6JK_1zswPrHUyuNWsH_RyJ70jd2ZiActy3VW00]--></g></svg>