<?xml version="1.0" encoding="us-ascii" standalone="no"?><svg xmlns="http://www.w3.org/2000/svg" xmlns:xlink="http://www.w3.org/1999/xlink" contentStyleType="text/css" height="399px" preserveAspectRatio="none" style="width:421px;height:399px;background:#FFFFFF;" version="1.1" viewBox="0 0 421 399" width="421px" zoomAndPan="magnify"><defs/><g><text fill="#000000" font-family="sans-serif" font-size="14" font-weight="bold" lengthAdjust="spacing" textLength="177" x="136" y="27.9951">notificatie of melding</text><rect fill="#ADD8E6" height="349.7891" style="stroke:#181818;stroke-width:0.5;" width="146" x="41" y="43.2969"/><text fill="#000000" font-family="sans-serif" font-size="13" font-weight="bold" lengthAdjust="spacing" textLength="5" x="111.5" y="55.3638">&#160;</text><rect fill="#FFFFE0" height="349.7891" style="stroke:#181818;stroke-width:0.5;" width="140" x="269" y="43.2969"/><text fill="#000000" font-family="sans-serif" font-size="13" font-weight="bold" lengthAdjust="spacing" textLength="5" x="336.5" y="55.3638">&#160;</text><rect fill="#FFFFFF" height="62.2656" style="stroke:#181818;stroke-width:1.0;" width="10" x="109" y="148.9922"/><rect fill="#FFFFFF" height="62.2656" style="stroke:#181818;stroke-width:1.0;" width="10" x="109" y="271.5234"/><rect fill="#FFFFFF" height="62.2656" style="stroke:#181818;stroke-width:1.0;" width="10" x="334" y="148.9922"/><rect fill="#FFFFFF" height="62.2656" style="stroke:#181818;stroke-width:1.0;" width="10" x="334" y="271.5234"/><rect fill="none" height="108.5313" style="stroke:#000000;stroke-width:1.5;" width="380" x="35" y="110.7266"/><rect fill="none" height="108.5313" style="stroke:#000000;stroke-width:1.5;" width="380" x="35" y="233.2578"/><line style="stroke:#181818;stroke-width:0.5;stroke-dasharray:5.0,5.0;" x1="114" x2="114" y1="93.7266" y2="358.7891"/><line style="stroke:#181818;stroke-width:0.5;stroke-dasharray:5.0,5.0;" x1="339" x2="339" y1="93.7266" y2="358.7891"/><rect fill="#E2E2F0" height="30.2969" rx="2.5" ry="2.5" style="stroke:#181818;stroke-width:0.5;" width="98" x="65" y="62.4297"/><text fill="#000000" font-family="sans-serif" font-size="14" lengthAdjust="spacing" textLength="84" x="72" y="82.4248">bronhouder</text><rect fill="#E2E2F0" height="30.2969" rx="2.5" ry="2.5" style="stroke:#181818;stroke-width:0.5;" width="98" x="65" y="357.7891"/><text fill="#000000" font-family="sans-serif" font-size="14" lengthAdjust="spacing" textLength="84" x="72" y="377.7842">bronhouder</text><rect fill="#E2E2F0" height="30.2969" rx="2.5" ry="2.5" style="stroke:#181818;stroke-width:0.5;" width="92" x="293" y="62.4297"/><text fill="#000000" font-family="sans-serif" font-size="14" lengthAdjust="spacing" textLength="78" x="300" y="82.4248">deelnemer</text><rect fill="#E2E2F0" height="30.2969" rx="2.5" ry="2.5" style="stroke:#181818;stroke-width:0.5;" width="92" x="293" y="357.7891"/><text fill="#000000" font-family="sans-serif" font-size="14" lengthAdjust="spacing" textLength="78" x="300" y="377.7842">deelnemer</text><rect fill="#FFFFFF" height="62.2656" style="stroke:#181818;stroke-width:1.0;" width="10" x="109" y="148.9922"/><rect fill="#FFFFFF" height="62.2656" style="stroke:#181818;stroke-width:1.0;" width="10" x="109" y="271.5234"/><rect fill="#FFFFFF" height="62.2656" style="stroke:#181818;stroke-width:1.0;" width="10" x="334" y="148.9922"/><rect fill="#FFFFFF" height="62.2656" style="stroke:#181818;stroke-width:1.0;" width="10" x="334" y="271.5234"/><path d="M35,110.7266 L166,110.7266 L166,117.8594 L156,127.8594 L35,127.8594 L35,110.7266 " fill="#EEEEEE" style="stroke:#000000;stroke-width:1.5;"/><rect fill="none" height="108.5313" style="stroke:#000000;stroke-width:1.5;" width="380" x="35" y="110.7266"/><text fill="#000000" font-family="sans-serif" font-size="13" font-weight="bold" lengthAdjust="spacing" textLength="86" x="50" y="123.7935">Notificeren</text><polygon fill="#181818" points="322,144.9922,332,148.9922,322,152.9922,326,148.9922" style="stroke:#181818;stroke-width:1.0;"/><line style="stroke:#181818;stroke-width:1.0;" x1="119" x2="328" y1="148.9922" y2="148.9922"/><text fill="#000000" font-family="sans-serif" font-size="13" font-weight="bold" lengthAdjust="spacing" textLength="9" x="126" y="143.9263">1</text><text fill="#000000" font-family="sans-serif" font-size="13" lengthAdjust="spacing" textLength="108" x="139" y="143.9263">sturen notificatie</text><polygon fill="#FEFFDD" points="59,161.9922,394,161.9922,404,172.9922,394,184.9922,59,184.9922,49,172.9922,59,161.9922" style="stroke:#181818;stroke-width:0.5;"/><text fill="#000000" font-family="sans-serif" font-size="13" lengthAdjust="spacing" textLength="63" x="195" y="178.0591">notificatie</text><polygon fill="#181818" points="125,207.2578,115,211.2578,125,215.2578,121,211.2578" style="stroke:#181818;stroke-width:1.0;"/><line style="stroke:#181818;stroke-width:1.0;stroke-dasharray:2.0,2.0;" x1="119" x2="338" y1="211.2578" y2="211.2578"/><text fill="#000000" font-family="sans-serif" font-size="13" font-weight="bold" lengthAdjust="spacing" textLength="9" x="131" y="206.1919">2</text><text fill="#000000" font-family="sans-serif" font-size="13" lengthAdjust="spacing" textLength="59" x="144" y="206.1919">response</text><path d="M35,233.2578 L133,233.2578 L133,240.3906 L123,250.3906 L35,250.3906 L35,233.2578 " fill="#EEEEEE" style="stroke:#000000;stroke-width:1.5;"/><rect fill="none" height="108.5313" style="stroke:#000000;stroke-width:1.5;" width="380" x="35" y="233.2578"/><text fill="#000000" font-family="sans-serif" font-size="13" font-weight="bold" lengthAdjust="spacing" textLength="53" x="50" y="246.3247">Melden</text><polygon fill="#181818" points="130,267.5234,120,271.5234,130,275.5234,126,271.5234" style="stroke:#181818;stroke-width:1.0;"/><line style="stroke:#181818;stroke-width:1.0;" x1="124" x2="333" y1="271.5234" y2="271.5234"/><text fill="#000000" font-family="sans-serif" font-size="13" font-weight="bold" lengthAdjust="spacing" textLength="8" x="136" y="266.4575">3</text><text fill="#000000" font-family="sans-serif" font-size="13" lengthAdjust="spacing" textLength="96" x="148" y="266.4575">sturen melding</text><polygon fill="#FEFFDD" points="59,284.5234,394,284.5234,404,295.5234,394,307.5234,59,307.5234,49,295.5234,59,284.5234" style="stroke:#181818;stroke-width:0.5;"/><text fill="#000000" font-family="sans-serif" font-size="13" lengthAdjust="spacing" textLength="51" x="201" y="300.5903">melding</text><polygon fill="#181818" points="327,329.7891,337,333.7891,327,337.7891,331,333.7891" style="stroke:#181818;stroke-width:1.0;"/><line style="stroke:#181818;stroke-width:1.0;stroke-dasharray:2.0,2.0;" x1="114" x2="333" y1="333.7891" y2="333.7891"/><text fill="#000000" font-family="sans-serif" font-size="13" font-weight="bold" lengthAdjust="spacing" textLength="9" x="121" y="328.7231">4</text><text fill="#000000" font-family="sans-serif" font-size="13" lengthAdjust="spacing" textLength="59" x="134" y="328.7231">response</text><!--SRC=[fL4nRiCm3Dpr2YAT2xX5fmnTExL_e2mw5YfJXaWbpUz3rtQXj6CrID0TxtGYDMeYuAnnY3rg9CW3J9H2v9EJpyWp5fnWH0wN4bM9OS0ar72sQ-pZZAmpXaK8prt3-_oruo-TmwgPw-IfGDSzEIC17b8yZUfJ9TUOmS6Np6EkWSe1KC2B8mwBdsjrLqefN-wLWIWnJPimjCgtakiC7-kFgH0xiEK57b-NGZY2Q3MuRSftoMW00VObYnn_azXhFAFnzjJTFMn08NDbEsJEBAieK2kpX7kwTnl05YoioRpyvDgdyoTJI_mtpzQo6m00]--></g></svg>