<?xml version="1.0" encoding="us-ascii" standalone="no"?><svg xmlns="http://www.w3.org/2000/svg" xmlns:xlink="http://www.w3.org/1999/xlink" contentStyleType="text/css" height="555px" preserveAspectRatio="none" style="width:1126px;height:555px;background:#FFFFFF;" version="1.1" viewBox="0 0 1126 555" width="1126px" zoomAndPan="magnify"><defs/><g><rect fill="#ADD8E6" height="543.7188" style="stroke:#181818;stroke-width:0.5;" width="423" x="41" y="6"/><text fill="#000000" font-family="sans-serif" font-size="13" font-weight="bold" lengthAdjust="spacing" textLength="88" x="206" y="18.0669">bronhouder</text><rect fill="#FFFFE0" height="543.7188" style="stroke:#181818;stroke-width:0.5;" width="439" x="599" y="6"/><text fill="#000000" font-family="sans-serif" font-size="13" font-weight="bold" lengthAdjust="spacing" textLength="79" x="776.5" y="18.0669">deelnemer</text><rect fill="#FFFFFF" height="29.1328" style="stroke:#181818;stroke-width:1.0;" width="10" x="105.5" y="313.625"/><rect fill="#FFFFFF" height="211.9297" style="stroke:#181818;stroke-width:1.0;" width="10" x="380.5" y="242.3594"/><rect fill="#FFFFFF" height="285.3281" style="stroke:#181818;stroke-width:1.0;" width="10" x="672.5" y="198.0938"/><rect fill="#FFFFFF" height="395.8594" style="stroke:#181818;stroke-width:1.0;" width="10" x="963.5" y="87.5625"/><rect fill="none" height="395.8594" style="stroke:#000000;stroke-width:1.5;" width="1085.5" x="35" y="102.5625"/><rect fill="#FFC0CB" height="75.3984" style="stroke:#000000;stroke-width:1.5;" width="743" x="301" y="416.0234"/><line style="stroke:#181818;stroke-width:0.5;stroke-dasharray:5.0,5.0;" x1="110" x2="110" y1="56.4297" y2="515.4219"/><line style="stroke:#181818;stroke-width:0.5;stroke-dasharray:5.0,5.0;" x1="243" x2="243" y1="56.4297" y2="515.4219"/><line style="stroke:#181818;stroke-width:0.5;stroke-dasharray:5.0,5.0;" x1="385" x2="385" y1="56.4297" y2="515.4219"/><line style="stroke:#181818;stroke-width:0.5;stroke-dasharray:5.0,5.0;" x1="677" x2="677" y1="56.4297" y2="515.4219"/><line style="stroke:#181818;stroke-width:0.5;stroke-dasharray:5.0,5.0;" x1="968" x2="968" y1="56.4297" y2="515.4219"/><rect fill="#E2E2F0" height="30.2969" rx="2.5" ry="2.5" style="stroke:#181818;stroke-width:0.5;" width="91" x="65" y="25.1328"/><text fill="#000000" font-family="sans-serif" font-size="14" lengthAdjust="spacing" textLength="77" x="72" y="45.1279">Backoffice</text><rect fill="#E2E2F0" height="30.2969" rx="2.5" ry="2.5" style="stroke:#181818;stroke-width:0.5;" width="91" x="65" y="514.4219"/><text fill="#000000" font-family="sans-serif" font-size="14" lengthAdjust="spacing" textLength="77" x="72" y="534.417">Backoffice</text><rect fill="#E2E2F0" height="30.2969" rx="2.5" ry="2.5" style="stroke:#181818;stroke-width:0.5;" width="75" x="206" y="25.1328"/><text fill="#000000" font-family="sans-serif" font-size="14" lengthAdjust="spacing" textLength="61" x="213" y="45.1279">Register</text><rect fill="#E2E2F0" height="30.2969" rx="2.5" ry="2.5" style="stroke:#181818;stroke-width:0.5;" width="75" x="206" y="514.4219"/><text fill="#000000" font-family="sans-serif" font-size="14" lengthAdjust="spacing" textLength="61" x="213" y="534.417">Register</text><rect fill="#E2E2F0" height="30.2969" rx="2.5" ry="2.5" style="stroke:#181818;stroke-width:0.5;" width="109" x="331" y="25.1328"/><text fill="#000000" font-family="sans-serif" font-size="14" lengthAdjust="spacing" textLength="95" x="338" y="45.1279">Netwerkpunt</text><rect fill="#E2E2F0" height="30.2969" rx="2.5" ry="2.5" style="stroke:#181818;stroke-width:0.5;" width="109" x="331" y="514.4219"/><text fill="#000000" font-family="sans-serif" font-size="14" lengthAdjust="spacing" textLength="95" x="338" y="534.417">Netwerkpunt</text><rect fill="#E2E2F0" height="30.2969" rx="2.5" ry="2.5" style="stroke:#181818;stroke-width:0.5;" width="109" x="623" y="25.1328"/><text fill="#000000" font-family="sans-serif" font-size="14" lengthAdjust="spacing" textLength="95" x="630" y="45.1279">Netwerkpunt</text><rect fill="#E2E2F0" height="30.2969" rx="2.5" ry="2.5" style="stroke:#181818;stroke-width:0.5;" width="109" x="623" y="514.4219"/><text fill="#000000" font-family="sans-serif" font-size="14" lengthAdjust="spacing" textLength="95" x="630" y="534.417">Netwerkpunt</text><rect fill="#E2E2F0" height="30.2969" rx="2.5" ry="2.5" style="stroke:#181818;stroke-width:0.5;" width="91" x="923" y="25.1328"/><text fill="#000000" font-family="sans-serif" font-size="14" lengthAdjust="spacing" textLength="77" x="930" y="45.1279">Backoffice</text><rect fill="#E2E2F0" height="30.2969" rx="2.5" ry="2.5" style="stroke:#181818;stroke-width:0.5;" width="91" x="923" y="514.4219"/><text fill="#000000" font-family="sans-serif" font-size="14" lengthAdjust="spacing" textLength="77" x="930" y="534.417">Backoffice</text><rect fill="#FFFFFF" height="29.1328" style="stroke:#181818;stroke-width:1.0;" width="10" x="105.5" y="313.625"/><rect fill="#FFFFFF" height="211.9297" style="stroke:#181818;stroke-width:1.0;" width="10" x="380.5" y="242.3594"/><rect fill="#FFFFFF" height="285.3281" style="stroke:#181818;stroke-width:1.0;" width="10" x="672.5" y="198.0938"/><rect fill="#FFFFFF" height="395.8594" style="stroke:#181818;stroke-width:1.0;" width="10" x="963.5" y="87.5625"/><ellipse cx="243" cy="86.8125" fill="none" rx="4" ry="4" style="stroke:#181818;stroke-width:1.5;"/><polygon fill="#181818" points="951.5,83.5625,961.5,87.5625,951.5,91.5625,955.5,87.5625" style="stroke:#181818;stroke-width:1.0;"/><line style="stroke:#181818;stroke-width:1.0;" x1="247.5" x2="957.5" y1="87.5625" y2="87.5625"/><text fill="#000000" font-family="sans-serif" font-size="13" font-weight="bold" lengthAdjust="spacing" textLength="31" x="250.5" y="82.4966">[01]</text><text fill="#000000" font-family="sans-serif" font-size="13" lengthAdjust="spacing" textLength="75" x="285.5" y="82.4966">raadpleging</text><path d="M35,102.5625 L173,102.5625 L173,109.6953 L163,119.6953 L35,119.6953 L35,102.5625 " fill="#EEEEEE" style="stroke:#000000;stroke-width:1.5;"/><rect fill="none" height="395.8594" style="stroke:#000000;stroke-width:1.5;" width="1085.5" x="35" y="102.5625"/><text fill="#000000" font-family="sans-serif" font-size="13" font-weight="bold" lengthAdjust="spacing" textLength="93" x="50" y="115.6294">fout melden</text><line style="stroke:#181818;stroke-width:1.0;" x1="973.5" x2="1015.5" y1="155.9609" y2="155.9609"/><line style="stroke:#181818;stroke-width:1.0;" x1="1015.5" x2="1015.5" y1="155.9609" y2="168.9609"/><line style="stroke:#181818;stroke-width:1.0;" x1="974.5" x2="1015.5" y1="168.9609" y2="168.9609"/><polygon fill="#181818" points="984.5,164.9609,974.5,168.9609,984.5,172.9609,980.5,168.9609" style="stroke:#181818;stroke-width:1.0;"/><text fill="#000000" font-family="sans-serif" font-size="13" font-weight="bold" lengthAdjust="spacing" textLength="31" x="980.5" y="143.3286">[02]</text><text fill="#000000" font-family="sans-serif" font-size="13" lengthAdjust="spacing" textLength="59" x="1015.5" y="135.7622">iWlz-Fout</text><text fill="#000000" font-family="sans-serif" font-size="13" lengthAdjust="spacing" textLength="93" x="1015.5" y="150.895">geconstateerd</text><polygon fill="#181818" points="693.5,194.0938,683.5,198.0938,693.5,202.0938,689.5,198.0938" style="stroke:#181818;stroke-width:1.0;"/><line style="stroke:#181818;stroke-width:1.0;" x1="687.5" x2="962.5" y1="198.0938" y2="198.0938"/><text fill="#000000" font-family="sans-serif" font-size="13" font-weight="bold" lengthAdjust="spacing" textLength="30" x="699.5" y="193.0278">[03]</text><text fill="#000000" font-family="sans-serif" font-size="13" lengthAdjust="spacing" textLength="182" x="733.5" y="193.0278">iWlz-Foutmelding verzenden</text><polygon fill="#181818" points="401.5,238.3594,391.5,242.3594,401.5,246.3594,397.5,242.3594" style="stroke:#181818;stroke-width:1.0;"/><line style="stroke:#181818;stroke-width:1.0;" x1="395.5" x2="671.5" y1="242.3594" y2="242.3594"/><text fill="#000000" font-family="sans-serif" font-size="13" font-weight="bold" lengthAdjust="spacing" textLength="31" x="407.5" y="229.7271">[04]</text><text fill="#000000" font-family="sans-serif" font-size="13" lengthAdjust="spacing" textLength="143" x="442.5" y="222.1606">iWlz-Foutmelding naar</text><text fill="#000000" font-family="sans-serif" font-size="13" lengthAdjust="spacing" textLength="74" x="442.5" y="237.2935">bronhouder</text><line style="stroke:#181818;stroke-width:1.0;" x1="390.5" x2="432.5" y1="271.4922" y2="271.4922"/><line style="stroke:#181818;stroke-width:1.0;" x1="432.5" x2="432.5" y1="271.4922" y2="284.4922"/><line style="stroke:#181818;stroke-width:1.0;" x1="391.5" x2="432.5" y1="284.4922" y2="284.4922"/><polygon fill="#181818" points="401.5,280.4922,391.5,284.4922,401.5,288.4922,397.5,284.4922" style="stroke:#181818;stroke-width:1.0;"/><text fill="#000000" font-family="sans-serif" font-size="13" font-weight="bold" lengthAdjust="spacing" textLength="31" x="397.5" y="266.4263">[05]</text><text fill="#000000" font-family="sans-serif" font-size="13" lengthAdjust="spacing" textLength="116" x="432.5" y="266.4263">valideer inzending</text><polygon fill="#181818" points="126.5,309.625,116.5,313.625,126.5,317.625,122.5,313.625" style="stroke:#181818;stroke-width:1.0;"/><line style="stroke:#181818;stroke-width:1.0;" x1="120.5" x2="379.5" y1="313.625" y2="313.625"/><text fill="#000000" font-family="sans-serif" font-size="13" font-weight="bold" lengthAdjust="spacing" textLength="31" x="132.5" y="308.5591">[06]</text><text fill="#000000" font-family="sans-serif" font-size="13" lengthAdjust="spacing" textLength="182" x="167.5" y="308.5591">doorzetten iWlz-foutmelding</text><polygon fill="#181818" points="368.5,338.7578,378.5,342.7578,368.5,346.7578,372.5,342.7578" style="stroke:#181818;stroke-width:1.0;"/><line style="stroke:#181818;stroke-width:1.0;" x1="110.5" x2="374.5" y1="342.7578" y2="342.7578"/><text fill="#000000" font-family="sans-serif" font-size="13" font-weight="bold" lengthAdjust="spacing" textLength="31" x="117.5" y="337.6919">[07]</text><text fill="#000000" font-family="sans-serif" font-size="13" lengthAdjust="spacing" textLength="148" x="152.5" y="337.6919">return response {204}</text><polygon fill="#181818" points="660.5,367.8906,670.5,371.8906,660.5,375.8906,664.5,371.8906" style="stroke:#181818;stroke-width:1.0;"/><line style="stroke:#181818;stroke-width:1.0;" x1="390.5" x2="666.5" y1="371.8906" y2="371.8906"/><text fill="#000000" font-family="sans-serif" font-size="13" font-weight="bold" lengthAdjust="spacing" textLength="31" x="397.5" y="366.8247">[08]</text><text fill="#000000" font-family="sans-serif" font-size="13" lengthAdjust="spacing" textLength="148" x="432.5" y="366.8247">return response {204}</text><polygon fill="#181818" points="951.5,397.0234,961.5,401.0234,951.5,405.0234,955.5,401.0234" style="stroke:#181818;stroke-width:1.0;"/><line style="stroke:#181818;stroke-width:1.0;" x1="682.5" x2="957.5" y1="401.0234" y2="401.0234"/><text fill="#000000" font-family="sans-serif" font-size="13" font-weight="bold" lengthAdjust="spacing" textLength="31" x="689.5" y="395.9575">[09]</text><text fill="#000000" font-family="sans-serif" font-size="13" lengthAdjust="spacing" textLength="148" x="724.5" y="395.9575">return response {204}</text><path d="M301,416.0234 L367,416.0234 L367,423.1563 L357,433.1563 L301,433.1563 L301,416.0234 " fill="#EEEEEE" style="stroke:#000000;stroke-width:1.5;"/><rect fill="none" height="75.3984" style="stroke:#000000;stroke-width:1.5;" width="743" x="301" y="416.0234"/><text fill="#000000" font-family="sans-serif" font-size="13" font-weight="bold" lengthAdjust="spacing" textLength="21" x="316" y="429.0903">alt</text><polygon fill="#181818" points="660.5,450.2891,670.5,454.2891,660.5,458.2891,664.5,454.2891" style="stroke:#181818;stroke-width:1.0;"/><line style="stroke:#181818;stroke-width:1.0;stroke-dasharray:2.0,2.0;" x1="385.5" x2="666.5" y1="454.2891" y2="454.2891"/><text fill="#000000" font-family="sans-serif" font-size="13" font-weight="bold" lengthAdjust="spacing" textLength="31" x="392.5" y="449.2231">[10]</text><text fill="#000000" font-family="sans-serif" font-size="13" lengthAdjust="spacing" textLength="223" x="427.5" y="449.2231">response: {400} ongeldig verzoek</text><polygon fill="#181818" points="956.5,479.4219,966.5,483.4219,956.5,487.4219,960.5,483.4219" style="stroke:#181818;stroke-width:1.0;"/><line style="stroke:#181818;stroke-width:1.0;stroke-dasharray:2.0,2.0;" x1="677.5" x2="962.5" y1="483.4219" y2="483.4219"/><text fill="#000000" font-family="sans-serif" font-size="13" font-weight="bold" lengthAdjust="spacing" textLength="30" x="684.5" y="478.356">[11]</text><text fill="#000000" font-family="sans-serif" font-size="13" lengthAdjust="spacing" textLength="223" x="718.5" y="478.356">response: {400} ongeldig verzoek</text><!--SRC=[bL8xJyCm4DxzAqxjZ1IXJWWnC30YnC8037PyIQswPyjsMXxYltDsaYO11293elY-rzqvxWnv6UGUjfBqCPYKaA2HDgA8fng_awcDbvIyrDfG2-VLhAxSotY-gOJiagDkhp30wb9TFLRLyqem15Hmj7MTviBQcdQRbErGpCHXTIthdMiQK-CAP0GLb-LxR4rC64enjClYBQOZXftlAFLayY2GT8udIW2DQ0dt9_zNjDOTVrVHv7-Dg3dZoIIquCwkyja512crjnoOMW7yo3gPWqnO6A8DhlFGk2x17gr6AXWkmSWt3_Rjx2O3dgZ5sb5CpCQW5qZoCsHMoaiuO7ZZJ8FePCoj52uFXhdgHov96TXnsjLIGmqQQgPnaDRmQ0COohPZmoE4Uz7ESQ9ojufXCnb-aOyzDPx40wOk47-Yvn4Wl9zNcu- -3Vn6wntr7xm1LPRq8whFP1EixmpjojyWFgdtX0jutrJL1pXU4RVJZzxXo9b770Ot-4y1_Yka9o5StAbyb6yY1nVvIdu2]--></g></svg>