<?xml version="1.0" encoding="us-ascii" standalone="no"?><svg xmlns="http://www.w3.org/2000/svg" xmlns:xlink="http://www.w3.org/1999/xlink" contentStyleType="text/css" height="1102px" preserveAspectRatio="none" style="width:1711px;height:1102px;background:#FFFFFF;" version="1.1" viewBox="0 0 1711 1102" width="1711px" zoomAndPan="magnify"><defs/><g><rect fill="#DDDDDD" height="1090.3047" style="stroke:#181818;stroke-width:0.5;" width="105" x="11" y="6"/><text fill="#000000" font-family="sans-serif" font-size="13" font-weight="bold" lengthAdjust="spacing" textLength="81" x="23" y="18.0669">Deelnemer</text><rect fill="#DDDDDD" height="1090.3047" style="stroke:#181818;stroke-width:0.5;" width="919.5" x="392.5" y="6"/><text fill="#000000" font-family="sans-serif" font-size="13" font-weight="bold" lengthAdjust="spacing" textLength="25" x="839.75" y="18.0669">nID</text><rect fill="#DDDDDD" height="1090.3047" style="stroke:#181818;stroke-width:0.5;" width="128" x="1577.5" y="6"/><text fill="#000000" font-family="sans-serif" font-size="13" font-weight="bold" lengthAdjust="spacing" textLength="64" x="1609.5" y="18.0669">Register</text><rect fill="#FFFFFF" height="460.6563" style="stroke:#181818;stroke-width:1.0;" width="10" x="58.5" y="66.4297"/><rect fill="#FFFFFF" height="427.2578" style="stroke:#181818;stroke-width:1.0;" width="10" x="58.5" y="616.75"/><rect fill="#FFFFFF" height="363.8594" style="stroke:#181818;stroke-width:1.0;" width="10" x="479.5" y="163.2266"/><rect fill="#D3D3D3" height="157.6641" style="stroke:#181818;stroke-width:1.0;" width="10" x="484.5" y="287.8906"/><rect fill="#D3D3D3" height="28" style="stroke:#181818;stroke-width:1.0;" width="10" x="489.5" y="417.5547"/><rect fill="#FFFFFF" height="278.1953" style="stroke:#181818;stroke-width:1.0;" width="10" x="895.5" y="616.75"/><rect fill="#FFFFFF" height="427.2578" style="stroke:#181818;stroke-width:1.0;" width="10" x="1217.5" y="616.75"/><rect fill="#FFFFFF" height="74.5313" style="stroke:#181818;stroke-width:1.0;" width="10" x="1636.5" y="894.9453"/><line style="stroke:#181818;stroke-width:0.5;stroke-dasharray:5.0,5.0;" x1="63" x2="63" y1="56.4297" y2="1062.0078"/><line style="stroke:#181818;stroke-width:0.5;stroke-dasharray:5.0,5.0;" x1="484.5" x2="484.5" y1="56.4297" y2="1062.0078"/><line style="stroke:#181818;stroke-width:0.5;stroke-dasharray:5.0,5.0;" x1="900.5" x2="900.5" y1="56.4297" y2="1062.0078"/><line style="stroke:#181818;stroke-width:0.5;stroke-dasharray:5.0,5.0;" x1="1222" x2="1222" y1="56.4297" y2="1062.0078"/><line style="stroke:#181818;stroke-width:0.5;stroke-dasharray:5.0,5.0;" x1="1641.5" x2="1641.5" y1="56.4297" y2="1062.0078"/><rect fill="#E2E2F0" height="30.2969" rx="2.5" ry="2.5" style="stroke:#181818;stroke-width:0.5;" width="57" x="35" y="25.1328"/><text fill="#000000" font-family="sans-serif" font-size="14" lengthAdjust="spacing" textLength="43" x="42" y="45.1279">Client</text><rect fill="#E2E2F0" height="30.2969" rx="2.5" ry="2.5" style="stroke:#181818;stroke-width:0.5;" width="57" x="35" y="1061.0078"/><text fill="#000000" font-family="sans-serif" font-size="14" lengthAdjust="spacing" textLength="43" x="42" y="1081.0029">Client</text><rect fill="#E2E2F0" height="30.2969" rx="2.5" ry="2.5" style="stroke:#181818;stroke-width:0.5;" width="136" x="416.5" y="25.1328"/><text fill="#000000" font-family="sans-serif" font-size="14" lengthAdjust="spacing" textLength="122" x="423.5" y="45.1279">autorisatieserver</text><rect fill="#E2E2F0" height="30.2969" rx="2.5" ry="2.5" style="stroke:#181818;stroke-width:0.5;" width="136" x="416.5" y="1061.0078"/><text fill="#000000" font-family="sans-serif" font-size="14" lengthAdjust="spacing" textLength="122" x="423.5" y="1081.0029">autorisatieserver</text><rect fill="#E2E2F0" height="30.2969" rx="2.5" ry="2.5" style="stroke:#181818;stroke-width:0.5;" width="80" x="860.5" y="25.1328"/><text fill="#000000" font-family="sans-serif" font-size="14" lengthAdjust="spacing" textLength="66" x="867.5" y="45.1279">nID Filter</text><rect fill="#E2E2F0" height="30.2969" rx="2.5" ry="2.5" style="stroke:#181818;stroke-width:0.5;" width="80" x="860.5" y="1061.0078"/><text fill="#000000" font-family="sans-serif" font-size="14" lengthAdjust="spacing" textLength="66" x="867.5" y="1081.0029">nID Filter</text><rect fill="#E2E2F0" height="30.2969" rx="2.5" ry="2.5" style="stroke:#181818;stroke-width:0.5;" width="131" x="1157" y="25.1328"/><text fill="#000000" font-family="sans-serif" font-size="14" lengthAdjust="spacing" textLength="117" x="1164" y="45.1279">Resource-server</text><rect fill="#E2E2F0" height="30.2969" rx="2.5" ry="2.5" style="stroke:#181818;stroke-width:0.5;" width="131" x="1157" y="1061.0078"/><text fill="#000000" font-family="sans-serif" font-size="14" lengthAdjust="spacing" textLength="117" x="1164" y="1081.0029">Resource-server</text><rect fill="#E2E2F0" height="30.2969" rx="2.5" ry="2.5" style="stroke:#181818;stroke-width:0.5;" width="80" x="1601.5" y="25.1328"/><text fill="#000000" font-family="sans-serif" font-size="14" lengthAdjust="spacing" textLength="66" x="1608.5" y="45.1279">Resource</text><rect fill="#E2E2F0" height="30.2969" rx="2.5" ry="2.5" style="stroke:#181818;stroke-width:0.5;" width="80" x="1601.5" y="1061.0078"/><text fill="#000000" font-family="sans-serif" font-size="14" lengthAdjust="spacing" textLength="66" x="1608.5" y="1081.0029">Resource</text><rect fill="#FFFFFF" height="460.6563" style="stroke:#181818;stroke-width:1.0;" width="10" x="58.5" y="66.4297"/><rect fill="#FFFFFF" height="427.2578" style="stroke:#181818;stroke-width:1.0;" width="10" x="58.5" y="616.75"/><rect fill="#FFFFFF" height="363.8594" style="stroke:#181818;stroke-width:1.0;" width="10" x="479.5" y="163.2266"/><rect fill="#D3D3D3" height="157.6641" style="stroke:#181818;stroke-width:1.0;" width="10" x="484.5" y="287.8906"/><rect fill="#D3D3D3" height="28" style="stroke:#181818;stroke-width:1.0;" width="10" x="489.5" y="417.5547"/><rect fill="#FFFFFF" height="278.1953" style="stroke:#181818;stroke-width:1.0;" width="10" x="895.5" y="616.75"/><rect fill="#FFFFFF" height="427.2578" style="stroke:#181818;stroke-width:1.0;" width="10" x="1217.5" y="616.75"/><rect fill="#FFFFFF" height="74.5313" style="stroke:#181818;stroke-width:1.0;" width="10" x="1636.5" y="894.9453"/><polygon fill="#181818" points="467.5,159.2266,477.5,163.2266,467.5,167.2266,471.5,163.2266" style="stroke:#181818;stroke-width:1.0;"/><line style="stroke:#181818;stroke-width:1.0;" x1="68.5" x2="473.5" y1="163.2266" y2="163.2266"/><text fill="#000000" font-family="sans-serif" font-size="13" font-weight="bold" lengthAdjust="spacing" textLength="41" x="75.5" y="120.3286">[001]</text><text fill="#000000" font-family="sans-serif" font-size="13" font-weight="bold" lengthAdjust="spacing" textLength="200" x="120.5" y="82.4966">Aanvragen van autorisatie</text><text fill="#000000" font-family="sans-serif" font-size="13" lengthAdjust="spacing" textLength="217" x="120.5" y="97.6294">"scope": "registers/resource:read"</text><text fill="#000000" font-family="sans-serif" font-size="13" lengthAdjust="spacing" textLength="128" x="124.5" y="112.7622">Authenticatiemiddel</text><text fill="#FF0000" font-family="sans-serif" font-size="13" lengthAdjust="spacing" textLength="342" x="120.5" y="127.895">X-B3-TraceId: 463ac35c9f6413ad48485a3953bb6124</text><text fill="#FF0000" font-family="sans-serif" font-size="13" lengthAdjust="spacing" textLength="212" x="120.5" y="143.0278">X-B3-SpanId: a2fb4a1d1a96d312</text><text fill="#FF0000" font-family="sans-serif" font-size="13" lengthAdjust="spacing" textLength="125" x="120.5" y="158.1606">X-B3-ParentSpanId:</text><line style="stroke:#181818;stroke-width:1.0;" x1="489.5" x2="531.5" y1="192.3594" y2="192.3594"/><line style="stroke:#181818;stroke-width:1.0;" x1="531.5" x2="531.5" y1="192.3594" y2="205.3594"/><line style="stroke:#181818;stroke-width:1.0;" x1="490.5" x2="531.5" y1="205.3594" y2="205.3594"/><polygon fill="#181818" points="500.5,201.3594,490.5,205.3594,500.5,209.3594,496.5,205.3594" style="stroke:#181818;stroke-width:1.0;"/><text fill="#000000" font-family="sans-serif" font-size="13" font-weight="bold" lengthAdjust="spacing" textLength="41" x="496.5" y="187.2935">[002]</text><text fill="#000000" font-family="sans-serif" font-size="13" lengthAdjust="spacing" textLength="184" x="541.5" y="187.2935">Valideer Authenticatiemiddel</text><line style="stroke:#181818;stroke-width:1.0;" x1="489.5" x2="536.5" y1="274.8906" y2="274.8906"/><line style="stroke:#181818;stroke-width:1.0;" x1="536.5" x2="536.5" y1="274.8906" y2="287.8906"/><line style="stroke:#181818;stroke-width:1.0;" x1="495.5" x2="536.5" y1="287.8906" y2="287.8906"/><polygon fill="#181818" points="505.5,283.8906,495.5,287.8906,505.5,291.8906,501.5,287.8906" style="stroke:#181818;stroke-width:1.0;"/><text fill="#000000" font-family="sans-serif" font-size="13" font-weight="bold" lengthAdjust="spacing" textLength="40" x="501.5" y="247.1255">[003]</text><text fill="#000000" font-family="sans-serif" font-size="13" lengthAdjust="spacing" textLength="204" x="545.5" y="224.4263">Run Rule-engine o.b.v. scope(s)</text><text fill="#FF0000" font-family="sans-serif" font-size="13" lengthAdjust="spacing" textLength="342" x="545.5" y="239.5591">X-B3-TraceId: 463ac35c9f6413ad48485a3953bb6124</text><text fill="#FF0000" font-family="sans-serif" font-size="13" lengthAdjust="spacing" textLength="212" x="545.5" y="254.6919">X-B3-SpanId: a2fb4a1d1a96d312</text><text fill="#FF0000" font-family="sans-serif" font-size="13" lengthAdjust="spacing" textLength="125" x="545.5" y="269.8247">X-B3-ParentSpanId:</text><line style="stroke:#181818;stroke-width:1.0;" x1="494.5" x2="536.5" y1="322.0234" y2="322.0234"/><line style="stroke:#181818;stroke-width:1.0;" x1="536.5" x2="536.5" y1="322.0234" y2="335.0234"/><line style="stroke:#181818;stroke-width:1.0;" x1="495.5" x2="536.5" y1="335.0234" y2="335.0234"/><polygon fill="#181818" points="505.5,331.0234,495.5,335.0234,505.5,339.0234,501.5,335.0234" style="stroke:#181818;stroke-width:1.0;"/><text fill="#000000" font-family="sans-serif" font-size="13" font-weight="bold" lengthAdjust="spacing" textLength="41" x="501.5" y="316.9575">[004]</text><text fill="#000000" font-family="sans-serif" font-size="13" lengthAdjust="spacing" textLength="124" x="546.5" y="316.9575">Valideer autorisatie</text><line style="stroke:#181818;stroke-width:1.0;" x1="499.5" x2="541.5" y1="409.5547" y2="409.5547"/><line style="stroke:#181818;stroke-width:1.0;" x1="541.5" x2="541.5" y1="409.5547" y2="422.5547"/><line style="stroke:#181818;stroke-width:1.0;" x1="500.5" x2="541.5" y1="422.5547" y2="422.5547"/><polygon fill="#181818" points="510.5,418.5547,500.5,422.5547,510.5,426.5547,506.5,422.5547" style="stroke:#181818;stroke-width:1.0;"/><text fill="#000000" font-family="sans-serif" font-size="13" font-weight="bold" lengthAdjust="spacing" textLength="41" x="506.5" y="381.7896">[005]</text><text fill="#000000" font-family="sans-serif" font-size="13" lengthAdjust="spacing" textLength="153" x="551.5" y="359.0903">Genereer Access-Token</text><text fill="#FF0000" font-family="sans-serif" font-size="13" lengthAdjust="spacing" textLength="342" x="551.5" y="374.2231">X-B3-TraceId: 463ac35c9f6413ad48485a3953bb6124</text><text fill="#FF0000" font-family="sans-serif" font-size="13" lengthAdjust="spacing" textLength="212" x="551.5" y="389.356">X-B3-SpanId: a2fb4a1d1a96d312</text><text fill="#FF0000" font-family="sans-serif" font-size="13" lengthAdjust="spacing" textLength="125" x="551.5" y="404.4888">X-B3-ParentSpanId:</text><polygon fill="#181818" points="74.5,523.0859,64.5,527.0859,74.5,531.0859,70.5,527.0859" style="stroke:#181818;stroke-width:1.0;"/><line style="stroke:#181818;stroke-width:1.0;stroke-dasharray:2.0,2.0;" x1="68.5" x2="483.5" y1="527.0859" y2="527.0859"/><text fill="#000000" font-family="sans-serif" font-size="13" font-weight="bold" lengthAdjust="spacing" textLength="41" x="80.5" y="499.3208">[006]</text><text fill="#000000" font-family="sans-serif" font-size="13" lengthAdjust="spacing" textLength="194" x="125.5" y="476.6216">200 Response (Access-Token)</text><text fill="#FF0000" font-family="sans-serif" font-size="13" lengthAdjust="spacing" textLength="342" x="125.5" y="491.7544">X-B3-TraceId: 463ac35c9f6413ad48485a3953bb6124</text><text fill="#FF0000" font-family="sans-serif" font-size="13" lengthAdjust="spacing" textLength="212" x="125.5" y="506.8872">X-B3-SpanId: a2fb4a1d1a96d312</text><text fill="#FF0000" font-family="sans-serif" font-size="13" lengthAdjust="spacing" textLength="125" x="125.5" y="522.02">X-B3-ParentSpanId:</text><polygon fill="#181818" points="1205.5,612.75,1215.5,616.75,1205.5,620.75,1209.5,616.75" style="stroke:#181818;stroke-width:1.0;"/><line style="stroke:#181818;stroke-width:1.0;" x1="68.5" x2="1211.5" y1="616.75" y2="616.75"/><text fill="#000000" font-family="sans-serif" font-size="13" font-weight="bold" lengthAdjust="spacing" textLength="41" x="75.5" y="581.4185">[007]</text><text fill="#000000" font-family="sans-serif" font-size="13" font-weight="bold" lengthAdjust="spacing" textLength="113" x="120.5" y="551.1528">GraphQL Query</text><text fill="#000000" font-family="sans-serif" font-size="13" lengthAdjust="spacing" textLength="235" x="120.5" y="566.2856">Authenticatiemiddel + Access-Token</text><text fill="#FF0000" font-family="sans-serif" font-size="13" lengthAdjust="spacing" textLength="342" x="120.5" y="581.4185">X-B3-TraceId: 463ac35c9f6413ad48485a3953bb6124</text><text fill="#FF0000" font-family="sans-serif" font-size="13" lengthAdjust="spacing" textLength="212" x="120.5" y="596.5513">X-B3-SpanId: a2fb4a1d1a96d312</text><text fill="#FF0000" font-family="sans-serif" font-size="13" lengthAdjust="spacing" textLength="125" x="120.5" y="611.6841">X-B3-ParentSpanId:</text><path d="M910,629.75 L910,654.75 L1076,654.75 L1076,639.75 L1066,629.75 L910,629.75 " fill="#FEFFDD" style="stroke:#181818;stroke-width:0.5;"/><path d="M1066,629.75 L1066,639.75 L1076,639.75 L1066,629.75 " fill="#FEFFDD" style="stroke:#181818;stroke-width:0.5;"/><text fill="#000000" font-family="sans-serif" font-size="13" lengthAdjust="spacing" textLength="145" x="916" y="646.8169">Inline filtering requests</text><line style="stroke:#181818;stroke-width:1.0;" x1="905.5" x2="947.5" y1="681.0156" y2="681.0156"/><line style="stroke:#181818;stroke-width:1.0;" x1="947.5" x2="947.5" y1="681.0156" y2="694.0156"/><line style="stroke:#181818;stroke-width:1.0;" x1="906.5" x2="947.5" y1="694.0156" y2="694.0156"/><polygon fill="#181818" points="916.5,690.0156,906.5,694.0156,916.5,698.0156,912.5,694.0156" style="stroke:#181818;stroke-width:1.0;"/><text fill="#000000" font-family="sans-serif" font-size="13" font-weight="bold" lengthAdjust="spacing" textLength="41" x="912.5" y="675.9497">[008]</text><text fill="#000000" font-family="sans-serif" font-size="13" lengthAdjust="spacing" textLength="184" x="957.5" y="675.9497">Valideer Authenticatiemiddel</text><line style="stroke:#181818;stroke-width:1.0;" x1="905.5" x2="947.5" y1="723.1484" y2="723.1484"/><line style="stroke:#181818;stroke-width:1.0;" x1="947.5" x2="947.5" y1="723.1484" y2="736.1484"/><line style="stroke:#181818;stroke-width:1.0;" x1="906.5" x2="947.5" y1="736.1484" y2="736.1484"/><polygon fill="#181818" points="916.5,732.1484,906.5,736.1484,916.5,740.1484,912.5,736.1484" style="stroke:#181818;stroke-width:1.0;"/><text fill="#000000" font-family="sans-serif" font-size="13" font-weight="bold" lengthAdjust="spacing" textLength="41" x="912.5" y="718.0825">[009]</text><text fill="#000000" font-family="sans-serif" font-size="13" lengthAdjust="spacing" textLength="145" x="957.5" y="718.0825">Valideer Access-Token</text><line style="stroke:#181818;stroke-width:1.0;" x1="905.5" x2="947.5" y1="765.2813" y2="765.2813"/><line style="stroke:#181818;stroke-width:1.0;" x1="947.5" x2="947.5" y1="765.2813" y2="778.2813"/><line style="stroke:#181818;stroke-width:1.0;" x1="906.5" x2="947.5" y1="778.2813" y2="778.2813"/><polygon fill="#181818" points="916.5,774.2813,906.5,778.2813,916.5,782.2813,912.5,778.2813" style="stroke:#181818;stroke-width:1.0;"/><text fill="#000000" font-family="sans-serif" font-size="13" font-weight="bold" lengthAdjust="spacing" textLength="41" x="912.5" y="760.2153">[010]</text><text fill="#000000" font-family="sans-serif" font-size="13" lengthAdjust="spacing" textLength="112" x="957.5" y="760.2153">Valideer GraphQL</text><line style="stroke:#181818;stroke-width:1.0;" x1="905.5" x2="947.5" y1="807.4141" y2="807.4141"/><line style="stroke:#181818;stroke-width:1.0;" x1="947.5" x2="947.5" y1="807.4141" y2="820.4141"/><line style="stroke:#181818;stroke-width:1.0;" x1="906.5" x2="947.5" y1="820.4141" y2="820.4141"/><polygon fill="#181818" points="916.5,816.4141,906.5,820.4141,916.5,824.4141,912.5,820.4141" style="stroke:#181818;stroke-width:1.0;"/><text fill="#000000" font-family="sans-serif" font-size="13" font-weight="bold" lengthAdjust="spacing" textLength="40" x="912.5" y="802.3481">[011]</text><text fill="#000000" font-family="sans-serif" font-size="13" lengthAdjust="spacing" textLength="254" x="956.5" y="802.3481">Valideer GraphQL request met scope(s)</text><polygon fill="#181818" points="1624.5,890.9453,1634.5,894.9453,1624.5,898.9453,1628.5,894.9453" style="stroke:#181818;stroke-width:1.0;"/><line style="stroke:#181818;stroke-width:1.0;" x1="1227.5" x2="1630.5" y1="894.9453" y2="894.9453"/><text fill="#000000" font-family="sans-serif" font-size="13" font-weight="bold" lengthAdjust="spacing" textLength="40" x="1234.5" y="867.1802">[012]</text><text fill="#000000" font-family="sans-serif" font-size="13" lengthAdjust="spacing" textLength="113" x="1278.5" y="844.481">GraphQL Request</text><text fill="#FF0000" font-family="sans-serif" font-size="13" lengthAdjust="spacing" textLength="342" x="1278.5" y="859.6138">X-B3-TraceId: 463ac35c9f6413ad48485a3953bb6124</text><text fill="#FF0000" font-family="sans-serif" font-size="13" lengthAdjust="spacing" textLength="212" x="1278.5" y="874.7466">X-B3-SpanId: a2fb4a1d1a96d312</text><text fill="#FF0000" font-family="sans-serif" font-size="13" lengthAdjust="spacing" textLength="125" x="1278.5" y="889.8794">X-B3-ParentSpanId:</text><polygon fill="#181818" points="1238.5,965.4766,1228.5,969.4766,1238.5,973.4766,1234.5,969.4766" style="stroke:#181818;stroke-width:1.0;"/><line style="stroke:#181818;stroke-width:1.0;stroke-dasharray:2.0,2.0;" x1="1232.5" x2="1640.5" y1="969.4766" y2="969.4766"/><text fill="#000000" font-family="sans-serif" font-size="13" font-weight="bold" lengthAdjust="spacing" textLength="39" x="1244.5" y="941.7114">[013]</text><text fill="#000000" font-family="sans-serif" font-size="13" lengthAdjust="spacing" textLength="161" x="1287.5" y="919.0122">200 Response (GraphQL)</text><text fill="#FF0000" font-family="sans-serif" font-size="13" lengthAdjust="spacing" textLength="342" x="1287.5" y="934.145">X-B3-TraceId: 463ac35c9f6413ad48485a3953bb6124</text><text fill="#FF0000" font-family="sans-serif" font-size="13" lengthAdjust="spacing" textLength="212" x="1287.5" y="949.2778">X-B3-SpanId: a2fb4a1d1a96d312</text><text fill="#FF0000" font-family="sans-serif" font-size="13" lengthAdjust="spacing" textLength="125" x="1287.5" y="964.4106">X-B3-ParentSpanId:</text><polygon fill="#181818" points="74.5,1040.0078,64.5,1044.0078,74.5,1048.0078,70.5,1044.0078" style="stroke:#181818;stroke-width:1.0;"/><line style="stroke:#181818;stroke-width:1.0;stroke-dasharray:2.0,2.0;" x1="68.5" x2="1221.5" y1="1044.0078" y2="1044.0078"/><text fill="#000000" font-family="sans-serif" font-size="13" font-weight="bold" lengthAdjust="spacing" textLength="40" x="80.5" y="1016.2427">[014]</text><text fill="#000000" font-family="sans-serif" font-size="13" lengthAdjust="spacing" textLength="161" x="124.5" y="993.5435">200 Response (GraphQL)</text><text fill="#FF0000" font-family="sans-serif" font-size="13" lengthAdjust="spacing" textLength="342" x="124.5" y="1008.6763">X-B3-TraceId: 463ac35c9f6413ad48485a3953bb6124</text><text fill="#FF0000" font-family="sans-serif" font-size="13" lengthAdjust="spacing" textLength="212" x="124.5" y="1023.8091">X-B3-SpanId: a2fb4a1d1a96d312</text><text fill="#FF0000" font-family="sans-serif" font-size="13" lengthAdjust="spacing" textLength="125" x="124.5" y="1038.9419">X-B3-ParentSpanId:</text><!--SRC=[rLLTRzem57tFhxZB7jOofGD2KHjrI6NTAgHEQcarJHfxSE8BM0rsPZkexQ-V7PBKBC3O6qD2yiSz9xxdNX-_WpUP9BC50OtY1RJCqVFK8-CPaMG1jqHgbh2CS7rBA6Ly1jssipyKJzLwf-rviNW2_menvRX0wNjWVjah1VYVKePS-q0Kh8OUSWe6LcBvw6e3YkHQIAQ8PgXGBWsp9RZCzVpblfWt8OO8lh1Kbx6hOJDiZ4haCi70uJNGQhbaNp_Z66TCwOtfLRY2P_ZvQnNwoc1JuVaYHWd-HJpuqMwtV_eUIJHR4esLA9PuDOHWu2OQGQjrIVZIb0mvB0a7HvjMQy9zbOWC_GXyMNvRVP3bgIA9XFeJNX0QRfPOr89HYkc4Nqo5-LmYKY4_IgI3xy4m31uaIN148-ZrGvA4fydvjD_hX8JspdfdfoGyFmtZkD_fzhRWxuqk5awwqxX7EhH3pliqx7ItX9jsC-SgGOKAjJ9_Ljl-dBM6Jjz8oYYQZGt9xaKmphdvfnWWdp6E84xYa-K95FeUgUD35MoRQF3sXitc-bgIvpfkRmsT9jiRV8qSPL60946bWWVnYFoGLVjNvIZkRCw_RAz9PxIhhdiG6OTjWt6IJ725SEJATx1TjoLPPxbqDk_LrXe-QytDg9pDxsxWBaVvR0rjm_M5zmVVKtNQpSUatYhV92xCMDeE0p4j5oCOyTIQphIOskTLugySbLQDjsA5i89Ms9tMjolS4NLNN5cZFKAgKyC2TUsSdjSGnN8upsLKuySh_26MsEdjifBrt7tvFMTINFGDRRz-uSlSZmyywRKaDrIqzhJ_DB_cpMtQsMy0]--></g></svg>