<svg xmlns="http://www.w3.org/2000/svg" xmlns:xlink="http://www.w3.org/1999/xlink" contentStyleType="text/css" height="995px" preserveAspectRatio="none" style="width:1748px;height:995px;background:#FFFFFF;" version="1.1" viewBox="0 0 1748 995" width="1748px" zoomAndPan="magnify"><defs/><g><rect fill="#DDDDDD" height="983.2422" style="stroke:#181818;stroke-width:0.5;" width="102.5303" x="11" y="6"/><text fill="#000000" font-family="sans-serif" font-size="13" font-weight="bold" lengthAdjust="spacing" textLength="79.7266" x="22.4019" y="18.0669">Deelnemer</text><rect fill="#DDDDDD" height="983.2422" style="stroke:#181818;stroke-width:0.5;" width="951.2495" x="393.8486" y="6"/><text fill="#000000" font-family="sans-serif" font-size="13" font-weight="bold" lengthAdjust="spacing" textLength="24.8828" x="857.032" y="18.0669">nID</text><rect fill="#DDDDDD" height="983.2422" style="stroke:#181818;stroke-width:0.5;" width="127.1396" x="1615.5249" y="6"/><text fill="#000000" font-family="sans-serif" font-size="13" font-weight="bold" lengthAdjust="spacing" textLength="61.769" x="1648.2102" y="18.0669">Register</text><rect fill="#FFFFFF" height="415.2578" style="stroke:#181818;stroke-width:1;" width="10" x="57.2651" y="66.4297"/><rect fill="#FFFFFF" height="365.5938" style="stroke:#181818;stroke-width:1;" width="10" x="57.2651" y="571.3516"/><rect fill="#FFFFFF" height="318.4609" style="stroke:#181818;stroke-width:1;" width="10" x="479.5161" y="163.2266"/><rect fill="#D3D3D3" height="157.6641" style="stroke:#181818;stroke-width:1;" width="10" x="484.5161" y="287.8906"/><rect fill="#D3D3D3" height="28" style="stroke:#181818;stroke-width:1;" width="10" x="489.5161" y="417.5547"/><rect fill="#FFFFFF" height="232.7969" style="stroke:#181818;stroke-width:1;" width="10" x="916.7671" y="571.3516"/><rect fill="#FFFFFF" height="132.7969" style="stroke:#181818;stroke-width:1;" width="10" x="1251.8438" y="804.1484"/><rect fill="#FFFFFF" height="29.1328" style="stroke:#181818;stroke-width:1;" width="10" x="1674.0947" y="878.6797"/><line style="stroke:#181818;stroke-width:0.5;stroke-dasharray:5.0,5.0;" x1="62" x2="62" y1="56.4297" y2="954.9453"/><line style="stroke:#181818;stroke-width:0.5;stroke-dasharray:5.0,5.0;" x1="483.8486" x2="483.8486" y1="56.4297" y2="954.9453"/><line style="stroke:#181818;stroke-width:0.5;stroke-dasharray:5.0,5.0;" x1="920.8057" x2="920.8057" y1="56.4297" y2="954.9453"/><line style="stroke:#181818;stroke-width:0.5;stroke-dasharray:5.0,5.0;" x1="1256.5894" x2="1256.5894" y1="56.4297" y2="954.9453"/><line style="stroke:#181818;stroke-width:0.5;stroke-dasharray:5.0,5.0;" x1="1678.5249" x2="1678.5249" y1="56.4297" y2="954.9453"/><rect fill="#E2E2F0" height="30.2969" rx="2.5" ry="2.5" style="stroke:#181818;stroke-width:0.5;" width="54.5303" x="35" y="25.1328"/><text fill="#000000" font-family="sans-serif" font-size="14" lengthAdjust="spacing" textLength="40.5303" x="42" y="45.1279">Client</text><rect fill="#E2E2F0" height="30.2969" rx="2.5" ry="2.5" style="stroke:#181818;stroke-width:0.5;" width="54.5303" x="35" y="953.9453"/><text fill="#000000" font-family="sans-serif" font-size="14" lengthAdjust="spacing" textLength="40.5303" x="42" y="973.9404">Client</text><rect fill="#E2E2F0" height="30.2969" rx="2.5" ry="2.5" style="stroke:#181818;stroke-width:0.5;" width="133.335" x="417.8486" y="25.1328"/><text fill="#000000" font-family="sans-serif" font-size="14" lengthAdjust="spacing" textLength="119.335" x="424.8486" y="45.1279">autorisatieserver</text><rect fill="#E2E2F0" height="30.2969" rx="2.5" ry="2.5" style="stroke:#181818;stroke-width:0.5;" width="133.335" x="417.8486" y="953.9453"/><text fill="#000000" font-family="sans-serif" font-size="14" lengthAdjust="spacing" textLength="119.335" x="424.8486" y="973.9404">autorisatieserver</text><rect fill="#E2E2F0" height="30.2969" rx="2.5" ry="2.5" style="stroke:#181818;stroke-width:0.5;" width="77.9229" x="882.8057" y="25.1328"/><text fill="#000000" font-family="sans-serif" font-size="14" lengthAdjust="spacing" textLength="63.9229" x="889.8057" y="45.1279">nID Filter</text><rect fill="#E2E2F0" height="30.2969" rx="2.5" ry="2.5" style="stroke:#181818;stroke-width:0.5;" width="77.9229" x="882.8057" y="953.9453"/><text fill="#000000" font-family="sans-serif" font-size="14" lengthAdjust="spacing" textLength="63.9229" x="889.8057" y="973.9404">nID Filter</text><rect fill="#E2E2F0" height="30.2969" rx="2.5" ry="2.5" style="stroke:#181818;stroke-width:0.5;" width="128.5088" x="1192.5894" y="25.1328"/><text fill="#000000" font-family="sans-serif" font-size="14" lengthAdjust="spacing" textLength="114.5088" x="1199.5894" y="45.1279">Resource-server</text><rect fill="#E2E2F0" height="30.2969" rx="2.5" ry="2.5" style="stroke:#181818;stroke-width:0.5;" width="128.5088" x="1192.5894" y="953.9453"/><text fill="#000000" font-family="sans-serif" font-size="14" lengthAdjust="spacing" textLength="114.5088" x="1199.5894" y="973.9404">Resource-server</text><rect fill="#E2E2F0" height="30.2969" rx="2.5" ry="2.5" style="stroke:#181818;stroke-width:0.5;" width="79.1396" x="1639.5249" y="25.1328"/><text fill="#000000" font-family="sans-serif" font-size="14" lengthAdjust="spacing" textLength="65.1396" x="1646.5249" y="45.1279">Resource</text><rect fill="#E2E2F0" height="30.2969" rx="2.5" ry="2.5" style="stroke:#181818;stroke-width:0.5;" width="79.1396" x="1639.5249" y="953.9453"/><text fill="#000000" font-family="sans-serif" font-size="14" lengthAdjust="spacing" textLength="65.1396" x="1646.5249" y="973.9404">Resource</text><rect fill="#FFFFFF" height="415.2578" style="stroke:#181818;stroke-width:1;" width="10" x="57.2651" y="66.4297"/><rect fill="#FFFFFF" height="365.5938" style="stroke:#181818;stroke-width:1;" width="10" x="57.2651" y="571.3516"/><rect fill="#FFFFFF" height="318.4609" style="stroke:#181818;stroke-width:1;" width="10" x="479.5161" y="163.2266"/><rect fill="#D3D3D3" height="157.6641" style="stroke:#181818;stroke-width:1;" width="10" x="484.5161" y="287.8906"/><rect fill="#D3D3D3" height="28" style="stroke:#181818;stroke-width:1;" width="10" x="489.5161" y="417.5547"/><rect fill="#FFFFFF" height="232.7969" style="stroke:#181818;stroke-width:1;" width="10" x="916.7671" y="571.3516"/><rect fill="#FFFFFF" height="132.7969" style="stroke:#181818;stroke-width:1;" width="10" x="1251.8438" y="804.1484"/><rect fill="#FFFFFF" height="29.1328" style="stroke:#181818;stroke-width:1;" width="10" x="1674.0947" y="878.6797"/><polygon fill="#181818" points="467.5161,159.2266,477.5161,163.2266,467.5161,167.2266,471.5161,163.2266" style="stroke:#181818;stroke-width:1;"/><line style="stroke:#181818;stroke-width:1;" x1="67.2651" x2="473.5161" y1="163.2266" y2="163.2266"/><text fill="#000000" font-family="sans-serif" font-size="13" font-weight="bold" lengthAdjust="spacing" textLength="39.019" x="74.2651" y="120.3286">[001]</text><text fill="#000000" font-family="sans-serif" font-size="13" font-weight="bold" lengthAdjust="spacing" textLength="194.7144" x="117.2842" y="82.4966">Aanvragen van autorisatie</text><text fill="#000000" font-family="sans-serif" font-size="13" lengthAdjust="spacing" textLength="222.8662" x="117.2842" y="97.6294">"scope": "registers/resource:read"</text><text fill="#000000" font-family="sans-serif" font-size="13" lengthAdjust="spacing" textLength="131.625" x="121.4165" y="112.7622">Authenticatiemiddel</text><text fill="#FF0000" font-family="sans-serif" font-size="13" lengthAdjust="spacing" textLength="350.2319" x="117.2842" y="127.895">X-B3-TraceId: 463ac35c9f6413ad48485a3953bb6124</text><text fill="#FF0000" font-family="sans-serif" font-size="13" lengthAdjust="spacing" textLength="216.4551" x="117.2842" y="143.0278">X-B3-SpanId: a2fb4a1d1a96d312</text><text fill="#000000" font-family="sans-serif" font-size="13" lengthAdjust="spacing" textLength="4.1323" x="117.2842" y="158.1606">&#160;</text><line style="stroke:#181818;stroke-width:1;" x1="489.5161" x2="531.5161" y1="192.3594" y2="192.3594"/><line style="stroke:#181818;stroke-width:1;" x1="531.5161" x2="531.5161" y1="192.3594" y2="205.3594"/><line style="stroke:#181818;stroke-width:1;" x1="490.5161" x2="531.5161" y1="205.3594" y2="205.3594"/><polygon fill="#181818" points="500.5161,201.3594,490.5161,205.3594,500.5161,209.3594,496.5161,205.3594" style="stroke:#181818;stroke-width:1;"/><text fill="#000000" font-family="sans-serif" font-size="13" font-weight="bold" lengthAdjust="spacing" textLength="39.019" x="496.5161" y="187.2935">[002]</text><text fill="#000000" font-family="sans-serif" font-size="13" lengthAdjust="spacing" textLength="189.4331" x="539.5352" y="187.2935">Valideer Authenticatiemiddel</text><line style="stroke:#181818;stroke-width:1;" x1="489.5161" x2="536.5161" y1="274.8906" y2="274.8906"/><line style="stroke:#181818;stroke-width:1;" x1="536.5161" x2="536.5161" y1="274.8906" y2="287.8906"/><line style="stroke:#181818;stroke-width:1;" x1="495.5161" x2="536.5161" y1="287.8906" y2="287.8906"/><polygon fill="#181818" points="505.5161,283.8906,495.5161,287.8906,505.5161,291.8906,501.5161,287.8906" style="stroke:#181818;stroke-width:1;"/><text fill="#000000" font-family="sans-serif" font-size="13" font-weight="bold" lengthAdjust="spacing" textLength="39.019" x="501.5161" y="247.1255">[003]</text><text fill="#000000" font-family="sans-serif" font-size="13" lengthAdjust="spacing" textLength="207.1558" x="544.5352" y="224.4263">Run Rule-engine o.b.v. scope(s)</text><text fill="#FF0000" font-family="sans-serif" font-size="13" lengthAdjust="spacing" textLength="350.2319" x="544.5352" y="239.5591">X-B3-TraceId: 463ac35c9f6413ad48485a3953bb6124</text><text fill="#FF0000" font-family="sans-serif" font-size="13" lengthAdjust="spacing" textLength="215.4268" x="544.5352" y="254.6919">X-B3-SpanId: 34cfd3ee730bbe13</text><text fill="#FF0000" font-family="sans-serif" font-size="13" lengthAdjust="spacing" textLength="258.9399" x="544.5352" y="269.8247">X-B3-ParentSpanId: a2fb4a1d1a96d312</text><line style="stroke:#181818;stroke-width:1;" x1="494.5161" x2="536.5161" y1="322.0234" y2="322.0234"/><line style="stroke:#181818;stroke-width:1;" x1="536.5161" x2="536.5161" y1="322.0234" y2="335.0234"/><line style="stroke:#181818;stroke-width:1;" x1="495.5161" x2="536.5161" y1="335.0234" y2="335.0234"/><polygon fill="#181818" points="505.5161,331.0234,495.5161,335.0234,505.5161,339.0234,501.5161,335.0234" style="stroke:#181818;stroke-width:1;"/><text fill="#000000" font-family="sans-serif" font-size="13" font-weight="bold" lengthAdjust="spacing" textLength="39.019" x="501.5161" y="316.9575">[004]</text><text fill="#000000" font-family="sans-serif" font-size="13" lengthAdjust="spacing" textLength="127.4673" x="544.5352" y="316.9575">Valideer autorisatie</text><line style="stroke:#181818;stroke-width:1;" x1="499.5161" x2="541.5161" y1="409.5547" y2="409.5547"/><line style="stroke:#181818;stroke-width:1;" x1="541.5161" x2="541.5161" y1="409.5547" y2="422.5547"/><line style="stroke:#181818;stroke-width:1;" x1="500.5161" x2="541.5161" y1="422.5547" y2="422.5547"/><polygon fill="#181818" points="510.5161,418.5547,500.5161,422.5547,510.5161,426.5547,506.5161,422.5547" style="stroke:#181818;stroke-width:1;"/><text fill="#000000" font-family="sans-serif" font-size="13" font-weight="bold" lengthAdjust="spacing" textLength="39.019" x="506.5161" y="381.7896">[005]</text><text fill="#000000" font-family="sans-serif" font-size="13" lengthAdjust="spacing" textLength="154.21" x="549.5352" y="359.0903">Genereer Access-Token</text><text fill="#FF0000" font-family="sans-serif" font-size="13" lengthAdjust="spacing" textLength="350.2319" x="549.5352" y="374.2231">X-B3-TraceId: 463ac35c9f6413ad48485a3953bb6124</text><text fill="#FF0000" font-family="sans-serif" font-size="13" lengthAdjust="spacing" textLength="215.4268" x="549.5352" y="389.356">X-B3-SpanId: 34cfd3ee730bbe13</text><text fill="#FF0000" font-family="sans-serif" font-size="13" lengthAdjust="spacing" textLength="258.9399" x="549.5352" y="404.4888">X-B3-ParentSpanId: a2fb4a1d1a96d312</text><polygon fill="#181818" points="73.2651,477.6875,63.2651,481.6875,73.2651,485.6875,69.2651,481.6875" style="stroke:#181818;stroke-width:1;"/><line style="stroke:#181818;stroke-width:1;stroke-dasharray:2.0,2.0;" x1="67.2651" x2="483.5161" y1="481.6875" y2="481.6875"/><text fill="#000000" font-family="sans-serif" font-size="13" font-weight="bold" lengthAdjust="spacing" textLength="39.019" x="79.2651" y="476.6216">[006]</text><text fill="#000000" font-family="sans-serif" font-size="13" lengthAdjust="spacing" textLength="195.3237" x="122.2842" y="476.6216">200 Response (Access-Token)</text><polygon fill="#181818" points="904.7671,567.3516,914.7671,571.3516,904.7671,575.3516,908.7671,571.3516" style="stroke:#181818;stroke-width:1;"/><line style="stroke:#181818;stroke-width:1;" x1="67.2651" x2="910.7671" y1="571.3516" y2="571.3516"/><text fill="#000000" font-family="sans-serif" font-size="13" font-weight="bold" lengthAdjust="spacing" textLength="39.019" x="74.2651" y="536.02">[007]</text><text fill="#000000" font-family="sans-serif" font-size="13" font-weight="bold" lengthAdjust="spacing" textLength="112.2837" x="117.2842" y="505.7544">GraphQL Query</text><text fill="#000000" font-family="sans-serif" font-size="13" lengthAdjust="spacing" textLength="239.8652" x="117.2842" y="520.8872">Authenticatiemiddel + Access-Token</text><text fill="#FF0000" font-family="sans-serif" font-size="13" lengthAdjust="spacing" textLength="350.2319" x="117.2842" y="536.02">X-B3-TraceId: 463ac35c9f6413ad48485a3953bb6124</text><text fill="#FF0000" font-family="sans-serif" font-size="13" lengthAdjust="spacing" textLength="216.7725" x="117.2842" y="551.1528">X-B3-SpanId: 2edb09379a27bfb1</text><text fill="#000000" font-family="sans-serif" font-size="13" lengthAdjust="spacing" textLength="4.1323" x="117.2842" y="566.2856">&#160;</text><path d="M931,584.3516 L931,609.3516 L1102,609.3516 L1102,594.3516 L1092,584.3516 L931,584.3516 " fill="#FEFFDD" style="stroke:#181818;stroke-width:0.5;"/><path d="M1092,584.3516 L1092,594.3516 L1102,594.3516 L1092,584.3516 " fill="#FEFFDD" style="stroke:#181818;stroke-width:0.5;"/><text fill="#000000" font-family="sans-serif" font-size="13" lengthAdjust="spacing" textLength="150.6172" x="937" y="601.4185">Inline filtering requests</text><line style="stroke:#181818;stroke-width:1;" x1="926.7671" x2="968.7671" y1="635.6172" y2="635.6172"/><line style="stroke:#181818;stroke-width:1;" x1="968.7671" x2="968.7671" y1="635.6172" y2="648.6172"/><line style="stroke:#181818;stroke-width:1;" x1="927.7671" x2="968.7671" y1="648.6172" y2="648.6172"/><polygon fill="#181818" points="937.7671,644.6172,927.7671,648.6172,937.7671,652.6172,933.7671,648.6172" style="stroke:#181818;stroke-width:1;"/><text fill="#000000" font-family="sans-serif" font-size="13" font-weight="bold" lengthAdjust="spacing" textLength="39.019" x="933.7671" y="630.5513">[008]</text><text fill="#000000" font-family="sans-serif" font-size="13" lengthAdjust="spacing" textLength="189.4331" x="976.7861" y="630.5513">Valideer Authenticatiemiddel</text><line style="stroke:#181818;stroke-width:1;" x1="926.7671" x2="968.7671" y1="677.75" y2="677.75"/><line style="stroke:#181818;stroke-width:1;" x1="968.7671" x2="968.7671" y1="677.75" y2="690.75"/><line style="stroke:#181818;stroke-width:1;" x1="927.7671" x2="968.7671" y1="690.75" y2="690.75"/><polygon fill="#181818" points="937.7671,686.75,927.7671,690.75,937.7671,694.75,933.7671,690.75" style="stroke:#181818;stroke-width:1;"/><text fill="#000000" font-family="sans-serif" font-size="13" font-weight="bold" lengthAdjust="spacing" textLength="39.019" x="933.7671" y="672.6841">[009]</text><text fill="#000000" font-family="sans-serif" font-size="13" lengthAdjust="spacing" textLength="146.8911" x="976.7861" y="672.6841">Valideer Access-Token</text><line style="stroke:#181818;stroke-width:1;" x1="926.7671" x2="968.7671" y1="719.8828" y2="719.8828"/><line style="stroke:#181818;stroke-width:1;" x1="968.7671" x2="968.7671" y1="719.8828" y2="732.8828"/><line style="stroke:#181818;stroke-width:1;" x1="927.7671" x2="968.7671" y1="732.8828" y2="732.8828"/><polygon fill="#181818" points="937.7671,728.8828,927.7671,732.8828,937.7671,736.8828,933.7671,732.8828" style="stroke:#181818;stroke-width:1;"/><text fill="#000000" font-family="sans-serif" font-size="13" font-weight="bold" lengthAdjust="spacing" textLength="39.019" x="933.7671" y="714.8169">[010]</text><text fill="#000000" font-family="sans-serif" font-size="13" lengthAdjust="spacing" textLength="115.1592" x="976.7861" y="714.8169">Valideer GraphQL</text><line style="stroke:#181818;stroke-width:1;" x1="926.7671" x2="968.7671" y1="762.0156" y2="762.0156"/><line style="stroke:#181818;stroke-width:1;" x1="968.7671" x2="968.7671" y1="762.0156" y2="775.0156"/><line style="stroke:#181818;stroke-width:1;" x1="927.7671" x2="968.7671" y1="775.0156" y2="775.0156"/><polygon fill="#181818" points="937.7671,771.0156,927.7671,775.0156,937.7671,779.0156,933.7671,775.0156" style="stroke:#181818;stroke-width:1;"/><text fill="#000000" font-family="sans-serif" font-size="13" font-weight="bold" lengthAdjust="spacing" textLength="39.019" x="933.7671" y="756.9497">[011]</text><text fill="#000000" font-family="sans-serif" font-size="13" lengthAdjust="spacing" textLength="258.0576" x="976.7861" y="756.9497">Valideer GraphQL request met scope(s)</text><polygon fill="#181818" points="1239.8438,800.1484,1249.8438,804.1484,1239.8438,808.1484,1243.8438,804.1484" style="stroke:#181818;stroke-width:1;"/><line style="stroke:#181818;stroke-width:1;" x1="921.7671" x2="1245.8438" y1="804.1484" y2="804.1484"/><text fill="#000000" font-family="sans-serif" font-size="13" font-weight="bold" lengthAdjust="spacing" textLength="39.019" x="928.7671" y="799.0825">[012]</text><text fill="#000000" font-family="sans-serif" font-size="13" lengthAdjust="spacing" textLength="4.1323" x="971.7861" y="799.0825">&#160;</text><polygon fill="#181818" points="1662.0947,874.6797,1672.0947,878.6797,1662.0947,882.6797,1666.0947,878.6797" style="stroke:#181818;stroke-width:1;"/><line style="stroke:#181818;stroke-width:1;" x1="1261.8438" x2="1668.0947" y1="878.6797" y2="878.6797"/><text fill="#000000" font-family="sans-serif" font-size="13" font-weight="bold" lengthAdjust="spacing" textLength="39.019" x="1268.8438" y="850.9146">[013]</text><text fill="#000000" font-family="sans-serif" font-size="13" lengthAdjust="spacing" textLength="114.8735" x="1311.8628" y="828.2153">GraphQL Request</text><text fill="#FF0000" font-family="sans-serif" font-size="13" lengthAdjust="spacing" textLength="350.2319" x="1311.8628" y="843.3481">X-B3-TraceId: 463ac35c9f6413ad48485a3953bb6124</text><text fill="#FF0000" font-family="sans-serif" font-size="13" lengthAdjust="spacing" textLength="215.998" x="1311.8628" y="858.481">X-B3-SpanId: 75c38117346fa472</text><text fill="#FF0000" font-family="sans-serif" font-size="13" lengthAdjust="spacing" textLength="259.2573" x="1311.8628" y="873.6138">X-B3-ParentSpanId: 2edb09379a27bfb1</text><polygon fill="#181818" points="1272.8438,903.8125,1262.8438,907.8125,1272.8438,911.8125,1268.8438,907.8125" style="stroke:#181818;stroke-width:1;"/><line style="stroke:#181818;stroke-width:1;stroke-dasharray:2.0,2.0;" x1="1266.8438" x2="1678.0947" y1="907.8125" y2="907.8125"/><text fill="#000000" font-family="sans-serif" font-size="13" font-weight="bold" lengthAdjust="spacing" textLength="39.019" x="1278.8438" y="902.7466">[014]</text><text fill="#000000" font-family="sans-serif" font-size="13" lengthAdjust="spacing" textLength="163.5918" x="1321.8628" y="902.7466">200 Response (GraphQL)</text><polygon fill="#181818" points="73.2651,932.9453,63.2651,936.9453,73.2651,940.9453,69.2651,936.9453" style="stroke:#181818;stroke-width:1;"/><line style="stroke:#181818;stroke-width:1;stroke-dasharray:2.0,2.0;" x1="67.2651" x2="1255.8438" y1="936.9453" y2="936.9453"/><text fill="#000000" font-family="sans-serif" font-size="13" font-weight="bold" lengthAdjust="spacing" textLength="39.019" x="79.2651" y="931.8794">[015]</text><text fill="#000000" font-family="sans-serif" font-size="13" lengthAdjust="spacing" textLength="163.5918" x="122.2842" y="931.8794">200 Response (GraphQL)</text><!--SRC=[rLNHJjim57tFLtZPmw1JM1AdBQqO4emD8J492fecZJquyKsnIEtCTYhWw-UaIMf8wBe79YrI9DkvvyJtND_ZT-XDBibyGP06yOYqBC1nr1tZEP5aWIw8r2nXEU7wWb3A-1o5llNzMDmtwu7lEB6uH-u9GCPX0T9ra7doDGLoFsKCk7OHKMWrT81JP60rbf-TzA18eOLaYcW62kJIC9S4HuM-VRogvbs88K9VMARhsDMm6pO39GgPW6Vn6cYpNBC_tUCCvapftlGQNCLp_Fbh4xfcA5FXnI86YTo3-F27x_i_NOSacYs9XaQKadWrHDwXdUWK3GP7X2zDoO2Z9U78qcOmkE6kIaGExXIvilwt-Y3hNKqb4EhUy8hGSBEaH2qOfP3Ty8DKcDyb8XFoemHw-Dqxnjwr90cSqIcAHfWaU9XCqb4KO4AZ_MX_IF1aYEDu58JH2_Wheqi99s4QHoIW0PcCA0x2RdYLSwl3yzgMZxNMKUKRoHW5yw4djQq8PWKtRmOUy3dZWCHUlBVSGvMQEshtbUN1KP9I3336VXn3W5y8DzreSdj9qpRFFXNHstCslzMdaZoqSLkBQfsnhS6dm45M5KaIKCgx5dV0_oiP_rPA2XkFxny-Fz7IYDcqlpSrZkiZuoovu0hGZgtdhhE1sLgkRSLPUyhA44ixCNdajvVdwB80-L1QI4yBeVV_iemXqDYVuF64XECuZOCUirWxPktiN9YnBEk2HDfcTyQpifdJQbfUKX9-5Q2qwZZk2c4hiz5IDeLRGcsAgtNV8gJPDLg0RXt9SInazygoYbyhP6dM3U-ibApM1JPjzp9RxUMLZy1ucE3z81ZZQ9IIQ1nkrSdFpyqwOVigTgn9rMcTt9ztN9twhYtg4yOUzTeEteQiMuzky_u6]--></g></svg>