<?xml version="1.0" encoding="us-ascii" standalone="no"?><svg xmlns="http://www.w3.org/2000/svg" xmlns:xlink="http://www.w3.org/1999/xlink" contentStyleType="text/css" height="333px" preserveAspectRatio="none" style="width:263px;height:333px;background:#FFFFFF;" version="1.1" viewBox="0 0 263 333" width="263px" zoomAndPan="magnify"><defs/><g><!--class Message--><g id="elem_Message"><rect codeLine="1" fill="#F1F1F1" height="162.0781" id="Message" rx="2.5" ry="2.5" style="stroke:#181818;stroke-width:0.5;" width="249" x="7" y="7"/><ellipse cx="96.75" cy="23" fill="#ADD1B2" rx="11" ry="11" style="stroke:#181818;stroke-width:1.0;"/><path d="M95.5469,23.875 L97,23.875 L97,23.9844 C97,24.3906 97.0313,24.5469 97.1094,24.7031 C97.2656,24.9531 97.5469,25.1094 97.8438,25.1094 C98.0938,25.1094 98.3594,24.9688 98.5156,24.75 C98.6406,24.5938 98.6719,24.4375 98.6719,23.9844 L98.6719,22.0625 C98.6719,21.9063 98.6719,21.8594 98.6563,21.7031 C98.5938,21.2344 98.2813,20.9219 97.8281,20.9219 C97.5781,20.9219 97.3125,21.0625 97.1406,21.2813 C97.0313,21.4531 97,21.6094 97,22.0625 L97,22.1875 L95.5469,22.1875 L95.5469,19.7813 L99.5313,19.7813 L99.5313,20.6406 C99.5313,21.0469 99.5625,21.2188 99.6406,21.375 C99.8125,21.625 100.0938,21.7813 100.375,21.7813 C100.6406,21.7813 100.9063,21.6406 101.0781,21.4219 C101.1875,21.25 101.2188,21.1094 101.2188,20.6406 L101.2188,18.0938 L93.5938,18.0938 C93.1563,18.0938 93.0313,18.1094 92.875,18.2031 C92.625,18.3594 92.4688,18.6563 92.4688,18.9375 C92.4688,19.2188 92.6094,19.4688 92.8281,19.6406 C92.9844,19.75 93.1719,19.7813 93.5938,19.7813 L93.8438,19.7813 L93.8438,26.2969 L93.5938,26.2969 C93.1875,26.2969 93.0313,26.3125 92.875,26.4219 C92.625,26.5938 92.4688,26.8594 92.4688,27.1563 C92.4688,27.4219 92.6094,27.6719 92.8281,27.8281 C92.9688,27.9531 93.2031,28 93.5938,28 L101.5938,28 L101.5938,25.4219 C101.5938,24.9844 101.5625,24.8438 101.4844,24.6875 C101.3125,24.4375 101.0313,24.2813 100.75,24.2813 C100.4844,24.2813 100.2188,24.3906 100.0469,24.6406 C99.9375,24.7969 99.9063,24.9375 99.9063,25.4219 L99.9063,26.2969 L95.5469,26.2969 L95.5469,23.875 Z " fill="#000000"/><text fill="#000000" font-family="sans-serif" font-size="14" lengthAdjust="spacing" textLength="61" x="117.25" y="27.8467">Message</text><line style="stroke:#181818;stroke-width:0.5;" x1="8" x2="255" y1="39" y2="39"/><text fill="#000000" font-family="sans-serif" font-size="14" lengthAdjust="spacing" textLength="166" x="13" y="55.9951">timestamp : Datetime,</text><text fill="#000000" font-family="sans-serif" font-size="14" lengthAdjust="spacing" textLength="174" x="13" y="72.292">afzenderIDType : string,</text><text fill="#000000" font-family="sans-serif" font-size="14" lengthAdjust="spacing" textLength="138" x="13" y="88.5889">afzenderID : string,</text><text fill="#000000" font-family="sans-serif" font-size="14" lengthAdjust="spacing" textLength="184" x="13" y="104.8857">ontvangerIDType : string,</text><text fill="#000000" font-family="sans-serif" font-size="14" lengthAdjust="spacing" textLength="148" x="13" y="121.1826">ontvangerID : string,</text><text fill="#000000" font-family="sans-serif" font-size="14" lengthAdjust="spacing" textLength="237" x="13" y="137.4795">ontvangerKenmerk : string[0..1],</text><text fill="#000000" font-family="sans-serif" font-size="14" lengthAdjust="spacing" textLength="137" x="13" y="153.7764">eventType : string,</text><line style="stroke:#181818;stroke-width:0.5;" x1="8" x2="255" y1="161.0781" y2="161.0781"/></g><!--class SubjectList--><g id="elem_SubjectList"><rect codeLine="10" fill="#F1F1F1" height="80.5938" id="SubjectList" rx="2.5" ry="2.5" style="stroke:#181818;stroke-width:0.5;" width="129" x="67" y="246"/><ellipse cx="89.2" cy="262" fill="#ADD1B2" rx="11" ry="11" style="stroke:#181818;stroke-width:1.0;"/><path d="M87.9969,262.875 L89.45,262.875 L89.45,262.9844 C89.45,263.3906 89.4813,263.5469 89.5594,263.7031 C89.7156,263.9531 89.9969,264.1094 90.2938,264.1094 C90.5438,264.1094 90.8094,263.9688 90.9656,263.75 C91.0906,263.5938 91.1219,263.4375 91.1219,262.9844 L91.1219,261.0625 C91.1219,260.9063 91.1219,260.8594 91.1063,260.7031 C91.0438,260.2344 90.7313,259.9219 90.2781,259.9219 C90.0281,259.9219 89.7625,260.0625 89.5906,260.2813 C89.4813,260.4531 89.45,260.6094 89.45,261.0625 L89.45,261.1875 L87.9969,261.1875 L87.9969,258.7813 L91.9813,258.7813 L91.9813,259.6406 C91.9813,260.0469 92.0125,260.2188 92.0906,260.375 C92.2625,260.625 92.5438,260.7813 92.825,260.7813 C93.0906,260.7813 93.3563,260.6406 93.5281,260.4219 C93.6375,260.25 93.6688,260.1094 93.6688,259.6406 L93.6688,257.0938 L86.0438,257.0938 C85.6063,257.0938 85.4813,257.1094 85.325,257.2031 C85.075,257.3594 84.9188,257.6563 84.9188,257.9375 C84.9188,258.2188 85.0594,258.4688 85.2781,258.6406 C85.4344,258.75 85.6219,258.7813 86.0438,258.7813 L86.2938,258.7813 L86.2938,265.2969 L86.0438,265.2969 C85.6375,265.2969 85.4813,265.3125 85.325,265.4219 C85.075,265.5938 84.9188,265.8594 84.9188,266.1563 C84.9188,266.4219 85.0594,266.6719 85.2781,266.8281 C85.4188,266.9531 85.6531,267 86.0438,267 L94.0438,267 L94.0438,264.4219 C94.0438,263.9844 94.0125,263.8438 93.9344,263.6875 C93.7625,263.4375 93.4813,263.2813 93.2,263.2813 C92.9344,263.2813 92.6688,263.3906 92.4969,263.6406 C92.3875,263.7969 92.3563,263.9375 92.3563,264.4219 L92.3563,265.2969 L87.9969,265.2969 L87.9969,262.875 Z " fill="#000000"/><text fill="#000000" font-family="sans-serif" font-size="14" lengthAdjust="spacing" textLength="81" x="104.8" y="266.8467">SubjectList</text><line style="stroke:#181818;stroke-width:0.5;" x1="68" x2="195" y1="278" y2="278"/><text fill="#000000" font-family="sans-serif" font-size="14" lengthAdjust="spacing" textLength="108" x="73" y="294.9951">subject : string</text><text fill="#000000" font-family="sans-serif" font-size="14" lengthAdjust="spacing" textLength="117" x="73" y="311.292">recordID : string</text><line style="stroke:#181818;stroke-width:0.5;" x1="68" x2="195" y1="318.5938" y2="318.5938"/></g><!--reverse link Message to SubjectList--><g id="link_Message_SubjectList"><path codeLine="15" d="M131.5,181.207 C131.5,207.632 131.5,223.859 131.5,245.8863 " fill="none" id="Message-backto-SubjectList" style="stroke:#181818;stroke-width:1.0;"/><polygon fill="#181818" points="131.5,169.207,127.5,175.207,131.5,181.207,135.5,175.207,131.5,169.207" style="stroke:#181818;stroke-width:1.0;"/><text fill="#000000" font-family="sans-serif" font-size="13" lengthAdjust="spacing" textLength="54" x="132.5" y="212.0669">contains</text><text fill="#000000" font-family="sans-serif" font-size="13" lengthAdjust="spacing" textLength="8" x="123.1438" y="189.1768">1</text><text fill="#000000" font-family="sans-serif" font-size="13" lengthAdjust="spacing" textLength="23" x="106.5953" y="235.029">1..*</text></g><!--SRC=[RP0z3u9038Rt-nKD8v6BhCmiHfrqCmudL78Q2hbM4ZJyTmzG0iOkJP-ttqXYfOKzCfi2uQK0n9R8OieQ4aYDO1-lF3VN9rAERfCUsngzoE8i5KjfWIkInb3njsIc_UTRf1BTVH9FQwtZSv-23PByDEmKZfSS7fSRPhApBCCrlV78flGFTfXLBf_D7tYdrFSRGHn064NUQnq6yzO9P7vHOudV]--></g></svg>