<svg xmlns="http://www.w3.org/2000/svg" xmlns:xlink="http://www.w3.org/1999/xlink" contentStyleType="text/css" height="951px" preserveAspectRatio="none" style="width:1024px;height:951px;background:#FFFFFF;" version="1.1" viewBox="0 0 1024 951" width="1024px" zoomAndPan="magnify"><defs/><g><rect fill="#DDDDDD" height="939.5781" style="stroke:#181818;stroke-width:0.5;" width="102.5303" x="11" y="6"/><text fill="#000000" font-family="sans-serif" font-size="13" font-weight="bold" lengthAdjust="spacing" textLength="79.7266" x="22.4019" y="18.0669">Deelnemer</text><rect fill="#DDDDDD" height="939.5781" style="stroke:#181818;stroke-width:0.5;" width="445.6587" x="267.502" y="6"/><text fill="#000000" font-family="sans-serif" font-size="13" font-weight="bold" lengthAdjust="spacing" textLength="24.8828" x="477.8899" y="18.0669">nID</text><rect fill="#DDDDDD" height="939.5781" style="stroke:#181818;stroke-width:0.5;" width="178.1016" x="840.2212" y="6"/><text fill="#000000" font-family="sans-serif" font-size="13" font-weight="bold" lengthAdjust="spacing" textLength="61.769" x="898.3875" y="18.0669">Register</text><rect fill="#FFFFFF" height="288.1953" style="stroke:#181818;stroke-width:1;" width="10" x="57.2651" y="117.8281"/><rect fill="#FFFFFF" height="442.9922" style="stroke:#181818;stroke-width:1;" width="10" x="57.2651" y="450.2891"/><rect fill="#FFFFFF" height="288.1953" style="stroke:#181818;stroke-width:1;" width="10" x="353.1694" y="117.8281"/><rect fill="#FFFFFF" height="442.9922" style="stroke:#181818;stroke-width:1;" width="10" x="664.2954" y="450.2891"/><rect fill="#FFFFFF" height="29.1328" style="stroke:#181818;stroke-width:1;" width="10" x="924.272" y="835.0156"/><line style="stroke:#181818;stroke-width:0.5;stroke-dasharray:5.0,5.0;" x1="62" x2="62" y1="56.4297" y2="911.2813"/><line style="stroke:#181818;stroke-width:0.5;stroke-dasharray:5.0,5.0;" x1="357.502" x2="357.502" y1="56.4297" y2="911.2813"/><line style="stroke:#181818;stroke-width:0.5;stroke-dasharray:5.0,5.0;" x1="668.4302" x2="668.4302" y1="56.4297" y2="911.2813"/><line style="stroke:#181818;stroke-width:0.5;stroke-dasharray:5.0,5.0;" x1="929.2212" x2="929.2212" y1="56.4297" y2="911.2813"/><rect fill="#E2E2F0" height="30.2969" rx="2.5" ry="2.5" style="stroke:#181818;stroke-width:0.5;" width="54.5303" x="35" y="25.1328"/><text fill="#000000" font-family="sans-serif" font-size="14" lengthAdjust="spacing" textLength="40.5303" x="42" y="45.1279">Client</text><rect fill="#E2E2F0" height="30.2969" rx="2.5" ry="2.5" style="stroke:#181818;stroke-width:0.5;" width="54.5303" x="35" y="910.2813"/><text fill="#000000" font-family="sans-serif" font-size="14" lengthAdjust="spacing" textLength="40.5303" x="42" y="930.2764">Client</text><rect fill="#E2E2F0" height="30.2969" rx="2.5" ry="2.5" style="stroke:#181818;stroke-width:0.5;" width="133.335" x="291.502" y="25.1328"/><text fill="#000000" font-family="sans-serif" font-size="14" lengthAdjust="spacing" textLength="119.335" x="298.502" y="45.1279">autorisatieserver</text><rect fill="#E2E2F0" height="30.2969" rx="2.5" ry="2.5" style="stroke:#181818;stroke-width:0.5;" width="133.335" x="291.502" y="910.2813"/><text fill="#000000" font-family="sans-serif" font-size="14" lengthAdjust="spacing" textLength="119.335" x="298.502" y="930.2764">autorisatieserver</text><rect fill="#E2E2F0" height="30.2969" rx="2.5" ry="2.5" style="stroke:#181818;stroke-width:0.5;" width="39.7305" x="649.4302" y="25.1328"/><text fill="#000000" font-family="sans-serif" font-size="14" lengthAdjust="spacing" textLength="25.7305" x="656.4302" y="45.1279">PEP</text><rect fill="#E2E2F0" height="30.2969" rx="2.5" ry="2.5" style="stroke:#181818;stroke-width:0.5;" width="39.7305" x="649.4302" y="910.2813"/><text fill="#000000" font-family="sans-serif" font-size="14" lengthAdjust="spacing" textLength="25.7305" x="656.4302" y="930.2764">PEP</text><rect fill="#E2E2F0" height="30.2969" rx="2.5" ry="2.5" style="stroke:#181818;stroke-width:0.5;" width="130.1016" x="864.2212" y="25.1328"/><text fill="#000000" font-family="sans-serif" font-size="14" lengthAdjust="spacing" textLength="116.1016" x="871.2212" y="45.1279">Resource-Server</text><rect fill="#E2E2F0" height="30.2969" rx="2.5" ry="2.5" style="stroke:#181818;stroke-width:0.5;" width="130.1016" x="864.2212" y="910.2813"/><text fill="#000000" font-family="sans-serif" font-size="14" lengthAdjust="spacing" textLength="116.1016" x="871.2212" y="930.2764">Resource-Server</text><rect fill="#FFFFFF" height="288.1953" style="stroke:#181818;stroke-width:1;" width="10" x="57.2651" y="117.8281"/><rect fill="#FFFFFF" height="442.9922" style="stroke:#181818;stroke-width:1;" width="10" x="57.2651" y="450.2891"/><rect fill="#FFFFFF" height="288.1953" style="stroke:#181818;stroke-width:1;" width="10" x="353.1694" y="117.8281"/><rect fill="#FFFFFF" height="442.9922" style="stroke:#181818;stroke-width:1;" width="10" x="664.2954" y="450.2891"/><rect fill="#FFFFFF" height="29.1328" style="stroke:#181818;stroke-width:1;" width="10" x="924.272" y="835.0156"/><polygon fill="#181818" points="341.1694,113.8281,351.1694,117.8281,341.1694,121.8281,345.1694,117.8281" style="stroke:#181818;stroke-width:1;"/><line style="stroke:#181818;stroke-width:1;" x1="67.2651" x2="347.1694" y1="117.8281" y2="117.8281"/><text fill="#000000" font-family="sans-serif" font-size="13" font-weight="bold" lengthAdjust="spacing" textLength="39.019" x="74.2651" y="82.4966">[001]</text><text fill="#000000" font-family="sans-serif" font-size="13" font-weight="bold" lengthAdjust="spacing" textLength="194.7144" x="117.8101" y="82.4966">Aanvragen van autorisatie</text><text fill="#000000" font-family="sans-serif" font-size="13" lengthAdjust="spacing" textLength="222.8662" x="74.2651" y="97.6294">"scope": "registers/resource:read"</text><text fill="#000000" font-family="sans-serif" font-size="13" lengthAdjust="spacing" textLength="131.625" x="78.3975" y="112.7622">Authenticatiemiddel</text><polygon fill="#FF0000" points="78.2651,142.9609,68.2651,146.9609,78.2651,150.9609,74.2651,146.9609" style="stroke:#FF0000;stroke-width:1;"/><line style="stroke:#FF0000;stroke-width:2;" x1="335.1694" x2="345.1694" y1="141.9609" y2="151.9609"/><line style="stroke:#FF0000;stroke-width:2;" x1="335.1694" x2="345.1694" y1="151.9609" y2="141.9609"/><line style="stroke:#FF0000;stroke-width:1;stroke-dasharray:2.0,2.0;" x1="72.2651" x2="340.1694" y1="146.9609" y2="146.9609"/><text fill="#FF0000" font-family="sans-serif" font-size="13" font-weight="bold" lengthAdjust="spacing" textLength="29.9736" x="84.2651" y="141.895">[01]</text><text fill="#FF0000" font-family="sans-serif" font-size="13" lengthAdjust="spacing" textLength="152.1851" x="122.3711" y="141.895">400 Audience Required</text><polygon fill="#FF0000" points="78.2651,172.0938,68.2651,176.0938,78.2651,180.0938,74.2651,176.0938" style="stroke:#FF0000;stroke-width:1;"/><line style="stroke:#FF0000;stroke-width:2;" x1="335.1694" x2="345.1694" y1="171.0938" y2="181.0938"/><line style="stroke:#FF0000;stroke-width:2;" x1="335.1694" x2="345.1694" y1="181.0938" y2="171.0938"/><line style="stroke:#FF0000;stroke-width:1;stroke-dasharray:2.0,2.0;" x1="72.2651" x2="340.1694" y1="176.0938" y2="176.0938"/><text fill="#FF0000" font-family="sans-serif" font-size="13" font-weight="bold" lengthAdjust="spacing" textLength="29.9736" x="84.2651" y="171.0278">[02]</text><text fill="#FF0000" font-family="sans-serif" font-size="13" lengthAdjust="spacing" textLength="116.2256" x="122.3711" y="171.0278">401 Unauthorized</text><polygon fill="#FF0000" points="78.2651,201.2266,68.2651,205.2266,78.2651,209.2266,74.2651,205.2266" style="stroke:#FF0000;stroke-width:1;"/><line style="stroke:#FF0000;stroke-width:2;" x1="335.1694" x2="345.1694" y1="200.2266" y2="210.2266"/><line style="stroke:#FF0000;stroke-width:2;" x1="335.1694" x2="345.1694" y1="210.2266" y2="200.2266"/><line style="stroke:#FF0000;stroke-width:1;stroke-dasharray:2.0,2.0;" x1="72.2651" x2="340.1694" y1="205.2266" y2="205.2266"/><text fill="#FF0000" font-family="sans-serif" font-size="13" font-weight="bold" lengthAdjust="spacing" textLength="29.9736" x="84.2651" y="200.1606">[03]</text><text fill="#FF0000" font-family="sans-serif" font-size="13" lengthAdjust="spacing" textLength="106.8057" x="122.3711" y="200.1606">403 Not Allowed</text><polygon fill="#FF0000" points="78.2651,230.3594,68.2651,234.3594,78.2651,238.3594,74.2651,234.3594" style="stroke:#FF0000;stroke-width:1;"/><line style="stroke:#FF0000;stroke-width:2;" x1="335.1694" x2="345.1694" y1="229.3594" y2="239.3594"/><line style="stroke:#FF0000;stroke-width:2;" x1="335.1694" x2="345.1694" y1="239.3594" y2="229.3594"/><line style="stroke:#FF0000;stroke-width:1;stroke-dasharray:2.0,2.0;" x1="72.2651" x2="340.1694" y1="234.3594" y2="234.3594"/><text fill="#FF0000" font-family="sans-serif" font-size="13" font-weight="bold" lengthAdjust="spacing" textLength="29.9736" x="84.2651" y="229.2935">[04]</text><text fill="#FF0000" font-family="sans-serif" font-size="13" lengthAdjust="spacing" textLength="181.7207" x="122.3711" y="229.2935">403 Invalid client certificate</text><polygon fill="#FF0000" points="78.2651,259.4922,68.2651,263.4922,78.2651,267.4922,74.2651,263.4922" style="stroke:#FF0000;stroke-width:1;"/><line style="stroke:#FF0000;stroke-width:2;" x1="335.1694" x2="345.1694" y1="258.4922" y2="268.4922"/><line style="stroke:#FF0000;stroke-width:2;" x1="335.1694" x2="345.1694" y1="268.4922" y2="258.4922"/><line style="stroke:#FF0000;stroke-width:1;stroke-dasharray:2.0,2.0;" x1="72.2651" x2="340.1694" y1="263.4922" y2="263.4922"/><text fill="#FF0000" font-family="sans-serif" font-size="13" font-weight="bold" lengthAdjust="spacing" textLength="29.9736" x="84.2651" y="258.4263">[05]</text><text fill="#FF0000" font-family="sans-serif" font-size="13" lengthAdjust="spacing" textLength="93.1138" x="122.3711" y="258.4263">404 Not found</text><polygon fill="#FF0000" points="78.2651,288.625,68.2651,292.625,78.2651,296.625,74.2651,292.625" style="stroke:#FF0000;stroke-width:1;"/><line style="stroke:#FF0000;stroke-width:2;" x1="335.1694" x2="345.1694" y1="287.625" y2="297.625"/><line style="stroke:#FF0000;stroke-width:2;" x1="335.1694" x2="345.1694" y1="297.625" y2="287.625"/><line style="stroke:#FF0000;stroke-width:1;stroke-dasharray:2.0,2.0;" x1="72.2651" x2="340.1694" y1="292.625" y2="292.625"/><text fill="#FF0000" font-family="sans-serif" font-size="13" font-weight="bold" lengthAdjust="spacing" textLength="29.9736" x="84.2651" y="287.5591">[06]</text><text fill="#FF0000" font-family="sans-serif" font-size="13" lengthAdjust="spacing" textLength="162.373" x="122.3711" y="287.5591">500 Internal Server Error</text><line style="stroke:#181818;stroke-width:1;" x1="363.1694" x2="405.1694" y1="321.7578" y2="321.7578"/><line style="stroke:#181818;stroke-width:1;" x1="405.1694" x2="405.1694" y1="321.7578" y2="334.7578"/><line style="stroke:#181818;stroke-width:1;" x1="364.1694" x2="405.1694" y1="334.7578" y2="334.7578"/><polygon fill="#181818" points="374.1694,330.7578,364.1694,334.7578,374.1694,338.7578,370.1694,334.7578" style="stroke:#181818;stroke-width:1;"/><text fill="#000000" font-family="sans-serif" font-size="13" font-weight="bold" lengthAdjust="spacing" textLength="258.5464" x="370.1694" y="316.6919">[002] Valideer Authenticatiemiddel</text><line style="stroke:#181818;stroke-width:1;" x1="363.1694" x2="405.1694" y1="363.8906" y2="363.8906"/><line style="stroke:#181818;stroke-width:1;" x1="405.1694" x2="405.1694" y1="363.8906" y2="376.8906"/><line style="stroke:#181818;stroke-width:1;" x1="364.1694" x2="405.1694" y1="376.8906" y2="376.8906"/><polygon fill="#181818" points="374.1694,372.8906,364.1694,376.8906,374.1694,380.8906,370.1694,376.8906" style="stroke:#181818;stroke-width:1;"/><text fill="#000000" font-family="sans-serif" font-size="13" font-weight="bold" lengthAdjust="spacing" textLength="277.126" x="370.1694" y="358.8247">[003] Run Rule-engine o.b.v. scope(s)</text><polygon fill="#181818" points="73.2651,402.0234,63.2651,406.0234,73.2651,410.0234,69.2651,406.0234" style="stroke:#181818;stroke-width:1;"/><line style="stroke:#181818;stroke-width:1;stroke-dasharray:2.0,2.0;" x1="67.2651" x2="357.1694" y1="406.0234" y2="406.0234"/><text fill="#000000" font-family="sans-serif" font-size="13" font-weight="bold" lengthAdjust="spacing" textLength="261.9043" x="79.2651" y="400.9575">[004] 200 Response (Access-Token)</text><polygon fill="#181818" points="652.2954,446.2891,662.2954,450.2891,652.2954,454.2891,656.2954,450.2891" style="stroke:#181818;stroke-width:1;"/><line style="stroke:#181818;stroke-width:1;" x1="67.2651" x2="658.2954" y1="450.2891" y2="450.2891"/><text fill="#000000" font-family="sans-serif" font-size="13" font-weight="bold" lengthAdjust="spacing" textLength="39.019" x="74.2651" y="430.0903">[005]</text><text fill="#000000" font-family="sans-serif" font-size="13" font-weight="bold" lengthAdjust="spacing" textLength="128.4321" x="117.8101" y="430.0903">GraphQL Request</text><text fill="#000000" font-family="sans-serif" font-size="13" lengthAdjust="spacing" textLength="296.5498" x="74.2651" y="445.2231">Authenticatiemiddel + Access-Token + query</text><path d="M679,463.2891 L679,488.2891 L850,488.2891 L850,473.2891 L840,463.2891 L679,463.2891 " fill="#FEFFDD" style="stroke:#181818;stroke-width:0.5;"/><path d="M840,463.2891 L840,473.2891 L850,473.2891 L840,463.2891 " fill="#FEFFDD" style="stroke:#181818;stroke-width:0.5;"/><text fill="#000000" font-family="sans-serif" font-size="13" lengthAdjust="spacing" textLength="150.6172" x="685" y="480.356">Inline filtering requests</text><polygon fill="#FF0000" points="78.2651,510.5547,68.2651,514.5547,78.2651,518.5547,74.2651,514.5547" style="stroke:#FF0000;stroke-width:1;"/><line style="stroke:#FF0000;stroke-width:2;" x1="646.2954" x2="656.2954" y1="509.5547" y2="519.5547"/><line style="stroke:#FF0000;stroke-width:2;" x1="646.2954" x2="656.2954" y1="519.5547" y2="509.5547"/><line style="stroke:#FF0000;stroke-width:1;stroke-dasharray:2.0,2.0;" x1="72.2651" x2="651.2954" y1="514.5547" y2="514.5547"/><text fill="#FF0000" font-family="sans-serif" font-size="13" font-weight="bold" lengthAdjust="spacing" textLength="29.9736" x="84.2651" y="509.4888">[07]</text><text fill="#FF0000" font-family="sans-serif" font-size="13" lengthAdjust="spacing" textLength="164.8677" x="122.3711" y="509.4888">400 Invalid Query Syntax</text><polygon fill="#FF0000" points="78.2651,539.6875,68.2651,543.6875,78.2651,547.6875,74.2651,543.6875" style="stroke:#FF0000;stroke-width:1;"/><line style="stroke:#FF0000;stroke-width:2;" x1="646.2954" x2="656.2954" y1="538.6875" y2="548.6875"/><line style="stroke:#FF0000;stroke-width:2;" x1="646.2954" x2="656.2954" y1="548.6875" y2="538.6875"/><line style="stroke:#FF0000;stroke-width:1;stroke-dasharray:2.0,2.0;" x1="72.2651" x2="651.2954" y1="543.6875" y2="543.6875"/><text fill="#FF0000" font-family="sans-serif" font-size="13" font-weight="bold" lengthAdjust="spacing" textLength="29.9736" x="84.2651" y="538.6216">[08]</text><text fill="#FF0000" font-family="sans-serif" font-size="13" lengthAdjust="spacing" textLength="113.1724" x="122.3711" y="538.6216">400 No operation</text><polygon fill="#FF0000" points="78.2651,568.8203,68.2651,572.8203,78.2651,576.8203,74.2651,572.8203" style="stroke:#FF0000;stroke-width:1;"/><line style="stroke:#FF0000;stroke-width:2;" x1="646.2954" x2="656.2954" y1="567.8203" y2="577.8203"/><line style="stroke:#FF0000;stroke-width:2;" x1="646.2954" x2="656.2954" y1="577.8203" y2="567.8203"/><line style="stroke:#FF0000;stroke-width:1;stroke-dasharray:2.0,2.0;" x1="72.2651" x2="651.2954" y1="572.8203" y2="572.8203"/><text fill="#FF0000" font-family="sans-serif" font-size="13" font-weight="bold" lengthAdjust="spacing" textLength="29.9736" x="84.2651" y="567.7544">[09]</text><text fill="#FF0000" font-family="sans-serif" font-size="13" lengthAdjust="spacing" textLength="114.4102" x="122.3711" y="567.7544">400 Invalid scope</text><polygon fill="#FF0000" points="78.2651,597.9531,68.2651,601.9531,78.2651,605.9531,74.2651,601.9531" style="stroke:#FF0000;stroke-width:1;"/><line style="stroke:#FF0000;stroke-width:2;" x1="646.2954" x2="656.2954" y1="596.9531" y2="606.9531"/><line style="stroke:#FF0000;stroke-width:2;" x1="646.2954" x2="656.2954" y1="606.9531" y2="596.9531"/><line style="stroke:#FF0000;stroke-width:1;stroke-dasharray:2.0,2.0;" x1="72.2651" x2="651.2954" y1="601.9531" y2="601.9531"/><text fill="#FF0000" font-family="sans-serif" font-size="13" font-weight="bold" lengthAdjust="spacing" textLength="29.9736" x="84.2651" y="596.8872">[10]</text><text fill="#FF0000" font-family="sans-serif" font-size="13" lengthAdjust="spacing" textLength="116.2256" x="122.3711" y="596.8872">401 Unauthorized</text><polygon fill="#FF0000" points="78.2651,627.0859,68.2651,631.0859,78.2651,635.0859,74.2651,631.0859" style="stroke:#FF0000;stroke-width:1;"/><line style="stroke:#FF0000;stroke-width:2;" x1="646.2954" x2="656.2954" y1="626.0859" y2="636.0859"/><line style="stroke:#FF0000;stroke-width:2;" x1="646.2954" x2="656.2954" y1="636.0859" y2="626.0859"/><line style="stroke:#FF0000;stroke-width:1;stroke-dasharray:2.0,2.0;" x1="72.2651" x2="651.2954" y1="631.0859" y2="631.0859"/><text fill="#FF0000" font-family="sans-serif" font-size="13" font-weight="bold" lengthAdjust="spacing" textLength="29.9736" x="84.2651" y="626.02">[11]</text><text fill="#FF0000" font-family="sans-serif" font-size="13" lengthAdjust="spacing" textLength="189.1919" x="122.3711" y="626.02">403 Invallid Client Certificate</text><polygon fill="#FF0000" points="78.2651,656.2188,68.2651,660.2188,78.2651,664.2188,74.2651,660.2188" style="stroke:#FF0000;stroke-width:1;"/><line style="stroke:#FF0000;stroke-width:2;" x1="646.2954" x2="656.2954" y1="655.2188" y2="665.2188"/><line style="stroke:#FF0000;stroke-width:2;" x1="646.2954" x2="656.2954" y1="665.2188" y2="655.2188"/><line style="stroke:#FF0000;stroke-width:1;stroke-dasharray:2.0,2.0;" x1="72.2651" x2="651.2954" y1="660.2188" y2="660.2188"/><text fill="#FF0000" font-family="sans-serif" font-size="13" font-weight="bold" lengthAdjust="spacing" textLength="29.9736" x="84.2651" y="655.1528">[12]</text><text fill="#FF0000" font-family="sans-serif" font-size="13" lengthAdjust="spacing" textLength="106.8057" x="122.3711" y="655.1528">403 Not Allowed</text><polygon fill="#FF0000" points="78.2651,685.3516,68.2651,689.3516,78.2651,693.3516,74.2651,689.3516" style="stroke:#FF0000;stroke-width:1;"/><line style="stroke:#FF0000;stroke-width:2;" x1="646.2954" x2="656.2954" y1="684.3516" y2="694.3516"/><line style="stroke:#FF0000;stroke-width:2;" x1="646.2954" x2="656.2954" y1="694.3516" y2="684.3516"/><line style="stroke:#FF0000;stroke-width:1;stroke-dasharray:2.0,2.0;" x1="72.2651" x2="651.2954" y1="689.3516" y2="689.3516"/><text fill="#FF0000" font-family="sans-serif" font-size="13" font-weight="bold" lengthAdjust="spacing" textLength="29.9736" x="84.2651" y="684.2856">[13]</text><text fill="#FF0000" font-family="sans-serif" font-size="13" lengthAdjust="spacing" textLength="159.1357" x="122.3711" y="684.2856">403 Policy Acces Denied</text><polygon fill="#FF0000" points="78.2651,714.4844,68.2651,718.4844,78.2651,722.4844,74.2651,718.4844" style="stroke:#FF0000;stroke-width:1;"/><line style="stroke:#FF0000;stroke-width:2;" x1="646.2954" x2="656.2954" y1="713.4844" y2="723.4844"/><line style="stroke:#FF0000;stroke-width:2;" x1="646.2954" x2="656.2954" y1="723.4844" y2="713.4844"/><line style="stroke:#FF0000;stroke-width:1;stroke-dasharray:2.0,2.0;" x1="72.2651" x2="651.2954" y1="718.4844" y2="718.4844"/><text fill="#FF0000" font-family="sans-serif" font-size="13" font-weight="bold" lengthAdjust="spacing" textLength="29.9736" x="84.2651" y="713.4185">[14]</text><text fill="#FF0000" font-family="sans-serif" font-size="13" lengthAdjust="spacing" textLength="237.1421" x="122.3711" y="713.4185">403 Request does not match scopes</text><polygon fill="#FF0000" points="78.2651,743.6172,68.2651,747.6172,78.2651,751.6172,74.2651,747.6172" style="stroke:#FF0000;stroke-width:1;"/><line style="stroke:#FF0000;stroke-width:2;" x1="646.2954" x2="656.2954" y1="742.6172" y2="752.6172"/><line style="stroke:#FF0000;stroke-width:2;" x1="646.2954" x2="656.2954" y1="752.6172" y2="742.6172"/><line style="stroke:#FF0000;stroke-width:1;stroke-dasharray:2.0,2.0;" x1="72.2651" x2="651.2954" y1="747.6172" y2="747.6172"/><text fill="#FF0000" font-family="sans-serif" font-size="13" font-weight="bold" lengthAdjust="spacing" textLength="29.9736" x="84.2651" y="742.5513">[15]</text><text fill="#FF0000" font-family="sans-serif" font-size="13" lengthAdjust="spacing" textLength="160.6782" x="122.3711" y="742.5513">500 Internal server error</text><polygon fill="#FF0000" points="78.2651,772.75,68.2651,776.75,78.2651,780.75,74.2651,776.75" style="stroke:#FF0000;stroke-width:1;"/><line style="stroke:#FF0000;stroke-width:2;" x1="646.2954" x2="656.2954" y1="771.75" y2="781.75"/><line style="stroke:#FF0000;stroke-width:2;" x1="646.2954" x2="656.2954" y1="781.75" y2="771.75"/><line style="stroke:#FF0000;stroke-width:1;stroke-dasharray:2.0,2.0;" x1="72.2651" x2="651.2954" y1="776.75" y2="776.75"/><text fill="#FF0000" font-family="sans-serif" font-size="13" font-weight="bold" lengthAdjust="spacing" textLength="29.9736" x="84.2651" y="771.6841">[16]</text><text fill="#FF0000" font-family="sans-serif" font-size="13" lengthAdjust="spacing" textLength="113.8198" x="122.3711" y="771.6841">502 Bad gateway</text><polygon fill="#FF0000" points="78.2651,801.8828,68.2651,805.8828,78.2651,809.8828,74.2651,805.8828" style="stroke:#FF0000;stroke-width:1;"/><line style="stroke:#FF0000;stroke-width:2;" x1="646.2954" x2="656.2954" y1="800.8828" y2="810.8828"/><line style="stroke:#FF0000;stroke-width:2;" x1="646.2954" x2="656.2954" y1="810.8828" y2="800.8828"/><line style="stroke:#FF0000;stroke-width:1;stroke-dasharray:2.0,2.0;" x1="72.2651" x2="651.2954" y1="805.8828" y2="805.8828"/><text fill="#FF0000" font-family="sans-serif" font-size="13" font-weight="bold" lengthAdjust="spacing" textLength="29.9736" x="84.2651" y="800.8169">[17]</text><text fill="#FF0000" font-family="sans-serif" font-size="13" lengthAdjust="spacing" textLength="141.1655" x="122.3711" y="800.8169">504 Gateway timeout</text><polygon fill="#181818" points="912.272,831.0156,922.272,835.0156,912.272,839.0156,916.272,835.0156" style="stroke:#181818;stroke-width:1;"/><line style="stroke:#181818;stroke-width:1;" x1="674.2954" x2="918.272" y1="835.0156" y2="835.0156"/><text fill="#000000" font-family="sans-serif" font-size="13" font-weight="bold" lengthAdjust="spacing" textLength="171.9771" x="681.2954" y="829.9497">[006] GraphQL Request</text><polygon fill="#181818" points="685.2954,860.1484,675.2954,864.1484,685.2954,868.1484,681.2954,864.1484" style="stroke:#181818;stroke-width:1;"/><line style="stroke:#181818;stroke-width:1;stroke-dasharray:2.0,2.0;" x1="679.2954" x2="928.272" y1="864.1484" y2="864.1484"/><text fill="#000000" font-family="sans-serif" font-size="13" font-weight="bold" lengthAdjust="spacing" textLength="225.9766" x="691.2954" y="859.0825">[007] 200 Response (GraphQL)</text><polygon fill="#181818" points="73.2651,889.2813,63.2651,893.2813,73.2651,897.2813,69.2651,893.2813" style="stroke:#181818;stroke-width:1;"/><line style="stroke:#181818;stroke-width:1;stroke-dasharray:2.0,2.0;" x1="67.2651" x2="668.2954" y1="893.2813" y2="893.2813"/><text fill="#000000" font-family="sans-serif" font-size="13" font-weight="bold" lengthAdjust="spacing" textLength="225.9766" x="79.2651" y="888.2153">[008] 200 Response (GraphQL)</text><!--SRC=[dLNRJjj047ttLqpTXq8gKmEXhH122fUYI0Y5q5QLm0yRUvAii6VTtNKWV7t7jyGEGQqRAP9tr-VCPSyPVu1tgHQpH815zG9MP-Wuvb5IAhH8O2IqbQ5C1TcHY299CpZm6-TdwhdUt_STPwAUmRr0Z0aJrAu3_4lN5E2UnnB9kY0Cb8yEKWGCgx0qlDY24fbLMXfX9HhK2sRE2GQPdR_S5UlNaD7bg7ZfcumjdxUZZ74cZTsQu1YDodI8tjqwaAxsojXhBiSfQm3lj9dCCPnCJkzzVp-0NcyWQC7zHOA586WKqkiza6j2bQ9x3AwkCZAVwc376aNaFb31p45acACI6KKOEoAqSY4irarShPizSPmy76N913Mu9w6AbMRMwBHCBt3hz4-y-_Uy7tY_McKq4D3tVJwB-FKGOOo_CydRdV3xy8CudpdN_z8HUWWtoi8WZjLJP-IG5YAM4OGbAaI-wsdUI-n4r2zIcAgCkYHmn5qR4byhYHZASxZKMkdcpHYhqbnB3P8t17KGmC-y6EGtjgdYxmo70Ompud-C7j9C4eBQc-mjzg1GuexPRPCmIornh-Re1pm2V1Q1IHKPX9r1oDOmtdVrYBJhHBXLZ8tjIhCDyvGchGCSvRwvqYATtruNMaDZSxTiAHa-GZCwB_bjlNpR7zKu8CNFMixc5jHq5Nv8STwHQR7CHvekWvkMazYWMOB5v7YjX5Kb6zwfPNYRfmTtIxBYkIF5ZGA-8it5A_hFwCKbTy9kkBOBjF9U7hU2d3VCrusfwVzko96APRWiLG8NIB8pGwL0Y1Gpi70W4JQSbxqq7RXQmw3yb00Mmw0Bnm6SYGXctC8diUo4xCDLYG8h4rIPtJA4IcHkoVOthxRcvm0sZBcsriPNihqiHadRvbysvqZ5t1eX6wIh15U3gMRx-YzibVjVpQ8_]--></g></svg>