<?xml version="1.0" encoding="us-ascii" standalone="no"?><svg xmlns="http://www.w3.org/2000/svg" xmlns:xlink="http://www.w3.org/1999/xlink" contentStyleType="text/css" height="1438px" preserveAspectRatio="none" style="width:1256px;height:1438px;background:#FFFFFF;" version="1.1" viewBox="0 0 1256 1438" width="1256px" zoomAndPan="magnify"><defs/><g><rect fill="#DDDDDD" height="1426.3047" style="stroke:#181818;stroke-width:0.5;" width="105" x="11" y="6"/><text fill="#000000" font-family="sans-serif" font-size="13" font-weight="bold" lengthAdjust="spacing" textLength="81" x="23" y="18.0669">Deelnemer</text><rect fill="#DDDDDD" height="1426.3047" style="stroke:#181818;stroke-width:0.5;" width="775.5" x="262.5" y="6"/><text fill="#000000" font-family="sans-serif" font-size="13" font-weight="bold" lengthAdjust="spacing" textLength="25" x="637.75" y="18.0669">nID</text><rect fill="#DDDDDD" height="1426.3047" style="stroke:#181818;stroke-width:0.5;" width="128" x="1122.5" y="6"/><text fill="#000000" font-family="sans-serif" font-size="13" font-weight="bold" lengthAdjust="spacing" textLength="64" x="1154.5" y="18.0669">Register</text><rect fill="#FFFFFF" height="541.2578" style="stroke:#181818;stroke-width:1.0;" width="10" x="58.5" y="66.4297"/><rect fill="#FFFFFF" height="728.0547" style="stroke:#181818;stroke-width:1.0;" width="10" x="58.5" y="651.9531"/><rect fill="#FFFFFF" height="402.4609" style="stroke:#181818;stroke-width:1.0;" width="10" x="349.5" y="205.2266"/><rect fill="#D3D3D3" height="136.3984" style="stroke:#181818;stroke-width:1.0;" width="10" x="354.5" y="435.1563"/><rect fill="#D3D3D3" height="28" style="stroke:#181818;stroke-width:1.0;" width="10" x="359.5" y="543.5547"/><rect fill="#FFFFFF" height="582.3906" style="stroke:#181818;stroke-width:1.0;" width="10" x="621.5" y="651.9531"/><rect fill="#FFFFFF" height="728.0547" style="stroke:#181818;stroke-width:1.0;" width="10" x="943.5" y="651.9531"/><rect fill="#FFFFFF" height="116.5313" style="stroke:#181818;stroke-width:1.0;" width="10" x="1181.5" y="1234.3438"/><line style="stroke:#181818;stroke-width:0.5;stroke-dasharray:5.0,5.0;" x1="63" x2="63" y1="56.4297" y2="1398.0078"/><line style="stroke:#181818;stroke-width:0.5;stroke-dasharray:5.0,5.0;" x1="354.5" x2="354.5" y1="56.4297" y2="1398.0078"/><line style="stroke:#181818;stroke-width:0.5;stroke-dasharray:5.0,5.0;" x1="626.5" x2="626.5" y1="56.4297" y2="1398.0078"/><line style="stroke:#181818;stroke-width:0.5;stroke-dasharray:5.0,5.0;" x1="948" x2="948" y1="56.4297" y2="1398.0078"/><line style="stroke:#181818;stroke-width:0.5;stroke-dasharray:5.0,5.0;" x1="1186.5" x2="1186.5" y1="56.4297" y2="1398.0078"/><rect fill="#E2E2F0" height="30.2969" rx="2.5" ry="2.5" style="stroke:#181818;stroke-width:0.5;" width="57" x="35" y="25.1328"/><text fill="#000000" font-family="sans-serif" font-size="14" lengthAdjust="spacing" textLength="43" x="42" y="45.1279">Client</text><rect fill="#E2E2F0" height="30.2969" rx="2.5" ry="2.5" style="stroke:#181818;stroke-width:0.5;" width="57" x="35" y="1397.0078"/><text fill="#000000" font-family="sans-serif" font-size="14" lengthAdjust="spacing" textLength="43" x="42" y="1417.0029">Client</text><rect fill="#E2E2F0" height="30.2969" rx="2.5" ry="2.5" style="stroke:#181818;stroke-width:0.5;" width="136" x="286.5" y="25.1328"/><text fill="#000000" font-family="sans-serif" font-size="14" lengthAdjust="spacing" textLength="122" x="293.5" y="45.1279">autorisatieserver</text><rect fill="#E2E2F0" height="30.2969" rx="2.5" ry="2.5" style="stroke:#181818;stroke-width:0.5;" width="136" x="286.5" y="1397.0078"/><text fill="#000000" font-family="sans-serif" font-size="14" lengthAdjust="spacing" textLength="122" x="293.5" y="1417.0029">autorisatieserver</text><rect fill="#E2E2F0" height="30.2969" rx="2.5" ry="2.5" style="stroke:#181818;stroke-width:0.5;" width="80" x="586.5" y="25.1328"/><text fill="#000000" font-family="sans-serif" font-size="14" lengthAdjust="spacing" textLength="66" x="593.5" y="45.1279">nID Filter</text><rect fill="#E2E2F0" height="30.2969" rx="2.5" ry="2.5" style="stroke:#181818;stroke-width:0.5;" width="80" x="586.5" y="1397.0078"/><text fill="#000000" font-family="sans-serif" font-size="14" lengthAdjust="spacing" textLength="66" x="593.5" y="1417.0029">nID Filter</text><rect fill="#E2E2F0" height="30.2969" rx="2.5" ry="2.5" style="stroke:#181818;stroke-width:0.5;" width="131" x="883" y="25.1328"/><text fill="#000000" font-family="sans-serif" font-size="14" lengthAdjust="spacing" textLength="117" x="890" y="45.1279">Resource-server</text><rect fill="#E2E2F0" height="30.2969" rx="2.5" ry="2.5" style="stroke:#181818;stroke-width:0.5;" width="131" x="883" y="1397.0078"/><text fill="#000000" font-family="sans-serif" font-size="14" lengthAdjust="spacing" textLength="117" x="890" y="1417.0029">Resource-server</text><rect fill="#E2E2F0" height="30.2969" rx="2.5" ry="2.5" style="stroke:#181818;stroke-width:0.5;" width="80" x="1146.5" y="25.1328"/><text fill="#000000" font-family="sans-serif" font-size="14" lengthAdjust="spacing" textLength="66" x="1153.5" y="45.1279">Resource</text><rect fill="#E2E2F0" height="30.2969" rx="2.5" ry="2.5" style="stroke:#181818;stroke-width:0.5;" width="80" x="1146.5" y="1397.0078"/><text fill="#000000" font-family="sans-serif" font-size="14" lengthAdjust="spacing" textLength="66" x="1153.5" y="1417.0029">Resource</text><rect fill="#FFFFFF" height="541.2578" style="stroke:#181818;stroke-width:1.0;" width="10" x="58.5" y="66.4297"/><rect fill="#FFFFFF" height="728.0547" style="stroke:#181818;stroke-width:1.0;" width="10" x="58.5" y="651.9531"/><rect fill="#FFFFFF" height="402.4609" style="stroke:#181818;stroke-width:1.0;" width="10" x="349.5" y="205.2266"/><rect fill="#D3D3D3" height="136.3984" style="stroke:#181818;stroke-width:1.0;" width="10" x="354.5" y="435.1563"/><rect fill="#D3D3D3" height="28" style="stroke:#181818;stroke-width:1.0;" width="10" x="359.5" y="543.5547"/><rect fill="#FFFFFF" height="582.3906" style="stroke:#181818;stroke-width:1.0;" width="10" x="621.5" y="651.9531"/><rect fill="#FFFFFF" height="728.0547" style="stroke:#181818;stroke-width:1.0;" width="10" x="943.5" y="651.9531"/><rect fill="#FFFFFF" height="116.5313" style="stroke:#181818;stroke-width:1.0;" width="10" x="1181.5" y="1234.3438"/><polygon fill="#181818" points="342.5,113.8281,352.5,117.8281,342.5,121.8281,346.5,117.8281" style="stroke:#181818;stroke-width:1.0;"/><line style="stroke:#181818;stroke-width:1.0;" x1="68.5" x2="348.5" y1="117.8281" y2="117.8281"/><text fill="#000000" font-family="sans-serif" font-size="13" font-weight="bold" lengthAdjust="spacing" textLength="41" x="75.5" y="97.6294">[001]</text><text fill="#000000" font-family="sans-serif" font-size="13" font-weight="bold" lengthAdjust="spacing" textLength="200" x="120.5" y="82.4966">Aanvragen van autorisatie</text><text fill="#000000" font-family="sans-serif" font-size="13" lengthAdjust="spacing" textLength="217" x="120.5" y="97.6294">"scope": "registers/resource:read"</text><text fill="#000000" font-family="sans-serif" font-size="13" lengthAdjust="spacing" textLength="128" x="124.5" y="112.7622">Authenticatiemiddel</text><polygon fill="#FF0000" points="79.5,142.9609,69.5,146.9609,79.5,150.9609,75.5,146.9609" style="stroke:#FF0000;stroke-width:1.0;"/><line style="stroke:#FF0000;stroke-width:2.0;" x1="336.5" x2="346.5" y1="141.9609" y2="151.9609"/><line style="stroke:#FF0000;stroke-width:2.0;" x1="336.5" x2="346.5" y1="151.9609" y2="141.9609"/><line style="stroke:#FF0000;stroke-width:1.0;stroke-dasharray:2.0,2.0;" x1="73.5" x2="341.5" y1="146.9609" y2="146.9609"/><text fill="#FF0000" font-family="sans-serif" font-size="13" lengthAdjust="spacing" textLength="113" x="85.5" y="141.895">[1] 404 Not found</text><polygon fill="#FF0000" points="79.5,172.0938,69.5,176.0938,79.5,180.0938,75.5,176.0938" style="stroke:#FF0000;stroke-width:1.0;"/><line style="stroke:#FF0000;stroke-width:2.0;" x1="336.5" x2="346.5" y1="171.0938" y2="181.0938"/><line style="stroke:#FF0000;stroke-width:2.0;" x1="336.5" x2="346.5" y1="181.0938" y2="171.0938"/><line style="stroke:#FF0000;stroke-width:1.0;stroke-dasharray:2.0,2.0;" x1="73.5" x2="341.5" y1="176.0938" y2="176.0938"/><text fill="#FF0000" font-family="sans-serif" font-size="13" lengthAdjust="spacing" textLength="197" x="85.5" y="171.0278">[2] 403 Invalid client certificate</text><polygon fill="#FF0000" points="79.5,201.2266,69.5,205.2266,79.5,209.2266,75.5,205.2266" style="stroke:#FF0000;stroke-width:1.0;"/><line style="stroke:#FF0000;stroke-width:2.0;" x1="331.5" x2="341.5" y1="200.2266" y2="210.2266"/><line style="stroke:#FF0000;stroke-width:2.0;" x1="331.5" x2="341.5" y1="210.2266" y2="200.2266"/><line style="stroke:#FF0000;stroke-width:1.0;stroke-dasharray:2.0,2.0;" x1="73.5" x2="336.5" y1="205.2266" y2="205.2266"/><text fill="#FF0000" font-family="sans-serif" font-size="13" lengthAdjust="spacing" textLength="113" x="85.5" y="200.1606">[3] 403 Forbidden</text><line style="stroke:#181818;stroke-width:1.0;" x1="359.5" x2="401.5" y1="234.3594" y2="234.3594"/><line style="stroke:#181818;stroke-width:1.0;" x1="401.5" x2="401.5" y1="234.3594" y2="247.3594"/><line style="stroke:#181818;stroke-width:1.0;" x1="360.5" x2="401.5" y1="247.3594" y2="247.3594"/><polygon fill="#181818" points="370.5,243.3594,360.5,247.3594,370.5,251.3594,366.5,247.3594" style="stroke:#181818;stroke-width:1.0;"/><text fill="#000000" font-family="sans-serif" font-size="13" font-weight="bold" lengthAdjust="spacing" textLength="41" x="366.5" y="229.2935">[002]</text><text fill="#000000" font-family="sans-serif" font-size="13" lengthAdjust="spacing" textLength="184" x="411.5" y="229.2935">Valideer Authenticatiemiddel</text><polygon fill="#FF0000" points="79.5,272.4922,69.5,276.4922,79.5,280.4922,75.5,276.4922" style="stroke:#FF0000;stroke-width:1.0;"/><line style="stroke:#FF0000;stroke-width:2.0;" x1="331.5" x2="341.5" y1="271.4922" y2="281.4922"/><line style="stroke:#FF0000;stroke-width:2.0;" x1="331.5" x2="341.5" y1="281.4922" y2="271.4922"/><line style="stroke:#FF0000;stroke-width:1.0;stroke-dasharray:2.0,2.0;" x1="73.5" x2="336.5" y1="276.4922" y2="276.4922"/><text fill="#FF0000" font-family="sans-serif" font-size="13" lengthAdjust="spacing" textLength="156" x="85.5" y="271.4263">[4] 401 Unauthenticated</text><polygon fill="#FF0000" points="79.5,301.625,69.5,305.625,79.5,309.625,75.5,305.625" style="stroke:#FF0000;stroke-width:1.0;"/><line style="stroke:#FF0000;stroke-width:2.0;" x1="331.5" x2="341.5" y1="300.625" y2="310.625"/><line style="stroke:#FF0000;stroke-width:2.0;" x1="331.5" x2="341.5" y1="310.625" y2="300.625"/><line style="stroke:#FF0000;stroke-width:1.0;stroke-dasharray:2.0,2.0;" x1="73.5" x2="336.5" y1="305.625" y2="305.625"/><text fill="#FF0000" font-family="sans-serif" font-size="13" lengthAdjust="spacing" textLength="124" x="85.5" y="300.5591">[5] 400 No Client ID</text><polygon fill="#FF0000" points="79.5,330.7578,69.5,334.7578,79.5,338.7578,75.5,334.7578" style="stroke:#FF0000;stroke-width:1.0;"/><line style="stroke:#FF0000;stroke-width:2.0;" x1="331.5" x2="341.5" y1="329.7578" y2="339.7578"/><line style="stroke:#FF0000;stroke-width:2.0;" x1="331.5" x2="341.5" y1="339.7578" y2="329.7578"/><line style="stroke:#FF0000;stroke-width:1.0;stroke-dasharray:2.0,2.0;" x1="73.5" x2="336.5" y1="334.7578" y2="334.7578"/><text fill="#FF0000" font-family="sans-serif" font-size="13" lengthAdjust="spacing" textLength="148" x="85.5" y="329.6919">[6] 401 Invalid Client ID</text><polygon fill="#FF0000" points="79.5,359.8906,69.5,363.8906,79.5,367.8906,75.5,363.8906" style="stroke:#FF0000;stroke-width:1.0;"/><line style="stroke:#FF0000;stroke-width:2.0;" x1="331.5" x2="341.5" y1="358.8906" y2="368.8906"/><line style="stroke:#FF0000;stroke-width:2.0;" x1="331.5" x2="341.5" y1="368.8906" y2="358.8906"/><line style="stroke:#FF0000;stroke-width:1.0;stroke-dasharray:2.0,2.0;" x1="73.5" x2="336.5" y1="363.8906" y2="363.8906"/><text fill="#FF0000" font-family="sans-serif" font-size="13" lengthAdjust="spacing" textLength="197" x="85.5" y="358.8247">[7] 403 Invalid client certificate</text><line style="stroke:#181818;stroke-width:1.0;" x1="359.5" x2="401.5" y1="393.0234" y2="393.0234"/><line style="stroke:#181818;stroke-width:1.0;" x1="401.5" x2="401.5" y1="393.0234" y2="406.0234"/><line style="stroke:#181818;stroke-width:1.0;" x1="360.5" x2="401.5" y1="406.0234" y2="406.0234"/><polygon fill="#181818" points="370.5,402.0234,360.5,406.0234,370.5,410.0234,366.5,406.0234" style="stroke:#181818;stroke-width:1.0;"/><text fill="#000000" font-family="sans-serif" font-size="13" font-weight="bold" lengthAdjust="spacing" textLength="40" x="366.5" y="387.9575">[003]</text><text fill="#000000" font-family="sans-serif" font-size="13" lengthAdjust="spacing" textLength="204" x="410.5" y="387.9575">Run Rule-engine o.b.v. scope(s)</text><polygon fill="#FF0000" points="79.5,431.1563,69.5,435.1563,79.5,439.1563,75.5,435.1563" style="stroke:#FF0000;stroke-width:1.0;"/><line style="stroke:#FF0000;stroke-width:2.0;" x1="336.5" x2="346.5" y1="430.1563" y2="440.1563"/><line style="stroke:#FF0000;stroke-width:2.0;" x1="336.5" x2="346.5" y1="440.1563" y2="430.1563"/><line style="stroke:#FF0000;stroke-width:1.0;stroke-dasharray:2.0,2.0;" x1="73.5" x2="341.5" y1="435.1563" y2="435.1563"/><text fill="#FF0000" font-family="sans-serif" font-size="13" lengthAdjust="spacing" textLength="134" x="85.5" y="430.0903">[8] 400 Invalid Scope</text><line style="stroke:#181818;stroke-width:1.0;" x1="364.5" x2="406.5" y1="464.2891" y2="464.2891"/><line style="stroke:#181818;stroke-width:1.0;" x1="406.5" x2="406.5" y1="464.2891" y2="477.2891"/><line style="stroke:#181818;stroke-width:1.0;" x1="365.5" x2="406.5" y1="477.2891" y2="477.2891"/><polygon fill="#181818" points="375.5,473.2891,365.5,477.2891,375.5,481.2891,371.5,477.2891" style="stroke:#181818;stroke-width:1.0;"/><text fill="#000000" font-family="sans-serif" font-size="13" font-weight="bold" lengthAdjust="spacing" textLength="41" x="371.5" y="459.2231">[004]</text><text fill="#000000" font-family="sans-serif" font-size="13" lengthAdjust="spacing" textLength="124" x="416.5" y="459.2231">Valideer autorisatie</text><polygon fill="#FF0000" points="79.5,502.4219,69.5,506.4219,79.5,510.4219,75.5,506.4219" style="stroke:#FF0000;stroke-width:1.0;"/><line style="stroke:#FF0000;stroke-width:2.0;" x1="336.5" x2="346.5" y1="501.4219" y2="511.4219"/><line style="stroke:#FF0000;stroke-width:2.0;" x1="336.5" x2="346.5" y1="511.4219" y2="501.4219"/><line style="stroke:#FF0000;stroke-width:1.0;stroke-dasharray:2.0,2.0;" x1="73.5" x2="341.5" y1="506.4219" y2="506.4219"/><text fill="#FF0000" font-family="sans-serif" font-size="13" lengthAdjust="spacing" textLength="234" x="85.5" y="501.356">[9] 401 Access denied, Invalid Scope</text><line style="stroke:#181818;stroke-width:1.0;" x1="369.5" x2="411.5" y1="535.5547" y2="535.5547"/><line style="stroke:#181818;stroke-width:1.0;" x1="411.5" x2="411.5" y1="535.5547" y2="548.5547"/><line style="stroke:#181818;stroke-width:1.0;" x1="370.5" x2="411.5" y1="548.5547" y2="548.5547"/><polygon fill="#181818" points="380.5,544.5547,370.5,548.5547,380.5,552.5547,376.5,548.5547" style="stroke:#181818;stroke-width:1.0;"/><text fill="#000000" font-family="sans-serif" font-size="13" font-weight="bold" lengthAdjust="spacing" textLength="41" x="376.5" y="530.4888">[005]</text><text fill="#000000" font-family="sans-serif" font-size="13" lengthAdjust="spacing" textLength="153" x="421.5" y="530.4888">Genereer Access-Token</text><polygon fill="#181818" points="74.5,603.6875,64.5,607.6875,74.5,611.6875,70.5,607.6875" style="stroke:#181818;stroke-width:1.0;"/><line style="stroke:#181818;stroke-width:1.0;stroke-dasharray:2.0,2.0;" x1="68.5" x2="353.5" y1="607.6875" y2="607.6875"/><text fill="#000000" font-family="sans-serif" font-size="13" font-weight="bold" lengthAdjust="spacing" textLength="41" x="80.5" y="602.6216">[006]</text><text fill="#000000" font-family="sans-serif" font-size="13" lengthAdjust="spacing" textLength="194" x="125.5" y="602.6216">200 Response (Access-Token)</text><polygon fill="#181818" points="931.5,647.9531,941.5,651.9531,931.5,655.9531,935.5,651.9531" style="stroke:#181818;stroke-width:1.0;"/><line style="stroke:#181818;stroke-width:1.0;" x1="68.5" x2="937.5" y1="651.9531" y2="651.9531"/><text fill="#000000" font-family="sans-serif" font-size="13" font-weight="bold" lengthAdjust="spacing" textLength="41" x="75.5" y="639.3208">[007]</text><text fill="#000000" font-family="sans-serif" font-size="13" font-weight="bold" lengthAdjust="spacing" textLength="113" x="120.5" y="631.7544">GraphQL Query</text><text fill="#000000" font-family="sans-serif" font-size="13" lengthAdjust="spacing" textLength="235" x="120.5" y="646.8872">Authenticatiemiddel + Access-Token</text><path d="M636,664.9531 L636,689.9531 L802,689.9531 L802,674.9531 L792,664.9531 L636,664.9531 " fill="#FEFFDD" style="stroke:#181818;stroke-width:0.5;"/><path d="M792,664.9531 L792,674.9531 L802,674.9531 L792,664.9531 " fill="#FEFFDD" style="stroke:#181818;stroke-width:0.5;"/><text fill="#000000" font-family="sans-serif" font-size="13" lengthAdjust="spacing" textLength="145" x="642" y="682.02">Inline filtering requests</text><polygon fill="#FF0000" points="79.5,712.2188,69.5,716.2188,79.5,720.2188,75.5,716.2188" style="stroke:#FF0000;stroke-width:1.0;"/><line style="stroke:#FF0000;stroke-width:2.0;" x1="925.5" x2="935.5" y1="711.2188" y2="721.2188"/><line style="stroke:#FF0000;stroke-width:2.0;" x1="925.5" x2="935.5" y1="721.2188" y2="711.2188"/><line style="stroke:#FF0000;stroke-width:1.0;stroke-dasharray:2.0,2.0;" x1="73.5" x2="930.5" y1="716.2188" y2="716.2188"/><text fill="#FF0000" font-family="sans-serif" font-size="13" lengthAdjust="spacing" textLength="188" x="85.5" y="711.1528">[10] 404 Resource not found.</text><line style="stroke:#181818;stroke-width:1.0;" x1="631.5" x2="673.5" y1="745.3516" y2="745.3516"/><line style="stroke:#181818;stroke-width:1.0;" x1="673.5" x2="673.5" y1="745.3516" y2="758.3516"/><line style="stroke:#181818;stroke-width:1.0;" x1="632.5" x2="673.5" y1="758.3516" y2="758.3516"/><polygon fill="#181818" points="642.5,754.3516,632.5,758.3516,642.5,762.3516,638.5,758.3516" style="stroke:#181818;stroke-width:1.0;"/><text fill="#000000" font-family="sans-serif" font-size="13" font-weight="bold" lengthAdjust="spacing" textLength="41" x="638.5" y="740.2856">[008]</text><text fill="#000000" font-family="sans-serif" font-size="13" lengthAdjust="spacing" textLength="184" x="683.5" y="740.2856">Valideer Authenticatiemiddel</text><polygon fill="#FF0000" points="79.5,783.4844,69.5,787.4844,79.5,791.4844,75.5,787.4844" style="stroke:#FF0000;stroke-width:1.0;"/><line style="stroke:#FF0000;stroke-width:2.0;" x1="603.5" x2="613.5" y1="782.4844" y2="792.4844"/><line style="stroke:#FF0000;stroke-width:2.0;" x1="603.5" x2="613.5" y1="792.4844" y2="782.4844"/><line style="stroke:#FF0000;stroke-width:1.0;stroke-dasharray:2.0,2.0;" x1="73.5" x2="608.5" y1="787.4844" y2="787.4844"/><text fill="#FF0000" font-family="sans-serif" font-size="13" lengthAdjust="spacing" textLength="164" x="85.5" y="782.4185">[11] 401 Unauthenticated</text><polygon fill="#FF0000" points="79.5,812.6172,69.5,816.6172,79.5,820.6172,75.5,816.6172" style="stroke:#FF0000;stroke-width:1.0;"/><line style="stroke:#FF0000;stroke-width:2.0;" x1="603.5" x2="613.5" y1="811.6172" y2="821.6172"/><line style="stroke:#FF0000;stroke-width:2.0;" x1="603.5" x2="613.5" y1="821.6172" y2="811.6172"/><line style="stroke:#FF0000;stroke-width:1.0;stroke-dasharray:2.0,2.0;" x1="73.5" x2="608.5" y1="816.6172" y2="816.6172"/><text fill="#FF0000" font-family="sans-serif" font-size="13" lengthAdjust="spacing" textLength="132" x="85.5" y="811.5513">[12] 400 No Client ID</text><polygon fill="#FF0000" points="79.5,841.75,69.5,845.75,79.5,849.75,75.5,845.75" style="stroke:#FF0000;stroke-width:1.0;"/><line style="stroke:#FF0000;stroke-width:2.0;" x1="603.5" x2="613.5" y1="840.75" y2="850.75"/><line style="stroke:#FF0000;stroke-width:2.0;" x1="603.5" x2="613.5" y1="850.75" y2="840.75"/><line style="stroke:#FF0000;stroke-width:1.0;stroke-dasharray:2.0,2.0;" x1="73.5" x2="608.5" y1="845.75" y2="845.75"/><text fill="#FF0000" font-family="sans-serif" font-size="13" lengthAdjust="spacing" textLength="156" x="85.5" y="840.6841">[13] 401 Invalid Client ID</text><polygon fill="#FF0000" points="79.5,870.8828,69.5,874.8828,79.5,878.8828,75.5,874.8828" style="stroke:#FF0000;stroke-width:1.0;"/><line style="stroke:#FF0000;stroke-width:2.0;" x1="603.5" x2="613.5" y1="869.8828" y2="879.8828"/><line style="stroke:#FF0000;stroke-width:2.0;" x1="603.5" x2="613.5" y1="879.8828" y2="869.8828"/><line style="stroke:#FF0000;stroke-width:1.0;stroke-dasharray:2.0,2.0;" x1="73.5" x2="608.5" y1="874.8828" y2="874.8828"/><text fill="#FF0000" font-family="sans-serif" font-size="13" lengthAdjust="spacing" textLength="205" x="85.5" y="869.8169">[14] 403 Invalid client certificate</text><line style="stroke:#181818;stroke-width:1.0;" x1="631.5" x2="673.5" y1="904.0156" y2="904.0156"/><line style="stroke:#181818;stroke-width:1.0;" x1="673.5" x2="673.5" y1="904.0156" y2="917.0156"/><line style="stroke:#181818;stroke-width:1.0;" x1="632.5" x2="673.5" y1="917.0156" y2="917.0156"/><polygon fill="#181818" points="642.5,913.0156,632.5,917.0156,642.5,921.0156,638.5,917.0156" style="stroke:#181818;stroke-width:1.0;"/><text fill="#000000" font-family="sans-serif" font-size="13" font-weight="bold" lengthAdjust="spacing" textLength="41" x="638.5" y="898.9497">[009]</text><text fill="#000000" font-family="sans-serif" font-size="13" lengthAdjust="spacing" textLength="145" x="683.5" y="898.9497">Valideer Access-Token</text><polygon fill="#FF0000" points="79.5,942.1484,69.5,946.1484,79.5,950.1484,75.5,946.1484" style="stroke:#FF0000;stroke-width:1.0;"/><line style="stroke:#FF0000;stroke-width:2.0;" x1="603.5" x2="613.5" y1="941.1484" y2="951.1484"/><line style="stroke:#FF0000;stroke-width:2.0;" x1="603.5" x2="613.5" y1="951.1484" y2="941.1484"/><line style="stroke:#FF0000;stroke-width:1.0;stroke-dasharray:2.0,2.0;" x1="73.5" x2="608.5" y1="946.1484" y2="946.1484"/><text fill="#FF0000" font-family="sans-serif" font-size="13" lengthAdjust="spacing" textLength="144" x="85.5" y="941.0825">[15] 401 Jwt is expired</text><polygon fill="#FF0000" points="79.5,971.2813,69.5,975.2813,79.5,979.2813,75.5,975.2813" style="stroke:#FF0000;stroke-width:1.0;"/><line style="stroke:#FF0000;stroke-width:2.0;" x1="603.5" x2="613.5" y1="970.2813" y2="980.2813"/><line style="stroke:#FF0000;stroke-width:2.0;" x1="603.5" x2="613.5" y1="980.2813" y2="970.2813"/><line style="stroke:#FF0000;stroke-width:1.0;stroke-dasharray:2.0,2.0;" x1="73.5" x2="608.5" y1="975.2813" y2="975.2813"/><text fill="#FF0000" font-family="sans-serif" font-size="13" lengthAdjust="spacing" textLength="241" x="85.5" y="970.2153">[16] 401 Jwt header is an invalid JSON</text><line style="stroke:#181818;stroke-width:1.0;" x1="631.5" x2="673.5" y1="1004.4141" y2="1004.4141"/><line style="stroke:#181818;stroke-width:1.0;" x1="673.5" x2="673.5" y1="1004.4141" y2="1017.4141"/><line style="stroke:#181818;stroke-width:1.0;" x1="632.5" x2="673.5" y1="1017.4141" y2="1017.4141"/><polygon fill="#181818" points="642.5,1013.4141,632.5,1017.4141,642.5,1021.4141,638.5,1017.4141" style="stroke:#181818;stroke-width:1.0;"/><text fill="#000000" font-family="sans-serif" font-size="13" font-weight="bold" lengthAdjust="spacing" textLength="41" x="638.5" y="999.3481">[010]</text><text fill="#000000" font-family="sans-serif" font-size="13" lengthAdjust="spacing" textLength="112" x="683.5" y="999.3481">Valideer GraphQL</text><polygon fill="#FF0000" points="79.5,1042.5469,69.5,1046.5469,79.5,1050.5469,75.5,1046.5469" style="stroke:#FF0000;stroke-width:1.0;"/><line style="stroke:#FF0000;stroke-width:2.0;" x1="603.5" x2="613.5" y1="1041.5469" y2="1051.5469"/><line style="stroke:#FF0000;stroke-width:2.0;" x1="603.5" x2="613.5" y1="1051.5469" y2="1041.5469"/><line style="stroke:#FF0000;stroke-width:1.0;stroke-dasharray:2.0,2.0;" x1="73.5" x2="608.5" y1="1046.5469" y2="1046.5469"/><text fill="#FF0000" font-family="sans-serif" font-size="13" lengthAdjust="spacing" textLength="418" x="85.5" y="1041.481">[17] 400 verifying request: bad request: parsing GQL query: .......</text><polygon fill="#FF0000" points="79.5,1071.6797,69.5,1075.6797,79.5,1079.6797,75.5,1075.6797" style="stroke:#FF0000;stroke-width:1.0;"/><line style="stroke:#FF0000;stroke-width:2.0;" x1="603.5" x2="613.5" y1="1070.6797" y2="1080.6797"/><line style="stroke:#FF0000;stroke-width:2.0;" x1="603.5" x2="613.5" y1="1080.6797" y2="1070.6797"/><line style="stroke:#FF0000;stroke-width:1.0;stroke-dasharray:2.0,2.0;" x1="73.5" x2="608.5" y1="1075.6797" y2="1075.6797"/><text fill="#FF0000" font-family="sans-serif" font-size="13" lengthAdjust="spacing" textLength="368" x="85.5" y="1070.6138">[18] 400 The following variables were not used: XXXXXX.</text><line style="stroke:#181818;stroke-width:1.0;" x1="631.5" x2="673.5" y1="1104.8125" y2="1104.8125"/><line style="stroke:#181818;stroke-width:1.0;" x1="673.5" x2="673.5" y1="1104.8125" y2="1117.8125"/><line style="stroke:#181818;stroke-width:1.0;" x1="632.5" x2="673.5" y1="1117.8125" y2="1117.8125"/><polygon fill="#181818" points="642.5,1113.8125,632.5,1117.8125,642.5,1121.8125,638.5,1117.8125" style="stroke:#181818;stroke-width:1.0;"/><text fill="#000000" font-family="sans-serif" font-size="13" font-weight="bold" lengthAdjust="spacing" textLength="40" x="638.5" y="1099.7466">[011]</text><text fill="#000000" font-family="sans-serif" font-size="13" lengthAdjust="spacing" textLength="254" x="682.5" y="1099.7466">Valideer GraphQL request met scope(s)</text><polygon fill="#FF0000" points="79.5,1142.9453,69.5,1146.9453,79.5,1150.9453,75.5,1146.9453" style="stroke:#FF0000;stroke-width:1.0;"/><line style="stroke:#FF0000;stroke-width:2.0;" x1="603.5" x2="613.5" y1="1141.9453" y2="1151.9453"/><line style="stroke:#FF0000;stroke-width:2.0;" x1="603.5" x2="613.5" y1="1151.9453" y2="1141.9453"/><line style="stroke:#FF0000;stroke-width:1.0;stroke-dasharray:2.0,2.0;" x1="73.5" x2="608.5" y1="1146.9453" y2="1146.9453"/><text fill="#FF0000" font-family="sans-serif" font-size="13" lengthAdjust="spacing" textLength="242" x="85.5" y="1141.8794">[19] 401 Access denied, Invalid Scope</text><polygon fill="#FF0000" points="79.5,1172.0781,69.5,1176.0781,79.5,1180.0781,75.5,1176.0781" style="stroke:#FF0000;stroke-width:1.0;"/><line style="stroke:#FF0000;stroke-width:2.0;" x1="603.5" x2="613.5" y1="1171.0781" y2="1181.0781"/><line style="stroke:#FF0000;stroke-width:2.0;" x1="603.5" x2="613.5" y1="1181.0781" y2="1171.0781"/><line style="stroke:#FF0000;stroke-width:1.0;stroke-dasharray:2.0,2.0;" x1="73.5" x2="608.5" y1="1176.0781" y2="1176.0781"/><text fill="#FF0000" font-family="sans-serif" font-size="13" lengthAdjust="spacing" textLength="193" x="85.5" y="1171.0122">[20] 403 RBAC: access denied</text><polygon fill="#FF0000" points="79.5,1201.2109,69.5,1205.2109,79.5,1209.2109,75.5,1205.2109" style="stroke:#FF0000;stroke-width:1.0;"/><line style="stroke:#FF0000;stroke-width:2.0;" x1="603.5" x2="613.5" y1="1200.2109" y2="1210.2109"/><line style="stroke:#FF0000;stroke-width:2.0;" x1="603.5" x2="613.5" y1="1210.2109" y2="1200.2109"/><line style="stroke:#FF0000;stroke-width:1.0;stroke-dasharray:2.0,2.0;" x1="73.5" x2="608.5" y1="1205.2109" y2="1205.2109"/><text fill="#FF0000" font-family="sans-serif" font-size="13" lengthAdjust="spacing" textLength="261" x="85.5" y="1200.145">[21] 403 request does not match scopes</text><polygon fill="#181818" points="1169.5,1230.3438,1179.5,1234.3438,1169.5,1238.3438,1173.5,1234.3438" style="stroke:#181818;stroke-width:1.0;"/><line style="stroke:#181818;stroke-width:1.0;" x1="953.5" x2="1175.5" y1="1234.3438" y2="1234.3438"/><text fill="#000000" font-family="sans-serif" font-size="13" font-weight="bold" lengthAdjust="spacing" textLength="40" x="960.5" y="1229.2778">[012]</text><text fill="#000000" font-family="sans-serif" font-size="13" lengthAdjust="spacing" textLength="113" x="1004.5" y="1229.2778">GraphQL Request</text><polygon fill="#FF0000" points="79.5,1259.4766,69.5,1263.4766,79.5,1267.4766,75.5,1263.4766" style="stroke:#FF0000;stroke-width:1.0;"/><line style="stroke:#FF0000;stroke-width:2.0;" x1="925.5" x2="935.5" y1="1258.4766" y2="1268.4766"/><line style="stroke:#FF0000;stroke-width:2.0;" x1="925.5" x2="935.5" y1="1268.4766" y2="1258.4766"/><line style="stroke:#FF0000;stroke-width:1.0;stroke-dasharray:2.0,2.0;" x1="73.5" x2="930.5" y1="1263.4766" y2="1263.4766"/><text fill="#FF0000" font-family="sans-serif" font-size="13" lengthAdjust="spacing" textLength="170" x="85.5" y="1258.4106">[22] 504 Gateway timeout</text><polygon fill="#FF0000" points="964.5,1288.6094,954.5,1292.6094,964.5,1296.6094,960.5,1292.6094" style="stroke:#FF0000;stroke-width:1.0;"/><line style="stroke:#FF0000;stroke-width:2.0;" x1="1163.5" x2="1173.5" y1="1287.6094" y2="1297.6094"/><line style="stroke:#FF0000;stroke-width:2.0;" x1="1163.5" x2="1173.5" y1="1297.6094" y2="1287.6094"/><line style="stroke:#FF0000;stroke-width:1.0;stroke-dasharray:2.0,2.0;" x1="958.5" x2="1168.5" y1="1292.6094" y2="1292.6094"/><text fill="#FF0000" font-family="sans-serif" font-size="13" lengthAdjust="spacing" textLength="187" x="970.5" y="1287.5435">[23] 500 Internal Server Error</text><polygon fill="#FF0000" points="79.5,1317.7422,69.5,1321.7422,79.5,1325.7422,75.5,1321.7422" style="stroke:#FF0000;stroke-width:1.0;"/><line style="stroke:#FF0000;stroke-width:2.0;" x1="925.5" x2="935.5" y1="1316.7422" y2="1326.7422"/><line style="stroke:#FF0000;stroke-width:2.0;" x1="925.5" x2="935.5" y1="1326.7422" y2="1316.7422"/><line style="stroke:#FF0000;stroke-width:1.0;stroke-dasharray:2.0,2.0;" x1="73.5" x2="930.5" y1="1321.7422" y2="1321.7422"/><text fill="#FF0000" font-family="sans-serif" font-size="13" lengthAdjust="spacing" textLength="187" x="85.5" y="1316.6763">[23] 500 Internal Server Error</text><polygon fill="#181818" points="964.5,1346.875,954.5,1350.875,964.5,1354.875,960.5,1350.875" style="stroke:#181818;stroke-width:1.0;"/><line style="stroke:#181818;stroke-width:1.0;stroke-dasharray:2.0,2.0;" x1="958.5" x2="1185.5" y1="1350.875" y2="1350.875"/><text fill="#000000" font-family="sans-serif" font-size="13" font-weight="bold" lengthAdjust="spacing" textLength="39" x="970.5" y="1345.8091">[013]</text><text fill="#000000" font-family="sans-serif" font-size="13" lengthAdjust="spacing" textLength="161" x="1013.5" y="1345.8091">200 Response (GraphQL)</text><polygon fill="#181818" points="74.5,1376.0078,64.5,1380.0078,74.5,1384.0078,70.5,1380.0078" style="stroke:#181818;stroke-width:1.0;"/><line style="stroke:#181818;stroke-width:1.0;stroke-dasharray:2.0,2.0;" x1="68.5" x2="947.5" y1="1380.0078" y2="1380.0078"/><text fill="#000000" font-family="sans-serif" font-size="13" font-weight="bold" lengthAdjust="spacing" textLength="40" x="80.5" y="1374.9419">[014]</text><text fill="#000000" font-family="sans-serif" font-size="13" lengthAdjust="spacing" textLength="161" x="124.5" y="1374.9419">200 Response (GraphQL)</text><!--SRC=[hLRRRjiu47ttLqpLXstJjIixIRih106IfWrIzEfq5mNIFD3Is2Ogaof9EKc_laDTR6h5EdAy0WnBbERmpE7m3F-0HvbYimK3W_8d69LZhwU_Sv4nnHRmYId3OvunOJwn9E5Y1gFGUNygR-lnOTZhJUGj16U8gS05gg07T6Lh20XUfHo52O1fA6zxA1AWi2fMN9nvebXkfEAQ6OuQrPAGBS19RkO_BuldTWW1mHkUckhRyhRzsHYrp5MCVGUNGklX2ht9SOmpheqtlJgkm3bz_Rx-T8rWKn7vOe8AWgF9yLKOXjT1ZyM6Bvd1MfJo3_h7Rf8HxEsTCB6avK81IoR0qMLlxvi8T2mp3288L3MlVgugHf52bWJVH058s3osKGkU99WsM6aZith-e_xLOuN9TVzhWyTHB5Ef234vlXfUmq5u01-aWQdCHR95wCY6xiE5MBAK9n2NWJ6IdbDB3xV0sY-ntaWriIa9DoEI85zGLQz4TWl7kM_9_Q_bXVJ2fzd39JkmN8VmZs1hMDn6k4CB49BcLRd0nTaMqI_AwMlP7mBnyjwLyyY_IUbnBkYNOX_5Z0i4EPWCbWCewlc9Vhg3s7-LMjLKBosYXvslDk3nEpwRctF5xhgLYRCTTs3yTxa-9t6CMWFLCiVaptiJs4Jm70MgeeuBpFuN-Ttka7jIJj2xONupt9YV2DGEre-eOOH0nfX9eH6Uk1oUTfYaSaJ74bl-R8sHA6Vpp-_WSuxgpfgXPy_2izyeq7RyrQkgSGX9zyfg0t9Q3KQqAAcjrcdnQ7kWmXyvQgDRXlxVSh2TerqIdimQNXkMPbj_0w9stO6d8agILh2Qxev-Li4q60sxUfalUDJ9ntoH-zqzp1T-y13_sgHdewewBNMDqU1rMARrziO0ru2t6QVnRG1Uh07crE-90k7GGO5NcRwz_FZ1bzkcvAgTjKjUByk5feBcqpjddqGmOSdwWOvIshuzfttym-xZ20RbjSrabUD_cTF6b6agRopaaYdE9Ybgk24hB3PEhZ69u6jn3RPSyDfjAkgmGBDkLhierSNykyEDmhBGnwSdho9WBkWsACCIfKusaIIZLN31J3mlyzO-0LjsPhLqJiNHIiTn2UtwVcMygsVtDFs_kEc8xEUGtFISq6_O7HY-G9cR0gpDtC5jPD10tBU8zh11hmHBeOfzhPHK3oIv4TAZkKEkwCCU_6O_hfQWqOfThNshkEhlNS3QpRNTtdy1]--></g></svg>