<svg xmlns="http://www.w3.org/2000/svg" xmlns:xlink="http://www.w3.org/1999/xlink" contentStyleType="text/css" height="1084px" preserveAspectRatio="none" style="width:1686px;height:1084px;background:#FFFFFF;" version="1.1" viewBox="0 0 1686 1084" width="1686px" zoomAndPan="magnify"><defs/><g><rect fill="#DDDDDD" height="1072.9063" style="stroke:#181818;stroke-width:0.5;" width="102.5303" x="11" y="6"/><text fill="#000000" font-family="sans-serif" font-size="13" font-weight="bold" lengthAdjust="spacing" textLength="79.7266" x="22.4019" y="18.0669">Deelnemer</text><rect fill="#DDDDDD" height="1072.9063" style="stroke:#181818;stroke-width:0.5;" width="995.002" x="393.8486" y="6"/><text fill="#000000" font-family="sans-serif" font-size="13" font-weight="bold" lengthAdjust="spacing" textLength="139.439" x="821.6301" y="18.0669">nID Netwerkstelsel</text><rect fill="#DDDDDD" height="1072.9063" style="stroke:#181818;stroke-width:0.5;" width="178.1016" x="1502.8525" y="6"/><text fill="#000000" font-family="sans-serif" font-size="13" font-weight="bold" lengthAdjust="spacing" textLength="61.769" x="1561.0188" y="18.0669">Register</text><rect fill="#FFFFFF" height="430.3906" style="stroke:#181818;stroke-width:1;" width="10" x="57.2651" y="66.4297"/><rect fill="#FFFFFF" height="440.125" style="stroke:#181818;stroke-width:1;" width="10" x="57.2651" y="586.4844"/><rect fill="#FFFFFF" height="318.4609" style="stroke:#181818;stroke-width:1;" width="10" x="479.5161" y="178.3594"/><rect fill="#D3D3D3" height="157.6641" style="stroke:#181818;stroke-width:1;" width="10" x="484.5161" y="303.0234"/><rect fill="#A9A9A9" height="28" style="stroke:#181818;stroke-width:1;" width="10" x="489.5161" y="432.6875"/><rect fill="#FFFFFF" height="440.125" style="stroke:#181818;stroke-width:1;" width="10" x="916.7671" y="586.4844"/><rect fill="#D3D3D3" height="113.3984" style="stroke:#181818;stroke-width:1;" width="10" x="921.7671" y="780.4141"/><rect fill="#FFFFFF" height="113.3984" style="stroke:#181818;stroke-width:1;" width="10" x="1339.0181" y="780.4141"/><rect fill="#FFFFFF" height="29.1328" style="stroke:#181818;stroke-width:1;" width="10" x="1586.9033" y="968.3438"/><line style="stroke:#181818;stroke-width:0.5;stroke-dasharray:5.0,5.0;" x1="62" x2="62" y1="56.4297" y2="1044.6094"/><line style="stroke:#181818;stroke-width:0.5;stroke-dasharray:5.0,5.0;" x1="483.8486" x2="483.8486" y1="56.4297" y2="1044.6094"/><line style="stroke:#181818;stroke-width:0.5;stroke-dasharray:5.0,5.0;" x1="920.9019" x2="920.9019" y1="56.4297" y2="1044.6094"/><line style="stroke:#181818;stroke-width:0.5;stroke-dasharray:5.0,5.0;" x1="1343.1855" x2="1343.1855" y1="56.4297" y2="1044.6094"/><line style="stroke:#181818;stroke-width:0.5;stroke-dasharray:5.0,5.0;" x1="1591.8525" x2="1591.8525" y1="56.4297" y2="1044.6094"/><rect fill="#E2E2F0" height="30.2969" rx="2.5" ry="2.5" style="stroke:#181818;stroke-width:0.5;" width="54.5303" x="35" y="25.1328"/><text fill="#000000" font-family="sans-serif" font-size="14" lengthAdjust="spacing" textLength="40.5303" x="42" y="45.1279">Client</text><rect fill="#E2E2F0" height="30.2969" rx="2.5" ry="2.5" style="stroke:#181818;stroke-width:0.5;" width="54.5303" x="35" y="1043.6094"/><text fill="#000000" font-family="sans-serif" font-size="14" lengthAdjust="spacing" textLength="40.5303" x="42" y="1063.6045">Client</text><rect fill="#E2E2F0" height="30.2969" rx="2.5" ry="2.5" style="stroke:#181818;stroke-width:0.5;" width="133.335" x="417.8486" y="25.1328"/><text fill="#000000" font-family="sans-serif" font-size="14" lengthAdjust="spacing" textLength="119.335" x="424.8486" y="45.1279">autorisatieserver</text><rect fill="#E2E2F0" height="30.2969" rx="2.5" ry="2.5" style="stroke:#181818;stroke-width:0.5;" width="133.335" x="417.8486" y="1043.6094"/><text fill="#000000" font-family="sans-serif" font-size="14" lengthAdjust="spacing" textLength="119.335" x="424.8486" y="1063.6045">autorisatieserver</text><rect fill="#E2E2F0" height="30.2969" rx="2.5" ry="2.5" style="stroke:#181818;stroke-width:0.5;" width="39.7305" x="901.9019" y="25.1328"/><text fill="#000000" font-family="sans-serif" font-size="14" lengthAdjust="spacing" textLength="25.7305" x="908.9019" y="45.1279">PEP</text><rect fill="#E2E2F0" height="30.2969" rx="2.5" ry="2.5" style="stroke:#181818;stroke-width:0.5;" width="39.7305" x="901.9019" y="1043.6094"/><text fill="#000000" font-family="sans-serif" font-size="14" lengthAdjust="spacing" textLength="25.7305" x="908.9019" y="1063.6045">PEP</text><rect fill="#E2E2F0" height="30.2969" rx="2.5" ry="2.5" style="stroke:#181818;stroke-width:0.5;" width="41.665" x="1323.1855" y="25.1328"/><text fill="#000000" font-family="sans-serif" font-size="14" lengthAdjust="spacing" textLength="27.665" x="1330.1855" y="45.1279">PDP</text><rect fill="#E2E2F0" height="30.2969" rx="2.5" ry="2.5" style="stroke:#181818;stroke-width:0.5;" width="41.665" x="1323.1855" y="1043.6094"/><text fill="#000000" font-family="sans-serif" font-size="14" lengthAdjust="spacing" textLength="27.665" x="1330.1855" y="1063.6045">PDP</text><rect fill="#E2E2F0" height="30.2969" rx="2.5" ry="2.5" style="stroke:#181818;stroke-width:0.5;" width="130.1016" x="1526.8525" y="25.1328"/><text fill="#000000" font-family="sans-serif" font-size="14" lengthAdjust="spacing" textLength="116.1016" x="1533.8525" y="45.1279">Resource-Server</text><rect fill="#E2E2F0" height="30.2969" rx="2.5" ry="2.5" style="stroke:#181818;stroke-width:0.5;" width="130.1016" x="1526.8525" y="1043.6094"/><text fill="#000000" font-family="sans-serif" font-size="14" lengthAdjust="spacing" textLength="116.1016" x="1533.8525" y="1063.6045">Resource-Server</text><rect fill="#FFFFFF" height="430.3906" style="stroke:#181818;stroke-width:1;" width="10" x="57.2651" y="66.4297"/><rect fill="#FFFFFF" height="440.125" style="stroke:#181818;stroke-width:1;" width="10" x="57.2651" y="586.4844"/><rect fill="#FFFFFF" height="318.4609" style="stroke:#181818;stroke-width:1;" width="10" x="479.5161" y="178.3594"/><rect fill="#D3D3D3" height="157.6641" style="stroke:#181818;stroke-width:1;" width="10" x="484.5161" y="303.0234"/><rect fill="#A9A9A9" height="28" style="stroke:#181818;stroke-width:1;" width="10" x="489.5161" y="432.6875"/><rect fill="#FFFFFF" height="440.125" style="stroke:#181818;stroke-width:1;" width="10" x="916.7671" y="586.4844"/><rect fill="#D3D3D3" height="113.3984" style="stroke:#181818;stroke-width:1;" width="10" x="921.7671" y="780.4141"/><rect fill="#FFFFFF" height="113.3984" style="stroke:#181818;stroke-width:1;" width="10" x="1339.0181" y="780.4141"/><rect fill="#FFFFFF" height="29.1328" style="stroke:#181818;stroke-width:1;" width="10" x="1586.9033" y="968.3438"/><polygon fill="#181818" points="467.5161,174.3594,477.5161,178.3594,467.5161,182.3594,471.5161,178.3594" style="stroke:#181818;stroke-width:1;"/><line style="stroke:#181818;stroke-width:1;" x1="67.2651" x2="473.5161" y1="178.3594" y2="178.3594"/><text fill="#000000" font-family="sans-serif" font-size="13" font-weight="bold" lengthAdjust="spacing" textLength="39.019" x="74.2651" y="127.895">[001]</text><text fill="#000000" font-family="sans-serif" font-size="13" font-weight="bold" lengthAdjust="spacing" textLength="194.7144" x="117.2842" y="82.4966">Aanvragen van autorisatie</text><text fill="#000000" font-family="sans-serif" font-size="13" lengthAdjust="spacing" textLength="222.8662" x="117.2842" y="97.6294">"scope": "registers/resource:read"</text><text fill="#000000" font-family="sans-serif" font-size="13" lengthAdjust="spacing" textLength="90.0415" x="117.2842" y="112.7622">"audience":"{</text><text fill="#000000" font-family="sans-serif" font-size="13" font-style="italic" lengthAdjust="spacing" textLength="132.5645" x="207.3257" y="112.7622">URL resource-server</text><text fill="#000000" font-family="sans-serif" font-size="13" lengthAdjust="spacing" textLength="14.2505" x="339.8901" y="112.7622">}"</text><text fill="#000000" font-family="sans-serif" font-size="13" lengthAdjust="spacing" textLength="131.625" x="121.4165" y="127.895">Authenticatiemiddel</text><text fill="#FF0000" font-family="sans-serif" font-size="13" lengthAdjust="spacing" textLength="350.2319" x="117.2842" y="143.0278">X-B3-TraceId: 463ac35c9f6413ad48485a3953bb6124</text><text fill="#FF0000" font-family="sans-serif" font-size="13" lengthAdjust="spacing" textLength="216.4551" x="117.2842" y="158.1606">X-B3-SpanId: a2fb4a1d1a96d312</text><text fill="#000000" font-family="sans-serif" font-size="13" lengthAdjust="spacing" textLength="4.1323" x="117.2842" y="173.2935">&#160;</text><line style="stroke:#181818;stroke-width:1;" x1="489.5161" x2="531.5161" y1="207.4922" y2="207.4922"/><line style="stroke:#181818;stroke-width:1;" x1="531.5161" x2="531.5161" y1="207.4922" y2="220.4922"/><line style="stroke:#181818;stroke-width:1;" x1="490.5161" x2="531.5161" y1="220.4922" y2="220.4922"/><polygon fill="#181818" points="500.5161,216.4922,490.5161,220.4922,500.5161,224.4922,496.5161,220.4922" style="stroke:#181818;stroke-width:1;"/><text fill="#000000" font-family="sans-serif" font-size="13" font-weight="bold" lengthAdjust="spacing" textLength="39.019" x="496.5161" y="202.4263">[002]</text><text fill="#000000" font-family="sans-serif" font-size="13" lengthAdjust="spacing" textLength="189.4331" x="539.5352" y="202.4263">Valideer Authenticatiemiddel</text><line style="stroke:#181818;stroke-width:1;" x1="489.5161" x2="536.5161" y1="290.0234" y2="290.0234"/><line style="stroke:#181818;stroke-width:1;" x1="536.5161" x2="536.5161" y1="290.0234" y2="303.0234"/><line style="stroke:#181818;stroke-width:1;" x1="495.5161" x2="536.5161" y1="303.0234" y2="303.0234"/><polygon fill="#181818" points="505.5161,299.0234,495.5161,303.0234,505.5161,307.0234,501.5161,303.0234" style="stroke:#181818;stroke-width:1;"/><text fill="#000000" font-family="sans-serif" font-size="13" font-weight="bold" lengthAdjust="spacing" textLength="39.019" x="501.5161" y="262.2583">[003]</text><text fill="#000000" font-family="sans-serif" font-size="13" lengthAdjust="spacing" textLength="207.1558" x="544.5352" y="239.5591">Run Rule-engine o.b.v. scope(s)</text><text fill="#FF0000" font-family="sans-serif" font-size="13" lengthAdjust="spacing" textLength="350.2319" x="544.5352" y="254.6919">X-B3-TraceId: 463ac35c9f6413ad48485a3953bb6124</text><text fill="#FF0000" font-family="sans-serif" font-size="13" lengthAdjust="spacing" textLength="215.4268" x="544.5352" y="269.8247">X-B3-SpanId: 34cfd3ee730bbe13</text><text fill="#FF0000" font-family="sans-serif" font-size="13" lengthAdjust="spacing" textLength="258.9399" x="544.5352" y="284.9575">X-B3-ParentSpanId: a2fb4a1d1a96d312</text><line style="stroke:#181818;stroke-width:1;" x1="494.5161" x2="536.5161" y1="337.1563" y2="337.1563"/><line style="stroke:#181818;stroke-width:1;" x1="536.5161" x2="536.5161" y1="337.1563" y2="350.1563"/><line style="stroke:#181818;stroke-width:1;" x1="495.5161" x2="536.5161" y1="350.1563" y2="350.1563"/><polygon fill="#181818" points="505.5161,346.1563,495.5161,350.1563,505.5161,354.1563,501.5161,350.1563" style="stroke:#181818;stroke-width:1;"/><text fill="#000000" font-family="sans-serif" font-size="13" font-weight="bold" lengthAdjust="spacing" textLength="39.019" x="501.5161" y="332.0903">[004]</text><text fill="#000000" font-family="sans-serif" font-size="13" lengthAdjust="spacing" textLength="127.4673" x="544.5352" y="332.0903">Valideer autorisatie</text><line style="stroke:#181818;stroke-width:1;" x1="499.5161" x2="541.5161" y1="424.6875" y2="424.6875"/><line style="stroke:#181818;stroke-width:1;" x1="541.5161" x2="541.5161" y1="424.6875" y2="437.6875"/><line style="stroke:#181818;stroke-width:1;" x1="500.5161" x2="541.5161" y1="437.6875" y2="437.6875"/><polygon fill="#181818" points="510.5161,433.6875,500.5161,437.6875,510.5161,441.6875,506.5161,437.6875" style="stroke:#181818;stroke-width:1;"/><text fill="#000000" font-family="sans-serif" font-size="13" font-weight="bold" lengthAdjust="spacing" textLength="39.019" x="506.5161" y="396.9224">[005]</text><text fill="#000000" font-family="sans-serif" font-size="13" lengthAdjust="spacing" textLength="154.21" x="549.5352" y="374.2231">Genereer Access-Token</text><text fill="#FF0000" font-family="sans-serif" font-size="13" lengthAdjust="spacing" textLength="350.2319" x="549.5352" y="389.356">X-B3-TraceId: 463ac35c9f6413ad48485a3953bb6124</text><text fill="#FF0000" font-family="sans-serif" font-size="13" lengthAdjust="spacing" textLength="215.4268" x="549.5352" y="404.4888">X-B3-SpanId: 34cfd3ee730bbe13</text><text fill="#FF0000" font-family="sans-serif" font-size="13" lengthAdjust="spacing" textLength="258.9399" x="549.5352" y="419.6216">X-B3-ParentSpanId: a2fb4a1d1a96d312</text><polygon fill="#181818" points="73.2651,492.8203,63.2651,496.8203,73.2651,500.8203,69.2651,496.8203" style="stroke:#181818;stroke-width:1;"/><line style="stroke:#181818;stroke-width:1;stroke-dasharray:2.0,2.0;" x1="67.2651" x2="483.5161" y1="496.8203" y2="496.8203"/><text fill="#000000" font-family="sans-serif" font-size="13" font-weight="bold" lengthAdjust="spacing" textLength="39.019" x="79.2651" y="491.7544">[006]</text><text fill="#000000" font-family="sans-serif" font-size="13" lengthAdjust="spacing" textLength="224.085" x="122.2842" y="491.7544">200 Response (JWT Access-Token)</text><polygon fill="#181818" points="904.7671,582.4844,914.7671,586.4844,904.7671,590.4844,908.7671,586.4844" style="stroke:#181818;stroke-width:1;"/><line style="stroke:#181818;stroke-width:1;" x1="67.2651" x2="910.7671" y1="586.4844" y2="586.4844"/><text fill="#000000" font-family="sans-serif" font-size="13" font-weight="bold" lengthAdjust="spacing" textLength="39.019" x="74.2651" y="551.1528">[007]</text><text fill="#000000" font-family="sans-serif" font-size="13" font-weight="bold" lengthAdjust="spacing" textLength="112.2837" x="117.2842" y="520.8872">GraphQL Query</text><text fill="#000000" font-family="sans-serif" font-size="13" lengthAdjust="spacing" textLength="327.2915" x="117.2842" y="536.02">Authenticatiemiddel + JWT Access-Token + Query</text><text fill="#FF0000" font-family="sans-serif" font-size="13" lengthAdjust="spacing" textLength="350.2319" x="117.2842" y="551.1528">X-B3-TraceId: 463ac35c9f6413ad48485a3953bb6124</text><text fill="#FF0000" font-family="sans-serif" font-size="13" lengthAdjust="spacing" textLength="216.7725" x="117.2842" y="566.2856">X-B3-SpanId: 2edb09379a27bfb1</text><text fill="#000000" font-family="sans-serif" font-size="13" lengthAdjust="spacing" textLength="4.1323" x="117.2842" y="581.4185">&#160;</text><path d="M931,599.4844 L931,624.4844 L1109,624.4844 L1109,609.4844 L1099,599.4844 L931,599.4844 " fill="#FEFFDD" style="stroke:#181818;stroke-width:0.5;"/><path d="M1099,599.4844 L1099,609.4844 L1109,609.4844 L1099,599.4844 " fill="#FEFFDD" style="stroke:#181818;stroke-width:0.5;"/><text fill="#000000" font-family="sans-serif" font-size="13" lengthAdjust="spacing" textLength="157.5044" x="937" y="616.5513">Inline request validation</text><line style="stroke:#181818;stroke-width:1;" x1="926.7671" x2="968.7671" y1="650.75" y2="650.75"/><line style="stroke:#181818;stroke-width:1;" x1="968.7671" x2="968.7671" y1="650.75" y2="663.75"/><line style="stroke:#181818;stroke-width:1;" x1="927.7671" x2="968.7671" y1="663.75" y2="663.75"/><polygon fill="#181818" points="937.7671,659.75,927.7671,663.75,937.7671,667.75,933.7671,663.75" style="stroke:#181818;stroke-width:1;"/><text fill="#000000" font-family="sans-serif" font-size="13" font-weight="bold" lengthAdjust="spacing" textLength="39.019" x="933.7671" y="645.6841">[008]</text><text fill="#000000" font-family="sans-serif" font-size="13" lengthAdjust="spacing" textLength="189.4331" x="976.7861" y="645.6841">Valideer Authenticatiemiddel</text><line style="stroke:#181818;stroke-width:1;" x1="926.7671" x2="968.7671" y1="692.8828" y2="692.8828"/><line style="stroke:#181818;stroke-width:1;" x1="968.7671" x2="968.7671" y1="692.8828" y2="705.8828"/><line style="stroke:#181818;stroke-width:1;" x1="927.7671" x2="968.7671" y1="705.8828" y2="705.8828"/><polygon fill="#181818" points="937.7671,701.8828,927.7671,705.8828,937.7671,709.8828,933.7671,705.8828" style="stroke:#181818;stroke-width:1;"/><text fill="#000000" font-family="sans-serif" font-size="13" font-weight="bold" lengthAdjust="spacing" textLength="39.019" x="933.7671" y="687.8169">[009]</text><text fill="#000000" font-family="sans-serif" font-size="13" lengthAdjust="spacing" textLength="175.6523" x="976.7861" y="687.8169">Valideer JWT Access-Token</text><polygon fill="#181818" points="1327.0181,776.4141,1337.0181,780.4141,1327.0181,784.4141,1331.0181,780.4141" style="stroke:#181818;stroke-width:1;"/><line style="stroke:#181818;stroke-width:1;" x1="931.7671" x2="1333.0181" y1="780.4141" y2="780.4141"/><text fill="#000000" font-family="sans-serif" font-size="13" font-weight="bold" lengthAdjust="spacing" textLength="39.019" x="938.7671" y="752.6489">[010]</text><text fill="#000000" font-family="sans-serif" font-size="13" lengthAdjust="spacing" textLength="258.0576" x="981.7861" y="729.9497">Valideer GraphQL request met scope(s)</text><text fill="#FF0000" font-family="sans-serif" font-size="13" lengthAdjust="spacing" textLength="350.2319" x="981.7861" y="745.0825">X-B3-TraceId: 463ac35c9f6413ad48485a3953bb6124</text><text fill="#FF0000" font-family="sans-serif" font-size="13" lengthAdjust="spacing" textLength="217.3882" x="981.7861" y="760.2153">X-B3-SpanId: 58b43298123fb234</text><text fill="#FF0000" font-family="sans-serif" font-size="13" lengthAdjust="spacing" textLength="259.2573" x="981.7861" y="775.3481">X-B3-ParentSpanId: 2edb09379a27bfb1</text><line style="stroke:#181818;stroke-width:1;" x1="1349.0181" x2="1391.0181" y1="809.5469" y2="809.5469"/><line style="stroke:#181818;stroke-width:1;" x1="1391.0181" x2="1391.0181" y1="809.5469" y2="822.5469"/><line style="stroke:#181818;stroke-width:1;" x1="1350.0181" x2="1391.0181" y1="822.5469" y2="822.5469"/><polygon fill="#181818" points="1360.0181,818.5469,1350.0181,822.5469,1360.0181,826.5469,1356.0181,822.5469" style="stroke:#181818;stroke-width:1;"/><text fill="#000000" font-family="sans-serif" font-size="13" font-weight="bold" lengthAdjust="spacing" textLength="39.019" x="1356.0181" y="804.481">[011]</text><text fill="#000000" font-family="sans-serif" font-size="13" lengthAdjust="spacing" textLength="115.1592" x="1399.0371" y="804.481">Valideer GraphQL</text><line style="stroke:#181818;stroke-width:1;" x1="1349.0181" x2="1391.0181" y1="851.6797" y2="851.6797"/><line style="stroke:#181818;stroke-width:1;" x1="1391.0181" x2="1391.0181" y1="851.6797" y2="864.6797"/><line style="stroke:#181818;stroke-width:1;" x1="1350.0181" x2="1391.0181" y1="864.6797" y2="864.6797"/><polygon fill="#181818" points="1360.0181,860.6797,1350.0181,864.6797,1360.0181,868.6797,1356.0181,864.6797" style="stroke:#181818;stroke-width:1;"/><text fill="#000000" font-family="sans-serif" font-size="13" font-weight="bold" lengthAdjust="spacing" textLength="39.019" x="1356.0181" y="846.6138">[012]</text><text fill="#000000" font-family="sans-serif" font-size="13" lengthAdjust="spacing" textLength="170.8662" x="1399.0371" y="846.6138">Verify context information</text><polygon fill="#181818" points="937.7671,889.8125,927.7671,893.8125,937.7671,897.8125,933.7671,893.8125" style="stroke:#181818;stroke-width:1;"/><line style="stroke:#181818;stroke-width:1;" x1="931.7671" x2="1343.0181" y1="893.8125" y2="893.8125"/><text fill="#000000" font-family="sans-serif" font-size="13" font-weight="bold" lengthAdjust="spacing" textLength="39.019" x="943.7671" y="888.7466">[013]</text><text fill="#000000" font-family="sans-serif" font-size="13" lengthAdjust="spacing" textLength="93.666" x="986.7861" y="888.7466">Query allowed</text><polygon fill="#181818" points="1574.9033,964.3438,1584.9033,968.3438,1574.9033,972.3438,1578.9033,968.3438" style="stroke:#181818;stroke-width:1;"/><line style="stroke:#181818;stroke-width:1;" x1="926.7671" x2="1580.9033" y1="968.3438" y2="968.3438"/><text fill="#000000" font-family="sans-serif" font-size="13" font-weight="bold" lengthAdjust="spacing" textLength="39.019" x="933.7671" y="940.5786">[014]</text><text fill="#000000" font-family="sans-serif" font-size="13" lengthAdjust="spacing" textLength="114.8735" x="976.7861" y="917.8794">GraphQL Request</text><text fill="#FF0000" font-family="sans-serif" font-size="13" lengthAdjust="spacing" textLength="350.2319" x="976.7861" y="933.0122">X-B3-TraceId: 463ac35c9f6413ad48485a3953bb6124</text><text fill="#FF0000" font-family="sans-serif" font-size="13" lengthAdjust="spacing" textLength="215.998" x="976.7861" y="948.145">X-B3-SpanId: 75c38117346fa472</text><text fill="#FF0000" font-family="sans-serif" font-size="13" lengthAdjust="spacing" textLength="259.2573" x="976.7861" y="963.2778">X-B3-ParentSpanId: 2edb09379a27bfb1</text><polygon fill="#181818" points="937.7671,993.4766,927.7671,997.4766,937.7671,1001.4766,933.7671,997.4766" style="stroke:#181818;stroke-width:1;"/><line style="stroke:#181818;stroke-width:1;stroke-dasharray:2.0,2.0;" x1="931.7671" x2="1590.9033" y1="997.4766" y2="997.4766"/><text fill="#000000" font-family="sans-serif" font-size="13" font-weight="bold" lengthAdjust="spacing" textLength="39.019" x="943.7671" y="992.4106">[015]</text><text fill="#000000" font-family="sans-serif" font-size="13" lengthAdjust="spacing" textLength="163.5918" x="986.7861" y="992.4106">200 Response (GraphQL)</text><polygon fill="#181818" points="73.2651,1022.6094,63.2651,1026.6094,73.2651,1030.6094,69.2651,1026.6094" style="stroke:#181818;stroke-width:1;"/><line style="stroke:#181818;stroke-width:1;stroke-dasharray:2.0,2.0;" x1="67.2651" x2="920.7671" y1="1026.6094" y2="1026.6094"/><text fill="#000000" font-family="sans-serif" font-size="13" font-weight="bold" lengthAdjust="spacing" textLength="39.019" x="79.2651" y="1021.5435">[016]</text><text fill="#000000" font-family="sans-serif" font-size="13" lengthAdjust="spacing" textLength="163.5918" x="122.2842" y="1021.5435">200 Response (GraphQL)</text><!--SRC=[rPPjRvim4CVVvrFSs8kjcMW0aqTrbTfbgZfLKvfs3zAw5mOVAGgnCsFIXsdVVOQ4X03feacTDAGeOD-Txtvd_-4Ll9XBEfbHK2WUGSa46z28fo6VKqbdCA9IXNuufroDA6CXdu1Z5UPFnNq-RblQqnFtO0mH8uupb4O3z3NVn03ZNHGYLmRG69Qt3UGCj5lkpC-7y17L7Sffh32ACQg9GXCbP1XJ5MACSg5NIWEU9EhsyIfxhhgCteyo8_rVCpbSJGv7vNp6E0br8dMrZ34MYVJHlDhaa8-jqjW4IrFcoSn32SQHT_pDigplHeFwAbnGXJcCT8tbBPZ7nO86q6oUKBxGpK8E2ygXmA3PlE56x8iv6WCmv2hZk2LNoGmaKcPe6vem7TlNPiRFLklJ-09o4tF9iTNwfUsoXNKEePz6duMCONJ3ZmAXq_959EHRYUpugtbAp6j9VJnd0t0xXFgaxVU3ZciJojoUssjJqcyJp-lOZhl3_qgZJDsf4tWkjPbD-nr6RATgdh5PyohtEhqAOnLwdsaKCjGJDQNj5M2SSFsBq4G-2Jc2EFGE5uUGKNyT7pmp7kBw0IE8NM9v7jfaXxa-hhgsNKpNTTPHX9SNuUHMdKdwiBRR6sfXB-xjV8OSPTOHtySuDg_55Fb_XN4toY6Lqmf9Xa_ktZzCRw7KB7ELC0TQaQrKT-Q2nmYlFtovta9wq7WYUc4uLw36Hd-qLgQweokPtrvUm6M2yY7Lcfep16-WlB0UoZoUkQSECi_gaswVEbqlyEmwvTZeR2h_NEWRcUvs4C6oo7CUfOTQuey4OwNrLMziNPpW5ONMvciqJufAhM6PqTfgMBJAWUVfp53zAw5fzpoNEFsUxP30SuYxrmafjs0BTrbODdF3vPjO_-z4K3L06GOFEXsky5v1o0CXPyjE5KrJwDdc0nf5uWvP-H2aYnSVzRPOjMBx3JvODsEyRCOpy- -sVTApxIvnEm5rkyxVyOVYbYzzaa1ZUo1JampOjewiwZueOgg4ofYjrMYV4DdtLrLtVWC0]--></g></svg>